<?xml version="1.0" standalone="no"?>
<!DOCTYPE svg PUBLIC "-//W3C//DTD SVG 1.1//EN" "http://www.w3.org/Graphics/SVG/1.1/DTD/svg11.dtd" >
<svg xmlns="http://www.w3.org/2000/svg" xmlns:xlink="http://www.w3.org/1999/xlink" version="1.1">
<metadata>
Created by FontForge 20170731 at Mon Aug 24 15:07:39 2020
 By Aleksey,,,
Copyright (c) 2009 by Jos Buivenga. All rights reserved.
</metadata>
<defs>
<font id="MuseoSlab-500" horiz-adv-x="1136" >
  <font-face 
    font-family="Museo Slab 500"
    font-weight="400"
    font-stretch="normal"
    units-per-em="2048"
    panose-1="2 0 0 0 0 0 0 0 0 0"
    ascent="1638"
    descent="-410"
    x-height="1036"
    cap-height="1446"
    bbox="-268 -461 2228 1847"
    underline-thickness="102"
    underline-position="-307"
    unicode-range="U+0020-FB04"
  />
<missing-glyph horiz-adv-x="1044" 
d="M10 0v1434h1024v-1434h-1024zM522 809l348 522h-696zM584 717l348 -522v1044zM113 195l348 522l-348 522v-1044zM174 102h696l-348 523z" />
    <glyph glyph-name="f_f" unicode="ff" horiz-adv-x="1472" 
d="M98 0v154h162v729h-172v153h172v51q0 95 27.5 166t67.5 109t94.5 61.5t97 30t86.5 6.5q24 0 47.5 -1.5t35.5 -2.5l11 -2v-164q-27 6 -74 6q-24 0 -46 -3t-50.5 -15.5t-48.5 -33t-34.5 -60t-14.5 -92.5v-56h506v51q0 95 27.5 166t66.5 109t93 61.5t96.5 30t86.5 6.5
q25 0 49.5 -1.5t35.5 -2.5l12 -2v-164q-27 6 -76 6q-23 0 -44.5 -3t-50 -15.5t-49 -33t-35 -60t-14.5 -92.5v-56h250v-153h-250v-729h191v-154h-553v154h164v729h-506v-729h190v-154h-551z" />
    <glyph glyph-name="fi" unicode="fi" horiz-adv-x="1388" 
d="M98 0v154h162v729h-172v153h172v51q0 95 27.5 166t67.5 109t94.5 61.5t97 30t86.5 6.5q24 0 47.5 -1.5t35.5 -2.5l11 -2v-164q-27 6 -74 6q-24 0 -46 -3t-50.5 -15.5t-48.5 -33t-34.5 -60t-14.5 -92.5v-56h704v-882h162v-154h-524v154h164v729h-506v-729h190v-154h-551z
M958 1243v203h209v-203h-209z" />
    <glyph glyph-name="fl" unicode="fl" horiz-adv-x="1351" 
d="M98 0v154h162v729h-172v153h172v31q0 93 28 166t74 118.5t110 75t130 41t139 11.5q96 0 192 -13t143 -26l48 -13v-1120q0 -74 23.5 -110.5t93.5 -36.5l47 2v-164q-41 -4 -88 -4q-60 0 -106.5 13.5t-86 45.5t-60.5 93t-21 149v1005q-66 21 -191 21q-56 0 -103 -13
t-87 -40.5t-63 -77t-23 -117.5v-37h250v-153h-250v-729h190v-154h-551z" />
    <glyph glyph-name="f_f_i" unicode="ffi" horiz-adv-x="2091" 
d="M98 0v154h162v729h-172v153h172v51q0 95 27.5 166t67.5 109t94.5 61.5t97 30t86.5 6.5q24 0 47.5 -1.5t35.5 -2.5l11 -2v-164q-27 6 -74 6q-24 0 -46 -3t-50.5 -15.5t-48.5 -33t-34.5 -60t-14.5 -92.5v-56h506v51q0 95 27.5 166t66.5 109t93 61.5t96.5 30t86.5 6.5
q25 0 49.5 -1.5t35.5 -2.5l12 -2v-164q-27 6 -76 6q-23 0 -44.5 -3t-50 -15.5t-49 -33t-35 -60t-14.5 -92.5v-56h703v-882h164v-154h-525v154h164v729h-506v-729h191v-154h-553v154h164v729h-506v-729h190v-154h-551zM1663 1243v203h209v-203h-209z" />
    <glyph glyph-name="f_f_l" unicode="ffl" horiz-adv-x="2054" 
d="M98 0v154h162v729h-172v153h172v51q0 80 18.5 143t51 102t70 66t82.5 39.5t80.5 17.5t72.5 5q24 0 47 -1.5t34 -2.5l11 -2v-164q-27 6 -72 6q-196 0 -196 -204v-56h506v31q0 93 28 166t74 118.5t109.5 75t129.5 41t140 11.5q96 0 191.5 -13t142.5 -26l47 -13v-1120
q0 -74 24.5 -110.5t94.5 -36.5l47 2l-2 -164q-39 -4 -86 -4q-60 0 -107 13.5t-87 45.5t-61.5 93t-21.5 149v1005q-63 21 -188 21q-57 0 -104.5 -13t-87.5 -40.5t-62.5 -77t-22.5 -117.5v-37h250v-153h-250v-729h191v-154h-553v154h164v729h-506v-729h190v-154h-551z" />
    <glyph glyph-name="f_j" unicode="fj" horiz-adv-x="1320" 
d="M98 0v154h162v729h-172v153h172v51q0 95 27.5 166t67.5 109t94.5 61.5t97 30t86.5 6.5q24 0 47.5 -1.5t35.5 -2.5l11 -2v-164q-27 6 -74 6q-24 0 -46 -3t-50.5 -15.5t-48.5 -33t-34.5 -60t-14.5 -92.5v-56h694v-1067q0 -71 -15.5 -130t-40.5 -99t-60 -70t-70.5 -47
t-76 -27.5t-71.5 -14t-63 -3.5l-70 4v162q18 -2 45 -2q28 0 53.5 4t58 18.5t56 38.5t39.5 68.5t16 103.5v908h-495v-729h190v-154h-551zM950 1243v203h205v-203h-205z" />
    <glyph glyph-name=".notdef" horiz-adv-x="1044" 
d="M10 0v1434h1024v-1434h-1024zM522 809l348 522h-696zM584 717l348 -522v1044zM113 195l348 522l-348 522v-1044zM174 102h696l-348 523z" />
    <glyph glyph-name=".null" horiz-adv-x="0" 
 />
    <glyph glyph-name="nonmarkingreturn" horiz-adv-x="682" 
 />
    <glyph glyph-name="space" unicode=" " horiz-adv-x="512" 
 />
    <glyph glyph-name="exclam" unicode="!" horiz-adv-x="505" 
d="M164 397l-14 1049h204l-12 -1049h-178zM152 0v201h204v-201h-204z" />
    <glyph glyph-name="quotedbl" unicode="&#x22;" horiz-adv-x="704" 
d="M418 1036v434h155v-434h-155zM131 1036v434h156v-434h-156z" />
    <glyph glyph-name="numbersign" unicode="#" horiz-adv-x="1468" 
d="M285 0l69 391h-268l25 152h268l61 344h-266l25 149h266l72 410h165l-71 -410h317l72 410h168l-72 -410h266l-24 -149h-268l-62 -344h266l-24 -152h-266l-68 -391h-168l70 391h-318l-69 -391h-166zM545 543h317l62 344h-318z" />
    <glyph glyph-name="dollar" unicode="$" horiz-adv-x="1112" 
d="M86 197l111 145q6 -6 18 -16.5t51 -37.5t79.5 -47.5t100.5 -37.5t119 -17q108 0 181 58t73 155q0 51 -30.5 92t-80 68t-113.5 55.5t-130 53t-130 60.5t-113.5 78t-80 106.5t-30.5 144.5q0 143 105.5 247.5t275.5 129.5v223h145v-221q64 -4 123.5 -20.5t99 -36.5
t69.5 -39.5t44 -32.5l14 -13l-88 -157q-6 5 -16.5 13.5t-44 30t-68.5 38t-86.5 30t-101.5 13.5q-120 0 -193.5 -57t-73.5 -144q0 -48 24.5 -87.5t65.5 -67t94 -51.5t112 -46.5t117.5 -46.5t111.5 -56.5t94 -71.5t65.5 -96t24.5 -126q0 -155 -105 -268.5t-282 -133.5v-219
h-145v219q-73 8 -142 30t-115 48t-81 51t-52 41z" />
    <glyph glyph-name="percent" unicode="%" horiz-adv-x="1536" 
d="M397 864q-129 0 -219 88.5t-90 214.5q0 125 90 214t219 89t220.5 -89t91.5 -214q0 -126 -91.5 -214.5t-220.5 -88.5zM119 0l1106 1446h192l-1106 -1446h-192zM397 1016q65 0 108.5 43.5t43.5 107.5t-44 109t-108 45t-107.5 -45t-43.5 -109q0 -65 43 -108t108 -43z
M829 279q0 125 91 214t221 89q127 0 218 -89t91 -214q0 -126 -90.5 -215t-218.5 -89q-130 0 -221 89t-91 215zM989 279q0 -65 43.5 -108.5t108.5 -43.5q63 0 107 44t44 108q0 63 -44 108t-107 45q-64 0 -108 -45t-44 -108z" />
    <glyph glyph-name="ampersand" unicode="&#x26;" horiz-adv-x="1382" 
d="M100 403q0 127 70.5 230.5t191.5 142.5v4q-8 3 -21.5 9t-48 31t-61 57t-48 91t-21.5 130q0 175 129.5 273.5t333.5 98.5q38 0 83 -5.5t71 -10.5l26 -6l-51 -162q-60 12 -109 12q-121 0 -198.5 -59t-77.5 -162q0 -40 11 -76.5t38 -73.5t83 -59t136 -22h307v201h199v-201
h190v-168h-190v-197q0 -239 -139 -372.5t-379 -133.5q-233 0 -379 122t-146 306zM307 420q0 -115 86 -188.5t232 -73.5q150 0 234.5 82t84.5 249v189h-317q-154 0 -237 -68.5t-83 -189.5z" />
    <glyph glyph-name="quotesingle" unicode="'" horiz-adv-x="419" 
d="M131 1036v434h158v-434h-158z" />
    <glyph glyph-name="parenleft" unicode="(" horiz-adv-x="643" 
d="M379 -195q-113 188 -175.5 418t-62.5 473q0 430 238 809h174q-231 -385 -231 -811q0 -476 231 -889h-174z" />
    <glyph glyph-name="parenright" unicode=")" horiz-adv-x="643" 
d="M90 -195q232 420 232 889q0 424 -232 811h174q238 -379 238 -809q0 -243 -62.5 -473t-175.5 -418h-174z" />
    <glyph glyph-name="asterisk" unicode="*" horiz-adv-x="980" 
d="M330 674l-148 106l183 226v4l-281 75l55 172l273 -102l-17 291h187l-17 -291l275 102l57 -172l-283 -75v-4l183 -226l-148 -106l-157 241h-5z" />
    <glyph glyph-name="plus" unicode="+" horiz-adv-x="1255" 
d="M86 504v160h459v503h168v-503h456v-160h-456v-504h-168v504h-459z" />
    <glyph glyph-name="comma" unicode="," horiz-adv-x="534" 
d="M41 -254l143 469h209l-194 -469h-158z" />
    <glyph glyph-name="hyphen" unicode="-" horiz-adv-x="974" 
d="M188 496v176h598v-176h-598z" />
    <glyph glyph-name="period" unicode="." horiz-adv-x="524" 
d="M156 0v215h213v-215h-213z" />
    <glyph glyph-name="slash" unicode="/" horiz-adv-x="868" 
d="M84 -86l522 1610h176l-522 -1610h-176z" />
    <glyph glyph-name="zero" unicode="0" horiz-adv-x="1269" 
d="M635 -25q-113 0 -201.5 38.5t-146.5 105t-95 162.5t-53 205t-16 239q0 129 16 237.5t53 204t95 161.5t146.5 104t201.5 38t201 -38t146 -104t95.5 -161.5t53.5 -204t16 -237.5q0 -130 -16 -239t-53.5 -205t-95.5 -162.5t-146 -105t-201 -38.5zM635 158q86 0 146.5 42.5
t94 122.5t48 178t14.5 224q0 125 -14.5 222.5t-48 177t-94 122.5t-146.5 43t-147 -43t-94 -123t-47.5 -177t-14.5 -222q0 -127 14.5 -224.5t47.5 -177.5t94 -122.5t147 -42.5z" />
    <glyph glyph-name="one" unicode="1" horiz-adv-x="980" 
d="M104 0v168h320v942l2 88h-4q-17 -31 -70 -82l-135 -133l-123 127l346 336h181v-1278h315v-168h-832z" />
    <glyph glyph-name="two" unicode="2" horiz-adv-x="1200" 
d="M111 0q-11 72 -11 111q0 83 24.5 156t66 129.5t95.5 107t114 93t119.5 83t113.5 81.5t95.5 83.5t66 94t24.5 108.5q0 111 -71.5 177t-188.5 66q-53 0 -103.5 -20t-84.5 -48t-60 -56t-39 -48l-12 -20l-143 98q3 6 8 15.5t25 38t43.5 54.5t63.5 57.5t84 54.5t105.5 38.5
t128.5 15.5q200 0 328.5 -114.5t128.5 -300.5q0 -94 -39 -176.5t-101.5 -143t-137.5 -115.5t-151 -105t-138.5 -100.5t-102 -113.5t-40.5 -133h589v192h179v-360h-979z" />
    <glyph glyph-name="three" unicode="3" horiz-adv-x="1167" 
d="M141 1094v352h883v-141l-383 -451q57 -6 112 -23t110 -50.5t96 -79t66.5 -113.5t25.5 -148q0 -93 -35.5 -177.5t-99 -148t-157.5 -101.5t-204 -38q-83 0 -162 20.5t-132 49.5t-94.5 57.5t-60.5 49.5l-20 20l107 145l17 -17t47 -38.5t74.5 -48.5t97 -38t116.5 -17
q124 0 210.5 78t86.5 196q0 125 -91.5 196.5t-228.5 71.5q-66 0 -86 -4l-47 107l352 424q10 13 24 26t23 20l9 7v4q-45 -6 -74 -6h-404v-184h-178z" />
    <glyph glyph-name="four" unicode="4" horiz-adv-x="1226" 
d="M53 387v127l670 932h229v-895h197v-164h-197v-387h-198v387h-701zM705 1133l-431 -578v-4h480v567q0 22 2.5 49.5t5.5 44.5l2 17h-6q-22 -51 -53 -96z" />
    <glyph glyph-name="five" unicode="5" horiz-adv-x="1155" 
d="M86 162l107 143q5 -6 14.5 -16t41.5 -35t67 -44.5t91 -35.5t115 -16q136 0 231 86t95 209q0 134 -89.5 216.5t-238.5 82.5q-68 0 -131.5 -18.5t-92.5 -37.5l-30 -18l-119 43l72 725h748v-352h-179v184h-393l-37 -346l-10 -58h4q9 5 25.5 12.5t70 20.5t109.5 13
q221 0 360.5 -131.5t139.5 -327.5q0 -134 -68 -245.5t-188.5 -176t-268.5 -64.5q-82 0 -158 19.5t-126 46.5t-88.5 54.5t-55.5 46.5z" />
    <glyph glyph-name="six" unicode="6" horiz-adv-x="1222" 
d="M655 -25q-238 0 -389 187t-151 489q0 118 24 232.5t76.5 221t128 187.5t186 129.5t242.5 48.5q74 0 143 -15t101 -29l33 -15l-64 -170q-10 5 -28.5 13.5t-73.5 22t-107 13.5q-96 0 -175.5 -42t-131.5 -113t-84.5 -156t-44.5 -180h4q47 62 137 99.5t191 37.5
q201 0 329.5 -136t128.5 -337q0 -214 -135 -351t-340 -137zM328 545q0 -86 40 -174t116.5 -150.5t168.5 -62.5q124 0 197.5 84.5t73.5 220.5q0 134 -82 218.5t-228 84.5q-120 0 -203 -66t-83 -155z" />
    <glyph glyph-name="seven" unicode="7" horiz-adv-x="1112" 
d="M211 0l598 1208q10 21 21.5 39t17.5 25l6 8v4q-37 -6 -84 -6h-510v-184h-178v352h991v-139l-653 -1307h-209z" />
    <glyph glyph-name="eight" unicode="8" horiz-adv-x="1228" 
d="M111 408q0 228 233 393q-176 117 -176 291q0 74 28.5 141t82.5 120.5t141.5 85t197.5 31.5q204 0 331.5 -104.5t127.5 -275.5q0 -69 -21.5 -137t-55.5 -119.5t-55 -77.5t-40 -45q207 -122 207 -314q0 -83 -35.5 -159.5t-99 -134.5t-157.5 -93t-204 -35q-217 0 -361 123.5
t-144 309.5zM369 1090q0 -30 9.5 -57.5t22.5 -48t39.5 -42t47.5 -35.5t60 -33t63.5 -29.5t71.5 -30t71 -30.5q125 147 125 283q0 106 -71 166.5t-190 60.5q-117 0 -183 -58t-66 -146zM315 428q0 -121 88 -197.5t211 -76.5q117 0 204 70t87 173q0 35 -10.5 64.5t-34 54.5
t-48 44t-67.5 40.5t-75.5 36t-89.5 38.5t-93 40q-29 -22 -46.5 -37.5t-52.5 -54.5t-54 -89t-19 -106z" />
    <glyph glyph-name="nine" unicode="9" horiz-adv-x="1222" 
d="M92 985q0 213 135.5 349t341.5 136q237 0 388 -186.5t151 -488.5q0 -117 -24 -231t-76.5 -221t-127.5 -188.5t-186 -130.5t-243 -49q-74 0 -143.5 15t-102.5 30l-33 15l64 172q10 -5 28.5 -13.5t73.5 -22t108 -13.5q97 0 177 42t132.5 113t85 156t44.5 180h-4
q-47 -59 -138 -95t-192 -36q-201 0 -330 134.5t-129 332.5zM301 985q0 -132 80.5 -214.5t222.5 -82.5q119 0 205 65.5t86 153.5q0 64 -25 132t-67.5 124t-104.5 91.5t-129 35.5q-122 0 -195 -86t-73 -219z" />
    <glyph glyph-name="colon" unicode=":" horiz-adv-x="610" 
d="M199 0v215h213v-215h-213zM199 821v215h213v-215h-213z" />
    <glyph glyph-name="semicolon" unicode=";" horiz-adv-x="612" 
d="M209 821v215h209v-215h-209zM88 -254l125 469h209l-174 -469h-160z" />
    <glyph glyph-name="less" unicode="&#x3c;" horiz-adv-x="1255" 
d="M119 516v135l954 426v-182l-731 -309v-4l731 -310v-182z" />
    <glyph glyph-name="equal" unicode="=" horiz-adv-x="1255" 
d="M139 696v160h977v-160h-977zM139 309v160h977v-160h-977z" />
    <glyph glyph-name="greater" unicode="&#x3e;" horiz-adv-x="1255" 
d="M180 90v182l733 310v4l-733 309v182l957 -426v-135z" />
    <glyph glyph-name="question" unicode="?" horiz-adv-x="960" 
d="M303 397v97q0 63 19 118t50 94.5t68 76t74 69.5t68 66.5t50 76t19 90.5q0 87 -66 145t-167 58q-57 0 -115.5 -21.5t-88.5 -42.5l-30 -22l-110 141q6 5 16 14t45.5 32t74 40t99.5 31.5t123 14.5q178 0 303 -104.5t125 -270.5q0 -69 -20 -127.5t-52 -100.5t-70.5 -79.5
t-77 -71.5t-70.5 -68.5t-52 -78t-20 -93.5v-84h-195zM297 0v201h207v-201h-207z" />
    <glyph glyph-name="at" unicode="@" horiz-adv-x="1611" 
d="M88 496q0 156 57 295t158 240.5t246 160.5t313 59q128 0 227.5 -34t159 -92.5t89.5 -131.5t30 -157v-580h148v-150h-560q-187 0 -305.5 114t-118.5 274q0 102 51.5 189t149.5 140.5t223 53.5h222q-2 89 -90 149.5t-232 60.5q-162 0 -293.5 -81.5t-203.5 -217.5t-72 -296
q0 -159 72 -292.5t206 -213.5t303 -80v-162q-168 0 -314 58.5t-248 159t-160 239t-58 295.5zM733 494q0 -98 68.5 -168t171.5 -70h205v483h-201q-106 0 -175 -71t-69 -174z" />
    <glyph glyph-name="A" unicode="A" horiz-adv-x="1476" 
d="M23 0v160h139l461 1286h231l461 -1286h139v-160h-502v160h154l-113 321h-512l-112 -321h155v-160h-501zM532 645h410l-176 502q-9 26 -15 53.5t-8 41.5l-2 15h-6q-6 -51 -24 -110z" />
    <glyph glyph-name="B" unicode="B" horiz-adv-x="1392" 
d="M109 0v160h180v1128h-180v158h657q160 0 254 -43q89 -40 144 -126t55 -200q0 -105 -48.5 -186.5t-134.5 -124.5v-4q114 -33 177 -128.5t63 -221.5q0 -138 -75 -241.5t-191 -143.5q-82 -27 -217 -27h-684zM494 838h303q97 0 155 61t58 160q0 64 -25 114t-70 76
q-59 29 -149 29h-272v-440zM494 168h307q80 0 129 20q63 26 100 89t37 145q0 113 -68 180.5t-182 67.5h-323v-502z" />
    <glyph glyph-name="C" unicode="C" horiz-adv-x="1523" 
d="M100 731q0 209 97.5 378.5t267 265t375.5 95.5q58 0 124.5 -8t144 -29t139 -52t102.5 -82t41 -115v-176h-191v112q0 45 -35.5 80.5t-91 54.5t-113.5 29t-112 10q-233 0 -385 -155.5t-152 -399.5q0 -255 156 -420t393 -165q45 0 100.5 8.5t117 26t102.5 53t41 82.5v112
h190v-176q0 -61 -39.5 -111t-100.5 -81.5t-138.5 -53t-148.5 -30.5t-136 -9q-160 0 -299.5 59t-237.5 160.5t-154.5 241t-56.5 295.5z" />
    <glyph glyph-name="D" unicode="D" horiz-adv-x="1595" 
d="M109 0v160h180v1128h-180v158h616q191 0 307 -35q210 -66 333.5 -247t123.5 -441t-121 -438t-336 -246q-118 -39 -305 -39h-618zM494 168h221q152 0 246 37q148 52 231.5 187t83.5 331q0 197 -83 333t-230 189q-91 33 -248 33h-221v-1110z" />
    <glyph glyph-name="E" unicode="E" horiz-adv-x="1294" 
d="M109 0v160h180v1128h-180v158h1046v-336h-178v168h-483v-465h512v-168h-512v-477h518v174h178v-342h-1081z" />
    <glyph glyph-name="F" unicode="F" horiz-adv-x="1181" 
d="M109 0v160h180v1128h-180v158h1001v-342h-178v166h-438v-479h499v-168h-499v-463h196v-160h-581z" />
    <glyph glyph-name="G" unicode="G" horiz-adv-x="1568" 
d="M100 727q0 159 55.5 296.5t154 236t240.5 154.5t308 56q97 0 194 -19t178.5 -54t132 -90.5t50.5 -120.5v-178h-188v106q0 57 -56 99.5t-136 61.5t-169 19q-251 0 -401 -155t-150 -406q0 -167 67.5 -298t195 -206t294.5 -75q55 0 116 9t125 28t105 56t41 87v190h-282v160
h471v-405q0 -64 -41 -117t-104 -86.5t-143.5 -57t-156.5 -33.5t-145 -10q-218 0 -391.5 98.5t-269 270t-95.5 383.5z" />
    <glyph glyph-name="H" unicode="H" horiz-adv-x="1736" 
d="M109 0v160h180v1128h-180v158h567v-158h-182v-481h749v481h-182v158h567v-158h-180v-1128h180v-160h-567v160h182v479h-749v-479h182v-160h-567z" />
    <glyph glyph-name="I" unicode="I" horiz-adv-x="782" 
d="M109 0v160h180v1128h-180v158h567v-158h-182v-1128h182v-160h-567z" />
    <glyph glyph-name="J" unicode="J" 
d="M49 403v84h199v-63q0 -115 55 -190.5t168 -75.5q96 0 157.5 64t61.5 202v864h-209v158h576v-158h-162v-876q0 -111 -36.5 -197.5t-98.5 -137.5t-136 -76.5t-155 -25.5q-64 0 -123.5 14.5t-114 47.5t-94.5 81.5t-64 121.5t-24 163z" />
    <glyph glyph-name="K" unicode="K" horiz-adv-x="1417" 
d="M109 0v160h180v1128h-180v158h542v-158h-157v-454h186l315 454h-133v158h490v-158h-140l-374 -522v-4q5 -2 12.5 -7t29.5 -29.5t40 -59.5l260 -453q17 -29 40.5 -41t61.5 -12h68v-160h-146q-60 0 -96.5 11.5t-58 33t-45.5 64.5l-279 499q-19 31 -44.5 44.5t-68.5 13.5
h-118v-506h178v-160h-563z" />
    <glyph glyph-name="L" unicode="L" horiz-adv-x="1236" 
d="M111 0v160h180v1118h-180v168h567v-168h-182v-1110h503v233h181v-401h-1069z" />
    <glyph glyph-name="M" unicode="M" horiz-adv-x="1961" 
d="M78 0v160h180l92 1128h-184v158h409l371 -881q10 -26 18.5 -52t11.5 -39l3 -13h4q10 45 33 104l370 881h410v-158h-184l92 -1128h180v-160h-557v160h174l-65 864q-1 20 0.5 50t3.5 50l2 19h-6q-17 -70 -33 -111l-332 -760h-180l-332 760q-7 18 -15.5 46t-13.5 46l-4 19
h-6q1 -8 2 -21.5t3 -45.5t1 -52l-65 -864h174v-160h-557z" />
    <glyph glyph-name="N" unicode="N" horiz-adv-x="1716" 
d="M109 0v160h180v1128h-180v158h383l710 -1036q11 -18 23.5 -44.5t18.5 -43.5l7 -17h6q-10 72 -10 117v866h-184v158h571v-158h-182v-1288h-201l-710 1036q-12 18 -24 44.5t-19 43.5l-6 17h-7q1 -8 3 -21t4.5 -44.5t1.5 -51.5v-864h186v-160h-571z" />
    <glyph glyph-name="O" unicode="O" horiz-adv-x="1683" 
d="M98 733q0 153 57.5 290t156.5 235t237 155t293 57q206 0 376.5 -97t268.5 -266t98 -374q0 -210 -98 -384t-268.5 -274t-376.5 -100q-155 0 -293 59t-237 160t-156.5 241.5t-57.5 297.5zM309 733q0 -160 71.5 -292.5t193.5 -207.5t268 -75q108 0 206 44.5t169 120.5
t113 183t42 227q0 155 -71 283t-192.5 201t-266.5 73q-146 0 -268 -73t-193.5 -201t-71.5 -283z" />
    <glyph glyph-name="P" unicode="P" horiz-adv-x="1337" 
d="M109 0v160h180v1128h-180v158h673q163 0 248 -39q113 -48 179.5 -157t66.5 -253q0 -152 -73.5 -266.5t-198.5 -157.5q-82 -30 -218 -30h-292v-383h182v-160h-567zM494 711h268q92 0 162 28q69 31 107 98t38 160q0 178 -129 246q-63 35 -176 35h-270v-567z" />
    <glyph glyph-name="Q" unicode="Q" horiz-adv-x="1689" 
d="M100 731q0 206 97 375.5t267.5 266.5t379.5 97q208 0 378.5 -94t268.5 -261.5t98 -373.5q0 -282 -174 -487l172 -164l-117 -127l-170 170q-194 -158 -458 -158q-206 0 -377 100.5t-268 274t-97 381.5zM311 731q0 -159 70.5 -291t193 -207t269.5 -75q83 0 168.5 28
t146.5 80l-213 211l117 125l211 -213q108 154 108 344q0 236 -155.5 396.5t-382.5 160.5q-225 0 -379 -160.5t-154 -398.5z" />
    <glyph glyph-name="R" unicode="R" horiz-adv-x="1437" 
d="M109 0v160h180v1128h-180v158h626q174 0 266 -31q118 -39 185 -135t67 -240q0 -156 -80 -262.5t-219 -142.5v-4q37 -21 62 -68l205 -356q17 -28 38.5 -37.5t61.5 -9.5h43v-160h-123q-89 0 -126 21t-75 88l-223 395q-29 47 -58 63.5t-93 16.5h-172v-424h178v-160h-563z
M494 752h290q120 0 191.5 73t71.5 199q0 171 -136 227q-70 27 -178 27h-239v-526z" />
    <glyph glyph-name="S" unicode="S" horiz-adv-x="1183" 
d="M109 434h188v-106q0 -77 85 -123.5t204 -46.5q128 0 207 58t79 163q0 56 -22.5 99t-76.5 77.5t-93 53t-123 50.5q-22 9 -33 13q-44 17 -72 28t-68 29.5t-66 36t-57 41.5t-50.5 51.5t-37.5 60.5t-26 74t-8 88q0 99 37.5 175t103 122t147 69t175.5 23q83 0 160.5 -15.5
t140 -44.5t100 -75.5t37.5 -103.5v-170h-190v100q0 59 -75.5 94t-172.5 35q-111 0 -182.5 -51t-71.5 -147q0 -23 3.5 -43t13.5 -38t18 -32.5t27 -29.5t30 -25t37.5 -23.5t39 -20t45 -19.5t45 -17.5t48.5 -18.5q59 -22 91.5 -35t84.5 -38t81.5 -46t65.5 -54t55 -68.5
t32.5 -84t13.5 -104.5q0 -133 -68 -230t-178 -143.5t-247 -46.5q-87 0 -170 19.5t-152.5 56.5t-112 97.5t-42.5 134.5v151z" />
    <glyph glyph-name="T" unicode="T" horiz-adv-x="1359" 
d="M395 0v160h183v1118h-340v-225h-179v393h1241v-393h-178v225h-340v-1118h183v-160h-570z" />
    <glyph glyph-name="U" unicode="U" horiz-adv-x="1632" 
d="M246 539v749h-183v158h570v-158h-182v-747q0 -148 55 -236q44 -70 125.5 -108.5t185.5 -38.5t185.5 39t125.5 112q56 94 56 234v745h-183v158h568v-158h-180v-749q0 -209 -101 -353q-72 -102 -196 -156.5t-275 -54.5q-153 0 -277 55.5t-198 155.5q-96 130 -96 353z" />
    <glyph glyph-name="V" unicode="V" horiz-adv-x="1462" 
d="M623 0l-457 1288h-141v158h516v-158h-160l324 -952q7 -23 13 -51t8 -45l3 -17h6q9 62 25 113l323 952h-159v158h516v-158h-144l-456 -1288h-217z" />
    <glyph glyph-name="W" unicode="W" horiz-adv-x="2066" 
d="M33 1288v158h514v-158h-172l225 -948l16 -109h7q8 58 20 109l303 1106h174l301 -1106q6 -23 11.5 -50t7.5 -43l2 -16h8q4 58 14 109l226 948h-172v158h516v-158h-140l-323 -1288h-234l-282 1026q-6 23 -11 51.5t-6 46.5l-2 17h-8q-4 -64 -18 -115l-283 -1026h-233
l-322 1288h-139z" />
    <glyph glyph-name="X" unicode="X" horiz-adv-x="1370" 
d="M61 0v160h136l372 571l-366 557h-133v158h503v-158h-153l239 -379l37 -57h4q12 26 35 57l232 379h-150v158h490v-158h-136l-374 -575l368 -553h138v-160h-504v160h151l-241 377l-37 59h-4q-1 0 -4.5 -7t-12 -22.5t-16.5 -29.5l-234 -377h152v-160h-492z" />
    <glyph glyph-name="Y" unicode="Y" horiz-adv-x="1331" 
d="M381 0v160h182v452l-405 676h-138v158h498v-158h-151l268 -454l29 -62h4q12 31 30 62l269 454h-150v158h494v-158h-137l-406 -676v-452h182v-160h-569z" />
    <glyph glyph-name="Z" unicode="Z" horiz-adv-x="1294" 
d="M111 0v135l745 1075q13 18 27.5 35.5t22.5 26.5l9 8v4q-40 -6 -81 -6h-535v-225h-178v393h1042v-133l-745 -1077q-13 -18 -28 -35.5t-24 -26.5l-8 -8v-4q41 6 82 6h566v233h178v-401h-1073z" />
    <glyph glyph-name="bracketleft" unicode="[" horiz-adv-x="636" 
d="M199 -195v1700h338v-149h-164v-1399h164v-152h-338z" />
    <glyph glyph-name="backslash" unicode="\" horiz-adv-x="866" 
d="M608 -86l-522 1610h176l520 -1610h-174z" />
    <glyph glyph-name="bracketright" unicode="]" horiz-adv-x="638" 
d="M100 -43h166v1399h-166v149h340v-1700h-340v152z" />
    <glyph glyph-name="asciicircum" unicode="^" horiz-adv-x="1255" 
d="M141 506l410 940h129l410 -940h-181l-295 721l-292 -721h-181z" />
    <glyph glyph-name="underscore" unicode="_" horiz-adv-x="1140" 
d="M20 0h1100v-160h-1100v160z" />
    <glyph glyph-name="grave" unicode="`" horiz-adv-x="1021" 
d="M539 1546l-254 260h229l211 -260h-186z" />
    <glyph glyph-name="a" unicode="a" 
d="M68 289q0 67 25 121.5t64 90t95.5 62t109 40.5t116 22t106 10t88.5 2h65v39q0 221 -221 221q-73 0 -147 -25t-112 -50l-38 -25l-80 141q6 5 17.5 13.5t51 29.5t82 37t108.5 29.5t134 13.5q198 0 301 -101.5t103 -297.5v-463q0 -45 45 -45h104v-154h-206q-129 0 -129 113
v14q0 18 2 35t4 25l2 8h-4q-4 -9 -11.5 -24t-36.5 -52.5t-64.5 -66.5t-97 -53t-132.5 -24q-90 0 -166 33t-127 106t-51 175zM268 305q0 -73 50.5 -124.5t136.5 -51.5q84 0 150.5 52t100 128t33.5 156v43h-51q-29 0 -53.5 -0.5t-70 -5t-81.5 -11.5t-78.5 -22.5t-70.5 -36
t-47 -53.5t-19 -74z" />
    <glyph glyph-name="b" unicode="b" horiz-adv-x="1247" 
d="M174 0v1292h-174v154h373v-479q0 -22 -1.5 -43.5t-3.5 -31.5l-1 -11h4q4 7 11.5 19.5t36.5 43.5t64 54.5t94.5 43t127.5 19.5q209 0 332.5 -149.5t123.5 -393.5q0 -245 -132.5 -394t-340.5 -149q-49 0 -93.5 10.5t-76.5 27t-59.5 36.5t-45 40.5t-30 37t-17.5 27.5l-6 10
h-4q6 -37 6 -82v-82h-188zM367 514q0 -96 31 -177t100 -135.5t164 -54.5q127 0 211.5 99t84.5 270q0 168 -81 269.5t-211 101.5q-60 0 -112 -21.5t-95 -65t-67.5 -117.5t-24.5 -169z" />
    <glyph glyph-name="c" unicode="c" horiz-adv-x="1132" 
d="M82 516q0 156 72.5 281t198 194.5t278.5 69.5q49 0 101.5 -7t107.5 -25t98 -44t70.5 -67.5t27.5 -92.5v-127h-176v72q0 55 -71.5 87t-151.5 32q-157 0 -254.5 -102t-97.5 -267q0 -171 104.5 -272t259.5 -101q165 0 324 128q3 2 4.5 3.5t3.5 2.5l76 -146q-24 -22 -56 -44
t-85.5 -51t-125.5 -47t-149 -18q-151 0 -277 64.5t-204 189.5t-78 287z" />
    <glyph glyph-name="d" unicode="d" horiz-adv-x="1288" 
d="M86 518q0 246 130 394.5t341 148.5q66 0 123.5 -18t92 -43.5t59.5 -51t35 -43.5l10 -18h4q-7 33 -7 78v327h-172v154h371v-1247q0 -45 45 -45h105v-154h-207q-129 0 -129 113v14q0 16 1.5 29.5t3.5 19.5l1 6h-4q-3 -8 -10.5 -22t-36.5 -50t-65 -63t-100 -49.5t-138 -22.5
q-207 0 -330 149.5t-123 393.5zM289 518q0 -167 81.5 -269t211.5 -102q126 0 212.5 93.5t86.5 275.5q0 98 -31 180.5t-99.5 136.5t-162.5 54q-129 0 -214 -98.5t-85 -270.5z" />
    <glyph glyph-name="e" unicode="e" 
d="M84 518q0 244 146.5 393.5t371.5 149.5q143 0 246.5 -66.5t153 -174.5t49.5 -245l-7 -75h-757q9 -165 111 -259t247 -94q50 0 100.5 12t86.5 29t64.5 34.5t43.5 29.5l14 12l82 -145q-6 -6 -18 -15.5t-52 -34.5t-84 -44t-112 -34.5t-137 -15.5q-160 0 -286 71.5
t-194.5 195t-68.5 276.5zM295 627h551q-4 131 -74.5 203.5t-173.5 72.5q-116 0 -199 -73.5t-104 -202.5z" />
    <glyph glyph-name="f" unicode="f" horiz-adv-x="768" 
d="M98 0v154h162v729h-172v153h172v51q0 95 27.5 166t67.5 109t94.5 61.5t97 30t86.5 6.5q24 0 47.5 -1.5t35.5 -2.5l11 -2v-164q-27 6 -74 6q-24 0 -46 -3t-50.5 -15.5t-48.5 -33t-34.5 -60t-14.5 -92.5v-56h250v-153h-250v-729h190v-154h-551z" />
    <glyph glyph-name="g" unicode="g" horiz-adv-x="1282" 
d="M248 -193q14 -8 39.5 -19.5t100.5 -30.5t144 -19q146 0 237 72t91 223v82l6 65h-4q-100 -168 -311 -168q-140 0 -246.5 70.5t-161.5 190.5t-55 270q0 149 52.5 265.5t157 184.5t245.5 68q110 0 203 -43t133 -127h4q-4 14 -4 41q0 51 28 77.5t90 26.5h222v-153h-115
q-45 0 -45 -41v-799q0 -123 -44 -217t-119.5 -148.5t-166 -81t-192.5 -26.5q-183 0 -355 86zM590 184q120 0 197 84.5t77 272.5q0 348 -293 348q-133 0 -206.5 -91.5t-73.5 -250.5q0 -163 80.5 -263t218.5 -100z" />
    <glyph glyph-name="h" unicode="h" horiz-adv-x="1380" 
d="M66 0v154h163v1138h-174v154h371v-537q0 -22 -1.5 -43.5t-2.5 -31.5l-2 -11h4q18 40 51 79.5t80.5 76.5t114.5 59.5t141 22.5q182 0 269 -98.5t87 -298.5v-510h162v-154h-360v618q0 60 -8 103t-28 81t-60.5 57.5t-100.5 19.5q-151 0 -248.5 -113t-97.5 -281v-331h164
v-154h-524z" />
    <glyph glyph-name="i" unicode="i" horiz-adv-x="688" 
d="M256 1243v203h209v-203h-209zM98 0v154h162v729h-172v153h371v-882h164v-154h-525z" />
    <glyph glyph-name="j" unicode="j" horiz-adv-x="606" 
d="M229 1243v203h209v-203h-209zM-33 -256q18 -2 45 -2t52.5 4t57.5 18.5t55.5 38.5t39.5 68.5t16 103.5v908h-174v153h373v-1067q0 -71 -15.5 -130t-40.5 -99t-60 -70t-70.5 -47t-76 -27.5t-71.5 -14t-63 -3.5l-68 4v162z" />
    <glyph glyph-name="k" unicode="k" horiz-adv-x="1202" 
d="M66 0v154h163v1138h-174v154h371v-807h152l206 244h-135v153h471v-153h-137l-256 -299v-4q3 0 11.5 -5.5t27.5 -26.5t37 -52l176 -301q15 -25 32.5 -33t57.5 -8h66v-154h-156q-71 0 -104 18t-66 78l-205 350q-16 26 -37 33.5t-59 7.5h-82v-333h139v-154h-499z" />
    <glyph glyph-name="l" unicode="l" horiz-adv-x="600" 
d="M174 295v997h-172v154h371v-1139q0 -73 23.5 -110t86.5 -37l56 2l-2 -164q-41 -4 -88 -4q-59 0 -105.5 13.5t-86.5 45.5t-61.5 93.5t-21.5 148.5z" />
    <glyph glyph-name="m" unicode="m" horiz-adv-x="2048" 
d="M98 0v154h162v686q0 43 -45 43h-127v153h234q131 0 131 -114v-54q0 -15 -1.5 -29.5t-3.5 -22.5l-2 -7h5q41 99 145 175.5t223 76.5q252 0 303 -244h4q45 102 147 173t224 71q338 0 338 -397v-510h164v-154h-363v621q0 60 -7 102.5t-25.5 80.5t-56 57.5t-93.5 19.5
q-94 0 -165 -59t-105.5 -149.5t-34.5 -195.5v-323h162v-154h-361v621q0 46 -3 79.5t-14 69.5t-30 59t-53 37.5t-80 14.5q-94 0 -167 -61.5t-108.5 -154t-35.5 -196.5v-315h164v-154h-525z" />
    <glyph glyph-name="n" unicode="n" horiz-adv-x="1411" 
d="M98 0v154h162v684q0 45 -45 45h-127v153h234q131 0 131 -114v-54q0 -15 -1.5 -29.5t-3.5 -22.5l-2 -7h5q7 20 24 47.5t51.5 64.5t78 67.5t109.5 51.5t140 21q177 0 260.5 -98.5t83.5 -298.5v-510h164v-154h-363v618q0 60 -7.5 103t-27 81t-59.5 57.5t-100 19.5
q-101 0 -181.5 -56.5t-122.5 -147t-42 -194.5v-327h164v-154h-525z" />
    <glyph glyph-name="o" unicode="o" horiz-adv-x="1282" 
d="M82 520q0 115 44 216t119.5 172t178 112t217.5 41t217.5 -41t178 -112t119.5 -172t44 -216q0 -154 -75 -279.5t-203 -195.5t-281 -70t-281 70t-203 195.5t-75 279.5zM285 520q0 -161 103 -267t253 -106q148 0 252 106t104 267q0 159 -104 264t-252 105q-150 0 -253 -105
t-103 -264z" />
    <glyph glyph-name="p" unicode="p" horiz-adv-x="1304" 
d="M70 -256h161v1094q0 45 -45 45h-127v153h230q127 0 127 -102v-8l-4 -60h4q4 8 11 21t36 46.5t65 59.5t99.5 47t136.5 21q208 0 331.5 -150t123.5 -393q0 -244 -132 -393.5t-337 -149.5q-64 0 -120.5 18t-91.5 44t-61.5 52.5t-37.5 44.5l-11 18h-4q6 -38 6 -91v-317h164
v-154h-524v154zM426 514q0 -95 32 -177t100.5 -136t160.5 -54q128 0 213.5 99t85.5 270q0 168 -82 269.5t-213 101.5q-126 0 -211.5 -93.5t-85.5 -279.5z" />
    <glyph glyph-name="q" unicode="q" horiz-adv-x="1247" 
d="M86 518q0 245 131 394t338 149q191 0 325 -174q4 -4 5 -6h4q-4 28 -4 71v84h188v-1292h162v-154h-522v154h161v326q0 24 2 46.5t4 33.5l1 10h-4q-4 -8 -11.5 -20t-36 -44t-63.5 -56.5t-95 -44.5t-128 -20q-209 0 -333 149.5t-124 393.5zM289 518q0 -167 81.5 -269
t211.5 -102q60 0 112 21.5t95 65t67.5 117.5t24.5 169q0 96 -31 177.5t-100 136.5t-164 55q-126 0 -211.5 -100t-85.5 -271z" />
    <glyph glyph-name="r" unicode="r" horiz-adv-x="866" 
d="M102 0v154h156v684q0 45 -45 45h-129v153h233q68 0 101 -29.5t33 -91.5v-65l-5 -72h5q37 119 124 195t203 76l51 -5v-196q-24 6 -57 6q-79 0 -141.5 -37.5t-99.5 -100t-55.5 -136t-18.5 -152.5v-274h153v-154h-508z" />
    <glyph glyph-name="s" unicode="s" horiz-adv-x="985" 
d="M82 223v111h174v-68q0 -62 71.5 -95.5t166.5 -33.5q91 0 149.5 35t58.5 98q0 28 -12 51.5t-31.5 40.5t-51.5 33t-62.5 27.5t-74.5 27.5q-17 6 -26 9q-58 21 -94.5 36.5t-84.5 44.5t-76 59t-48 75.5t-20 99.5q0 74 34 131t90.5 90t122 49.5t136.5 16.5q58 0 117.5 -12
t115 -35t90.5 -65.5t35 -96.5v-125h-174v68q0 46 -53 76t-129 30q-78 0 -131 -32.5t-53 -92.5q0 -28 14 -52.5t33 -41t55.5 -34.5t62.5 -28t74 -26q42 -14 70 -24t67.5 -27.5t65 -33.5t54.5 -40.5t46 -50.5t28 -61.5t11 -75.5q0 -144 -116.5 -225t-299.5 -81
q-98 0 -188.5 27t-153.5 85t-63 136z" />
    <glyph glyph-name="t" unicode="t" horiz-adv-x="737" 
d="M211 379v504h-174v153h178v285h195v-285h247v-153h-247v-486q0 -60 16 -105.5t39 -69.5t55 -39t57.5 -19t53.5 -4l47 2v-166q-29 -4 -72 -4q-32 0 -63.5 3t-72 13.5t-75.5 27t-69.5 46t-59 69t-40 98.5t-15.5 130z" />
    <glyph glyph-name="u" unicode="u" horiz-adv-x="1361" 
d="M215 373v510h-174v153h373v-622q0 -47 4 -82.5t16.5 -70t33.5 -56.5t56.5 -35.5t83.5 -13.5q100 0 178 58.5t118 149.5t40 195v324h-174v153h373v-839q0 -45 45 -45h108v-152h-215q-131 0 -131 115v45l4 61h-4q-7 -20 -23.5 -47t-50.5 -63t-76 -65.5t-107 -50t-138 -20.5
q-169 0 -254.5 97.5t-85.5 300.5z" />
    <glyph glyph-name="v" unicode="v" horiz-adv-x="1189" 
d="M18 883v153h465v-153h-133l219 -604q7 -20 13 -44.5t8 -38.5l2 -14h6q7 52 23 97l221 604h-133v153h462v-153h-129l-335 -883h-224l-333 883h-132z" />
    <glyph glyph-name="w" unicode="w" horiz-adv-x="1753" 
d="M20 883v153h463v-153h-139l176 -602q5 -19 9.5 -43.5t6.5 -39.5l1 -14h6q4 54 16 97l227 753h181l227 -753q5 -19 9 -43.5t5 -39.5l2 -14h7q4 54 16 97l178 602h-141v153h463v-153h-129l-267 -883h-221l-219 692q-5 21 -9.5 45.5t-6.5 38.5l-2 15h-5q-6 -52 -18 -99
l-219 -692h-221l-266 883h-130z" />
    <glyph glyph-name="x" unicode="x" horiz-adv-x="1171" 
d="M76 0v154h155l248 381l-229 348h-168v153h291l184 -301l35 -67h4q17 34 37 67l188 301h275v-153h-158l-231 -346l256 -383h139v-154h-264l-209 336l-37 65h-4q-14 -32 -37 -67l-205 -334h-270z" />
    <glyph glyph-name="y" unicode="y" horiz-adv-x="1208" 
d="M131 -215q7 -5 19.5 -13.5t51 -22t77.5 -13.5q64 0 113 39.5t77 103.5l43 103l-362 901h-132v153h474v-153h-138l232 -617q6 -20 10.5 -42.5t5.5 -35.5l2 -12h6q9 45 25 90l229 617h-133v153h459v-153h-129l-410 -1047q-52 -130 -147 -198t-217 -68q-59 0 -115 16t-82 32
l-27 17z" />
    <glyph glyph-name="z" unicode="z" horiz-adv-x="1079" 
d="M98 131l572 692q14 16 28 31t22 22l7 7v4q-43 -4 -84 -4h-360v-166h-174v319h858v-131l-568 -692q-14 -16 -28 -30.5t-21 -20.5l-8 -6v-4q41 2 82 2h383v165h174v-319h-883v131z" />
    <glyph glyph-name="braceleft" unicode="{" horiz-adv-x="690" 
d="M242 158v196q0 59 -18 103.5t-43.5 66t-51 35t-43.5 16.5l-18 3v176q7 1 19 3t42 16t52.5 36t41.5 67t19 105v172q0 67 13.5 121.5t34.5 91t51.5 63.5t60 42t63.5 24t58.5 11.5t49.5 2.5l50 -2v-151h-29q-20 0 -39 -3t-46 -16t-46 -35t-33 -63.5t-14 -97.5v-211
q0 -57 -17 -104.5t-41.5 -75t-49 -47t-41.5 -26.5l-17 -7v-4q7 -2 18 -6.5t39.5 -24.5t50.5 -46t40 -75t18 -108v-236q0 -56 14 -97.5t33 -63.5t46 -35t46 -16t39 -3h29v-152q-21 -4 -50 -4q-37 0 -73 5.5t-85 27.5t-85 58.5t-62 105.5t-26 162z" />
    <glyph glyph-name="bar" unicode="|" horiz-adv-x="563" 
d="M195 -326v1948h174v-1948h-174z" />
    <glyph glyph-name="braceright" unicode="}" horiz-adv-x="690" 
d="M70 -45h28q20 0 38.5 3t45 16t45.5 35t33 63.5t14 97.5v236q0 59 17 107.5t41.5 75.5t49 45.5t41.5 25.5l17 6v4q-7 2 -18 7t-39.5 26t-50.5 47.5t-40 74.5t-18 105v211q0 56 -14 97.5t-33 63.5t-45.5 35t-45 16t-38.5 3h-28v151q18 2 47 2q37 0 73 -5.5t85.5 -27
t85.5 -57.5t62 -105t26 -161v-172q0 -60 18 -105t43.5 -67t51 -36t43.5 -17l18 -2v-176q-7 -1 -19 -3t-42 -16t-52.5 -35.5t-41.5 -66t-19 -103.5v-196q0 -93 -26 -162t-62 -105.5t-85.5 -58.5t-85.5 -27.5t-73 -5.5l-47 4v152z" />
    <glyph glyph-name="asciitilde" unicode="~" horiz-adv-x="1247" 
d="M137 418q0 174 74.5 260t210.5 86q60 0 108 -20.5t80 -50t61 -59.5t65 -50.5t79 -20.5q72 0 104.5 58t32.5 135h162q0 -175 -75.5 -260.5t-211.5 -85.5q-59 0 -107.5 20.5t-80 49.5t-60.5 58t-65.5 49.5t-79.5 20.5q-38 0 -65.5 -17.5t-42 -46.5t-21 -60.5t-6.5 -65.5
h-162z" />
    <glyph glyph-name="uni00A0" unicode="&#xa0;" horiz-adv-x="532" 
 />
    <glyph glyph-name="exclamdown" unicode="&#xa1;" horiz-adv-x="491" 
d="M141 836v200h207v-200h-207zM143 -410l13 1049h178l14 -1049h-205z" />
    <glyph glyph-name="cent" unicode="&#xa2;" horiz-adv-x="1134" 
d="M516 -27v177q-131 18 -230 98.5t-150.5 203.5t-51.5 271q0 149 51.5 272.5t150.5 204t230 98.5v172h146v-172q133 -20 232 -103.5t153 -213.5l-181 -70q-90 203 -270 203q-145 0 -227 -110t-82 -281q0 -176 80 -282.5t229 -106.5q94 0 161.5 54.5t108.5 148.5l181 -72
q-55 -126 -152.5 -213.5t-232.5 -101.5v-177h-146z" />
    <glyph glyph-name="sterling" unicode="&#xa3;" horiz-adv-x="1257" 
d="M88 0v164h176v489h-139v144h139v278q0 171 126 283t319 112q58 0 114.5 -13t96 -32t70.5 -37.5t46 -31.5l15 -13l-113 -139q-11 9 -31.5 23t-80 37.5t-115.5 23.5q-111 0 -176.5 -63t-65.5 -158v-270h369v-144h-369v-485h522v233h178v-401h-1081z" />
    <glyph glyph-name="yen" unicode="&#xa5;" horiz-adv-x="1298" 
d="M213 408v129h334v75l-55 99h-279v129h211l-338 606h231l242 -451q20 -43 42 -95t34 -83l12 -31h4q43 113 88 209l244 451h231l-340 -606h209v-129h-276l-55 -99v-75h331v-129h-331v-408h-205v408h-334z" />
    <glyph glyph-name="section" unicode="&#xa7;" horiz-adv-x="890" 
d="M281 227l-146 799q-10 39 -10 94q0 153 104 251.5t281 98.5q50 0 98 -10.5t81 -26t59 -31t38 -26.5l13 -10l-94 -131q-9 8 -26 19.5t-68 31t-101 19.5q-95 0 -156 -53.5t-61 -153.5q0 -30 10 -82l139 -789h-161zM92 -23l90 138q4 -3 10 -8t27 -18.5t43 -23.5t54.5 -18
t64.5 -8q95 0 156 56t61 159q0 50 -12 92l-135 770h161l144 -799q10 -41 10 -92q0 -155 -104 -253.5t-281 -98.5q-50 0 -98 10.5t-81 26t-59 31t-39 25.5z" />
    <glyph glyph-name="dieresis" unicode="&#xa8;" horiz-adv-x="1021" 
d="M627 1599v207h176v-207h-176zM217 1599v207h176v-207h-176z" />
    <glyph glyph-name="copyright" unicode="&#xa9;" horiz-adv-x="1642" 
d="M92 723q0 153 57.5 291.5t154.5 238.5t231.5 158.5t283.5 58.5q201 0 369.5 -99.5t266 -271t97.5 -376.5q0 -153 -57.5 -292t-155.5 -238.5t-234 -158.5t-286 -59q-149 0 -283.5 59t-231.5 158.5t-154.5 238.5t-57.5 292zM242 723q0 -126 44.5 -239t121.5 -194t184 -128
t227 -47q97 0 187 30t161.5 85.5t124.5 130.5t82 168t29 194t-29 194t-82 168t-124.5 130.5t-161.5 85.5t-187 30q-120 0 -227 -47t-184 -128t-121.5 -194t-44.5 -239zM430 721q0 108 48.5 201t142 150.5t213.5 57.5q66 0 124.5 -21t95 -50.5t63.5 -59t39 -50.5l11 -21
l-125 -68q-3 5 -8.5 14t-24.5 31t-40.5 39t-56.5 31t-72 14q-117 0 -185.5 -78.5t-68.5 -189.5q0 -114 67 -191t187 -77q38 0 72.5 13.5t57 32.5t40 37.5t24.5 31.5l8 14l125 -68q-4 -8 -12 -22t-37.5 -49t-64.5 -61.5t-94 -48.5t-125 -22q-180 0 -292 120.5t-112 289.5z
" />
    <glyph glyph-name="ordfeminine" unicode="&#xaa;" horiz-adv-x="868" 
d="M375 782q-89 0 -156 53.5t-67 145.5q0 225 387 225h20v13q0 129 -131 129q-40 0 -82.5 -14.5t-65.5 -29.5l-22 -14l-59 101q4 3 11 8t31 18t50.5 23t68.5 18t86 8q127 0 194 -66.5t67 -191.5v-411h-140v94h-4q-2 -4 -6.5 -11.5t-21.5 -26.5t-36.5 -33t-53 -26t-70.5 -12z
M406 903q66 0 108.5 56.5t42.5 125.5v17h-22q-234 0 -234 -111q0 -37 28 -62.5t77 -25.5zM152 543v116h561v-116h-561z" />
    <glyph glyph-name="guillemotleft" unicode="&#xab;" horiz-adv-x="1148" 
d="M502 578l336 421h198l-336 -421l336 -420h-198zM424 158l-336 420l336 421h199l-336 -421l336 -420h-199z" />
    <glyph glyph-name="logicalnot" unicode="&#xac;" horiz-adv-x="1216" 
d="M100 696v160h977v-547h-166v387h-811z" />
    <glyph glyph-name="uni00AD" unicode="&#xad;" horiz-adv-x="974" 
d="M188 496v176h598v-176h-598z" />
    <glyph glyph-name="registered" unicode="&#xae;" horiz-adv-x="1642" 
d="M92 723q0 153 57.5 291.5t154.5 238.5t231.5 158.5t283.5 58.5q201 0 369.5 -99.5t266 -271t97.5 -376.5q0 -153 -57.5 -292t-155.5 -238.5t-234 -158.5t-286 -59q-149 0 -283.5 59t-231.5 158.5t-154.5 238.5t-57.5 292zM242 723q0 -126 44.5 -239t121.5 -194t184 -128
t227 -47q97 0 187 30t161.5 85.5t124.5 130.5t82 168t29 194t-29 194t-82 168t-124.5 130.5t-161.5 85.5t-187 30q-120 0 -227 -47t-184 -128t-121.5 -194t-44.5 -239zM569 340v772h297q109 0 176.5 -64t67.5 -171q0 -82 -43.5 -136.5t-97.5 -68.5v-4q8 -8 26 -43l148 -285
h-160l-143 299h-125v-299h-146zM715 745h123q57 0 91 35.5t34 96.5q0 59 -33.5 91.5t-91.5 32.5h-123v-256z" />
    <glyph glyph-name="macron" unicode="&#xaf;" horiz-adv-x="1021" 
d="M250 1606v145h522v-145h-522z" />
    <glyph glyph-name="degree" unicode="&#xb0;" horiz-adv-x="800" 
d="M399 864q-129 0 -219 88.5t-90 214.5q0 125 90 214t219 89t220.5 -89t91.5 -214q0 -126 -91.5 -214.5t-220.5 -88.5zM399 1016q64 0 109 44t45 107t-45 108.5t-109 45.5q-63 0 -106 -45.5t-43 -108.5t43 -107t106 -44z" />
    <glyph glyph-name="plusminus" unicode="&#xb1;" horiz-adv-x="1255" 
d="M86 504v160h459v503h168v-503h456v-160h-456v-504h-168v504h-459zM119 -195h1018v-159h-1018v159z" />
    <glyph glyph-name="twosuperior" unicode="&#xb2;" horiz-adv-x="763" 
d="M68 948q0 67 24 123.5t63 96t85.5 74t93 64t85.5 58.5t63 65.5t24 77.5q0 57 -41.5 95t-104.5 38q-45 0 -88.5 -24.5t-64.5 -49.5l-21 -24l-100 92q4 6 11.5 16t34.5 35.5t58 45t80.5 35.5t102.5 16q129 0 209 -73.5t80 -188.5q0 -71 -31.5 -129t-78.5 -95t-103 -74
t-104 -66.5t-81.5 -72t-36.5 -90.5h322v105h129v-232h-602q-8 51 -8 82z" />
    <glyph glyph-name="threesuperior" unicode="&#xb3;" horiz-adv-x="765" 
d="M94 1530v231h574v-98l-230 -266q49 -7 91.5 -25t78 -48t56 -76.5t20.5 -104.5q0 -122 -90 -209.5t-229 -87.5q-57 0 -109.5 14t-86 34t-59 39.5t-36.5 33.5l-11 14l87 104q3 -4 8.5 -11t25 -24.5t41.5 -31t58 -24.5t75 -11q68 0 119 45t51 111q0 68 -53.5 106.5
t-126.5 38.5h-65l-33 78l194 235q10 11 21.5 21.5t17.5 15.5l6 4v7q-28 -7 -61 -7h-205v-108h-129z" />
    <glyph glyph-name="acute" unicode="&#xb4;" horiz-adv-x="1021" 
d="M295 1546l213 260h227l-254 -260h-186z" />
    <glyph glyph-name="mu" unicode="&#xb5;" horiz-adv-x="1218" 
d="M145 -410v1446h199v-618q0 -59 7.5 -101.5t27 -80t59.5 -57t99 -19.5q103 0 181 55.5t117 143.5t39 192v485h199v-1036h-192v141l4 72h-6q-2 -5 -6 -13.5t-19.5 -33.5t-34.5 -47.5t-51.5 -49.5t-69.5 -47t-89.5 -33.5t-110.5 -13.5q-61 0 -107.5 16t-62.5 32l-17 16h-4
q15 -101 15 -160v-289h-177z" />
    <glyph glyph-name="mu" unicode="&#x3bc;" horiz-adv-x="1218" 
d="M145 -410v1446h199v-618q0 -59 7.5 -101.5t27 -80t59.5 -57t99 -19.5q103 0 181 55.5t117 143.5t39 192v485h199v-1036h-192v141l4 72h-6q-2 -5 -6 -13.5t-19.5 -33.5t-34.5 -47.5t-51.5 -49.5t-69.5 -47t-89.5 -33.5t-110.5 -13.5q-61 0 -107.5 16t-62.5 32l-17 16h-4
q15 -101 15 -160v-289h-177z" />
    <glyph glyph-name="paragraph" unicode="&#xb6;" horiz-adv-x="1220" 
d="M557 -102v596q-130 0 -241.5 62.5t-177.5 173t-66 241.5t65.5 241t176.5 172t241 62h557v-176h-401v-1372h-154zM838 -102v1255h151v-1255h-151z" />
    <glyph glyph-name="periodcentered" unicode="&#xb7;" horiz-adv-x="573" 
d="M182 485v217h209v-217h-209z" />
    <glyph glyph-name="cedilla" unicode="&#xb8;" horiz-adv-x="1021" 
d="M381 -199l65 250l105 -20v-17l-33 -129q69 -5 115.5 -47t46.5 -106q0 -89 -65.5 -132.5t-161.5 -43.5q-27 0 -55 3.5t-42 6.5l-14 4v108q39 -12 90 -12q105 0 105 66q0 35 -34 52t-87 17h-35z" />
    <glyph glyph-name="onesuperior" unicode="&#xb9;" horiz-adv-x="688" 
d="M76 866v127h211v506q0 16 1.5 32t3.5 24l1 8h-4q-10 -19 -33 -37l-98 -96l-95 100l240 231h137v-768h209v-127h-573z" />
    <glyph glyph-name="ordmasculine" unicode="&#xba;" horiz-adv-x="964" 
d="M481 786q-147 0 -248.5 97.5t-101.5 246.5q0 144 102 241t246 97q148 0 250 -96.5t102 -241.5q0 -149 -101.5 -246.5t-248.5 -97.5zM481 920q85 0 143 59t58 151q0 90 -58.5 148.5t-142.5 58.5q-86 0 -144 -58.5t-58 -148.5q0 -92 58 -151t144 -59zM164 543v116h639v-116
h-639z" />
    <glyph glyph-name="guillemotright" unicode="&#xbb;" horiz-adv-x="1146" 
d="M524 158l336 420l-336 421h199l336 -421l-336 -420h-199zM113 158l336 420l-336 421h198l336 -421l-336 -420h-198z" />
    <glyph glyph-name="onequarter" unicode="&#xbc;" horiz-adv-x="1959" 
d="M1608 0v223h-426v99l411 573h166v-551h127v-121h-127v-223h-151zM1339 344h269v299q0 18 2 41t4 37l2 14h-6q-18 -45 -43 -80l-228 -307v-4zM549 0l688 1446h154l-686 -1446h-156zM115 551v127h211v506q0 16 1.5 32t2.5 24l2 7h-4q-10 -19 -33 -37l-98 -96l-95 100
l240 232h137v-768h209v-127h-573z" />
    <glyph glyph-name="onehalf" unicode="&#xbd;" horiz-adv-x="1927" 
d="M1227 82q0 67 24 123.5t63 96t85.5 74t93 64t85.5 58.5t63 65.5t24 77.5q0 57 -41 95t-104 38q-45 0 -88.5 -24.5t-64.5 -49.5l-21 -24l-101 92q4 6 11.5 16t34.5 35t58 44.5t80.5 35.5t102.5 16q129 0 209 -73.5t80 -188.5q0 -61 -23.5 -112.5t-61 -87.5t-83 -67.5
t-91.5 -59t-84.5 -56t-64 -65t-27.5 -78.5h322v104h129v-231h-602q-8 51 -8 82zM539 0l688 1446h153l-686 -1446h-155zM100 551v127h211v506q0 16 1.5 32t3.5 24l1 7h-4q-9 -19 -32 -37l-99 -96l-94 100l240 232h137v-768h209v-127h-574z" />
    <glyph glyph-name="threequarters" unicode="&#xbe;" horiz-adv-x="1986" 
d="M1630 0v223h-426v99l412 573h166v-551h127v-121h-127v-223h-152zM1362 344h268v299q0 18 2 41t4 37l2 14h-6q-18 -45 -43 -80l-227 -307v-4zM125 1214v232h573v-98l-229 -267q49 -7 91.5 -25t78 -48t56 -76.5t20.5 -104.5q0 -122 -90.5 -209.5t-229.5 -87.5
q-57 0 -109.5 14t-85.5 34t-58.5 40t-36.5 34l-11 14l86 104q3 -4 8.5 -11t25 -24.5t42 -31t58.5 -24.5t75 -11q68 0 119 44.5t51 110.5q0 68 -53.5 107t-126.5 39h-66l-32 78l194 235q10 11 21.5 21.5t17.5 14.5l6 5v6q-28 -6 -61 -6h-205v-109h-129zM569 0l688 1446h154
l-686 -1446h-156z" />
    <glyph glyph-name="questiondown" unicode="&#xbf;" horiz-adv-x="952" 
d="M455 836v200h204v-200h-204zM98 -57q0 69 20 127.5t52 100.5t71 79.5t77.5 71.5t70.5 68.5t52 78.5t20 94v76h192v-88q0 -63 -19 -118t-50 -95t-68 -76.5t-74 -70t-68 -67t-50 -76t-19 -89.5q0 -87 67.5 -146t168.5 -59q57 0 115.5 22t87.5 44l30 22l109 -141
q-5 -5 -15.5 -14t-45.5 -31.5t-74 -40t-99.5 -31.5t-122.5 -14q-180 0 -304 103.5t-124 269.5z" />
    <glyph glyph-name="Agrave" unicode="&#xc0;" horiz-adv-x="1480" 
d="M25 0v160h139l461 1286h231l461 -1286h139v-160h-502v160h154l-113 321h-512l-112 -321h155v-160h-501zM535 645h409l-176 502q-9 26 -15 53.5t-8 41.5l-2 15h-6q-6 -51 -24 -110zM674 1546l-254 260h229l211 -260h-186z" />
    <glyph glyph-name="Aacute" unicode="&#xc1;" horiz-adv-x="1476" 
d="M23 0v160h139l461 1286h231l461 -1286h139v-160h-502v160h154l-113 321h-512l-112 -321h155v-160h-501zM532 645h410l-176 502q-9 26 -15 53.5t-8 41.5l-2 15h-6q-6 -51 -24 -110zM612 1546l213 260h228l-254 -260h-187z" />
    <glyph glyph-name="Acircumflex" unicode="&#xc2;" horiz-adv-x="1476" 
d="M23 0v160h139l461 1286h231l461 -1286h139v-160h-502v160h154l-113 321h-512l-112 -321h155v-160h-501zM532 645h410l-176 502q-9 26 -15 53.5t-8 41.5l-2 15h-6q-6 -51 -24 -110zM449 1546l180 260h215l180 -260h-178l-109 164h-4l-106 -164h-178z" />
    <glyph glyph-name="Atilde" unicode="&#xc3;" horiz-adv-x="1476" 
d="M23 0v160h139l461 1286h231l461 -1286h139v-160h-502v160h154l-113 321h-512l-112 -321h155v-160h-501zM532 645h410l-176 502q-9 26 -15 53.5t-8 41.5l-2 15h-6q-6 -51 -24 -110zM389 1548q0 260 209 260q41 0 75 -14t56.5 -34t42.5 -40.5t41.5 -34.5t44.5 -14
q45 0 63.5 38.5t18.5 92.5h147q0 -260 -208 -260q-41 0 -75 14t-57 34t-42.5 40.5t-41.5 34.5t-45 14q-81 0 -81 -131h-148z" />
    <glyph glyph-name="Adieresis" unicode="&#xc4;" horiz-adv-x="1476" 
d="M23 0v160h139l461 1286h231l461 -1286h139v-160h-502v160h154l-113 321h-512l-112 -321h155v-160h-501zM532 645h410l-176 502q-9 26 -15 53.5t-8 41.5l-2 15h-6q-6 -51 -24 -110zM854 1599v207h176v-207h-176zM444 1599v207h177v-207h-177z" />
    <glyph glyph-name="Aring" unicode="&#xc5;" horiz-adv-x="1476" 
d="M23 0v160h139l461 1286h231l461 -1286h139v-160h-502v160h154l-113 321h-512l-112 -321h155v-160h-501zM532 645h410l-176 502q-9 26 -15 53.5t-8 41.5l-2 15h-6q-6 -51 -24 -110zM737 1513q-77 0 -132.5 45t-55.5 119q0 77 55.5 123.5t132.5 46.5q78 0 135.5 -47
t57.5 -123q0 -73 -58 -118.5t-135 -45.5zM737 1604q35 0 55.5 20t20.5 53q0 37 -20.5 58.5t-55.5 21.5q-33 0 -53 -22t-20 -58q0 -33 20 -53t53 -20z" />
    <glyph glyph-name="AE" unicode="&#xc6;" horiz-adv-x="1927" 
d="M25 0v160h129l464 1128h-157v158h1327v-336h-170v168h-485v-465h507v-168h-507v-477h520v170h170v-338h-1071v160h176v487h-369l-199 -487h156v-160h-491zM621 807h307v471h-115z" />
    <glyph glyph-name="Ccedilla" unicode="&#xc7;" horiz-adv-x="1523" 
d="M713 -199l47 179q-290 31 -475 243t-185 508q0 209 97.5 378.5t267 265t375.5 95.5q58 0 124.5 -8t144 -29t139 -52t102.5 -82t41 -115v-176h-191v112q0 45 -35.5 80.5t-91 54.5t-113.5 29t-112 10q-233 0 -385 -155.5t-152 -399.5q0 -255 156 -420t393 -165
q45 0 100.5 8.5t117 26t102.5 53t41 82.5v112h190v-176q0 -73 -54.5 -129.5t-140 -88.5t-173 -48.5t-171.5 -18.5l-20 -90q68 -5 115 -47t47 -106q0 -60 -34.5 -101.5t-84 -58t-109.5 -16.5q-28 0 -56 3.5t-42 6.5l-14 4v108q39 -12 92 -12q102 0 102 66q0 35 -32.5 52
t-85.5 17h-37z" />
    <glyph glyph-name="Egrave" unicode="&#xc8;" horiz-adv-x="1294" 
d="M109 0v160h180v1128h-180v158h1046v-336h-178v168h-483v-465h512v-168h-512v-477h518v174h178v-342h-1081zM602 1546l-254 260h230l210 -260h-186z" />
    <glyph glyph-name="Eacute" unicode="&#xc9;" horiz-adv-x="1294" 
d="M545 1546l213 260h227l-254 -260h-186zM109 0v160h180v1128h-180v158h1046v-336h-178v168h-483v-465h512v-168h-512v-477h518v174h178v-342h-1081z" />
    <glyph glyph-name="Ecircumflex" unicode="&#xca;" horiz-adv-x="1294" 
d="M381 1546l180 260h215l180 -260h-178l-108 164h-4l-107 -164h-178zM109 0v160h180v1128h-180v158h1046v-336h-178v168h-483v-465h512v-168h-512v-477h518v174h178v-342h-1081z" />
    <glyph glyph-name="Edieresis" unicode="&#xcb;" horiz-adv-x="1294" 
d="M784 1599v207h177v-207h-177zM375 1599v207h176v-207h-176zM109 0v160h180v1128h-180v158h1046v-336h-178v168h-483v-465h512v-168h-512v-477h518v174h178v-342h-1081z" />
    <glyph glyph-name="Igrave" unicode="&#xcc;" horiz-adv-x="782" 
d="M109 0v160h180v1128h-180v158h567v-158h-182v-1128h182v-160h-567zM328 1546l-254 260h229l211 -260h-186z" />
    <glyph glyph-name="Iacute" unicode="&#xcd;" horiz-adv-x="782" 
d="M109 0v160h180v1128h-180v158h567v-158h-182v-1128h182v-160h-567zM268 1546l213 260h228l-254 -260h-187z" />
    <glyph glyph-name="Icircumflex" unicode="&#xce;" horiz-adv-x="782" 
d="M109 0v160h180v1128h-180v158h567v-158h-182v-1128h182v-160h-567zM104 1546l181 260h215l180 -260h-178l-109 164h-4l-106 -164h-179z" />
    <glyph glyph-name="Idieresis" unicode="&#xcf;" horiz-adv-x="782" 
d="M109 0v160h180v1128h-180v158h567v-158h-182v-1128h182v-160h-567zM508 1599v207h176v-207h-176zM98 1599v207h176v-207h-176z" />
    <glyph glyph-name="Eth" unicode="&#xd0;" horiz-adv-x="1611" 
d="M109 0v160h180v479h-154v168h154v481h-180v158h663q221 0 386 -84t256 -248t91 -389q0 -340 -198.5 -532.5t-534.5 -192.5h-663zM494 168h264q246 0 390 145t144 412q0 264 -145 408.5t-389 144.5h-264v-471h317v-168h-317v-471z" />
    <glyph glyph-name="Ntilde" unicode="&#xd1;" horiz-adv-x="1716" 
d="M109 0v160h180v1128h-180v158h383l710 -1036q11 -18 23.5 -44.5t18.5 -43.5l7 -17h6q-10 72 -10 117v866h-184v158h571v-158h-182v-1288h-201l-710 1036q-12 18 -24 44.5t-19 43.5l-6 17h-7q1 -8 3 -21t4.5 -44.5t1.5 -51.5v-864h186v-160h-571zM520 1548q0 260 209 260
q41 0 75 -14t56.5 -34t42.5 -40.5t41.5 -34.5t44.5 -14q45 0 63.5 38.5t18.5 92.5h148q0 -260 -209 -260q-41 0 -75 14t-56.5 34t-42.5 40.5t-41.5 34.5t-44.5 14q-82 0 -82 -131h-148z" />
    <glyph glyph-name="Ograve" unicode="&#xd2;" horiz-adv-x="1683" 
d="M98 733q0 153 57.5 290t156.5 235t237 155t293 57q206 0 376.5 -97t268.5 -266t98 -374q0 -210 -98 -384t-268.5 -274t-376.5 -100q-155 0 -293 59t-237 160t-156.5 241.5t-57.5 297.5zM309 733q0 -160 71.5 -292.5t193.5 -207.5t268 -75q108 0 206 44.5t169 120.5
t113 183t42 227q0 155 -71 283t-192.5 201t-266.5 73q-146 0 -268 -73t-193.5 -201t-71.5 -283zM776 1546l-254 260h230l211 -260h-187z" />
    <glyph glyph-name="Oacute" unicode="&#xd3;" horiz-adv-x="1683" 
d="M717 1546l213 260h227l-254 -260h-186zM98 733q0 153 57.5 290t156.5 235t237 155t293 57q206 0 376.5 -97t268.5 -266t98 -374q0 -210 -98 -384t-268.5 -274t-376.5 -100q-155 0 -293 59t-237 160t-156.5 241.5t-57.5 297.5zM309 733q0 -160 71.5 -292.5t193.5 -207.5
t268 -75q108 0 206 44.5t169 120.5t113 183t42 227q0 155 -71 283t-192.5 201t-266.5 73q-146 0 -268 -73t-193.5 -201t-71.5 -283z" />
    <glyph glyph-name="Ocircumflex" unicode="&#xd4;" horiz-adv-x="1683" 
d="M553 1546l180 260h215l180 -260h-178l-108 164h-4l-107 -164h-178zM98 733q0 153 57.5 290t156.5 235t237 155t293 57q206 0 376.5 -97t268.5 -266t98 -374q0 -210 -98 -384t-268.5 -274t-376.5 -100q-155 0 -293 59t-237 160t-156.5 241.5t-57.5 297.5zM309 733
q0 -160 71.5 -292.5t193.5 -207.5t268 -75q108 0 206 44.5t169 120.5t113 183t42 227q0 155 -71 283t-192.5 201t-266.5 73q-146 0 -268 -73t-193.5 -201t-71.5 -283z" />
    <glyph glyph-name="Otilde" unicode="&#xd5;" horiz-adv-x="1683" 
d="M98 733q0 153 57.5 290t156.5 235t237 155t293 57q206 0 376.5 -97t268.5 -266t98 -374q0 -210 -98 -384t-268.5 -274t-376.5 -100q-155 0 -293 59t-237 160t-156.5 241.5t-57.5 297.5zM309 733q0 -160 71.5 -292.5t193.5 -207.5t268 -75q108 0 206 44.5t169 120.5
t113 183t42 227q0 155 -71 283t-192.5 201t-266.5 73q-146 0 -268 -73t-193.5 -201t-71.5 -283zM494 1548q0 260 208 260q41 0 75 -14t57 -34t42.5 -40.5t41.5 -34.5t45 -14q81 0 81 131h148q0 -260 -209 -260q-41 0 -75 14t-56.5 34t-42.5 40.5t-41.5 34.5t-44.5 14
q-82 0 -82 -131h-147z" />
    <glyph glyph-name="Odieresis" unicode="&#xd6;" horiz-adv-x="1683" 
d="M958 1599v207h177v-207h-177zM549 1599v207h176v-207h-176zM98 733q0 153 57.5 290t156.5 235t237 155t293 57q206 0 376.5 -97t268.5 -266t98 -374q0 -210 -98 -384t-268.5 -274t-376.5 -100q-155 0 -293 59t-237 160t-156.5 241.5t-57.5 297.5zM309 733
q0 -160 71.5 -292.5t193.5 -207.5t268 -75q108 0 206 44.5t169 120.5t113 183t42 227q0 155 -71 283t-192.5 201t-266.5 73q-146 0 -268 -73t-193.5 -201t-71.5 -283z" />
    <glyph glyph-name="multiply" unicode="&#xd7;" horiz-adv-x="1255" 
d="M94 113l424 471l-424 471l113 112l420 -467l420 467l112 -112l-426 -471l426 -471l-112 -113l-420 465l-420 -465z" />
    <glyph glyph-name="Oslash" unicode="&#xd8;" horiz-adv-x="1681" 
d="M250 18l100 140q-119 106 -185.5 254.5t-66.5 320.5q0 205 98 374t268.5 266t375.5 97q209 0 381 -102l92 131l100 -69l-92 -130q123 -103 192.5 -250.5t69.5 -316.5q0 -210 -98 -384t-268.5 -274t-376.5 -100q-214 0 -391 111l-99 -137zM469 324l637 886
q-123 74 -266 74q-146 0 -268 -71.5t-193.5 -198.5t-71.5 -281q0 -121 43 -227t119 -182zM561 244q124 -82 279 -82q110 0 208.5 44t170 119t113.5 181.5t42 226.5t-45.5 225.5t-124.5 178.5z" />
    <glyph glyph-name="Ugrave" unicode="&#xd9;" horiz-adv-x="1632" 
d="M246 539v749h-183v158h570v-158h-182v-747q0 -148 55 -236q44 -70 125.5 -108.5t185.5 -38.5t185.5 39t125.5 112q56 94 56 234v745h-183v158h568v-158h-180v-749q0 -209 -101 -353q-72 -102 -196 -156.5t-275 -54.5q-153 0 -277 55.5t-198 155.5q-96 130 -96 353z
M752 1546l-254 260h229l211 -260h-186z" />
    <glyph glyph-name="Uacute" unicode="&#xda;" horiz-adv-x="1632" 
d="M692 1546l213 260h228l-254 -260h-187zM246 539v749h-183v158h570v-158h-182v-747q0 -148 55 -236q44 -70 125.5 -108.5t185.5 -38.5t185.5 39t125.5 112q56 94 56 234v745h-183v158h568v-158h-180v-749q0 -209 -101 -353q-72 -102 -196 -156.5t-275 -54.5
q-153 0 -277 55.5t-198 155.5q-96 130 -96 353z" />
    <glyph glyph-name="Ucircumflex" unicode="&#xdb;" horiz-adv-x="1632" 
d="M528 1546l181 260h215l180 -260h-178l-109 164h-4l-106 -164h-179zM246 539v749h-183v158h570v-158h-182v-747q0 -148 55 -236q44 -70 125.5 -108.5t185.5 -38.5t185.5 39t125.5 112q56 94 56 234v745h-183v158h568v-158h-180v-749q0 -209 -101 -353
q-72 -102 -196 -156.5t-275 -54.5q-153 0 -277 55.5t-198 155.5q-96 130 -96 353z" />
    <glyph glyph-name="Udieresis" unicode="&#xdc;" horiz-adv-x="1632" 
d="M934 1599v207h176v-207h-176zM524 1599v207h176v-207h-176zM246 539v749h-183v158h570v-158h-182v-747q0 -148 55 -236q44 -70 125.5 -108.5t185.5 -38.5t185.5 39t125.5 112q56 94 56 234v745h-183v158h568v-158h-180v-749q0 -209 -101 -353q-72 -102 -196 -156.5
t-275 -54.5q-153 0 -277 55.5t-198 155.5q-96 130 -96 353z" />
    <glyph glyph-name="Yacute" unicode="&#xdd;" horiz-adv-x="1331" 
d="M381 0v160h182v452l-405 676h-138v158h498v-158h-151l268 -454l29 -62h4q12 31 30 62l269 454h-150v158h494v-158h-137l-406 -676v-452h182v-160h-569zM545 1546l213 260h227l-254 -260h-186z" />
    <glyph glyph-name="Thorn" unicode="&#xde;" horiz-adv-x="1331" 
d="M109 0v160h180v1128h-180v158h567v-158h-184v-147h342q199 0 318.5 -105.5t119.5 -287.5q0 -185 -120.5 -294.5t-320.5 -109.5h-339v-184h184v-160h-567zM492 504h299q131 0 202.5 63.5t71.5 180.5q0 114 -71 173.5t-201 59.5h-301v-477z" />
    <glyph glyph-name="germandbls" unicode="&#xdf;" horiz-adv-x="1273" 
d="M66 0v154h163v931q0 91 37.5 166t100.5 121.5t141.5 72t163.5 25.5q168 0 278.5 -95.5t110.5 -233.5q0 -55 -21.5 -103.5t-51.5 -82.5t-60.5 -64.5t-52 -64t-21.5 -66.5q0 -30 27 -61.5t68 -58t88.5 -63t88.5 -73.5t68 -91.5t27 -115.5q0 -100 -50.5 -172.5
t-128.5 -105.5t-172 -33q-84 0 -156 15t-102 29l-30 15v176q13 -7 36 -17.5t92.5 -28t137.5 -17.5q74 0 123 37t49 110q0 45 -38 88t-92 79.5t-107.5 75.5t-91.5 92.5t-38 113.5q0 47 21 90t51 76.5t60.5 66t51.5 72t21 80.5q0 65 -51 112t-143 47q-97 0 -167.5 -59
t-70.5 -168v-1071h-360z" />
    <glyph glyph-name="agrave" unicode="&#xe0;" 
d="M68 289q0 67 25 121.5t64 90t95.5 62t109 40.5t116 22t106 10t88.5 2h65v39q0 221 -221 221q-73 0 -147 -25t-112 -50l-38 -25l-80 141q6 5 17.5 13.5t51 29.5t82 37t108.5 29.5t134 13.5q198 0 301 -101.5t103 -297.5v-463q0 -45 45 -45h104v-154h-206q-129 0 -129 113
v14q0 18 2 35t4 25l2 8h-4q-4 -9 -11.5 -24t-36.5 -52.5t-64.5 -66.5t-97 -53t-132.5 -24q-90 0 -166 33t-127 106t-51 175zM268 305q0 -73 50.5 -124.5t136.5 -51.5q84 0 150.5 52t100 128t33.5 156v43h-51q-29 0 -53.5 -0.5t-70 -5t-81.5 -11.5t-78.5 -22.5t-70.5 -36
t-47 -53.5t-19 -74zM473 1186l-254 260h230l210 -260h-186z" />
    <glyph glyph-name="aacute" unicode="&#xe1;" 
d="M68 289q0 67 25 121.5t64 90t95.5 62t109 40.5t116 22t106 10t88.5 2h65v39q0 221 -221 221q-73 0 -147 -25t-112 -50l-38 -25l-80 141q6 5 17.5 13.5t51 29.5t82 37t108.5 29.5t134 13.5q198 0 301 -101.5t103 -297.5v-463q0 -45 45 -45h104v-154h-206q-129 0 -129 113
v14q0 18 2 35t4 25l2 8h-4q-4 -9 -11.5 -24t-36.5 -52.5t-64.5 -66.5t-97 -53t-132.5 -24q-90 0 -166 33t-127 106t-51 175zM268 305q0 -73 50.5 -124.5t136.5 -51.5q84 0 150.5 52t100 128t33.5 156v43h-51q-29 0 -53.5 -0.5t-70 -5t-81.5 -11.5t-78.5 -22.5t-70.5 -36
t-47 -53.5t-19 -74zM414 1186l213 260h227l-254 -260h-186z" />
    <glyph glyph-name="acircumflex" unicode="&#xe2;" 
d="M68 289q0 67 25 121.5t64 90t95.5 62t109 40.5t116 22t106 10t88.5 2h65v39q0 221 -221 221q-73 0 -147 -25t-112 -50l-38 -25l-80 141q6 5 17.5 13.5t51 29.5t82 37t108.5 29.5t134 13.5q198 0 301 -101.5t103 -297.5v-463q0 -45 45 -45h104v-154h-206q-129 0 -129 113
v14q0 18 2 35t4 25l2 8h-4q-4 -9 -11.5 -24t-36.5 -52.5t-64.5 -66.5t-97 -53t-132.5 -24q-90 0 -166 33t-127 106t-51 175zM268 305q0 -73 50.5 -124.5t136.5 -51.5q84 0 150.5 52t100 128t33.5 156v43h-51q-29 0 -53.5 -0.5t-70 -5t-81.5 -11.5t-78.5 -22.5t-70.5 -36
t-47 -53.5t-19 -74zM250 1186l180 260h215l180 -260h-178l-108 164h-4l-107 -164h-178z" />
    <glyph glyph-name="atilde" unicode="&#xe3;" 
d="M68 289q0 67 25 121.5t64 90t95.5 62t109 40.5t116 22t106 10t88.5 2h65v39q0 221 -221 221q-73 0 -147 -25t-112 -50l-38 -25l-80 141q6 5 17.5 13.5t51 29.5t82 37t108.5 29.5t134 13.5q198 0 301 -101.5t103 -297.5v-463q0 -45 45 -45h104v-154h-206q-129 0 -129 113
v14q0 18 2 35t4 25l2 8h-4q-4 -9 -11.5 -24t-36.5 -52.5t-64.5 -66.5t-97 -53t-132.5 -24q-90 0 -166 33t-127 106t-51 175zM268 305q0 -73 50.5 -124.5t136.5 -51.5q84 0 150.5 52t100 128t33.5 156v43h-51q-29 0 -53.5 -0.5t-70 -5t-81.5 -11.5t-78.5 -22.5t-70.5 -36
t-47 -53.5t-19 -74zM190 1188q0 260 209 260q41 0 75 -14t56.5 -34t42.5 -40.5t41.5 -34.5t44.5 -14q45 0 63.5 38.5t18.5 92.5h148q0 -260 -209 -260q-41 0 -75 14t-56.5 34t-42.5 40.5t-41.5 34.5t-44.5 14q-82 0 -82 -131h-148z" />
    <glyph glyph-name="adieresis" unicode="&#xe4;" 
d="M68 289q0 67 25 121.5t64 90t95.5 62t109 40.5t116 22t106 10t88.5 2h65v39q0 221 -221 221q-73 0 -147 -25t-112 -50l-38 -25l-80 141q6 5 17.5 13.5t51 29.5t82 37t108.5 29.5t134 13.5q198 0 301 -101.5t103 -297.5v-463q0 -45 45 -45h104v-154h-206q-129 0 -129 113
v14q0 18 2 35t4 25l2 8h-4q-4 -9 -11.5 -24t-36.5 -52.5t-64.5 -66.5t-97 -53t-132.5 -24q-90 0 -166 33t-127 106t-51 175zM268 305q0 -73 50.5 -124.5t136.5 -51.5q84 0 150.5 52t100 128t33.5 156v43h-51q-29 0 -53.5 -0.5t-70 -5t-81.5 -11.5t-78.5 -22.5t-70.5 -36
t-47 -53.5t-19 -74zM655 1239v207h176v-207h-176zM246 1239v207h176v-207h-176z" />
    <glyph glyph-name="aring" unicode="&#xe5;" 
d="M68 289q0 67 25 121.5t64 90t95.5 62t109 40.5t116 22t106 10t88.5 2h65v39q0 221 -221 221q-73 0 -147 -25t-112 -50l-38 -25l-80 141q6 5 17.5 13.5t51 29.5t82 37t108.5 29.5t134 13.5q198 0 301 -101.5t103 -297.5v-463q0 -45 45 -45h104v-154h-206q-129 0 -129 113
v14q0 18 2 35t4 25l2 8h-4q-4 -9 -11.5 -24t-36.5 -52.5t-64.5 -66.5t-97 -53t-132.5 -24q-90 0 -166 33t-127 106t-51 175zM268 305q0 -73 50.5 -124.5t136.5 -51.5q84 0 150.5 52t100 128t33.5 156v43h-51q-29 0 -53.5 -0.5t-70 -5t-81.5 -11.5t-78.5 -22.5t-70.5 -36
t-47 -53.5t-19 -74zM539 1153q-77 0 -133 45t-56 119q0 76 56 123t133 47t134.5 -47t57.5 -123q0 -73 -57.5 -118.5t-134.5 -45.5zM539 1243q35 0 55 20.5t20 53.5q0 37 -20 58.5t-55 21.5q-33 0 -53.5 -22t-20.5 -58q0 -33 20.5 -53.5t53.5 -20.5z" />
    <glyph glyph-name="ae" unicode="&#xe6;" horiz-adv-x="1767" 
d="M70 289q0 67 23.5 121t59.5 89.5t91.5 61t106 38.5t117.5 21t112.5 9.5t103.5 1.5h55v35q0 231 -227 231q-73 0 -146.5 -25t-111.5 -50l-37 -25l-80 141q6 5 17.5 13.5t50.5 29.5t81 37t108 29.5t134 13.5q256 0 336 -182h4q126 182 369 182q138 0 240.5 -65.5
t153 -173.5t50.5 -244l-6 -76h-743q7 -172 104 -266.5t242 -94.5q49 0 98.5 12.5t85 30.5t64 35.5t42.5 30.5l15 12l82 -139q-6 -6 -18 -16t-51.5 -35.5t-83 -45t-110.5 -35.5t-136 -16q-154 0 -269 68.5t-178 192.5h-4q-7 -21 -21.5 -48t-47 -66.5t-73.5 -70.5
t-106.5 -53.5t-140.5 -22.5q-149 0 -252.5 84.5t-103.5 229.5zM940 631h541q-4 128 -75.5 200t-172.5 72q-116 0 -194 -71t-99 -201zM268 299q0 -70 51.5 -119t141.5 -49q81 0 147 51.5t99.5 127t33.5 155.5v37h-96q-377 0 -377 -203z" />
    <glyph glyph-name="ccedilla" unicode="&#xe7;" horiz-adv-x="1132" 
d="M498 -199l49 183q-201 29 -333 172t-132 360q0 156 72.5 281t198 194.5t278.5 69.5q49 0 101.5 -7t107.5 -25t98 -44t70.5 -67.5t27.5 -92.5v-127h-176v72q0 55 -71.5 87t-151.5 32q-157 0 -254.5 -102t-97.5 -267q0 -171 104.5 -272t259.5 -101q165 0 324 128
q3 2 4.5 3.5t3.5 2.5l76 -146q-23 -21 -54 -42.5t-82.5 -49.5t-121 -47t-142.5 -21l-20 -90q68 -5 115 -47t47 -106q0 -60 -34.5 -101.5t-84 -58t-109.5 -16.5q-27 0 -55 3.5t-42 6.5l-15 4v108q41 -12 92 -12q102 0 102 66q0 35 -32.5 52t-85.5 17h-37z" />
    <glyph glyph-name="egrave" unicode="&#xe8;" 
d="M84 518q0 244 146.5 393.5t371.5 149.5q143 0 246.5 -66.5t153 -174.5t49.5 -245l-7 -75h-757q9 -165 111 -259t247 -94q50 0 100.5 12t86.5 29t64.5 34.5t43.5 29.5l14 12l82 -145q-6 -6 -18 -15.5t-52 -34.5t-84 -44t-112 -34.5t-137 -15.5q-160 0 -286 71.5
t-194.5 195t-68.5 276.5zM295 627h551q-4 131 -74.5 203.5t-173.5 72.5q-116 0 -199 -73.5t-104 -202.5zM539 1186l-254 260h229l211 -260h-186z" />
    <glyph glyph-name="eacute" unicode="&#xe9;" 
d="M479 1186l213 260h228l-254 -260h-187zM84 518q0 244 146.5 393.5t371.5 149.5q143 0 246.5 -66.5t153 -174.5t49.5 -245l-7 -75h-757q9 -165 111 -259t247 -94q50 0 100.5 12t86.5 29t64.5 34.5t43.5 29.5l14 12l82 -145q-6 -6 -18 -15.5t-52 -34.5t-84 -44t-112 -34.5
t-137 -15.5q-160 0 -286 71.5t-194.5 195t-68.5 276.5zM295 627h551q-4 131 -74.5 203.5t-173.5 72.5q-116 0 -199 -73.5t-104 -202.5z" />
    <glyph glyph-name="ecircumflex" unicode="&#xea;" 
d="M315 1186l181 260h215l180 -260h-178l-109 164h-4l-106 -164h-179zM84 518q0 244 146.5 393.5t371.5 149.5q143 0 246.5 -66.5t153 -174.5t49.5 -245l-7 -75h-757q9 -165 111 -259t247 -94q50 0 100.5 12t86.5 29t64.5 34.5t43.5 29.5l14 12l82 -145q-6 -6 -18 -15.5
t-52 -34.5t-84 -44t-112 -34.5t-137 -15.5q-160 0 -286 71.5t-194.5 195t-68.5 276.5zM295 627h551q-4 131 -74.5 203.5t-173.5 72.5q-116 0 -199 -73.5t-104 -202.5z" />
    <glyph glyph-name="edieresis" unicode="&#xeb;" 
d="M721 1239v207h176v-207h-176zM311 1239v207h176v-207h-176zM84 518q0 244 146.5 393.5t371.5 149.5q143 0 246.5 -66.5t153 -174.5t49.5 -245l-7 -75h-757q9 -165 111 -259t247 -94q50 0 100.5 12t86.5 29t64.5 34.5t43.5 29.5l14 12l82 -145q-6 -6 -18 -15.5t-52 -34.5
t-84 -44t-112 -34.5t-137 -15.5q-160 0 -286 71.5t-194.5 195t-68.5 276.5zM295 627h551q-4 131 -74.5 203.5t-173.5 72.5q-116 0 -199 -73.5t-104 -202.5z" />
    <glyph glyph-name="igrave" unicode="&#xec;" horiz-adv-x="661" 
d="M96 0v154h152v729h-156v153h354v-882h150v-154h-500zM281 1186l-254 260h229l211 -260h-186z" />
    <glyph glyph-name="iacute" unicode="&#xed;" horiz-adv-x="661" 
d="M221 1186l213 260h228l-254 -260h-187zM96 0v154h152v729h-156v153h354v-882h150v-154h-500z" />
    <glyph glyph-name="icircumflex" unicode="&#xee;" horiz-adv-x="661" 
d="M57 1186l181 260h215l180 -260h-178l-109 164h-4l-106 -164h-179zM96 0v154h152v729h-156v153h354v-882h150v-154h-500z" />
    <glyph glyph-name="idieresis" unicode="&#xef;" horiz-adv-x="661" 
d="M96 0v154h152v729h-156v153h354v-882h150v-154h-500zM426 1239v207h176v-207h-176zM72 1239v207h176v-207h-176z" />
    <glyph glyph-name="eth" unicode="&#xf0;" horiz-adv-x="1208" 
d="M88 481q0 92 32 176t91 151t152.5 106.5t207.5 39.5q46 0 89.5 -9t71.5 -21.5t49.5 -25t31.5 -21.5l10 -9h4q-64 170 -227 279l-364 -160l-21 107l264 118q-137 69 -274 99l55 162q250 -58 434 -170l273 122l20 -108l-194 -88q138 -113 218.5 -282t80.5 -384
q0 -86 -17.5 -167.5t-58 -158.5t-99 -134.5t-147.5 -92.5t-197 -35q-113 0 -206.5 43t-153.5 114.5t-92.5 161.5t-32.5 187zM289 477q0 -135 77 -232.5t212 -97.5q80 0 142.5 34.5t98.5 90.5t54 121.5t18 134.5q0 117 -79.5 192t-209.5 75q-150 0 -231.5 -93.5t-81.5 -224.5
z" />
    <glyph glyph-name="ntilde" unicode="&#xf1;" horiz-adv-x="1411" 
d="M98 0v154h162v684q0 45 -45 45h-127v153h234q131 0 131 -114v-54q0 -15 -1.5 -29.5t-3.5 -22.5l-2 -7h5q7 20 24 47.5t51.5 64.5t78 67.5t109.5 51.5t140 21q177 0 260.5 -98.5t83.5 -298.5v-510h164v-154h-363v618q0 60 -7.5 103t-27 81t-59.5 57.5t-100 19.5
q-101 0 -181.5 -56.5t-122.5 -147t-42 -194.5v-327h164v-154h-525zM397 1188q0 260 209 260q41 0 75 -14t56.5 -34t42.5 -40.5t41.5 -34.5t44.5 -14q45 0 63.5 38.5t18.5 92.5h148q0 -260 -209 -260q-41 0 -75 14t-56.5 34t-42.5 40.5t-41.5 34.5t-44.5 14q-82 0 -82 -131
h-148z" />
    <glyph glyph-name="ograve" unicode="&#xf2;" horiz-adv-x="1282" 
d="M82 520q0 115 44 216t119.5 172t178 112t217.5 41t217.5 -41t178 -112t119.5 -172t44 -216q0 -154 -75 -279.5t-203 -195.5t-281 -70t-281 70t-203 195.5t-75 279.5zM285 520q0 -161 103 -267t253 -106q148 0 252 106t104 267q0 159 -104 264t-252 105q-150 0 -253 -105
t-103 -264zM575 1186l-253 260h229l211 -260h-187z" />
    <glyph glyph-name="oacute" unicode="&#xf3;" horiz-adv-x="1282" 
d="M518 1186l213 260h227l-253 -260h-187zM82 520q0 115 44 216t119.5 172t178 112t217.5 41t217.5 -41t178 -112t119.5 -172t44 -216q0 -154 -75 -279.5t-203 -195.5t-281 -70t-281 70t-203 195.5t-75 279.5zM285 520q0 -161 103 -267t253 -106q148 0 252 106t104 267
q0 159 -104 264t-252 105q-150 0 -253 -105t-103 -264z" />
    <glyph glyph-name="ocircumflex" unicode="&#xf4;" horiz-adv-x="1282" 
d="M354 1186l181 260h215l180 -260h-178l-109 164h-4l-107 -164h-178zM82 520q0 115 44 216t119.5 172t178 112t217.5 41t217.5 -41t178 -112t119.5 -172t44 -216q0 -154 -75 -279.5t-203 -195.5t-281 -70t-281 70t-203 195.5t-75 279.5zM285 520q0 -161 103 -267t253 -106
q148 0 252 106t104 267q0 159 -104 264t-252 105q-150 0 -253 -105t-103 -264z" />
    <glyph glyph-name="otilde" unicode="&#xf5;" horiz-adv-x="1282" 
d="M82 520q0 115 44 216t119.5 172t178 112t217.5 41t217.5 -41t178 -112t119.5 -172t44 -216q0 -154 -75 -279.5t-203 -195.5t-281 -70t-281 70t-203 195.5t-75 279.5zM285 520q0 -161 103 -267t253 -106q148 0 252 106t104 267q0 159 -104 264t-252 105q-150 0 -253 -105
t-103 -264zM293 1188q0 260 209 260q41 0 75 -14t56.5 -34t42.5 -40.5t41.5 -34.5t44.5 -14q45 0 63.5 38.5t18.5 92.5h147q0 -260 -209 -260q-41 0 -75 14t-56.5 34t-42.5 40.5t-41.5 34.5t-44.5 14q-82 0 -82 -131h-147z" />
    <glyph glyph-name="odieresis" unicode="&#xf6;" horiz-adv-x="1282" 
d="M758 1239v207h176v-207h-176zM348 1239v207h176v-207h-176zM82 520q0 115 44 216t119.5 172t178 112t217.5 41t217.5 -41t178 -112t119.5 -172t44 -216q0 -154 -75 -279.5t-203 -195.5t-281 -70t-281 70t-203 195.5t-75 279.5zM285 520q0 -161 103 -267t253 -106
q148 0 252 106t104 267q0 159 -104 264t-252 105q-150 0 -253 -105t-103 -264z" />
    <glyph glyph-name="divide" unicode="&#xf7;" horiz-adv-x="1255" 
d="M530 891v186h193v-186h-193zM111 504v160h1034v-160h-1034zM530 90v186h193v-186h-193z" />
    <glyph glyph-name="oslash" unicode="&#xf8;" horiz-adv-x="1282" 
d="M207 -10l76 108q-93 73 -146 183.5t-53 238.5q0 153 74.5 277.5t202 194t280.5 69.5q150 0 281 -72l82 113l88 -62l-80 -110q87 -74 137.5 -181t50.5 -229q0 -154 -75 -279.5t-203 -195.5t-281 -70q-140 0 -266 66l-80 -115zM395 254l422 588q-89 47 -176 47
q-148 0 -252 -105t-104 -264q0 -151 110 -266zM481 188q77 -41 160 -41q150 0 253 106t103 267q0 144 -98 252z" />
    <glyph glyph-name="ugrave" unicode="&#xf9;" horiz-adv-x="1361" 
d="M215 373v510h-174v153h373v-622q0 -47 4 -82.5t16.5 -70t33.5 -56.5t56.5 -35.5t83.5 -13.5q100 0 178 58.5t118 149.5t40 195v324h-174v153h373v-839q0 -45 45 -45h108v-152h-215q-131 0 -131 115v45l4 61h-4q-7 -20 -23.5 -47t-50.5 -63t-76 -65.5t-107 -50t-138 -20.5
q-169 0 -254.5 97.5t-85.5 300.5zM588 1186l-254 260h229l211 -260h-186z" />
    <glyph glyph-name="uacute" unicode="&#xfa;" horiz-adv-x="1361" 
d="M530 1186l213 260h228l-254 -260h-187zM215 373v510h-174v153h373v-622q0 -47 4 -82.5t16.5 -70t33.5 -56.5t56.5 -35.5t83.5 -13.5q100 0 178 58.5t118 149.5t40 195v324h-174v153h373v-839q0 -45 45 -45h108v-152h-215q-131 0 -131 115v45l4 61h-4q-7 -20 -23.5 -47
t-50.5 -63t-76 -65.5t-107 -50t-138 -20.5q-169 0 -254.5 97.5t-85.5 300.5z" />
    <glyph glyph-name="ucircumflex" unicode="&#xfb;" horiz-adv-x="1361" 
d="M365 1186l180 260h215l180 -260h-178l-109 164h-4l-106 -164h-178zM215 373v510h-174v153h373v-622q0 -47 4 -82.5t16.5 -70t33.5 -56.5t56.5 -35.5t83.5 -13.5q100 0 178 58.5t118 149.5t40 195v324h-174v153h373v-839q0 -45 45 -45h108v-152h-215q-131 0 -131 115v45
l4 61h-4q-7 -20 -23.5 -47t-50.5 -63t-76 -65.5t-107 -50t-138 -20.5q-169 0 -254.5 97.5t-85.5 300.5z" />
    <glyph glyph-name="udieresis" unicode="&#xfc;" horiz-adv-x="1361" 
d="M770 1239v207h176v-207h-176zM360 1239v207h177v-207h-177zM215 373v510h-174v153h373v-622q0 -47 4 -82.5t16.5 -70t33.5 -56.5t56.5 -35.5t83.5 -13.5q100 0 178 58.5t118 149.5t40 195v324h-174v153h373v-839q0 -45 45 -45h108v-152h-215q-131 0 -131 115v45l4 61h-4
q-7 -20 -23.5 -47t-50.5 -63t-76 -65.5t-107 -50t-138 -20.5q-169 0 -254.5 97.5t-85.5 300.5z" />
    <glyph glyph-name="yacute" unicode="&#xfd;" horiz-adv-x="1208" 
d="M131 -215q7 -5 19.5 -13.5t51 -22t77.5 -13.5q64 0 113 39.5t77 103.5l43 103l-362 901h-132v153h474v-153h-138l232 -617q6 -20 10.5 -42.5t5.5 -35.5l2 -12h6q9 45 25 90l229 617h-133v153h459v-153h-129l-410 -1047q-52 -130 -147 -198t-217 -68q-59 0 -115 16t-82 32
l-27 17zM492 1186l213 260h227l-254 -260h-186z" />
    <glyph glyph-name="thorn" unicode="&#xfe;" horiz-adv-x="1245" 
d="M6 1292v154h367v-475l-4 -86h4q3 7 10 19t34 42.5t60.5 53.5t93.5 42t129 19q208 0 333.5 -152t125.5 -391t-130 -391t-335 -152q-67 0 -125 18t-92.5 43.5t-59 51.5t-34.5 44l-10 18h-4q4 -38 4 -91v-315h162v-154h-525v154h164v1548h-168zM367 516q0 -163 80.5 -266
t216.5 -103q128 0 211 103t83 268t-80 268t-210 103q-131 0 -216 -92t-85 -281z" />
    <glyph glyph-name="ydieresis" unicode="&#xff;" horiz-adv-x="1208" 
d="M131 -215q7 -5 19.5 -13.5t51 -22t77.5 -13.5q64 0 113 39.5t77 103.5l43 103l-362 901h-132v153h474v-153h-138l232 -617q6 -20 10.5 -42.5t5.5 -35.5l2 -12h6q9 45 25 90l229 617h-133v153h459v-153h-129l-410 -1047q-52 -130 -147 -198t-217 -68q-59 0 -115 16t-82 32
l-27 17zM731 1239v207h176v-207h-176zM322 1239v207h176v-207h-176z" />
    <glyph glyph-name="Amacron" unicode="&#x100;" horiz-adv-x="1476" 
d="M23 0v160h139l461 1286h231l461 -1286h139v-160h-502v160h154l-113 321h-512l-112 -321h155v-160h-501zM532 645h410l-176 502q-9 26 -15 53.5t-8 41.5l-2 15h-6q-6 -51 -24 -110zM477 1606v145h522v-145h-522z" />
    <glyph glyph-name="amacron" unicode="&#x101;" 
d="M68 289q0 67 25 121.5t64 90t95.5 62t109 40.5t116 22t106 10t88.5 2h65v39q0 221 -221 221q-73 0 -147 -25t-112 -50l-38 -25l-80 141q6 5 17.5 13.5t51 29.5t82 37t108.5 29.5t134 13.5q198 0 301 -101.5t103 -297.5v-463q0 -45 45 -45h104v-154h-206q-129 0 -129 113
v14q0 18 2 35t4 25l2 8h-4q-4 -9 -11.5 -24t-36.5 -52.5t-64.5 -66.5t-97 -53t-132.5 -24q-90 0 -166 33t-127 106t-51 175zM268 305q0 -73 50.5 -124.5t136.5 -51.5q84 0 150.5 52t100 128t33.5 156v43h-51q-29 0 -53.5 -0.5t-70 -5t-81.5 -11.5t-78.5 -22.5t-70.5 -36
t-47 -53.5t-19 -74zM279 1245v146h522v-146h-522z" />
    <glyph glyph-name="Abreve" unicode="&#x102;" horiz-adv-x="1476" 
d="M23 0v160h139l461 1286h231l461 -1286h139v-160h-502v160h154l-113 321h-512l-112 -321h155v-160h-501zM532 645h410l-176 502q-9 26 -15 53.5t-8 41.5l-2 15h-6q-6 -51 -24 -110zM737 1538q-114 0 -193 63.5t-79 176.5v28h151v-26q0 -59 35.5 -90t85.5 -31
q48 0 83.5 31.5t35.5 91.5v24h152v-28q0 -113 -79 -176.5t-192 -63.5z" />
    <glyph glyph-name="abreve" unicode="&#x103;" 
d="M68 289q0 67 25 121.5t64 90t95.5 62t109 40.5t116 22t106 10t88.5 2h65v39q0 221 -221 221q-73 0 -147 -25t-112 -50l-38 -25l-80 141q6 5 17.5 13.5t51 29.5t82 37t108.5 29.5t134 13.5q198 0 301 -101.5t103 -297.5v-463q0 -45 45 -45h104v-154h-206q-129 0 -129 113
v14q0 18 2 35t4 25l2 8h-4q-4 -9 -11.5 -24t-36.5 -52.5t-64.5 -66.5t-97 -53t-132.5 -24q-90 0 -166 33t-127 106t-51 175zM268 305q0 -73 50.5 -124.5t136.5 -51.5q84 0 150.5 52t100 128t33.5 156v43h-51q-29 0 -53.5 -0.5t-70 -5t-81.5 -11.5t-78.5 -22.5t-70.5 -36
t-47 -53.5t-19 -74zM539 1178q-114 0 -193.5 63t-79.5 176v29h152v-27q0 -59 35.5 -90t85.5 -31q48 0 83 31.5t35 91.5v25h152v-29q0 -113 -78.5 -176t-191.5 -63z" />
    <glyph glyph-name="Aogonek" unicode="&#x104;" horiz-adv-x="1476" 
d="M1122 -244q0 71 39.5 135.5t98.5 108.5h-308v160h154l-113 321h-512l-112 -321h155v-160h-501v160h139l461 1286h231l461 -1286h139v-160h-10q-36 0 -101 -72.5t-65 -138.5q0 -26 14 -46t36.5 -30.5t42 -16t38.5 -7.5l-37 -140q-29 3 -58 9.5t-65 22t-63 37.5t-45.5 58
t-18.5 80zM532 645h410l-176 502q-9 26 -15 53.5t-8 41.5l-2 15h-6q-6 -51 -24 -110z" />
    <glyph glyph-name="aogonek" unicode="&#x105;" 
d="M752 -244q0 71 40 135t99 109h-19q-60 0 -91 29.5t-31 83.5v14q0 18 2 35t4 25l2 8h-4q-4 -9 -11.5 -24t-36.5 -52.5t-64.5 -66.5t-97 -53t-132.5 -24q-90 0 -166 33t-127 106t-51 175q0 67 25 121.5t64 90t95.5 62t109 40.5t116 22t106 10t88.5 2h65v39q0 221 -221 221
q-73 0 -147 -25t-112 -50l-38 -25l-80 141q6 5 17.5 13.5t51 29.5t82 37t108.5 29.5t134 13.5q198 0 301 -101.5t103 -297.5v-463q0 -45 45 -45h104v-154h-10q-36 0 -101 -72.5t-65 -138.5q0 -34 25.5 -57.5t51.5 -31.5t52 -11l-37 -140q-28 3 -57 9.5t-65 22t-63 37.5
t-45.5 58t-18.5 80zM268 305q0 -73 50.5 -124.5t136.5 -51.5q84 0 150.5 52t100 128t33.5 156v43h-51q-29 0 -53.5 -0.5t-70 -5t-81.5 -11.5t-78.5 -22.5t-70.5 -36t-47 -53.5t-19 -74z" />
    <glyph glyph-name="Cacute" unicode="&#x106;" horiz-adv-x="1523" 
d="M692 1546l213 260h228l-254 -260h-187zM100 731q0 209 97.5 378.5t267 265t375.5 95.5q58 0 124.5 -8t144 -29t139 -52t102.5 -82t41 -115v-176h-191v112q0 45 -35.5 80.5t-91 54.5t-113.5 29t-112 10q-233 0 -385 -155.5t-152 -399.5q0 -255 156 -420t393 -165
q45 0 100.5 8.5t117 26t102.5 53t41 82.5v112h190v-176q0 -61 -39.5 -111t-100.5 -81.5t-138.5 -53t-148.5 -30.5t-136 -9q-160 0 -299.5 59t-237.5 160.5t-154.5 241t-56.5 295.5z" />
    <glyph glyph-name="cacute" unicode="&#x107;" horiz-adv-x="1132" 
d="M481 1186l213 260h228l-254 -260h-187zM82 516q0 156 72.5 281t198 194.5t278.5 69.5q49 0 101.5 -7t107.5 -25t98 -44t70.5 -67.5t27.5 -92.5v-127h-176v72q0 55 -71.5 87t-151.5 32q-157 0 -254.5 -102t-97.5 -267q0 -171 104.5 -272t259.5 -101q165 0 324 128
q3 2 4.5 3.5t3.5 2.5l76 -146q-24 -22 -56 -44t-85.5 -51t-125.5 -47t-149 -18q-151 0 -277 64.5t-204 189.5t-78 287z" />
    <glyph glyph-name="Ccircumflex" unicode="&#x108;" horiz-adv-x="1523" 
d="M528 1546l181 260h215l180 -260h-178l-109 164h-4l-106 -164h-179zM100 731q0 209 97.5 378.5t267 265t375.5 95.5q58 0 124.5 -8t144 -29t139 -52t102.5 -82t41 -115v-176h-191v112q0 45 -35.5 80.5t-91 54.5t-113.5 29t-112 10q-233 0 -385 -155.5t-152 -399.5
q0 -255 156 -420t393 -165q45 0 100.5 8.5t117 26t102.5 53t41 82.5v112h190v-176q0 -61 -39.5 -111t-100.5 -81.5t-138.5 -53t-148.5 -30.5t-136 -9q-160 0 -299.5 59t-237.5 160.5t-154.5 241t-56.5 295.5z" />
    <glyph glyph-name="ccircumflex" unicode="&#x109;" horiz-adv-x="1132" 
d="M317 1186l181 260h215l180 -260h-178l-109 164h-4l-106 -164h-179zM82 516q0 156 72.5 281t198 194.5t278.5 69.5q49 0 101.5 -7t107.5 -25t98 -44t70.5 -67.5t27.5 -92.5v-127h-176v72q0 55 -71.5 87t-151.5 32q-157 0 -254.5 -102t-97.5 -267q0 -171 104.5 -272
t259.5 -101q165 0 324 128q3 2 4.5 3.5t3.5 2.5l76 -146q-24 -22 -56 -44t-85.5 -51t-125.5 -47t-149 -18q-151 0 -277 64.5t-204 189.5t-78 287z" />
    <glyph glyph-name="Cdotaccent" unicode="&#x10a;" horiz-adv-x="1523" 
d="M100 731q0 209 97.5 378.5t267 265t375.5 95.5q58 0 124.5 -8t144 -29t139 -52t102.5 -82t41 -115v-176h-191v112q0 45 -35.5 80.5t-91 54.5t-113.5 29t-112 10q-233 0 -385 -155.5t-152 -399.5q0 -255 156 -420t393 -165q45 0 100.5 8.5t117 26t102.5 53t41 82.5v112
h190v-176q0 -61 -39.5 -111t-100.5 -81.5t-138.5 -53t-148.5 -30.5t-136 -9q-160 0 -299.5 59t-237.5 160.5t-154.5 241t-56.5 295.5zM723 1606v200h186v-200h-186z" />
    <glyph glyph-name="cdotaccent" unicode="&#x10b;" horiz-adv-x="1132" 
d="M82 516q0 156 72.5 281t198 194.5t278.5 69.5q49 0 101.5 -7t107.5 -25t98 -44t70.5 -67.5t27.5 -92.5v-127h-176v72q0 55 -71.5 87t-151.5 32q-157 0 -254.5 -102t-97.5 -267q0 -171 104.5 -272t259.5 -101q165 0 324 128q3 2 4.5 3.5t3.5 2.5l76 -146q-24 -22 -56 -44
t-85.5 -51t-125.5 -47t-149 -18q-151 0 -277 64.5t-204 189.5t-78 287zM512 1245v201h186v-201h-186z" />
    <glyph glyph-name="Ccaron" unicode="&#x10c;" horiz-adv-x="1523" 
d="M709 1546l-181 260h179l106 -166h4l109 166h178l-180 -260h-215zM100 731q0 209 97.5 378.5t267 265t375.5 95.5q58 0 124.5 -8t144 -29t139 -52t102.5 -82t41 -115v-176h-191v112q0 45 -35.5 80.5t-91 54.5t-113.5 29t-112 10q-233 0 -385 -155.5t-152 -399.5
q0 -255 156 -420t393 -165q45 0 100.5 8.5t117 26t102.5 53t41 82.5v112h190v-176q0 -61 -39.5 -111t-100.5 -81.5t-138.5 -53t-148.5 -30.5t-136 -9q-160 0 -299.5 59t-237.5 160.5t-154.5 241t-56.5 295.5z" />
    <glyph glyph-name="ccaron" unicode="&#x10d;" horiz-adv-x="1132" 
d="M498 1186l-181 260h179l106 -166h4l109 166h178l-180 -260h-215zM82 516q0 156 72.5 281t198 194.5t278.5 69.5q49 0 101.5 -7t107.5 -25t98 -44t70.5 -67.5t27.5 -92.5v-127h-176v72q0 55 -71.5 87t-151.5 32q-157 0 -254.5 -102t-97.5 -267q0 -171 104.5 -272
t259.5 -101q165 0 324 128q3 2 4.5 3.5t3.5 2.5l76 -146q-24 -22 -56 -44t-85.5 -51t-125.5 -47t-149 -18q-151 0 -277 64.5t-204 189.5t-78 287z" />
    <glyph glyph-name="Dcaron" unicode="&#x10e;" horiz-adv-x="1595" 
d="M639 1546l-180 260h178l106 -166h5l108 166h178l-180 -260h-215zM109 0v160h180v1128h-180v158h616q191 0 307 -35q210 -66 333.5 -247t123.5 -441t-121 -438t-336 -246q-118 -39 -305 -39h-618zM494 168h221q152 0 246 37q148 52 231.5 187t83.5 331q0 197 -83 333
t-230 189q-91 33 -248 33h-221v-1110z" />
    <glyph glyph-name="dcaron" unicode="&#x10f;" horiz-adv-x="1288" 
d="M1208 1446h174q15 -46 15 -100q0 -77 -43 -141.5t-113 -100.5l-86 70q78 75 78 159q0 46 -25 113zM86 518q0 246 130 394.5t341 148.5q66 0 123.5 -18t92 -43.5t59.5 -51t35 -43.5l10 -18h4q-7 33 -7 78v327h-172v154h371v-1247q0 -45 45 -45h105v-154h-207
q-129 0 -129 113v14q0 16 1.5 29.5t3.5 19.5l1 6h-4q-3 -8 -10.5 -22t-36.5 -50t-65 -63t-100 -49.5t-138 -22.5q-207 0 -330 149.5t-123 393.5zM289 518q0 -167 81.5 -269t211.5 -102q126 0 212.5 93.5t86.5 275.5q0 98 -31 180.5t-99.5 136.5t-162.5 54q-129 0 -214 -98.5
t-85 -270.5z" />
    <glyph glyph-name="Dcroat" unicode="&#x110;" horiz-adv-x="1611" 
d="M109 0v160h180v479h-154v168h154v481h-180v158h663q221 0 386 -84t256 -248t91 -389q0 -340 -198.5 -532.5t-534.5 -192.5h-663zM494 168h264q246 0 390 145t144 412q0 264 -145 408.5t-389 144.5h-264v-471h317v-168h-317v-471z" />
    <glyph glyph-name="dcroat" unicode="&#x111;" horiz-adv-x="1288" 
d="M86 518q0 246 130 394.5t341 148.5q66 0 123.5 -18.5t92 -44.5t59.5 -52t35 -44l10 -19h4q-7 35 -7 78v196h-307v129h307v160h199v-160h156v-129h-156v-958q0 -45 45 -45h105v-154h-207q-129 0 -129 113v14q0 16 1.5 29.5t3.5 19.5l1 6h-4q-3 -8 -10.5 -22t-36.5 -50
t-65 -63t-100 -49.5t-138 -22.5q-207 0 -330 149.5t-123 393.5zM289 518q0 -167 81.5 -269t211.5 -102q126 0 212.5 93.5t86.5 275.5q0 98 -31 180.5t-99.5 136.5t-162.5 54q-129 0 -214 -98.5t-85 -270.5z" />
    <glyph glyph-name="Emacron" unicode="&#x112;" horiz-adv-x="1294" 
d="M109 0v160h180v1128h-180v158h1046v-336h-178v168h-483v-465h512v-168h-512v-477h518v174h178v-342h-1081zM408 1606v145h522v-145h-522z" />
    <glyph glyph-name="emacron" unicode="&#x113;" 
d="M84 518q0 244 146.5 393.5t371.5 149.5q143 0 246.5 -66.5t153 -174.5t49.5 -245l-7 -75h-757q9 -165 111 -259t247 -94q50 0 100.5 12t86.5 29t64.5 34.5t43.5 29.5l14 12l82 -145q-6 -6 -18 -15.5t-52 -34.5t-84 -44t-112 -34.5t-137 -15.5q-160 0 -286 71.5
t-194.5 195t-68.5 276.5zM295 627h551q-4 131 -74.5 203.5t-173.5 72.5q-116 0 -199 -73.5t-104 -202.5zM344 1245v146h522v-146h-522z" />
    <glyph glyph-name="Ebreve" unicode="&#x114;" horiz-adv-x="1294" 
d="M109 0v160h180v1128h-180v158h1046v-336h-178v168h-483v-465h512v-168h-512v-477h518v174h178v-342h-1081zM668 1538q-114 0 -193.5 63.5t-79.5 176.5v28h152v-26q0 -59 35.5 -90t85.5 -31q48 0 83 31.5t35 91.5v24h152v-28q0 -113 -78.5 -176.5t-191.5 -63.5z" />
    <glyph glyph-name="ebreve" unicode="&#x115;" 
d="M84 518q0 244 146.5 393.5t371.5 149.5q143 0 246.5 -66.5t153 -174.5t49.5 -245l-7 -75h-757q9 -165 111 -259t247 -94q50 0 100.5 12t86.5 29t64.5 34.5t43.5 29.5l14 12l82 -145q-6 -6 -18 -15.5t-52 -34.5t-84 -44t-112 -34.5t-137 -15.5q-160 0 -286 71.5
t-194.5 195t-68.5 276.5zM295 627h551q-4 131 -74.5 203.5t-173.5 72.5q-116 0 -199 -73.5t-104 -202.5zM604 1178q-114 0 -193 63t-79 176v29h151v-27q0 -59 35.5 -90t85.5 -31q48 0 83.5 31.5t35.5 91.5v25h151v-29q0 -113 -78.5 -176t-191.5 -63z" />
    <glyph glyph-name="Edotaccent" unicode="&#x116;" horiz-adv-x="1294" 
d="M109 0v160h180v1128h-180v158h1046v-336h-178v168h-483v-465h512v-168h-512v-477h518v174h178v-342h-1081zM573 1606v200h187v-200h-187z" />
    <glyph glyph-name="edotaccent" unicode="&#x117;" 
d="M84 518q0 244 146.5 393.5t371.5 149.5q143 0 246.5 -66.5t153 -174.5t49.5 -245l-7 -75h-757q9 -165 111 -259t247 -94q50 0 100.5 12t86.5 29t64.5 34.5t43.5 29.5l14 12l82 -145q-6 -6 -18 -15.5t-52 -34.5t-84 -44t-112 -34.5t-137 -15.5q-160 0 -286 71.5
t-194.5 195t-68.5 276.5zM295 627h551q-4 131 -74.5 203.5t-173.5 72.5q-116 0 -199 -73.5t-104 -202.5zM510 1245v201h186v-201h-186z" />
    <glyph glyph-name="Eogonek" unicode="&#x118;" horiz-adv-x="1294" 
d="M109 0v160h180v1128h-180v158h1046v-336h-178v168h-483v-465h512v-168h-512v-477h518v174h178v-342h-12q-22 0 -61.5 -32t-73 -83t-33.5 -96q0 -34 25.5 -57.5t51.5 -31.5t52 -11l-37 -140q-28 3 -57 9.5t-65 22t-63.5 37.5t-46 58t-18.5 80q0 71 40 135t99 109h-882z
" />
    <glyph glyph-name="eogonek" unicode="&#x119;" 
d="M84 518q0 244 146.5 393.5t371.5 149.5q143 0 246.5 -66.5t153 -174.5t49.5 -245l-7 -75h-757q9 -165 111 -259t247 -94q50 0 100.5 12t86.5 29t64.5 34.5t43.5 29.5l14 12l82 -145q-72 -56 -172 -107q-15 -7 -38.5 -25t-53 -47t-50 -69.5t-20.5 -81.5q0 -34 25 -57.5
t51 -31.5t53 -11l-36 -140q-28 3 -57 9.5t-65 22t-63.5 37.5t-46 58t-18.5 80q0 61 31 118.5t81 102.5q-126 -6 -234 35t-182 115t-115.5 175.5t-41.5 215.5zM295 627h551q-4 131 -74.5 203.5t-173.5 72.5q-116 0 -199 -73.5t-104 -202.5z" />
    <glyph glyph-name="Ecaron" unicode="&#x11a;" horiz-adv-x="1294" 
d="M561 1546l-180 260h178l107 -166h4l108 166h178l-180 -260h-215zM109 0v160h180v1128h-180v158h1046v-336h-178v168h-483v-465h512v-168h-512v-477h518v174h178v-342h-1081z" />
    <glyph glyph-name="ecaron" unicode="&#x11b;" 
d="M496 1186l-181 260h179l106 -166h4l109 166h178l-180 -260h-215zM84 518q0 244 146.5 393.5t371.5 149.5q143 0 246.5 -66.5t153 -174.5t49.5 -245l-7 -75h-757q9 -165 111 -259t247 -94q50 0 100.5 12t86.5 29t64.5 34.5t43.5 29.5l14 12l82 -145q-6 -6 -18 -15.5
t-52 -34.5t-84 -44t-112 -34.5t-137 -15.5q-160 0 -286 71.5t-194.5 195t-68.5 276.5zM295 627h551q-4 131 -74.5 203.5t-173.5 72.5q-116 0 -199 -73.5t-104 -202.5z" />
    <glyph glyph-name="Gcircumflex" unicode="&#x11c;" horiz-adv-x="1568" 
d="M543 1546l180 260h215l180 -260h-178l-109 164h-4l-106 -164h-178zM100 727q0 159 55.5 296.5t154 236t240.5 154.5t308 56q97 0 194 -19t178.5 -54t132 -90.5t50.5 -120.5v-178h-188v106q0 57 -56 99.5t-136 61.5t-169 19q-251 0 -401 -155t-150 -406q0 -167 67.5 -298
t195 -206t294.5 -75q55 0 116 9t125 28t105 56t41 87v190h-282v160h471v-405q0 -64 -41 -117t-104 -86.5t-143.5 -57t-156.5 -33.5t-145 -10q-218 0 -391.5 98.5t-269 270t-95.5 383.5z" />
    <glyph glyph-name="gcircumflex" unicode="&#x11d;" horiz-adv-x="1282" 
d="M326 1186l180 260h215l180 -260h-178l-109 164h-4l-106 -164h-178zM248 -193q14 -8 39.5 -19.5t100.5 -30.5t144 -19q146 0 237 72t91 223v82l6 65h-4q-100 -168 -311 -168q-140 0 -246.5 70.5t-161.5 190.5t-55 270q0 149 52.5 265.5t157 184.5t245.5 68q110 0 203 -43
t133 -127h4q-4 14 -4 41q0 51 28 77.5t90 26.5h222v-153h-115q-45 0 -45 -41v-799q0 -123 -44 -217t-119.5 -148.5t-166 -81t-192.5 -26.5q-183 0 -355 86zM590 184q120 0 197 84.5t77 272.5q0 348 -293 348q-133 0 -206.5 -91.5t-73.5 -250.5q0 -163 80.5 -263t218.5 -100z
" />
    <glyph glyph-name="Gbreve" unicode="&#x11e;" horiz-adv-x="1568" 
d="M100 727q0 159 55.5 296.5t154 236t240.5 154.5t308 56q97 0 194 -19t178.5 -54t132 -90.5t50.5 -120.5v-178h-188v106q0 57 -56 99.5t-136 61.5t-169 19q-251 0 -401 -155t-150 -406q0 -167 67.5 -298t195 -206t294.5 -75q55 0 116 9t125 28t105 56t41 87v190h-282v160
h471v-405q0 -64 -41 -117t-104 -86.5t-143.5 -57t-156.5 -33.5t-145 -10q-218 0 -391.5 98.5t-269 270t-95.5 383.5zM831 1538q-114 0 -193 63.5t-79 176.5v28h152v-26q0 -59 35 -90t85 -31q48 0 83.5 31.5t35.5 91.5v24h152v-28q0 -113 -79 -176.5t-192 -63.5z" />
    <glyph glyph-name="gbreve" unicode="&#x11f;" horiz-adv-x="1282" 
d="M248 -193q14 -8 39.5 -19.5t100.5 -30.5t144 -19q146 0 237 72t91 223v82l6 65h-4q-100 -168 -311 -168q-140 0 -246.5 70.5t-161.5 190.5t-55 270q0 149 52.5 265.5t157 184.5t245.5 68q110 0 203 -43t133 -127h4q-4 14 -4 41q0 51 28 77.5t90 26.5h222v-153h-115
q-45 0 -45 -41v-799q0 -123 -44 -217t-119.5 -148.5t-166 -81t-192.5 -26.5q-183 0 -355 86zM590 184q120 0 197 84.5t77 272.5q0 348 -293 348q-133 0 -206.5 -91.5t-73.5 -250.5q0 -163 80.5 -263t218.5 -100zM614 1178q-114 0 -193 63t-79 176v29h152v-27q0 -59 35 -90
t85 -31q48 0 83.5 31.5t35.5 91.5v25h152v-29q0 -113 -79 -176t-192 -63z" />
    <glyph glyph-name="Gdotaccent" unicode="&#x120;" horiz-adv-x="1568" 
d="M100 727q0 159 55.5 296.5t154 236t240.5 154.5t308 56q97 0 194 -19t178.5 -54t132 -90.5t50.5 -120.5v-178h-188v106q0 57 -56 99.5t-136 61.5t-169 19q-251 0 -401 -155t-150 -406q0 -167 67.5 -298t195 -206t294.5 -75q55 0 116 9t125 28t105 56t41 87v190h-282v160
h471v-405q0 -64 -41 -117t-104 -86.5t-143.5 -57t-156.5 -33.5t-145 -10q-218 0 -391.5 98.5t-269 270t-95.5 383.5zM737 1606v200h187v-200h-187z" />
    <glyph glyph-name="gdotaccent" unicode="&#x121;" horiz-adv-x="1282" 
d="M248 -193q14 -8 39.5 -19.5t100.5 -30.5t144 -19q146 0 237 72t91 223v82l6 65h-4q-100 -168 -311 -168q-140 0 -246.5 70.5t-161.5 190.5t-55 270q0 149 52.5 265.5t157 184.5t245.5 68q110 0 203 -43t133 -127h4q-4 14 -4 41q0 51 28 77.5t90 26.5h222v-153h-115
q-45 0 -45 -41v-799q0 -123 -44 -217t-119.5 -148.5t-166 -81t-192.5 -26.5q-183 0 -355 86zM590 184q120 0 197 84.5t77 272.5q0 348 -293 348q-133 0 -206.5 -91.5t-73.5 -250.5q0 -163 80.5 -263t218.5 -100zM520 1245v201h187v-201h-187z" />
    <glyph glyph-name="Gcommaaccent" unicode="&#x122;" horiz-adv-x="1568" 
d="M739 -119h174q15 -46 15 -100q0 -77 -43 -141.5t-113 -100.5l-86 70q78 75 78 160q0 45 -25 112zM100 727q0 159 55.5 296.5t154 236t240.5 154.5t308 56q97 0 194 -19t178.5 -54t132 -90.5t50.5 -120.5v-178h-188v106q0 57 -56 99.5t-136 61.5t-169 19q-251 0 -401 -155
t-150 -406q0 -167 67.5 -298t195 -206t294.5 -75q55 0 116 9t125 28t105 56t41 87v190h-282v160h471v-405q0 -64 -41 -117t-104 -86.5t-143.5 -57t-156.5 -33.5t-145 -10q-218 0 -391.5 98.5t-269 270t-95.5 383.5z" />
    <glyph glyph-name="gcommaaccent" unicode="&#x123;" horiz-adv-x="1282" 
d="M680 1178h-174q-14 43 -14 100q0 77 42.5 141.5t112.5 100.5l86 -70q-78 -75 -78 -160q0 -45 25 -112zM248 -193q14 -8 39.5 -19.5t100.5 -30.5t144 -19q146 0 237 72t91 223v82l6 65h-4q-100 -168 -311 -168q-140 0 -246.5 70.5t-161.5 190.5t-55 270q0 149 52.5 265.5
t157 184.5t245.5 68q110 0 203 -43t133 -127h4q-4 14 -4 41q0 51 28 77.5t90 26.5h222v-153h-115q-45 0 -45 -41v-799q0 -123 -44 -217t-119.5 -148.5t-166 -81t-192.5 -26.5q-183 0 -355 86zM590 184q120 0 197 84.5t77 272.5q0 348 -293 348q-133 0 -206.5 -91.5
t-73.5 -250.5q0 -163 80.5 -263t218.5 -100z" />
    <glyph glyph-name="Hcircumflex" unicode="&#x124;" horiz-adv-x="1736" 
d="M582 1546l180 260h215l180 -260h-178l-109 164h-4l-106 -164h-178zM109 0v160h180v1128h-180v158h567v-158h-182v-481h749v481h-182v158h567v-158h-180v-1128h180v-160h-567v160h182v479h-749v-479h182v-160h-567z" />
    <glyph glyph-name="hcircumflex" unicode="&#x125;" horiz-adv-x="1380" 
d="M39 1546l180 260h215l180 -260h-178l-108 164h-4l-107 -164h-178zM66 0v154h163v1138h-174v154h371v-537q0 -22 -1.5 -43.5t-2.5 -31.5l-2 -11h4q18 40 51 79.5t80.5 76.5t114.5 59.5t141 22.5q182 0 269 -98.5t87 -298.5v-510h162v-154h-360v618q0 60 -8 103t-28 81
t-60.5 57.5t-100.5 19.5q-151 0 -248.5 -113t-97.5 -281v-331h164v-154h-524z" />
    <glyph glyph-name="Hbar" unicode="&#x126;" horiz-adv-x="1736" 
d="M121 987v117h168v184h-180v158h567v-158h-182v-184h749v184h-182v158h567v-158h-180v-184h170v-117h-170v-827h180v-160h-567v160h182v471h-749v-471h182v-160h-567v160h180v827h-168zM494 772h749v215h-749v-215z" />
    <glyph glyph-name="hbar" unicode="&#x127;" horiz-adv-x="1380" 
d="M66 0v154h163v1003h-147v127h147v162h197v-162h315v-127h-315v-248q0 -22 -1.5 -43.5t-2.5 -31.5l-2 -11h4q18 40 51 79.5t80.5 76.5t114.5 59.5t141 22.5q182 0 269 -98.5t87 -298.5v-510h162v-154h-360v618q0 60 -8 103t-28 81t-60.5 57.5t-100.5 19.5
q-151 0 -248.5 -115t-97.5 -275v-335h152v-154h-512z" />
    <glyph glyph-name="Itilde" unicode="&#x128;" horiz-adv-x="782" 
d="M109 0v160h180v1128h-180v158h567v-158h-182v-1128h182v-160h-567zM43 1548q0 260 209 260q41 0 75 -14t56.5 -34t42.5 -40.5t41.5 -34.5t44.5 -14q45 0 63.5 38.5t18.5 92.5h147q0 -260 -209 -260q-41 0 -75 14t-56.5 34t-42.5 40.5t-41.5 34.5t-44.5 14q-82 0 -82 -131
h-147z" />
    <glyph glyph-name="itilde" unicode="&#x129;" horiz-adv-x="661" 
d="M96 0v154h152v729h-156v153h354v-882h150v-154h-500zM-2 1188q0 260 209 260q41 0 75 -14t56.5 -34t42.5 -40.5t41.5 -34.5t44.5 -14q45 0 63.5 38.5t18.5 92.5h147q0 -260 -209 -260q-41 0 -75 14t-56.5 34t-42.5 40.5t-41.5 34.5t-44.5 14q-82 0 -82 -131h-147z" />
    <glyph glyph-name="Imacron" unicode="&#x12a;" horiz-adv-x="782" 
d="M109 0v160h180v1128h-180v158h567v-158h-182v-1128h182v-160h-567zM131 1606v145h522v-145h-522z" />
    <glyph glyph-name="imacron" unicode="&#x12b;" horiz-adv-x="661" 
d="M96 0v154h152v729h-156v153h354v-882h150v-154h-500zM86 1245v146h522v-146h-522z" />
    <glyph glyph-name="Ibreve" unicode="&#x12c;" horiz-adv-x="782" 
d="M109 0v160h180v1128h-180v158h567v-158h-182v-1128h182v-160h-567zM393 1538q-114 0 -193 63.5t-79 176.5v28h151v-26q0 -59 35.5 -90t85.5 -31q48 0 83.5 31.5t35.5 91.5v24h152v-28q0 -113 -79 -176.5t-192 -63.5z" />
    <glyph glyph-name="ibreve" unicode="&#x12d;" horiz-adv-x="661" 
d="M96 0v154h152v729h-156v153h354v-882h150v-154h-500zM346 1178q-114 0 -193 63t-79 176v29h151v-27q0 -59 35.5 -90t85.5 -31q48 0 83.5 31.5t35.5 91.5v25h151v-29q0 -113 -78.5 -176t-191.5 -63z" />
    <glyph glyph-name="Iogonek" unicode="&#x12e;" horiz-adv-x="782" 
d="M109 0v160h180v1128h-180v158h567v-158h-182v-1128h182v-160h-17q-39 -2 -102 -74t-63 -137q0 -26 14 -46t36.5 -30.5t42 -16t38.5 -7.5l-37 -140q-29 3 -58 9.5t-65 22t-63 37.5t-45.5 58t-18.5 80q0 71 39.5 135.5t97.5 108.5h-366z" />
    <glyph glyph-name="iogonek" unicode="&#x12f;" horiz-adv-x="688" 
d="M98 0v154h162v729h-172v153h371v-882h164v-154h-15q-36 0 -101 -72.5t-65 -138.5q0 -26 14 -46t36.5 -30.5t42 -16t38.5 -7.5l-38 -140q-28 3 -57 9.5t-65 22t-63.5 37.5t-46 58t-18.5 80q0 71 40 135t99 109h-326zM256 1243v203h209v-203h-209z" />
    <glyph glyph-name="Idotaccent" unicode="&#x130;" horiz-adv-x="782" 
d="M109 0v160h180v1128h-180v158h567v-158h-182v-1128h182v-160h-567zM299 1606v200h186v-200h-186z" />
    <glyph glyph-name="dotlessi" unicode="&#x131;" horiz-adv-x="661" 
d="M96 0v154h152v729h-156v153h354v-882h150v-154h-500z" />
    <glyph glyph-name="IJ" unicode="&#x132;" horiz-adv-x="1503" 
d="M109 0v160h180v1128h-180v158h567v-158h-182v-1128h155v-160h-540zM762 164q40 -1 75.5 4.5t74.5 25t67 51t46.5 87t18.5 129.5v827h-190v158h569v-158h-174v-811q0 -117 -29 -206.5t-75.5 -142.5t-112 -85t-131 -42t-139.5 -7v170z" />
    <glyph glyph-name="ij" unicode="&#x133;" horiz-adv-x="1241" 
d="M256 1243v203h209v-203h-209zM98 0v154h162v729h-172v153h371v-882h164v-154h-525zM864 1243v203h209v-203h-209zM602 -256q18 -2 45 -2t52.5 4t57.5 18.5t55.5 38.5t39.5 68.5t16 103.5v908h-174v153h373v-1067q0 -71 -15.5 -130t-40.5 -99t-60 -70t-70.5 -47t-76 -27.5
t-71.5 -14t-63 -3.5l-68 4v162z" />
    <glyph glyph-name="Jcircumflex" unicode="&#x134;" 
d="M502 1546l180 260h215l180 -260h-178l-108 164h-5l-106 -164h-178zM49 403v84h199v-63q0 -115 55 -190.5t168 -75.5q96 0 157.5 64t61.5 202v864h-209v158h576v-158h-162v-876q0 -111 -36.5 -197.5t-98.5 -137.5t-136 -76.5t-155 -25.5q-64 0 -123.5 14.5t-114 47.5
t-94.5 81.5t-64 121.5t-24 163z" />
    <glyph glyph-name="jcircumflex" unicode="&#x135;" horiz-adv-x="606" 
d="M-8 1186l180 260h215l180 -260h-178l-108 166h-5l-106 -166h-178zM-33 -256q18 -2 45 -2t52.5 4t57.5 18.5t55.5 38.5t39.5 68.5t16 103.5v908h-174v153h373v-1067q0 -71 -15.5 -130t-40.5 -99t-60 -70t-70.5 -47t-76 -27.5t-71.5 -14t-63 -3.5l-68 4v162z" />
    <glyph glyph-name="Kcommaaccent" unicode="&#x136;" horiz-adv-x="1417" 
d="M649 -119h174q15 -46 15 -100q0 -77 -43 -141.5t-113 -100.5l-86 70q78 75 78 160q0 45 -25 112zM109 0v160h180v1128h-180v158h542v-158h-157v-454h186l315 454h-133v158h490v-158h-140l-374 -522v-4q5 -2 12.5 -7t29.5 -29.5t40 -59.5l260 -453q17 -29 40.5 -41
t61.5 -12h68v-160h-146q-60 0 -96.5 11.5t-58 33t-45.5 64.5l-279 499q-19 31 -44.5 44.5t-68.5 13.5h-118v-506h178v-160h-563z" />
    <glyph glyph-name="kcommaaccent" unicode="&#x137;" horiz-adv-x="1202" 
d="M559 -119h174q15 -46 15 -100q0 -77 -43 -141.5t-113 -100.5l-86 70q78 75 78 160q0 45 -25 112zM66 0v154h163v1138h-174v154h371v-807h152l206 244h-135v153h471v-153h-137l-256 -299v-4q3 0 11.5 -5.5t27.5 -26.5t37 -52l176 -301q15 -25 32.5 -33t57.5 -8h66v-154
h-156q-71 0 -104 18t-66 78l-205 350q-16 26 -37 33.5t-59 7.5h-82v-333h139v-154h-499z" />
    <glyph glyph-name="kgreenlandic" unicode="&#x138;" horiz-adv-x="1232" 
d="M98 0v154h162v729h-172v153h371v-391h155l201 238h-133v153h467v-153h-135l-254 -299v-4q2 0 11.5 -7t29 -29t37.5 -52l174 -297q15 -25 32.5 -33t57.5 -8h65v-154h-155q-72 0 -104.5 18t-67.5 78l-203 350q-16 26 -37.5 33.5t-58.5 7.5h-82v-333h139v-154h-500z" />
    <glyph glyph-name="Lacute" unicode="&#x139;" horiz-adv-x="1236" 
d="M266 1546l213 260h228l-254 -260h-187zM111 0v160h180v1118h-180v168h567v-168h-182v-1110h503v233h181v-401h-1069z" />
    <glyph glyph-name="lacute" unicode="&#x13a;" horiz-adv-x="600" 
d="M152 1546l213 260h227l-254 -260h-186zM174 295v997h-172v154h371v-1139q0 -73 23.5 -110t86.5 -37l56 2l-2 -164q-41 -4 -88 -4q-59 0 -105.5 13.5t-86.5 45.5t-61.5 93.5t-21.5 148.5z" />
    <glyph glyph-name="Lcommaaccent" unicode="&#x13b;" horiz-adv-x="1236" 
d="M610 -119h174q15 -46 15 -100q0 -77 -43 -141.5t-113 -100.5l-86 70q78 75 78 160q0 45 -25 112zM111 0v160h180v1118h-180v168h567v-168h-182v-1110h503v233h181v-401h-1069z" />
    <glyph glyph-name="lcommaaccent" unicode="&#x13c;" horiz-adv-x="600" 
d="M258 -119h174q14 -43 14 -100q0 -77 -42.5 -141.5t-112.5 -100.5l-86 70q78 75 78 160q0 45 -25 112zM174 295v997h-172v154h371v-1139q0 -73 23.5 -110t86.5 -37l56 2l-2 -164q-41 -4 -88 -4q-59 0 -105.5 13.5t-86.5 45.5t-61.5 93.5t-21.5 148.5z" />
    <glyph glyph-name="Lcaron" unicode="&#x13d;" horiz-adv-x="1236" 
d="M610 -119h174q15 -46 15 -100q0 -77 -43 -141.5t-113 -100.5l-86 70q78 75 78 160q0 45 -25 112zM111 0v160h180v1118h-180v168h567v-168h-182v-1110h503v233h181v-401h-1069z" />
    <glyph glyph-name="lcaron" unicode="&#x13e;" horiz-adv-x="600" 
d="M520 1444h174q15 -47 15 -101q0 -76 -42.5 -140.5t-113.5 -100.5l-86 69q78 75 78 160q0 46 -25 113zM174 295v997h-172v154h371v-1139q0 -73 23.5 -110t86.5 -37l56 2l-2 -164q-41 -4 -88 -4q-59 0 -105.5 13.5t-86.5 45.5t-61.5 93.5t-21.5 148.5z" />
    <glyph glyph-name="Ldot" unicode="&#x13f;" horiz-adv-x="1236" 
d="M111 0v160h180v1118h-180v168h567v-168h-182v-1110h503v233h181v-401h-1069zM733 668v217h209v-217h-209z" />
    <glyph glyph-name="ldot" unicode="&#x140;" horiz-adv-x="757" 
d="M174 295v997h-172v154h371v-1139q0 -73 23.5 -110t86.5 -37l56 2l-2 -164q-41 -4 -88 -4q-59 0 -105.5 13.5t-86.5 45.5t-61.5 93.5t-21.5 148.5zM545 668v217h209v-217h-209z" />
    <glyph glyph-name="Lslash" unicode="&#x141;" horiz-adv-x="1234" 
d="M109 0v160h180v405l-174 -90v180l174 93v530h-180v168h567v-168h-182v-422l415 217v-182l-415 -217v-506h512v233h172v-401h-1069z" />
    <glyph glyph-name="lslash" unicode="&#x142;" horiz-adv-x="600" 
d="M8 578v182l166 92v440h-172v154h371v-483l186 106v-182l-186 -107v-471q0 -73 23.5 -110t88.5 -37l54 2l-2 -166q-41 -4 -86 -4q-60 0 -107 13.5t-87 45.5t-61.5 93t-21.5 149v377z" />
    <glyph glyph-name="Nacute" unicode="&#x143;" horiz-adv-x="1716" 
d="M745 1546l213 260h228l-254 -260h-187zM109 0v160h180v1128h-180v158h383l710 -1036q11 -18 23.5 -44.5t18.5 -43.5l7 -17h6q-10 72 -10 117v866h-184v158h571v-158h-182v-1288h-201l-710 1036q-12 18 -24 44.5t-19 43.5l-6 17h-7q1 -8 3 -21t4.5 -44.5t1.5 -51.5v-864
h186v-160h-571z" />
    <glyph glyph-name="nacute" unicode="&#x144;" horiz-adv-x="1411" 
d="M623 1186l213 260h227l-254 -260h-186zM98 0v154h162v684q0 45 -45 45h-127v153h234q131 0 131 -114v-54q0 -15 -1.5 -29.5t-3.5 -22.5l-2 -7h5q7 20 24 47.5t51.5 64.5t78 67.5t109.5 51.5t140 21q177 0 260.5 -98.5t83.5 -298.5v-510h164v-154h-363v618q0 60 -7.5 103
t-27 81t-59.5 57.5t-100 19.5q-101 0 -181.5 -56.5t-122.5 -147t-42 -194.5v-327h164v-154h-525z" />
    <glyph glyph-name="Ncommaaccent" unicode="&#x145;" horiz-adv-x="1716" 
d="M780 -119h174q15 -46 15 -100q0 -77 -43 -141.5t-113 -100.5l-86 70q78 75 78 160q0 45 -25 112zM109 0v160h180v1128h-180v158h383l710 -1036q11 -18 23.5 -44.5t18.5 -43.5l7 -17h6q-10 72 -10 117v866h-184v158h571v-158h-182v-1288h-201l-710 1036q-12 18 -24 44.5
t-19 43.5l-6 17h-7q1 -8 3 -21t4.5 -44.5t1.5 -51.5v-864h186v-160h-571z" />
    <glyph glyph-name="ncommaaccent" unicode="&#x146;" horiz-adv-x="1411" 
d="M637 -119h174q14 -43 14 -100q0 -77 -42.5 -141.5t-112.5 -100.5l-86 70q78 75 78 160q0 45 -25 112zM98 0v154h162v684q0 45 -45 45h-127v153h234q131 0 131 -114v-54q0 -15 -1.5 -29.5t-3.5 -22.5l-2 -7h5q7 20 24 47.5t51.5 64.5t78 67.5t109.5 51.5t140 21
q177 0 260.5 -98.5t83.5 -298.5v-510h164v-154h-363v618q0 60 -7.5 103t-27 81t-59.5 57.5t-100 19.5q-101 0 -181.5 -56.5t-122.5 -147t-42 -194.5v-327h164v-154h-525z" />
    <glyph glyph-name="Ncaron" unicode="&#x147;" horiz-adv-x="1716" 
d="M762 1546l-180 260h178l106 -166h4l109 166h178l-180 -260h-215zM109 0v160h180v1128h-180v158h383l710 -1036q11 -18 23.5 -44.5t18.5 -43.5l7 -17h6q-10 72 -10 117v866h-184v158h571v-158h-182v-1288h-201l-710 1036q-12 18 -24 44.5t-19 43.5l-6 17h-7q1 -8 3 -21
t4.5 -44.5t1.5 -51.5v-864h186v-160h-571z" />
    <glyph glyph-name="ncaron" unicode="&#x148;" horiz-adv-x="1411" 
d="M639 1186l-180 260h178l106 -166h5l108 166h178l-180 -260h-215zM98 0v154h162v684q0 45 -45 45h-127v153h234q131 0 131 -114v-54q0 -15 -1.5 -29.5t-3.5 -22.5l-2 -7h5q7 20 24 47.5t51.5 64.5t78 67.5t109.5 51.5t140 21q177 0 260.5 -98.5t83.5 -298.5v-510h164v-154
h-363v618q0 60 -7.5 103t-27 81t-59.5 57.5t-100 19.5q-101 0 -181.5 -56.5t-122.5 -147t-42 -194.5v-327h164v-154h-525z" />
    <glyph glyph-name="napostrophe" unicode="&#x149;" horiz-adv-x="1411" 
d="M106 1477h175q14 -43 14 -101q0 -76 -42.5 -140.5t-113.5 -100.5l-86 69q78 75 78 160q0 46 -25 113zM98 0v154h162v684q0 45 -45 45h-127v153h234q131 0 131 -114v-54q0 -15 -1.5 -29.5t-3.5 -22.5l-2 -7h5q7 20 24 47.5t51.5 64.5t78 67.5t109.5 51.5t140 21
q177 0 260.5 -98.5t83.5 -298.5v-510h164v-154h-363v618q0 60 -7.5 103t-27 81t-59.5 57.5t-100 19.5q-101 0 -181.5 -56.5t-122.5 -147t-42 -194.5v-327h164v-154h-525z" />
    <glyph glyph-name="Eng" unicode="&#x14a;" horiz-adv-x="1716" 
d="M109 0v160h180v1128h-180v158h387l706 -1036q11 -18 23.5 -44.5t18.5 -43.5l7 -17h6q-10 72 -10 117v866h-184v158h571v-158h-182v-1233q0 -475 -479 -475v176q115 0 195 59.5t83 180.5l-710 1040q-12 18 -24 44.5t-19 43.5l-6 17h-7q1 -8 3 -21t4.5 -44.5t1.5 -51.5
v-864h186v-160h-571z" />
    <glyph glyph-name="eng" unicode="&#x14b;" horiz-adv-x="1351" 
d="M98 0v154h162v684q0 45 -45 45h-127v153h234q131 0 131 -114v-54q0 -15 -1.5 -29.5t-3.5 -22.5l-2 -7h5q7 20 24 47.5t51.5 64.5t78 67.5t109.5 51.5t140 21q177 0 260.5 -98.5t83.5 -298.5v-705q0 -71 -15.5 -130t-40 -98.5t-59.5 -69t-70 -46t-75.5 -27t-71.5 -13.5
t-63 -3l-70 4v166q18 -2 45 -2t52.5 4t57.5 18t55.5 37t39.5 66.5t16 101.5v651q0 60 -7.5 103t-27 81t-59.5 57.5t-100 19.5q-101 0 -181.5 -57.5t-122.5 -149t-42 -195.5v-323h164v-154h-525z" />
    <glyph glyph-name="Omacron" unicode="&#x14c;" horiz-adv-x="1683" 
d="M582 1606v145h522v-145h-522zM98 733q0 153 57.5 290t156.5 235t237 155t293 57q206 0 376.5 -97t268.5 -266t98 -374q0 -210 -98 -384t-268.5 -274t-376.5 -100q-155 0 -293 59t-237 160t-156.5 241.5t-57.5 297.5zM309 733q0 -160 71.5 -292.5t193.5 -207.5t268 -75
q108 0 206 44.5t169 120.5t113 183t42 227q0 155 -71 283t-192.5 201t-266.5 73q-146 0 -268 -73t-193.5 -201t-71.5 -283z" />
    <glyph glyph-name="omacron" unicode="&#x14d;" horiz-adv-x="1282" 
d="M381 1245v146h522v-146h-522zM82 520q0 115 44 216t119.5 172t178 112t217.5 41t217.5 -41t178 -112t119.5 -172t44 -216q0 -154 -75 -279.5t-203 -195.5t-281 -70t-281 70t-203 195.5t-75 279.5zM285 520q0 -161 103 -267t253 -106q148 0 252 106t104 267
q0 159 -104 264t-252 105q-150 0 -253 -105t-103 -264z" />
    <glyph glyph-name="Obreve" unicode="&#x14e;" horiz-adv-x="1683" 
d="M98 733q0 153 57.5 290t156.5 235t237 155t293 57q206 0 376.5 -97t268.5 -266t98 -374q0 -210 -98 -384t-268.5 -274t-376.5 -100q-155 0 -293 59t-237 160t-156.5 241.5t-57.5 297.5zM309 733q0 -160 71.5 -292.5t193.5 -207.5t268 -75q108 0 206 44.5t169 120.5
t113 183t42 227q0 155 -71 283t-192.5 201t-266.5 73q-146 0 -268 -73t-193.5 -201t-71.5 -283zM842 1538q-114 0 -193.5 63.5t-79.5 176.5v28h152v-26q0 -59 35.5 -90t85.5 -31q48 0 83.5 31.5t35.5 91.5v24h151v-28q0 -113 -78.5 -176.5t-191.5 -63.5z" />
    <glyph glyph-name="obreve" unicode="&#x14f;" horiz-adv-x="1282" 
d="M82 520q0 115 44 216t119.5 172t178 112t217.5 41t217.5 -41t178 -112t119.5 -172t44 -216q0 -154 -75 -279.5t-203 -195.5t-281 -70t-281 70t-203 195.5t-75 279.5zM285 520q0 -161 103 -267t253 -106q148 0 252 106t104 267q0 159 -104 264t-252 105q-150 0 -253 -105
t-103 -264zM641 1178q-114 0 -193 63t-79 176v29h151v-27q0 -59 35.5 -90t85.5 -31q48 0 83.5 31.5t35.5 91.5v25h151v-29q0 -113 -78.5 -176t-191.5 -63z" />
    <glyph glyph-name="Ohungarumlaut" unicode="&#x150;" horiz-adv-x="1683" 
d="M885 1546l149 260h211l-194 -260h-166zM569 1546l140 260h182l-143 -260h-179zM98 733q0 153 57.5 290t156.5 235t237 155t293 57q206 0 376.5 -97t268.5 -266t98 -374q0 -210 -98 -384t-268.5 -274t-376.5 -100q-155 0 -293 59t-237 160t-156.5 241.5t-57.5 297.5z
M309 733q0 -160 71.5 -292.5t193.5 -207.5t268 -75q108 0 206 44.5t169 120.5t113 183t42 227q0 155 -71 283t-192.5 201t-266.5 73q-146 0 -268 -73t-193.5 -201t-71.5 -283z" />
    <glyph glyph-name="ohungarumlaut" unicode="&#x151;" horiz-adv-x="1282" 
d="M684 1186l150 260h210l-194 -260h-166zM369 1186l139 260h182l-143 -260h-178zM82 520q0 115 44 216t119.5 172t178 112t217.5 41t217.5 -41t178 -112t119.5 -172t44 -216q0 -154 -75 -279.5t-203 -195.5t-281 -70t-281 70t-203 195.5t-75 279.5zM285 520
q0 -161 103 -267t253 -106q148 0 252 106t104 267q0 159 -104 264t-252 105q-150 0 -253 -105t-103 -264z" />
    <glyph glyph-name="OE" unicode="&#x152;" horiz-adv-x="1994" 
d="M100 725q0 205 97.5 374.5t269.5 267t383 97.5q52 0 134.5 -9t115.5 -9h755v-336h-169v168h-486v-467h506v-166h-506v-477h520v170h170v-338h-788q-33 0 -116.5 -9t-135.5 -9q-210 0 -382.5 98t-270 268.5t-97.5 376.5zM309 725q0 -160 68 -290t192.5 -205.5t280.5 -75.5
q36 0 72.5 4t54.5 8l18 4v1108q-63 14 -145 14q-156 0 -280.5 -75.5t-192.5 -204.5t-68 -287z" />
    <glyph glyph-name="oe" unicode="&#x153;" horiz-adv-x="2048" 
d="M82 516q0 160 75 285.5t200 192.5t276 67t265.5 -65t184.5 -181h4q63 118 171 182t255 64q142 0 245.5 -66.5t153.5 -175t50 -244.5l-6 -77h-756q12 -167 113 -261t243 -94q50 0 100 12.5t86 29.5t64.5 34.5t43.5 30.5l14 12l82 -139q-6 -6 -18 -16t-52.5 -35.5t-84 -45
t-111 -35.5t-136.5 -16q-157 0 -272 67t-180 185h-5q-70 -119 -184.5 -185.5t-267.5 -66.5q-152 0 -277.5 66t-200.5 190.5t-75 284.5zM1206 627h553q-4 128 -74.5 202t-173.5 74q-117 0 -200.5 -73.5t-104.5 -202.5zM285 516q0 -165 102.5 -267t251.5 -102t252.5 103.5
t103.5 271.5q0 163 -104.5 265t-251.5 102q-148 0 -251 -104t-103 -269z" />
    <glyph glyph-name="Racute" unicode="&#x154;" horiz-adv-x="1437" 
d="M563 1546l213 260h228l-254 -260h-187zM109 0v160h180v1128h-180v158h626q174 0 266 -31q118 -39 185 -135t67 -240q0 -156 -80 -262.5t-219 -142.5v-4q37 -21 62 -68l205 -356q17 -28 38.5 -37.5t61.5 -9.5h43v-160h-123q-89 0 -126 21t-75 88l-223 395q-29 47 -58 63.5
t-93 16.5h-172v-424h178v-160h-563zM494 752h290q120 0 191.5 73t71.5 199q0 171 -136 227q-70 27 -178 27h-239v-526z" />
    <glyph glyph-name="racute" unicode="&#x155;" horiz-adv-x="866" 
d="M377 1186l213 260h227l-254 -260h-186zM102 0v154h156v684q0 45 -45 45h-129v153h233q68 0 101 -29.5t33 -91.5v-65l-5 -72h5q37 119 124 195t203 76l51 -5v-196q-24 6 -57 6q-79 0 -141.5 -37.5t-99.5 -100t-55.5 -136t-18.5 -152.5v-274h153v-154h-508z" />
    <glyph glyph-name="Rcommaaccent" unicode="&#x156;" horiz-adv-x="1437" 
d="M680 -119h174q14 -43 14 -100q0 -77 -42.5 -141.5t-112.5 -100.5l-86 70q78 75 78 160q0 45 -25 112zM109 0v160h180v1128h-180v158h626q174 0 266 -31q118 -39 185 -135t67 -240q0 -156 -80 -262.5t-219 -142.5v-4q37 -21 62 -68l205 -356q17 -28 38.5 -37.5t61.5 -9.5
h43v-160h-123q-89 0 -126 21t-75 88l-223 395q-29 47 -58 63.5t-93 16.5h-172v-424h178v-160h-563zM494 752h290q120 0 191.5 73t71.5 199q0 171 -136 227q-70 27 -178 27h-239v-526z" />
    <glyph glyph-name="rcommaaccent" unicode="&#x157;" horiz-adv-x="866" 
d="M270 -119h174q15 -46 15 -100q0 -77 -43 -141.5t-113 -100.5l-86 70q78 75 78 160q0 45 -25 112zM102 0v154h156v684q0 45 -45 45h-129v153h233q68 0 101 -29.5t33 -91.5v-65l-5 -72h5q37 119 124 195t203 76l51 -5v-196q-24 6 -57 6q-79 0 -141.5 -37.5t-99.5 -100
t-55.5 -136t-18.5 -152.5v-274h153v-154h-508z" />
    <glyph glyph-name="Rcaron" unicode="&#x158;" horiz-adv-x="1437" 
d="M580 1546l-181 260h179l106 -166h4l109 166h178l-180 -260h-215zM109 0v160h180v1128h-180v158h626q174 0 266 -31q118 -39 185 -135t67 -240q0 -156 -80 -262.5t-219 -142.5v-4q37 -21 62 -68l205 -356q17 -28 38.5 -37.5t61.5 -9.5h43v-160h-123q-89 0 -126 21t-75 88
l-223 395q-29 47 -58 63.5t-93 16.5h-172v-424h178v-160h-563zM494 752h290q120 0 191.5 73t71.5 199q0 171 -136 227q-70 27 -178 27h-239v-526z" />
    <glyph glyph-name="rcaron" unicode="&#x159;" horiz-adv-x="866" 
d="M393 1186l-180 260h178l107 -166h4l108 166h178l-180 -260h-215zM102 0v154h156v684q0 45 -45 45h-129v153h233q68 0 101 -29.5t33 -91.5v-65l-5 -72h5q37 119 124 195t203 76l51 -5v-196q-24 6 -57 6q-79 0 -141.5 -37.5t-99.5 -100t-55.5 -136t-18.5 -152.5v-274h153
v-154h-508z" />
    <glyph glyph-name="Sacute" unicode="&#x15a;" horiz-adv-x="1183" 
d="M463 1546l213 260h227l-254 -260h-186zM109 434h188v-106q0 -77 85 -123.5t204 -46.5q128 0 207 58t79 163q0 56 -22.5 99t-76.5 77.5t-93 53t-123 50.5q-22 9 -33 13q-44 17 -72 28t-68 29.5t-66 36t-57 41.5t-50.5 51.5t-37.5 60.5t-26 74t-8 88q0 99 37.5 175t103 122
t147 69t175.5 23q83 0 160.5 -15.5t140 -44.5t100 -75.5t37.5 -103.5v-170h-190v100q0 59 -75.5 94t-172.5 35q-111 0 -182.5 -51t-71.5 -147q0 -23 3.5 -43t13.5 -38t18 -32.5t27 -29.5t30 -25t37.5 -23.5t39 -20t45 -19.5t45 -17.5t48.5 -18.5q59 -22 91.5 -35t84.5 -38
t81.5 -46t65.5 -54t55 -68.5t32.5 -84t13.5 -104.5q0 -133 -68 -230t-178 -143.5t-247 -46.5q-87 0 -170 19.5t-152.5 56.5t-112 97.5t-42.5 134.5v151z" />
    <glyph glyph-name="sacute" unicode="&#x15b;" horiz-adv-x="985" 
d="M379 1186l213 260h227l-254 -260h-186zM82 223v111h174v-68q0 -62 71.5 -95.5t166.5 -33.5q91 0 149.5 35t58.5 98q0 28 -12 51.5t-31.5 40.5t-51.5 33t-62.5 27.5t-74.5 27.5q-17 6 -26 9q-58 21 -94.5 36.5t-84.5 44.5t-76 59t-48 75.5t-20 99.5q0 74 34 131t90.5 90
t122 49.5t136.5 16.5q58 0 117.5 -12t115 -35t90.5 -65.5t35 -96.5v-125h-174v68q0 46 -53 76t-129 30q-78 0 -131 -32.5t-53 -92.5q0 -28 14 -52.5t33 -41t55.5 -34.5t62.5 -28t74 -26q42 -14 70 -24t67.5 -27.5t65 -33.5t54.5 -40.5t46 -50.5t28 -61.5t11 -75.5
q0 -144 -116.5 -225t-299.5 -81q-98 0 -188.5 27t-153.5 85t-63 136z" />
    <glyph glyph-name="Scircumflex" unicode="&#x15c;" horiz-adv-x="1183" 
d="M299 1546l180 260h215l180 -260h-178l-108 164h-4l-107 -164h-178zM109 434h188v-106q0 -77 85 -123.5t204 -46.5q128 0 207 58t79 163q0 56 -22.5 99t-76.5 77.5t-93 53t-123 50.5q-22 9 -33 13q-44 17 -72 28t-68 29.5t-66 36t-57 41.5t-50.5 51.5t-37.5 60.5t-26 74
t-8 88q0 99 37.5 175t103 122t147 69t175.5 23q83 0 160.5 -15.5t140 -44.5t100 -75.5t37.5 -103.5v-170h-190v100q0 59 -75.5 94t-172.5 35q-111 0 -182.5 -51t-71.5 -147q0 -23 3.5 -43t13.5 -38t18 -32.5t27 -29.5t30 -25t37.5 -23.5t39 -20t45 -19.5t45 -17.5
t48.5 -18.5q59 -22 91.5 -35t84.5 -38t81.5 -46t65.5 -54t55 -68.5t32.5 -84t13.5 -104.5q0 -133 -68 -230t-178 -143.5t-247 -46.5q-87 0 -170 19.5t-152.5 56.5t-112 97.5t-42.5 134.5v151z" />
    <glyph glyph-name="scircumflex" unicode="&#x15d;" horiz-adv-x="985" 
d="M213 1186l180 260h215l180 -260h-178l-108 164h-4l-107 -164h-178zM82 223v111h174v-68q0 -62 71.5 -95.5t166.5 -33.5q91 0 149.5 35t58.5 98q0 28 -12 51.5t-31.5 40.5t-51.5 33t-62.5 27.5t-74.5 27.5q-17 6 -26 9q-58 21 -94.5 36.5t-84.5 44.5t-76 59t-48 75.5
t-20 99.5q0 74 34 131t90.5 90t122 49.5t136.5 16.5q58 0 117.5 -12t115 -35t90.5 -65.5t35 -96.5v-125h-174v68q0 46 -53 76t-129 30q-78 0 -131 -32.5t-53 -92.5q0 -28 14 -52.5t33 -41t55.5 -34.5t62.5 -28t74 -26q42 -14 70 -24t67.5 -27.5t65 -33.5t54.5 -40.5
t46 -50.5t28 -61.5t11 -75.5q0 -144 -116.5 -225t-299.5 -81q-98 0 -188.5 27t-153.5 85t-63 136z" />
    <glyph glyph-name="Scedilla" unicode="&#x15e;" horiz-adv-x="1183" 
d="M477 -199l47 176q-108 8 -199.5 43.5t-153.5 104t-62 158.5v151h188v-106q0 -77 85 -123.5t204 -46.5q128 0 207 58t79 163q0 56 -22.5 99t-76.5 77.5t-93 53t-123 50.5q-22 9 -33 13q-44 17 -72 28t-68 29.5t-66 36t-57 41.5t-50.5 51.5t-37.5 60.5t-26 74t-8 88
q0 99 37.5 175t103 122t147 69t175.5 23q83 0 160.5 -15.5t140 -44.5t100 -75.5t37.5 -103.5v-170h-190v100q0 59 -75.5 94t-172.5 35q-111 0 -182.5 -51t-71.5 -147q0 -23 3.5 -43t13.5 -38t18 -32.5t27 -29.5t30 -25t37.5 -23.5t39 -20t45 -19.5t45 -17.5t48.5 -18.5
q59 -22 91.5 -35t84.5 -38t81.5 -46t65.5 -54t55 -68.5t32.5 -84t13.5 -104.5q0 -185 -123.5 -294.5t-316.5 -123.5l-23 -92q68 -5 115 -47t47 -106q0 -60 -34 -101.5t-83.5 -58t-109.5 -16.5q-28 0 -56.5 3.5t-42.5 6.5l-14 4v108q41 -12 92 -12q103 0 103 66q0 35 -33 52
t-86 17h-37z" />
    <glyph glyph-name="scedilla" unicode="&#x15f;" horiz-adv-x="985" 
d="M385 -199l47 176q-68 6 -129.5 25t-111.5 48.5t-79.5 74.5t-29.5 98v111h174v-68q0 -62 71.5 -95.5t166.5 -33.5q92 0 150 34.5t58 98.5q0 28 -12 51.5t-31.5 40.5t-51.5 33t-62.5 27.5t-74.5 27.5q-17 6 -26 9q-58 21 -94.5 36.5t-84.5 44.5t-76 59t-48 75.5t-20 99.5
q0 74 34 131t90.5 90t122 49.5t136.5 16.5q58 0 117.5 -12t115 -35t90.5 -65.5t35 -96.5v-125h-174v68q0 46 -53 76t-129 30q-78 0 -131 -32.5t-53 -92.5q0 -28 14 -52.5t33 -41t55.5 -34.5t62.5 -28t74 -26q42 -14 70 -24t67.5 -27.5t65 -33.5t54.5 -40.5t46 -50.5
t28 -61.5t11 -75.5q0 -131 -98.5 -210.5t-259.5 -90.5l-23 -95q68 -5 115 -47t47 -106q0 -89 -65.5 -132.5t-161.5 -43.5q-27 0 -55 3.5t-42 6.5l-14 4v108q39 -12 90 -12q103 0 103 66q0 35 -33 52t-86 17h-35z" />
    <glyph glyph-name="Scaron" unicode="&#x160;" horiz-adv-x="1183" 
d="M479 1546l-180 260h178l107 -166h4l108 166h178l-180 -260h-215zM109 434h188v-106q0 -77 85 -123.5t204 -46.5q128 0 207 58t79 163q0 56 -22.5 99t-76.5 77.5t-93 53t-123 50.5q-22 9 -33 13q-44 17 -72 28t-68 29.5t-66 36t-57 41.5t-50.5 51.5t-37.5 60.5t-26 74
t-8 88q0 99 37.5 175t103 122t147 69t175.5 23q83 0 160.5 -15.5t140 -44.5t100 -75.5t37.5 -103.5v-170h-190v100q0 59 -75.5 94t-172.5 35q-111 0 -182.5 -51t-71.5 -147q0 -23 3.5 -43t13.5 -38t18 -32.5t27 -29.5t30 -25t37.5 -23.5t39 -20t45 -19.5t45 -17.5
t48.5 -18.5q59 -22 91.5 -35t84.5 -38t81.5 -46t65.5 -54t55 -68.5t32.5 -84t13.5 -104.5q0 -133 -68 -230t-178 -143.5t-247 -46.5q-87 0 -170 19.5t-152.5 56.5t-112 97.5t-42.5 134.5v151z" />
    <glyph glyph-name="scaron" unicode="&#x161;" horiz-adv-x="985" 
d="M393 1186l-180 260h178l107 -166h4l108 166h178l-180 -260h-215zM82 223v111h174v-68q0 -62 71.5 -95.5t166.5 -33.5q91 0 149.5 35t58.5 98q0 28 -12 51.5t-31.5 40.5t-51.5 33t-62.5 27.5t-74.5 27.5q-17 6 -26 9q-58 21 -94.5 36.5t-84.5 44.5t-76 59t-48 75.5
t-20 99.5q0 74 34 131t90.5 90t122 49.5t136.5 16.5q58 0 117.5 -12t115 -35t90.5 -65.5t35 -96.5v-125h-174v68q0 46 -53 76t-129 30q-78 0 -131 -32.5t-53 -92.5q0 -28 14 -52.5t33 -41t55.5 -34.5t62.5 -28t74 -26q42 -14 70 -24t67.5 -27.5t65 -33.5t54.5 -40.5
t46 -50.5t28 -61.5t11 -75.5q0 -144 -116.5 -225t-299.5 -81q-98 0 -188.5 27t-153.5 85t-63 136z" />
    <glyph glyph-name="Tcommaaccent" unicode="&#x162;" horiz-adv-x="1359" 
d="M395 0v160h183v1118h-340v-225h-179v393h1241v-393h-178v225h-340v-1118h183v-160h-234l-26 -115q68 -5 114.5 -47t46.5 -106q0 -60 -34 -101.5t-83.5 -58t-109.5 -16.5q-27 0 -55.5 3.5t-43.5 6.5l-14 4v108q41 -12 92 -12q103 0 103 66q0 35 -33 52t-86 17h-37l53 199
h-223z" />
    <glyph glyph-name="tcommaaccent" unicode="&#x163;" horiz-adv-x="739" 
d="M330 -199l61 236q-176 93 -176 342v504h-174v153h178v285h195v-285h248v-153h-248v-486q0 -60 16 -105.5t39 -69.5t54.5 -39t57 -19t52.5 -4l47 2v-166q-27 -4 -70 -4q-63 0 -114 10l-29 -117q69 -5 115.5 -47t46.5 -106q0 -89 -66 -132.5t-162 -43.5q-27 0 -54.5 3.5
t-41.5 6.5l-14 4v108q39 -12 90 -12q104 0 104 66q0 35 -33.5 52t-86.5 17h-35z" />
    <glyph glyph-name="Tcaron" unicode="&#x164;" horiz-adv-x="1359" 
d="M571 1546l-180 260h178l107 -166h4l108 166h179l-181 -260h-215zM395 0v160h183v1118h-340v-225h-179v393h1241v-393h-178v225h-340v-1118h183v-160h-570z" />
    <glyph glyph-name="tcaron" unicode="&#x165;" horiz-adv-x="737" 
d="M592 1475h174q14 -43 14 -101q0 -77 -42.5 -141t-112.5 -100l-86 69q77 74 77 160q0 49 -24 113zM211 379v504h-174v153h178v285h195v-285h247v-153h-247v-486q0 -60 16 -105.5t39 -69.5t55 -39t57.5 -19t53.5 -4l47 2v-166q-29 -4 -72 -4q-32 0 -63.5 3t-72 13.5
t-75.5 27t-69.5 46t-59 69t-40 98.5t-15.5 130z" />
    <glyph glyph-name="Tbar" unicode="&#x166;" horiz-adv-x="1359" 
d="M209 641v143h369v494h-340v-225h-179v393h1241v-393h-178v225h-340v-494h369v-143h-369v-481h183v-160h-570v160h183v481h-369z" />
    <glyph glyph-name="tbar" unicode="&#x167;" horiz-adv-x="737" 
d="M43 541v143h168v207h-174v145h178v285h195v-285h247v-145h-247v-207h235v-143h-235v-144q0 -60 16 -105.5t39 -69.5t55 -39t57.5 -19t53.5 -4l47 2v-166q-29 -4 -72 -4q-32 0 -63.5 3t-72 13.5t-75.5 27t-69.5 46t-59 69t-40 98.5t-15.5 130v162h-168z" />
    <glyph glyph-name="Utilde" unicode="&#x168;" horiz-adv-x="1632" 
d="M246 539v749h-183v158h570v-158h-182v-747q0 -148 55 -236q44 -70 125.5 -108.5t185.5 -38.5t185.5 39t125.5 112q56 94 56 234v745h-183v158h568v-158h-180v-749q0 -209 -101 -353q-72 -102 -196 -156.5t-275 -54.5q-153 0 -277 55.5t-198 155.5q-96 130 -96 353z
M469 1548q0 260 209 260q41 0 75 -14t56.5 -34t42.5 -40.5t41.5 -34.5t44.5 -14q45 0 63.5 38.5t18.5 92.5h147q0 -260 -209 -260q-41 0 -75 14t-56.5 34t-42.5 40.5t-41.5 34.5t-44.5 14q-82 0 -82 -131h-147z" />
    <glyph glyph-name="utilde" unicode="&#x169;" horiz-adv-x="1361" 
d="M215 373v510h-174v153h373v-622q0 -47 4 -82.5t16.5 -70t33.5 -56.5t56.5 -35.5t83.5 -13.5q100 0 178 58.5t118 149.5t40 195v324h-174v153h373v-839q0 -45 45 -45h108v-152h-215q-131 0 -131 115v45l4 61h-4q-7 -20 -23.5 -47t-50.5 -63t-76 -65.5t-107 -50t-138 -20.5
q-169 0 -254.5 97.5t-85.5 300.5zM305 1188q0 260 209 260q41 0 75 -14t56.5 -34t42.5 -40.5t41.5 -34.5t44.5 -14q45 0 63.5 38.5t18.5 92.5h148q0 -260 -209 -260q-41 0 -75 14t-56.5 34t-42.5 40.5t-41.5 34.5t-44.5 14q-82 0 -82 -131h-148z" />
    <glyph glyph-name="Umacron" unicode="&#x16a;" horiz-adv-x="1632" 
d="M246 539v749h-183v158h570v-158h-182v-747q0 -148 55 -236q44 -70 125.5 -108.5t185.5 -38.5t185.5 39t125.5 112q56 94 56 234v745h-183v158h568v-158h-180v-749q0 -209 -101 -353q-72 -102 -196 -156.5t-275 -54.5q-153 0 -277 55.5t-198 155.5q-96 130 -96 353z
M557 1606v145h522v-145h-522z" />
    <glyph glyph-name="umacron" unicode="&#x16b;" horiz-adv-x="1361" 
d="M215 373v510h-174v153h373v-622q0 -47 4 -82.5t16.5 -70t33.5 -56.5t56.5 -35.5t83.5 -13.5q100 0 178 58.5t118 149.5t40 195v324h-174v153h373v-839q0 -45 45 -45h108v-152h-215q-131 0 -131 115v45l4 61h-4q-7 -20 -23.5 -47t-50.5 -63t-76 -65.5t-107 -50t-138 -20.5
q-169 0 -254.5 97.5t-85.5 300.5zM393 1245v146h522v-146h-522z" />
    <glyph glyph-name="Ubreve" unicode="&#x16c;" horiz-adv-x="1632" 
d="M246 539v749h-183v158h570v-158h-182v-747q0 -148 55 -236q44 -70 125.5 -108.5t185.5 -38.5t185.5 39t125.5 112q56 94 56 234v745h-183v158h568v-158h-180v-749q0 -209 -101 -353q-72 -102 -196 -156.5t-275 -54.5q-153 0 -277 55.5t-198 155.5q-96 130 -96 353z
M817 1538q-114 0 -193 63.5t-79 176.5v28h151v-26q0 -59 35.5 -90t85.5 -31q48 0 83.5 31.5t35.5 91.5v24h151v-28q0 -113 -78.5 -176.5t-191.5 -63.5z" />
    <glyph glyph-name="ubreve" unicode="&#x16d;" horiz-adv-x="1361" 
d="M215 373v510h-174v153h373v-622q0 -47 4 -82.5t16.5 -70t33.5 -56.5t56.5 -35.5t83.5 -13.5q100 0 178 58.5t118 149.5t40 195v324h-174v153h373v-839q0 -45 45 -45h108v-152h-215q-131 0 -131 115v45l4 61h-4q-7 -20 -23.5 -47t-50.5 -63t-76 -65.5t-107 -50t-138 -20.5
q-169 0 -254.5 97.5t-85.5 300.5zM653 1178q-114 0 -193 63t-79 176v29h151v-27q0 -59 35.5 -90t85.5 -31q48 0 83.5 31.5t35.5 91.5v25h152v-29q0 -113 -79 -176t-192 -63z" />
    <glyph glyph-name="Uring" unicode="&#x16e;" horiz-adv-x="1632" 
d="M817 1513q-77 0 -132.5 45t-55.5 119q0 77 55.5 123.5t132.5 46.5q78 0 135.5 -47t57.5 -123q0 -73 -58 -118.5t-135 -45.5zM817 1604q35 0 55.5 20t20.5 53q0 37 -20.5 58.5t-55.5 21.5q-33 0 -53.5 -22t-20.5 -58q0 -33 20.5 -53t53.5 -20zM246 539v749h-183v158h570
v-158h-182v-747q0 -148 55 -236q44 -70 125.5 -108.5t185.5 -38.5t185.5 39t125.5 112q56 94 56 234v745h-183v158h568v-158h-180v-749q0 -209 -101 -353q-72 -102 -196 -156.5t-275 -54.5q-153 0 -277 55.5t-198 155.5q-96 130 -96 353z" />
    <glyph glyph-name="uring" unicode="&#x16f;" horiz-adv-x="1361" 
d="M653 1153q-77 0 -132.5 45t-55.5 119q0 77 55.5 123.5t132.5 46.5q78 0 135.5 -47t57.5 -123q0 -73 -58 -118.5t-135 -45.5zM653 1243q35 0 55.5 20.5t20.5 53.5q0 37 -20.5 58.5t-55.5 21.5q-33 0 -53 -22t-20 -58q0 -33 20 -53.5t53 -20.5zM215 373v510h-174v153h373
v-622q0 -47 4 -82.5t16.5 -70t33.5 -56.5t56.5 -35.5t83.5 -13.5q100 0 178 58.5t118 149.5t40 195v324h-174v153h373v-839q0 -45 45 -45h108v-152h-215q-131 0 -131 115v45l4 61h-4q-7 -20 -23.5 -47t-50.5 -63t-76 -65.5t-107 -50t-138 -20.5q-169 0 -254.5 97.5
t-85.5 300.5z" />
    <glyph glyph-name="Uhungarumlaut" unicode="&#x170;" horiz-adv-x="1632" 
d="M246 539v749h-183v158h570v-158h-182v-747q0 -148 55 -236q44 -70 125.5 -108.5t185.5 -38.5t185.5 39t125.5 112q56 94 56 234v745h-183v158h568v-158h-180v-749q0 -209 -101 -353q-72 -102 -196 -156.5t-275 -54.5q-153 0 -277 55.5t-198 155.5q-96 130 -96 353z
M860 1546l150 260h211l-195 -260h-166zM545 1546l139 260h182l-143 -260h-178z" />
    <glyph glyph-name="uhungarumlaut" unicode="&#x171;" horiz-adv-x="1361" 
d="M215 373v510h-174v153h373v-622q0 -47 4 -82.5t16.5 -70t33.5 -56.5t56.5 -35.5t83.5 -13.5q100 0 178 58.5t118 149.5t40 195v324h-174v153h373v-839q0 -45 45 -45h108v-152h-215q-131 0 -131 115v45l4 61h-4q-7 -20 -23.5 -47t-50.5 -63t-76 -65.5t-107 -50t-138 -20.5
q-169 0 -254.5 97.5t-85.5 300.5zM696 1186l150 260h211l-195 -260h-166zM381 1186l139 260h182l-143 -260h-178z" />
    <glyph glyph-name="Uogonek" unicode="&#x172;" horiz-adv-x="1632" 
d="M244 512v776h-181v158h568v-158h-182v-774q0 -167 99 -261.5t267 -94.5t267.5 95t99.5 263v772h-183v158h570v-158h-183v-776q0 -172 -85.5 -298.5t-235.5 -199.5q-14 -6 -37.5 -23.5t-54 -46.5t-51.5 -70.5t-21 -84.5q0 -26 14 -46t36.5 -30.5t42 -16t38.5 -7.5
l-39 -140q-28 3 -57 9.5t-65 22t-63.5 37.5t-46 58t-18.5 80q0 116 113 221q-170 -9 -308 50t-221 185.5t-83 299.5z" />
    <glyph glyph-name="uogonek" unicode="&#x173;" horiz-adv-x="1361" 
d="M965 -244q0 71 39.5 135.5t97.5 108.5h-27q-61 0 -93 30t-32 85v45l4 61h-4q-7 -20 -23.5 -47t-50.5 -63t-76 -65.5t-106 -50t-135 -20.5q-173 0 -258.5 97t-85.5 301v510h-174v153h373v-622q0 -47 4 -82.5t16.5 -70t33.5 -56.5t56.5 -35.5t83.5 -13.5q101 0 179.5 59
t117.5 149.5t39 194.5v324h-174v153h373v-839q0 -45 45 -45h108v-152h-10q-36 0 -101 -72.5t-65 -138.5q0 -26 14 -46t36.5 -30.5t42 -16t38.5 -7.5l-37 -140q-37 4 -74.5 14.5t-79.5 32.5t-68.5 63.5t-26.5 96.5z" />
    <glyph glyph-name="Wcircumflex" unicode="&#x174;" horiz-adv-x="2066" 
d="M745 1546l181 260h215l180 -260h-178l-109 164h-4l-106 -164h-179zM33 1288v158h514v-158h-172l225 -948l16 -109h7q8 58 20 109l303 1106h174l301 -1106q6 -23 11.5 -50t7.5 -43l2 -16h8q4 58 14 109l226 948h-172v158h516v-158h-140l-323 -1288h-234l-282 1026
q-6 23 -11 51.5t-6 46.5l-2 17h-8q-4 -64 -18 -115l-283 -1026h-233l-322 1288h-139z" />
    <glyph glyph-name="wcircumflex" unicode="&#x175;" horiz-adv-x="1753" 
d="M592 1186l180 260h215l180 -260h-178l-108 164h-4l-107 -164h-178zM20 883v153h463v-153h-139l176 -602q5 -19 9.5 -43.5t6.5 -39.5l1 -14h6q4 54 16 97l227 753h181l227 -753q5 -19 9 -43.5t5 -39.5l2 -14h7q4 54 16 97l178 602h-141v153h463v-153h-129l-267 -883h-221
l-219 692q-5 21 -9.5 45.5t-6.5 38.5l-2 15h-5q-6 -52 -18 -99l-219 -692h-221l-266 883h-130z" />
    <glyph glyph-name="Ycircumflex" unicode="&#x176;" horiz-adv-x="1331" 
d="M381 0v160h182v452l-405 676h-138v158h498v-158h-151l268 -454l29 -62h4q12 31 30 62l269 454h-150v158h494v-158h-137l-406 -676v-452h182v-160h-569zM381 1546l180 260h215l180 -260h-178l-108 164h-4l-107 -164h-178z" />
    <glyph glyph-name="ycircumflex" unicode="&#x177;" horiz-adv-x="1208" 
d="M131 -215q7 -5 19.5 -13.5t51 -22t77.5 -13.5q64 0 113 39.5t77 103.5l43 103l-362 901h-132v153h474v-153h-138l232 -617q6 -20 10.5 -42.5t5.5 -35.5l2 -12h6q9 45 25 90l229 617h-133v153h459v-153h-129l-410 -1047q-52 -130 -147 -198t-217 -68q-59 0 -115 16t-82 32
l-27 17zM328 1186l180 260h215l180 -260h-178l-109 164h-4l-106 -164h-178z" />
    <glyph glyph-name="Ydieresis" unicode="&#x178;" horiz-adv-x="1331" 
d="M381 0v160h182v452l-405 676h-138v158h498v-158h-151l268 -454l29 -62h4q12 31 30 62l269 454h-150v158h494v-158h-137l-406 -676v-452h182v-160h-569zM784 1599v207h177v-207h-177zM375 1599v207h176v-207h-176z" />
    <glyph glyph-name="Zacute" unicode="&#x179;" horiz-adv-x="1294" 
d="M543 1546l213 260h227l-254 -260h-186zM111 0v135l745 1075q13 18 27.5 35.5t22.5 26.5l9 8v4q-40 -6 -81 -6h-535v-225h-178v393h1042v-133l-745 -1077q-13 -18 -28 -35.5t-24 -26.5l-8 -8v-4q41 6 82 6h566v233h178v-401h-1073z" />
    <glyph glyph-name="zacute" unicode="&#x17a;" horiz-adv-x="1079" 
d="M428 1186l213 260h227l-254 -260h-186zM98 131l572 692q14 16 28 31t22 22l7 7v4q-43 -4 -84 -4h-360v-166h-174v319h858v-131l-568 -692q-14 -16 -28 -30.5t-21 -20.5l-8 -6v-4q41 2 82 2h383v165h174v-319h-883v131z" />
    <glyph glyph-name="Zdotaccent" unicode="&#x17b;" horiz-adv-x="1294" 
d="M111 0v135l745 1075q13 18 27.5 35.5t22.5 26.5l9 8v4q-40 -6 -81 -6h-535v-225h-178v393h1042v-133l-745 -1077q-13 -18 -28 -35.5t-24 -26.5l-8 -8v-4q41 6 82 6h566v233h178v-401h-1073zM573 1606v200h187v-200h-187z" />
    <glyph glyph-name="zdotaccent" unicode="&#x17c;" horiz-adv-x="1079" 
d="M98 131l572 692q14 16 28 31t22 22l7 7v4q-43 -4 -84 -4h-360v-166h-174v319h858v-131l-568 -692q-14 -16 -28 -30.5t-21 -20.5l-8 -6v-4q41 2 82 2h383v165h174v-319h-883v131zM459 1245v201h186v-201h-186z" />
    <glyph glyph-name="Zcaron" unicode="&#x17d;" horiz-adv-x="1294" 
d="M559 1546l-180 260h178l107 -166h4l108 166h178l-180 -260h-215zM111 0v135l745 1075q13 18 27.5 35.5t22.5 26.5l9 8v4q-40 -6 -81 -6h-535v-225h-178v393h1042v-133l-745 -1077q-13 -18 -28 -35.5t-24 -26.5l-8 -8v-4q41 6 82 6h566v233h178v-401h-1073z" />
    <glyph glyph-name="zcaron" unicode="&#x17e;" horiz-adv-x="1079" 
d="M444 1186l-180 260h178l107 -166h4l109 166h178l-181 -260h-215zM98 131l572 692q14 16 28 31t22 22l7 7v4q-43 -4 -84 -4h-360v-166h-174v319h858v-131l-568 -692q-14 -16 -28 -30.5t-21 -20.5l-8 -6v-4q41 2 82 2h383v165h174v-319h-883v131z" />
    <glyph glyph-name="longs" unicode="&#x17f;" horiz-adv-x="684" 
d="M98 0v154h152v729h-162v153h162v51q0 95 28 166t68 109t95.5 61.5t98.5 30t89 6.5q25 0 49 -1.5t36 -2.5l11 -2v-166q-27 6 -76 6q-25 0 -47.5 -3.5t-52 -15.5t-50.5 -33t-35.5 -59.5t-14.5 -90.5v-938h178v-154h-529z" />
    <glyph glyph-name="florin" unicode="&#x192;" horiz-adv-x="1038" 
d="M-37 -43q80 -12 135 -12q27 0 52 4t57.5 18.5t56.5 37.5t43.5 66.5t24.5 100.5l47 545h-168v160h182l19 208q9 97 44.5 170.5t80.5 113t104 64t104.5 31t92.5 6.5q35 0 78 -3.5t68 -6.5l26 -4v-172q-101 14 -162 14q-28 0 -53.5 -4t-58 -18.5t-56.5 -37.5t-43.5 -66.5
t-24.5 -100.5l-20 -194h239v-160h-253l-48 -561q-6 -71 -26.5 -129t-48 -97t-64.5 -68.5t-72.5 -46t-76.5 -26.5t-72.5 -13t-63.5 -3q-31 0 -67 3t-56 6l-20 3v172z" />
    <glyph glyph-name="Scommaaccent" unicode="&#x218;" horiz-adv-x="1183" 
d="M502 -119h174q14 -43 14 -100q0 -77 -42.5 -141.5t-112.5 -100.5l-86 70q77 74 77 160q0 48 -24 112zM109 434h188v-106q0 -77 85 -123.5t204 -46.5q128 0 207 58t79 163q0 56 -22.5 99t-76.5 77.5t-93 53t-123 50.5q-22 9 -33 13q-44 17 -72 28t-68 29.5t-66 36
t-57 41.5t-50.5 51.5t-37.5 60.5t-26 74t-8 88q0 99 37.5 175t103 122t147 69t175.5 23q83 0 160.5 -15.5t140 -44.5t100 -75.5t37.5 -103.5v-170h-190v100q0 59 -75.5 94t-172.5 35q-111 0 -182.5 -51t-71.5 -147q0 -23 3.5 -43t13.5 -38t18 -32.5t27 -29.5t30 -25
t37.5 -23.5t39 -20t45 -19.5t45 -17.5t48.5 -18.5q59 -22 91.5 -35t84.5 -38t81.5 -46t65.5 -54t55 -68.5t32.5 -84t13.5 -104.5q0 -133 -68 -230t-178 -143.5t-247 -46.5q-87 0 -170 19.5t-152.5 56.5t-112 97.5t-42.5 134.5v151z" />
    <glyph glyph-name="scommaaccent" unicode="&#x219;" horiz-adv-x="985" 
d="M410 -119h174q14 -43 14 -100q0 -77 -43 -141.5t-113 -100.5l-86 70q78 75 78 160q0 48 -24 112zM82 223v111h174v-68q0 -62 71.5 -95.5t166.5 -33.5q91 0 149.5 35t58.5 98q0 28 -12 51.5t-31.5 40.5t-51.5 33t-62.5 27.5t-74.5 27.5q-17 6 -26 9q-58 21 -94.5 36.5
t-84.5 44.5t-76 59t-48 75.5t-20 99.5q0 74 34 131t90.5 90t122 49.5t136.5 16.5q58 0 117.5 -12t115 -35t90.5 -65.5t35 -96.5v-125h-174v68q0 46 -53 76t-129 30q-78 0 -131 -32.5t-53 -92.5q0 -28 14 -52.5t33 -41t55.5 -34.5t62.5 -28t74 -26q42 -14 70 -24t67.5 -27.5
t65 -33.5t54.5 -40.5t46 -50.5t28 -61.5t11 -75.5q0 -144 -116.5 -225t-299.5 -81q-98 0 -188.5 27t-153.5 85t-63 136z" />
    <glyph glyph-name="uni021A" unicode="&#x21a;" horiz-adv-x="1359" 
d="M592 -119h174q14 -43 14 -100q0 -77 -42.5 -141.5t-112.5 -100.5l-86 70q77 74 77 160q0 48 -24 112zM395 0v160h183v1118h-340v-225h-179v393h1241v-393h-178v225h-340v-1118h183v-160h-570z" />
    <glyph glyph-name="uni021B" unicode="&#x21b;" horiz-adv-x="737" 
d="M373 -119h174q14 -43 14 -100q0 -77 -42.5 -141.5t-112.5 -100.5l-87 70q78 75 78 160q0 48 -24 112zM211 379v504h-174v153h178v285h195v-285h247v-153h-247v-486q0 -60 16 -105.5t39 -69.5t55 -39t57.5 -19t53.5 -4l47 2v-166q-29 -4 -72 -4q-32 0 -63.5 3t-72 13.5
t-75.5 27t-69.5 46t-59 69t-40 98.5t-15.5 130z" />
    <glyph glyph-name="circumflex" unicode="&#x2c6;" horiz-adv-x="1021" 
d="M223 1546l180 260h215l181 -260h-178l-109 164h-4l-107 -164h-178z" />
    <glyph glyph-name="caron" unicode="&#x2c7;" horiz-adv-x="1021" 
d="M403 1546l-180 260h178l107 -166h4l109 166h178l-181 -260h-215z" />
    <glyph glyph-name="breve" unicode="&#x2d8;" horiz-adv-x="1021" 
d="M512 1538q-114 0 -193 63.5t-79 176.5v28h151v-26q0 -59 35.5 -90t85.5 -31q48 0 83.5 31.5t35.5 91.5v24h151v-28q0 -113 -78.5 -176.5t-191.5 -63.5z" />
    <glyph glyph-name="dotaccent" unicode="&#x2d9;" horiz-adv-x="1024" 
d="M418 1606v200h186v-200h-186z" />
    <glyph glyph-name="ring" unicode="&#x2da;" horiz-adv-x="1024" 
d="M512 1513q-77 0 -132.5 45t-55.5 119q0 77 55.5 123.5t132.5 46.5q78 0 135.5 -47t57.5 -123q0 -73 -58 -118.5t-135 -45.5zM512 1604q35 0 55.5 20t20.5 53q0 37 -20.5 58.5t-55.5 21.5q-33 0 -53.5 -22t-20.5 -58q0 -33 20 -53t54 -20z" />
    <glyph glyph-name="ogonek" unicode="&#x2db;" horiz-adv-x="1021" 
d="M340 -244q0 50 22.5 100t57 86.5t65 61t54.5 37.5h125v-41q-36 0 -102 -72.5t-66 -138.5q0 -26 14 -46t36.5 -30.5t42 -16t38.5 -7.5l-37 -140q-29 3 -58 9.5t-65 22t-63 37.5t-45.5 58t-18.5 80z" />
    <glyph glyph-name="tilde" unicode="&#x2dc;" horiz-adv-x="1021" 
d="M162 1548q0 260 209 260q41 0 75 -14t56.5 -34t42.5 -40.5t41.5 -34.5t44.5 -14q45 0 63.5 38.5t18.5 92.5h147q0 -260 -209 -260q-41 0 -75 14t-56.5 34t-42.5 40.5t-41.5 34.5t-44.5 14q-82 0 -82 -131h-147z" />
    <glyph glyph-name="hungarumlaut" unicode="&#x2dd;" horiz-adv-x="1021" 
d="M489 1546l150 260h211l-195 -260h-166zM174 1546l139 260h183l-144 -260h-178z" />
    <glyph glyph-name="uni1E9E" unicode="&#x1e9e;" horiz-adv-x="1474" 
d="M76 0v160h182v860q0 185 122.5 305.5t309.5 120.5h584v-137l-262 -404q-8 -13 -17 -25t-15 -18l-5 -6v-4q177 -34 289 -140t112 -272q0 -94 -35 -176t-101.5 -145t-171 -99t-234.5 -36q-92 0 -195 20v178q83 -20 172 -20q175 0 265.5 76t90.5 198q0 55 -19.5 99t-64 81
t-124 61t-191.5 32v122l244 388q8 14 18 27t16 20l7 6v4q-31 -6 -60 -6h-295q-103 0 -169 -71t-66 -177v-1022h-387z" />
    <glyph glyph-name="thinspace" unicode="&#x2009;" horiz-adv-x="532" 
 />
    <glyph glyph-name="endash" unicode="&#x2013;" horiz-adv-x="1462" 
d="M193 504v160h1077v-160h-1077z" />
    <glyph glyph-name="emdash" unicode="&#x2014;" horiz-adv-x="1871" 
d="M193 504v160h1486v-160h-1486z" />
    <glyph glyph-name="quoteleft" unicode="&#x2018;" horiz-adv-x="468" 
d="M96 1022l146 446h147l-100 -446h-193z" />
    <glyph glyph-name="quoteright" unicode="&#x2019;" horiz-adv-x="456" 
d="M102 1022l101 446h192l-145 -446h-148z" />
    <glyph glyph-name="quotesinglbase" unicode="&#x201a;" horiz-adv-x="503" 
d="M74 -231l100 446h188l-145 -446h-143z" />
    <glyph glyph-name="quotedblleft" unicode="&#x201c;" horiz-adv-x="772" 
d="M96 1022l146 446h147l-98 -446h-195zM397 1022l146 446h147l-98 -446h-195z" />
    <glyph glyph-name="quotedblright" unicode="&#x201d;" horiz-adv-x="757" 
d="M403 1022l101 446h192l-145 -446h-148zM102 1022l101 446h192l-145 -446h-148z" />
    <glyph glyph-name="quotedblbase" unicode="&#x201e;" horiz-adv-x="798" 
d="M371 -231l100 446h186l-145 -446h-141zM74 -231l100 446h188l-145 -446h-143z" />
    <glyph glyph-name="dagger" unicode="&#x2020;" horiz-adv-x="864" 
d="M334 -102v981h-248v157h248v410h190v-410h254v-157h-254v-981h-190z" />
    <glyph glyph-name="daggerdbl" unicode="&#x2021;" horiz-adv-x="890" 
d="M98 350v160h248v369h-248v157h248v410h193v-410h254v-157h-254v-369h254v-160h-254v-452h-193v452h-248z" />
    <glyph glyph-name="bullet" unicode="&#x2022;" horiz-adv-x="845" 
d="M422 279q-131 0 -223.5 92.5t-92.5 224.5t92.5 224.5t223.5 92.5q132 0 224.5 -92.5t92.5 -224.5t-92.5 -224.5t-224.5 -92.5z" />
    <glyph glyph-name="ellipsis" unicode="&#x2026;" horiz-adv-x="1581" 
d="M1219 0v215h206v-215h-206zM686 0v215h209v-215h-209zM156 0v215h206v-215h-206z" />
    <glyph glyph-name="perthousand" unicode="&#x2030;" horiz-adv-x="2260" 
d="M414 864q-129 0 -219.5 88.5t-90.5 214.5q0 125 90.5 214t219.5 89t220 -89t91 -214q0 -126 -91 -214.5t-220 -88.5zM137 0l1104 1446h193l-1106 -1446h-191zM414 1016q64 0 107.5 43t43.5 108q0 64 -43.5 109t-107.5 45q-63 0 -106.5 -45.5t-43.5 -108.5
q0 -64 43.5 -107.5t106.5 -43.5zM1573 279q0 125 90 214t219 89t220 -89t91 -214q0 -126 -91 -215t-220 -89t-219 89t-90 215zM846 279q0 125 91 214t220 89t220 -89t91 -214q0 -126 -91 -215t-220 -89t-220 89t-91 215zM1733 279q0 -64 43 -108t106 -44q64 0 108 43.5
t44 108.5q0 63 -44 108t-108 45q-63 0 -106 -45t-43 -108zM1006 279q0 -65 43.5 -108.5t107.5 -43.5q63 0 107.5 44t44.5 108q0 63 -44.5 108t-107.5 45q-64 0 -107.5 -44.5t-43.5 -108.5z" />
    <glyph glyph-name="guilsinglleft" unicode="&#x2039;" horiz-adv-x="735" 
d="M424 158l-336 420l336 421h199l-336 -421l336 -420h-199z" />
    <glyph glyph-name="guilsinglright" unicode="&#x203a;" horiz-adv-x="735" 
d="M113 158l336 420l-336 421h198l336 -421l-336 -420h-198z" />
    <glyph glyph-name="fraction" unicode="&#x2044;" horiz-adv-x="305" 
d="M-268 0l688 1446h153l-686 -1446h-155z" />
    <glyph glyph-name="zerosuperior" unicode="&#x2070;" horiz-adv-x="817" 
d="M410 846q-324 0 -324 469q0 467 324 467q321 0 321 -467q0 -469 -321 -469zM410 987q165 0 165 328q0 323 -165 323q-168 0 -168 -323q0 -328 168 -328z" />
    <glyph glyph-name="foursuperior" unicode="&#x2074;" horiz-adv-x="802" 
d="M469 866v224h-426v98l412 573h166v-551h127v-120h-127v-224h-152zM201 1210h268v299q0 18 2 41.5t4 37.5l2 14h-6q-18 -45 -43 -80l-227 -308v-4z" />
    <glyph glyph-name="fivesuperior" unicode="&#x2075;" horiz-adv-x="753" 
d="M350 846q-53 0 -102.5 13t-82.5 32t-58.5 37.5t-37.5 31.5l-12 13l86 102q3 -4 9 -10t26 -22t41.5 -28t54.5 -22t66 -10q77 0 131.5 48.5t54.5 121.5t-53 121.5t-135 48.5q-38 0 -75.5 -10.5t-56.5 -21.5l-18 -11l-86 31l50 450h483v-231h-127v108h-232l-14 -153
q-1 -18 -3.5 -35t-4.5 -25l-2 -8h4q47 21 113 21q138 0 225.5 -82.5t87.5 -204.5q0 -124 -93 -214.5t-239 -90.5z" />
    <glyph glyph-name="sixsuperior" unicode="&#x2076;" horiz-adv-x="784" 
d="M418 846q-148 0 -243 114t-95 302q0 73 15 145t47 140t78 120t114 83.5t149 31.5q48 0 96 -11t71 -23l24 -11l-51 -131q-68 32 -134 32q-94 0 -155.5 -72t-81.5 -184h4q28 28 74 46t88 18q135 0 217 -82t82 -211q0 -136 -84 -221.5t-215 -85.5zM418 987q68 0 106.5 48
t38.5 120q0 75 -45 123.5t-121 48.5q-63 0 -111 -33.5t-48 -74.5q0 -87 52 -159.5t128 -72.5z" />
    <glyph glyph-name="sevensuperior" unicode="&#x2077;" horiz-adv-x="724" 
d="M121 866l368 727q6 11 14.5 22.5t13.5 16.5l5 6v4q-28 -4 -55 -4h-274v-108h-130v231h625v-104l-405 -791h-162z" />
    <glyph glyph-name="eightsuperior" unicode="&#x2078;" horiz-adv-x="800" 
d="M403 846q-131 0 -228 74t-97 204q0 131 145 234q-104 76 -104 184q0 113 85.5 176.5t203.5 63.5q74 0 138.5 -26.5t108 -83.5t43.5 -134q0 -107 -110 -229q131 -76 131 -203q0 -114 -92.5 -187t-223.5 -73zM477 1362q76 76 76 168q0 55 -44 87t-103 32q-57 0 -97.5 -29.5
t-40.5 -83.5q0 -17 5.5 -32.5t12 -27t22 -24t25.5 -20t33 -19l34 -17t39 -17.5t38 -17zM403 979q62 0 112 38t50 95q0 23 -10.5 43.5t-25 35t-42 30.5t-47.5 25.5t-57 26t-57 25.5q-97 -79 -97 -168q0 -69 52 -110t122 -41z" />
    <glyph glyph-name="ninesuperior" unicode="&#x2079;" horiz-adv-x="784" 
d="M303 846q-49 0 -97 11t-72 23l-23 11l51 131q65 -33 137 -33q89 0 152 73t81 183h-4q-66 -63 -170 -63q-128 0 -209 83.5t-81 213.5q0 132 84.5 217.5t214.5 85.5q149 0 243.5 -113.5t94.5 -302.5q0 -73 -15 -145.5t-47.5 -140.5t-78.5 -119.5t-113.5 -83t-147.5 -31.5z
M391 1300q66 0 111 35.5t45 94.5q0 69 -54 139.5t-131 70.5q-63 0 -102 -48t-39 -119q0 -76 45 -124.5t125 -48.5z" />
    <glyph glyph-name="zeroinferior" unicode="&#x2080;" horiz-adv-x="817" 
d="M410 -342q-324 0 -324 469q0 467 324 467q321 0 321 -467q0 -469 -321 -469zM410 -201q165 0 165 328q0 324 -165 324q-168 0 -168 -324q0 -328 168 -328z" />
    <glyph glyph-name="oneinferior" unicode="&#x2081;" horiz-adv-x="688" 
d="M76 -322v127h211v506q0 16 1.5 32t3.5 24l1 8h-4q-10 -19 -33 -37l-98 -96l-95 100l240 231h137v-768h209v-127h-573z" />
    <glyph glyph-name="twoinferior" unicode="&#x2082;" horiz-adv-x="765" 
d="M70 -240q0 67 24 123.5t63 96t85.5 74t93 64t85.5 58.5t63 65.5t24 77.5q0 57 -41.5 95.5t-104.5 38.5q-29 0 -57 -10t-48.5 -24.5t-36.5 -29.5t-24 -25l-8 -10l-100 92q4 6 11.5 16t34.5 35.5t58 45t80.5 35.5t102.5 16q129 0 209 -73.5t80 -188.5q0 -71 -31.5 -129
t-78.5 -95t-103 -74t-104 -66.5t-81.5 -72t-36.5 -90.5h322v105h129v-232h-602q-8 51 -8 82z" />
    <glyph glyph-name="threeinferior" unicode="&#x2083;" horiz-adv-x="765" 
d="M94 340v231h574v-98l-230 -266q49 -7 91.5 -25t78 -48t56 -76.5t20.5 -104.5q0 -122 -90 -209.5t-229 -87.5q-57 0 -109.5 14t-86 33.5t-59 39.5t-36.5 34l-11 14l87 105q3 -4 8.5 -11t25 -25t41.5 -31.5t58 -24.5t75 -11q68 0 119 45t51 111q0 68 -53.5 106.5
t-126.5 38.5h-65l-33 78l194 236q10 11 21.5 21.5t17.5 14.5l6 5v6q-28 -6 -61 -6h-205v-109h-129z" />
    <glyph glyph-name="fourinferior" unicode="&#x2084;" horiz-adv-x="802" 
d="M469 -322v224h-426v98l412 573h166v-550h127v-121h-127v-224h-152zM201 23h268v299q0 18 2 41t4 37l2 14h-6q-18 -45 -43 -80l-227 -307v-4z" />
    <glyph glyph-name="fiveinferior" unicode="&#x2085;" horiz-adv-x="753" 
d="M350 -342q-53 0 -102.5 13t-82.5 32t-58.5 37.5t-37.5 31.5l-12 13l86 102q3 -4 9 -10t26 -22t41.5 -28t54.5 -22t66 -10q77 0 131.5 48.5t54.5 121.5t-53 121.5t-135 48.5q-38 0 -75.5 -10.5t-56.5 -21.5l-18 -11l-86 31l50 450h483v-231h-127v109h-232l-14 -154
q-1 -18 -3.5 -35t-4.5 -25l-2 -8h4q47 21 113 21q138 0 225.5 -82.5t87.5 -204.5q0 -124 -93 -214.5t-239 -90.5z" />
    <glyph glyph-name="sixinferior" unicode="&#x2086;" horiz-adv-x="784" 
d="M418 -342q-148 0 -243 114t-95 302q0 73 15 145t47 140t78 120t114 83.5t149 31.5q48 0 96 -11t71 -23l24 -11l-51 -131q-68 33 -134 33q-94 0 -155.5 -72t-81.5 -184h4q27 27 73.5 45t88.5 18q135 0 217 -82t82 -211q0 -136 -84 -221.5t-215 -85.5zM418 -201
q68 0 106.5 48t38.5 120q0 75 -45 123.5t-121 48.5q-63 0 -111 -33.5t-48 -74.5q0 -87 52 -159.5t128 -72.5z" />
    <glyph glyph-name="seveninferior" unicode="&#x2087;" horiz-adv-x="724" 
d="M121 -324l368 727q6 11 14.5 22.5t13.5 17.5l5 6v4q-28 -4 -55 -4h-274v-109h-130v231h625v-104l-405 -791h-162z" />
    <glyph glyph-name="eightinferior" unicode="&#x2088;" horiz-adv-x="800" 
d="M403 -340q-84 0 -156.5 30.5t-120.5 95.5t-48 153q0 130 145 233q-104 76 -104 184q0 113 85.5 176.5t203.5 63.5q74 0 138.5 -26.5t108 -83.5t43.5 -134q0 -107 -110 -229q131 -76 131 -203q0 -114 -92.5 -187t-223.5 -73zM477 176q76 76 76 168q0 55 -44 87t-103 32
q-57 0 -97.5 -29.5t-40.5 -83.5q0 -17 5.5 -32.5t12 -27t22 -24t25.5 -20t33 -19l34 -17t39 -17.5t38 -17zM403 -207q62 0 112 38t50 95q0 23 -10.5 43.5t-25 35t-42 31t-47.5 25.5t-57.5 26t-56.5 26q-97 -79 -97 -168q0 -69 52 -110.5t122 -41.5z" />
    <glyph glyph-name="nineinferior" unicode="&#x2089;" horiz-adv-x="784" 
d="M303 -342q-49 0 -97 11t-72 23l-23 11l51 131q65 -33 137 -33q89 0 152 73t81 183h-4q-66 -63 -170 -63q-128 0 -209 83.5t-81 213.5q0 132 84.5 217.5t214.5 85.5q149 0 243.5 -113.5t94.5 -302.5q0 -73 -15 -145.5t-47.5 -140.5t-78.5 -119.5t-113.5 -83t-147.5 -31.5z
M391 113q66 0 111 35.5t45 93.5q0 69 -54 140t-131 71q-63 0 -102 -48.5t-39 -119.5q0 -76 45 -124t125 -48z" />
    <glyph glyph-name="Euro" unicode="&#x20ac;" horiz-adv-x="1226" 
d="M90 512v125h113q-11 85 0 188h-113v127h135q64 228 252.5 373t437.5 145q50 0 102 -6t79 -12l26 -6l-47 -176q-80 20 -164 20q-169 0 -294 -92t-177 -246h574l-27 -127h-575q-10 -79 0 -188h542l-26 -125h-482q48 -159 175.5 -256.5t296.5 -97.5q46 0 93 7t71 14l24 7
l39 -176q-101 -35 -230 -35q-258 0 -445 149.5t-247 387.5h-133z" />
    <glyph glyph-name="trademark" unicode="&#x2122;" horiz-adv-x="1953" 
d="M901 545l72 901h143l213 -471q7 -16 14 -37.5t10 -35.5l3 -13h4q13 49 29 86l213 471h143l70 -901h-156l-41 538l2 62h-4l-195 -434h-125l-194 434h-4l2 -62l-43 -538h-156zM371 545v764h-314v137h781v-137h-314v-764h-153z" />
    <glyph glyph-name="minus" unicode="&#x2212;" horiz-adv-x="1255" 
d="M98 504v160h1059v-160h-1059z" />
    <glyph glyph-name="infinity" unicode="&#x221e;" horiz-adv-x="1005" 
d="M504 342q-154 0 -263.5 109.5t-109.5 263.5q0 155 109.5 262.5t263.5 107.5t262 -107.5t108 -262.5q0 -154 -108.5 -263.5t-261.5 -109.5z" />
    <glyph glyph-name="approxequal" unicode="&#x2248;" horiz-adv-x="1255" 
d="M201 657l-84 121q60 63 141 106.5t168 43.5q65 0 124 -22.5t96.5 -49.5t87 -49.5t97.5 -22.5q59 0 120 32.5t106 80.5l84 -121q-60 -62 -141.5 -104.5t-168.5 -42.5q-65 0 -124 22.5t-96.5 49t-87 49t-97.5 22.5q-60 0 -119 -33t-106 -82zM201 272l-84 119
q60 63 141 106.5t168 43.5q65 0 124 -22.5t96.5 -49.5t87 -49.5t97.5 -22.5q59 0 120 32.5t106 80.5l84 -121q-60 -62 -141.5 -104.5t-168.5 -42.5q-65 0 -124 22.5t-96.5 49t-87 49t-97.5 22.5q-60 0 -119.5 -32.5t-105.5 -80.5z" />
    <glyph glyph-name="notequal" unicode="&#x2260;" horiz-adv-x="1255" 
d="M248 150l114 159h-225v160h332l164 227h-496v160h602l168 236l105 -72l-119 -164h221v-160h-328l-161 -227h489v-160h-598l-162 -229z" />
    <glyph glyph-name="lessequal" unicode="&#x2264;" horiz-adv-x="1255" 
d="M119 516v135l954 426v-182l-733 -309v-4l733 -310v-182zM121 -195h952v-159h-952v159z" />
    <glyph glyph-name="greaterequal" unicode="&#x2265;" horiz-adv-x="1255" 
d="M182 90v182l731 310v4l-731 309v182l955 -426v-135zM182 -195h953v-159h-953v159z" />
    <glyph glyph-name="commaaccent" horiz-adv-x="686" 
d="M262 -119h174q15 -46 15 -100q0 -77 -43 -141.5t-113 -100.5l-86 70q78 75 78 160q0 45 -25 112z" />
    <glyph glyph-name="apple" horiz-adv-x="2314" 
d="M344 -10v311l-258 148v569l258 145v310l543 290l274 -145l271 145l542 -290v-310l254 -145v-569l-254 -148v-311l-542 -289l-271 145l-274 -145zM426 61l487 -258l248 136l242 -136l487 258v285l234 131v510l-234 135v279l-487 258l-242 -131l-248 131l-487 -258v-279
l-233 -135v-510l233 -131v-285zM496 131v248l-203 123v461l203 118v252l440 234l225 -121l219 121l439 -234v-252l204 -118v-461l-204 -123v-248l-439 -233l-219 118l-225 -118zM897 186h162v418h422v141h-422v338h309q29 0 39 -12t10 -41v-67h150v151q0 58 -24.5 83.5
t-86.5 25.5h-678v-140h119v-897z" />
    <glyph glyph-name="zero.tnum" horiz-adv-x="1175" 
d="M588 -25q-113 0 -201.5 38.5t-146.5 105t-95 162.5t-53 205t-16 239q0 129 16 237.5t53 204t95 161.5t146.5 104t201.5 38t201 -38t146 -104t95.5 -161.5t53.5 -204t16 -237.5q0 -130 -16 -239t-53.5 -205t-95.5 -162.5t-146 -105t-201 -38.5zM588 158q86 0 146.5 42.5
t94 122.5t48 178t14.5 224q0 125 -14.5 222.5t-48 177t-94 122.5t-146.5 43t-147 -43t-94 -123t-47.5 -177t-14.5 -222q0 -127 14.5 -224.5t47.5 -177.5t94 -122.5t147 -42.5z" />
    <glyph glyph-name="one.tnum" horiz-adv-x="1175" 
d="M201 0v168h319v942l2 88h-4q-16 -31 -69 -82l-136 -133l-123 127l347 336h180v-1278h315v-168h-831z" />
    <glyph glyph-name="two.tnum" horiz-adv-x="1175" 
d="M98 0q-10 65 -10 111q0 83 24.5 156t66 129.5t95.5 107t114 93t119.5 83t113.5 81.5t95.5 83.5t66 94t24.5 108.5q0 111 -71.5 177t-188.5 66q-53 0 -103.5 -20t-84.5 -48t-60 -56t-39 -48l-12 -20l-144 98q5 11 16 29.5t51.5 66t88.5 83.5t129.5 65.5t173.5 29.5
q200 0 328.5 -114.5t128.5 -300.5q0 -94 -39 -176.5t-101.5 -143t-138 -115.5t-151 -105t-138.5 -100.5t-102.5 -113.5t-40.5 -133h590v192h178v-360h-979z" />
    <glyph glyph-name="three.tnum" horiz-adv-x="1175" 
d="M145 1094v352h883v-141l-383 -451q57 -6 112 -23t110 -50.5t96 -79t66.5 -113.5t25.5 -148q0 -93 -35.5 -177.5t-99 -148t-157.5 -101.5t-204 -38q-83 0 -162 20.5t-132 49.5t-94.5 57.5t-60.5 49.5l-20 20l107 145l17 -17t47 -38.5t74.5 -48.5t97 -38t116.5 -17
q124 0 210.5 78t86.5 196q0 125 -91.5 196.5t-228.5 71.5q-66 0 -86 -4l-47 107l352 424q10 13 24 26t23 20l9 7v4q-45 -6 -74 -6h-403v-184h-179z" />
    <glyph glyph-name="four.tnum" horiz-adv-x="1175" 
d="M27 387v127l669 932h230v-895h196v-164h-196v-387h-199v387h-700zM678 1133l-430 -578v-4h479v567q0 22 2.5 49.5t4.5 44.5l3 17h-6q-22 -51 -53 -96z" />
    <glyph glyph-name="five.tnum" horiz-adv-x="1175" 
d="M96 162l107 143q5 -6 14.5 -16t41.5 -35t67 -44.5t91 -35.5t115 -16q136 0 231 86t95 209q0 134 -89.5 216.5t-238.5 82.5q-68 0 -131.5 -18.5t-92.5 -37.5l-30 -18l-118 43l71 725h748v-352h-178v184h-393l-37 -346l-11 -58h4q9 5 25.5 12.5t70 20.5t109.5 13
q221 0 360.5 -131.5t139.5 -327.5q0 -205 -150 -345.5t-374 -140.5q-60 0 -117 10.5t-100 27t-81.5 36t-65 39.5t-46 36.5t-28.5 27.5z" />
    <glyph glyph-name="six.tnum" horiz-adv-x="1175" 
d="M631 -25q-238 0 -389.5 187t-151.5 489q0 118 24 232.5t77 221t128.5 187.5t186 129.5t242.5 48.5q74 0 143 -15t101 -29l32 -15l-63 -170q-10 5 -28.5 13.5t-73.5 22t-107 13.5q-96 0 -175.5 -42t-132 -113t-85 -156t-44.5 -180h4q47 62 137 99.5t191 37.5
q201 0 330 -136t129 -337q0 -214 -135 -351t-340 -137zM303 545q0 -86 40 -174t117 -150.5t169 -62.5q124 0 197 84.5t73 220.5q0 134 -82 218.5t-227 84.5q-120 0 -203.5 -66t-83.5 -155z" />
    <glyph glyph-name="seven.tnum" horiz-adv-x="1175" 
d="M242 0l598 1208q10 21 21.5 39t17.5 25l6 8v4q-37 -6 -84 -6h-510v-184h-178v352h991v-139l-653 -1307h-209z" />
    <glyph glyph-name="eight.tnum" horiz-adv-x="1175" 
d="M84 408q0 228 233 393q-176 117 -176 291q0 59 17.5 113.5t54.5 103t89 84t127 56.5t163 21q204 0 331.5 -104.5t127.5 -275.5q0 -69 -21.5 -137t-55.5 -119.5t-55 -77.5t-40 -45q206 -121 206 -314q0 -83 -35.5 -159.5t-98.5 -134.5t-157 -93t-204 -35
q-217 0 -361.5 123.5t-144.5 309.5zM342 1090q0 -30 9.5 -57.5t22.5 -48t39.5 -42t47.5 -35.5t60 -33t63.5 -29.5t71.5 -30t71 -30.5q125 147 125 283q0 106 -71 166.5t-189 60.5q-117 0 -183.5 -58t-66.5 -146zM289 428q0 -121 88 -197.5t211 -76.5q117 0 204 70t87 173
q0 35 -10.5 64.5t-34 54.5t-48 44t-67.5 40.5t-75.5 36t-89.5 38.5t-93 40q-29 -22 -46.5 -37.5t-52.5 -54.5t-54 -89t-19 -106z" />
    <glyph glyph-name="nine.tnum" horiz-adv-x="1175" 
d="M68 985q0 213 135.5 349t341.5 136q237 0 387.5 -186.5t150.5 -488.5q0 -117 -24 -231t-76.5 -221t-127.5 -188.5t-186 -130.5t-243 -49q-74 0 -143.5 15t-102.5 30l-33 15l64 172q10 -5 28.5 -13.5t74 -22t108.5 -13.5q97 0 176.5 42t132 113t85 156t44.5 180h-4
q-47 -59 -138 -95t-192 -36q-201 0 -329.5 134.5t-128.5 332.5zM276 985q0 -132 81 -214.5t223 -82.5q119 0 204.5 65.5t85.5 153.5q0 87 -41.5 175t-118 148t-165.5 60q-122 0 -195.5 -86t-73.5 -219z" />
    <glyph glyph-name="hyphen.case" horiz-adv-x="954" 
d="M178 625v176h598v-176h-598z" />
    <glyph glyph-name="parenleft.case" horiz-adv-x="645" 
d="M379 -133q-113 188 -175.5 418t-62.5 473q0 430 238 809h174q-231 -385 -231 -811q0 -470 231 -889h-174z" />
    <glyph glyph-name="parenright.case" horiz-adv-x="645" 
d="M92 -133q232 420 232 889q0 424 -232 811h174q238 -379 238 -809q0 -243 -62.5 -473t-175.5 -418h-174z" />
    <glyph glyph-name="bracketleft.case" horiz-adv-x="641" 
d="M199 -133v1700h338v-150h-164v-1399h164v-151h-338z" />
    <glyph glyph-name="bracketright.case" horiz-adv-x="643" 
d="M104 18h164v1399h-164v150h340v-1700h-340v151z" />
    <glyph glyph-name="braceleft.case" horiz-adv-x="690" 
d="M242 219v197q0 59 -18 103.5t-43.5 66t-51 35t-43.5 15.5l-18 3v176q7 1 19 3t42 16t52.5 36t41.5 67t19 105v172q0 92 26 161t62 105t85 58t85 27.5t73 5.5l48 -2v-152h-29q-20 0 -38.5 -3t-45 -16t-45.5 -35t-33 -63.5t-14 -97.5v-211q0 -57 -17 -104.5t-41.5 -75
t-49 -47t-41.5 -26.5l-17 -7v-4q7 -2 18 -6.5t39.5 -24.5t50.5 -46t40 -75t18 -108v-236q0 -56 14 -97.5t33 -63.5t45.5 -35t45 -16t38.5 -3h29v-151q-19 -4 -48 -4q-37 0 -73 5.5t-85.5 27t-85 58t-61.5 105.5t-26 162z" />
    <glyph glyph-name="braceright.case" horiz-adv-x="690" 
d="M70 16h28q20 0 38.5 3t45 16t45.5 35t33 63.5t14 97.5v236q0 59 17 107.5t41.5 75.5t49 45.5t41.5 24.5l17 7v4q-7 2 -18 7t-39.5 26t-50.5 47.5t-40 74.5t-18 105v211q0 56 -14 97.5t-33 63.5t-45.5 35t-45 16t-38.5 3h-28v152q18 2 47 2q37 0 73 -5.5t85.5 -27.5
t85.5 -58t62 -105t26 -161v-172q0 -60 18 -105t43.5 -67t51 -36t43.5 -16l18 -3v-176q-7 -1 -19 -3t-42 -15.5t-52.5 -35t-41.5 -66t-19 -103.5v-197q0 -93 -26 -162t-62 -105.5t-85.5 -58t-85.5 -27t-73 -5.5l-47 4v151z" />
    <glyph glyph-name="at.case" horiz-adv-x="1574" 
d="M84 721q0 208 99 382t270.5 275t377.5 101q115 0 206.5 -23t152 -61.5t100.5 -92.5t57 -114t17 -127v-580h147v-149h-559q-93 0 -173.5 31.5t-135 85t-85 123.5t-30.5 147q0 76 30.5 146t84.5 123t134.5 84.5t174.5 31.5h222q-3 91 -91 151t-241 60q-155 0 -284 -82
t-202 -218.5t-73 -293.5q0 -121 42.5 -229t117 -187.5t184 -126.5t237.5 -47v-162q-168 0 -314 59t-248 160t-160 239.5t-58 293.5zM729 723q0 -101 67.5 -171.5t170.5 -70.5h207v486h-203q-105 0 -173.5 -71.5t-68.5 -172.5z" />
    <glyph glyph-name="guillemotleft.case" horiz-adv-x="1150" 
d="M838 281l-336 419l336 422h198l-336 -422l336 -419h-198zM424 281l-336 419l336 422h199l-336 -422l336 -419h-199z" />
    <glyph glyph-name="guillemotright.case" horiz-adv-x="1148" 
d="M526 281l336 419l-336 422h199l336 -422l-336 -419h-199zM115 281l336 419l-336 422h198l336 -422l-336 -419h-198z" />
    <glyph glyph-name="guilsinglleft.case" horiz-adv-x="737" 
d="M424 281l-336 419l336 422h199l-336 -422l336 -419h-199z" />
    <glyph glyph-name="guilsinglright.case" horiz-adv-x="737" 
d="M115 281l336 419l-336 422h198l336 -422l-336 -419h-198z" />
    <glyph glyph-name="endash.case" horiz-adv-x="1445" 
d="M184 627v159h1078v-159h-1078z" />
    <glyph glyph-name="emdash.case" horiz-adv-x="1855" 
d="M184 627v159h1487v-159h-1487z" />
    <glyph glyph-name="periodcentered.case" horiz-adv-x="559" 
d="M176 600v217h207v-217h-207z" />
    <glyph glyph-name="questiondown.case" horiz-adv-x="884" 
d="M420 1245v201h205v-201h-205zM63 348q0 69 20 127.5t51.5 100.5t70.5 79.5t77.5 72t70 69t51.5 78.5t20 94v80h194v-93q0 -63 -19 -118t-50 -95t-68 -76.5t-74 -69.5t-68 -66.5t-50 -76t-19 -89.5q0 -87 67 -146t169 -59q56 0 114 22t88 44l29 22l111 -142q-6 -5 -16 -14
t-45.5 -31.5t-74 -40t-98.5 -31.5t-122 -14q-180 0 -304.5 103.5t-124.5 269.5z" />
    <glyph glyph-name="exclamdown.case" horiz-adv-x="612" 
d="M203 1245v201h205v-201h-205zM203 0l14 1049h178l15 -1049h-207z" />
    <glyph glyph-name="bullet.case" horiz-adv-x="841" 
d="M422 406q-132 0 -225 93t-93 224q0 132 93 224.5t225 92.5q131 0 223 -92.5t92 -224.5q0 -131 -92.5 -224t-222.5 -93z" />
    <glyph glyph-name="zero.p_osf" horiz-adv-x="1222" 
d="M119 557q0 113 30 215.5t88 186.5t154.5 134t218.5 50q99 0 181.5 -33t139.5 -89t96.5 -131.5t58 -160t18.5 -174.5q0 -113 -30 -214.5t-88 -184.5t-155 -132t-221 -49q-99 0 -181.5 32.5t-139 88.5t-95.5 130.5t-57 158t-18 172.5zM319 559q0 -79 17.5 -151t51.5 -131.5
t91.5 -94.5t130.5 -35q98 0 166 61.5t97.5 152t29.5 198.5q0 79 -17.5 151t-52 131.5t-92.5 94.5t-131 35t-130.5 -35t-91.5 -94.5t-51.5 -131.5t-17.5 -151z" />
    <glyph glyph-name="one.p_osf" horiz-adv-x="956" 
d="M125 0v162h311v635l2 121h-4q-31 -31 -78 -60l-186 -110l-92 139l377 231h176v-956h280v-162h-786z" />
    <glyph glyph-name="two.p_osf" horiz-adv-x="1128" 
d="M131 0v137q118 78 203 138t170.5 129.5t138.5 127t86 119.5t33 117q0 101 -68 152t-170 51q-48 0 -97.5 -16t-86 -38.5t-66.5 -45t-46 -38.5l-15 -16l-104 127q7 8 19.5 21.5t55.5 48t91 60.5t123 47.5t153 21.5q184 0 299 -99t115 -249q0 -89 -37 -172t-112.5 -161.5
t-169 -149t-226.5 -152.5v-4q41 6 121 6h477v-162h-887z" />
    <glyph glyph-name="three.p_osf" horiz-adv-x="1058" 
d="M49 -78l105 135q5 -6 14.5 -16t41.5 -35t67 -44.5t89.5 -35.5t110.5 -16q121 0 205 71t84 185q0 118 -90 183t-230 65l-84 -4l-45 104l340 399q11 13 25 26.5t22 20.5l9 7v4q-43 -6 -74 -6h-365v-172h-168v325h834v-129l-377 -428q56 -6 109.5 -21t108 -46t95 -73
t66 -106t25.5 -141q0 -188 -134 -312t-350 -124q-79 0 -153 19t-123 46t-86 54t-55 46z" />
    <glyph glyph-name="four.p_osf" horiz-adv-x="1191" 
d="M49 74v121l635 923h236v-887h206v-157h-206v-312h-195v312h-676zM262 231h463v570q0 22 2 49.5t4 43.5l2 17h-6q-22 -51 -51 -94z" />
    <glyph glyph-name="five.p_osf" horiz-adv-x="1060" 
d="M47 -76l105 133l14 -14t39.5 -32t63.5 -40.5t85.5 -32t106.5 -14.5q129 0 223 74t94 203q0 127 -92.5 197.5t-222.5 70.5q-62 0 -123.5 -15.5t-91.5 -31.5l-31 -16l-113 40l74 672h717v-325h-172v172h-375l-33 -297l-12 -76h4q78 39 199 39q133 0 239.5 -50.5t170 -148.5
t63.5 -229q0 -200 -144 -326.5t-360 -126.5q-80 0 -153.5 18t-121 43.5t-84 51t-52.5 43.5z" />
    <glyph glyph-name="six.p_osf" horiz-adv-x="1193" 
d="M106 602q0 90 17 180t50.5 178t87.5 163.5t123.5 133t163.5 90.5t202 33q77 0 147.5 -14t102.5 -28l32 -13l-65 -162q-10 5 -28.5 12.5t-73 20t-107.5 12.5q-95 0 -174 -40t-131 -108t-84.5 -149t-44.5 -170h4q45 61 135 97t188 36q203 0 329 -125t126 -317
q0 -200 -130.5 -328.5t-332.5 -128.5q-235 0 -386 171t-151 456zM315 522q0 -89 40 -174t117 -143t171 -58q122 0 193 78.5t71 204.5q0 125 -80 203t-217 78q-121 0 -208 -57.5t-87 -131.5z" />
    <glyph glyph-name="seven.p_osf" horiz-adv-x="1060" 
d="M182 -238l576 1133q10 21 21 39t17 26l5 7v4q-37 -6 -84 -6h-469v-172h-172v325h940v-131l-623 -1225h-211z" />
    <glyph glyph-name="eight.p_osf" horiz-adv-x="1193" 
d="M102 391q0 40 11.5 80.5t26 70.5t41 62.5t43.5 51t47 43t38 30.5t29 21q-174 107 -174 274q0 70 27.5 133t80.5 113t138.5 80t193.5 30q199 0 323 -99t124 -265q0 -52 -17.5 -106.5t-38 -91.5t-51 -76.5t-41 -50.5t-24.5 -25q206 -109 206 -291q0 -164 -136.5 -282
t-352.5 -118q-213 0 -353.5 116.5t-140.5 299.5zM358 1020q0 -28 9.5 -53t22 -44t39 -39.5t45.5 -33t58.5 -30.5t61 -27t68.5 -27.5t67 -26.5q1 1 8 8.5t12.5 13.5t15.5 18t17.5 22.5t17.5 26t18 30t15.5 33t13 36.5t8.5 38.5t3 40.5q0 94 -71 149t-185 55
q-113 0 -178.5 -54.5t-65.5 -135.5zM301 403q0 -113 87.5 -184.5t207.5 -71.5q119 0 203 65t84 167q0 37 -18 69t-42.5 54.5t-70.5 47t-81 39.5t-96 39.5t-94 39.5q-89 -62 -130 -119q-50 -70 -50 -146z" />
    <glyph glyph-name="nine.p_osf" horiz-adv-x="1181" 
d="M215 -45q10 -5 28.5 -12.5t73.5 -20t107 -12.5q95 0 174.5 40.5t131.5 108t84.5 149t43.5 171.5h-4q-44 -63 -134.5 -99t-189.5 -36q-202 0 -328 126t-126 316q0 201 130 329t333 128q235 0 385.5 -171t150.5 -456q0 -90 -17 -180t-50.5 -178t-87.5 -163.5t-123 -133
t-163 -90.5t-202 -33q-77 0 -147.5 14t-102.5 28l-32 13zM571 408q121 0 209 57.5t88 132.5q0 88 -40 172.5t-117 142.5t-170 58q-123 0 -194 -78.5t-71 -204.5q0 -125 79 -202.5t216 -77.5z" />
    <glyph glyph-name="zero.t_osf" horiz-adv-x="1175" 
d="M94 557q0 113 30 215.5t88.5 186.5t155 134t218.5 50q99 0 181.5 -33t139.5 -89t96 -131.5t57.5 -160t18.5 -174.5q0 -113 -29.5 -214.5t-88 -184.5t-155 -132t-220.5 -49q-123 0 -219.5 49.5t-154.5 133t-88 185.5t-30 214zM295 559q0 -79 17.5 -151t51.5 -131.5
t91.5 -94.5t130.5 -35q98 0 166 61.5t97.5 152t29.5 198.5q0 79 -17.5 151t-52 131.5t-92.5 94.5t-131 35t-130.5 -35t-91.5 -94.5t-51.5 -131.5t-17.5 -151z" />
    <glyph glyph-name="one.t_osf" horiz-adv-x="1175" 
d="M233 0v162h312v635l2 121h-4q-31 -31 -78 -60l-186 -110l-93 139l377 231h176v-956h281v-162h-787z" />
    <glyph glyph-name="two.t_osf" horiz-adv-x="1175" 
d="M154 0v137q118 78 203 138t170.5 129.5t138 127t85.5 119.5t33 117q0 101 -67.5 152t-169.5 51q-48 0 -97.5 -16t-86 -38.5t-66.5 -45t-45 -38.5l-16 -16l-105 127q7 8 19.5 21.5t55.5 48t91 60.5t123 47.5t153 21.5q184 0 299 -99t115 -249q0 -89 -37 -172
t-112.5 -161.5t-169 -149t-226.5 -152.5v-4q41 6 121 6h477v-162h-886z" />
    <glyph glyph-name="three.t_osf" horiz-adv-x="1175" 
d="M109 -76l104 135q5 -6 14.5 -16t41.5 -35t67 -44.5t90 -35.5t111 -16q119 0 202.5 71t83.5 185q0 118 -89.5 183t-227.5 65l-84 -4l-45 104l338 397q11 13 25 26.5t22 20.5l8 7v4q-43 -6 -74 -6h-362v-172h-168v325h831v-129l-374 -426q55 -6 108 -21t107 -46t94.5 -73
t66 -106t25.5 -141q0 -188 -133 -312t-348 -124q-79 0 -153 19t-123 46t-86 54t-55 46z" />
    <glyph glyph-name="four.t_osf" horiz-adv-x="1175" 
d="M41 74v121l635 923h235v-887h207v-157h-207v-312h-194v312h-676zM254 231h463v570q0 22 2 49.5t4 43.5l2 17h-6q-22 -51 -51 -94z" />
    <glyph glyph-name="five.t_osf" horiz-adv-x="1175" 
d="M104 -76l105 133l14 -14t39.5 -32t63.5 -40.5t85.5 -32t106.5 -14.5q129 0 223.5 74t94.5 203q0 85 -46 147.5t-116 91.5t-154 29q-62 0 -123.5 -15.5t-92.5 -31.5l-30 -16l-112 40l74 672h716v-325h-172v172h-374l-33 -297l-13 -76h5q77 39 198 39q133 0 239.5 -50.5
t170 -148.5t63.5 -229q0 -200 -144 -326.5t-360 -126.5q-80 0 -153.5 18t-121 43.5t-84 51t-53.5 43.5z" />
    <glyph glyph-name="six.t_osf" horiz-adv-x="1175" 
d="M96 602q0 90 17 180t50.5 178t87.5 163.5t123 133t163 90.5t202 33q77 0 148 -14t103 -28l32 -13l-66 -162q-10 5 -28 12.5t-72.5 20t-107.5 12.5q-95 0 -174 -40t-131.5 -108t-85 -149t-44.5 -170h4q45 61 135.5 97t188.5 36q203 0 329 -125t126 -317
q0 -200 -130.5 -328.5t-332.5 -128.5q-235 0 -386 171t-151 456zM305 522q0 -89 40 -174t117 -143t171 -58q122 0 193 78.5t71 204.5q0 125 -80 203t-217 78q-121 0 -208 -57.5t-87 -131.5z" />
    <glyph glyph-name="seven.t_osf" horiz-adv-x="1175" 
d="M240 -238l575 1133q10 21 21 39t16 26l6 7v4q-37 -6 -84 -6h-469v-172h-172v325h940v-131l-622 -1225h-211z" />
    <glyph glyph-name="eight.t_osf" horiz-adv-x="1175" 
d="M94 391q0 40 11.5 80.5t26 70.5t41 62.5t43.5 51t47 43t38 30.5t29 21q-174 107 -174 274q0 70 27.5 133t80.5 113t138.5 80t193.5 30q199 0 322.5 -99t123.5 -265q0 -52 -17.5 -106.5t-38 -91.5t-51 -76.5t-41 -50.5t-24.5 -25q207 -110 207 -291q0 -164 -136.5 -282
t-352.5 -118q-213 0 -353.5 116.5t-140.5 299.5zM350 1020q0 -28 9.5 -53t22 -44t39 -39.5t45.5 -33t58.5 -30.5t61 -27t68.5 -27.5t67 -26.5q1 1 8 8.5t12.5 13.5t15.5 18t17.5 22.5t17.5 26t18 30t15.5 33t13 36.5t8.5 38.5t3 40.5q0 94 -71 149t-185 55
q-113 0 -178.5 -54.5t-65.5 -135.5zM293 403q0 -113 87.5 -184.5t207.5 -71.5q119 0 202.5 65t83.5 167q0 37 -18 69t-42.5 54.5t-70.5 47t-80.5 39.5t-95.5 39.5t-94 39.5q-89 -62 -130 -119q-50 -70 -50 -146z" />
    <glyph glyph-name="nine.t_osf" horiz-adv-x="1175" 
d="M225 -45q10 -5 28.5 -12.5t73.5 -20t107 -12.5q95 0 174.5 40.5t131.5 108t84.5 149t43.5 171.5h-4q-44 -63 -134 -99t-189 -36q-203 0 -329 126t-126 316q0 201 130 329t333 128q235 0 385.5 -171t150.5 -456q0 -90 -17 -180t-50.5 -178t-87.5 -163.5t-123 -133
t-163 -90.5t-202 -33q-77 0 -147.5 14t-102.5 28l-32 13zM582 408q121 0 209 57.5t88 132.5q0 88 -40.5 172.5t-117.5 142.5t-170 58q-123 0 -193.5 -78.5t-70.5 -204.5q0 -125 79 -202.5t216 -77.5z" />
    <glyph glyph-name="dollar.osf" horiz-adv-x="1007" 
d="M63 170l97 143q6 -6 17 -15.5t47 -34t74.5 -43.5t97.5 -34.5t118 -15.5q97 0 160 45t63 117q0 47 -35 81.5t-90.5 56.5t-123.5 42.5t-135.5 47.5t-123 63.5t-90.5 99t-35 145.5q0 139 93 215.5t247 98.5v200h144v-198q59 -6 113 -19t88.5 -28t60.5 -29t38 -24l11 -9
l-76 -151q-5 4 -13.5 10t-38.5 21.5t-64 27.5t-87.5 21.5t-109.5 9.5q-95 0 -154 -35.5t-59 -110.5q0 -51 35 -88.5t90.5 -60.5t123.5 -44t135.5 -47t123 -60.5t90.5 -93.5t35 -138q0 -134 -96 -225.5t-254 -108.5v-211h-144v209q-64 8 -125.5 28.5t-104.5 44t-76.5 46
t-49.5 37.5z" />
    <glyph glyph-name="cent.osf" horiz-adv-x="1077" 
d="M63 612q0 192 119.5 328.5t311.5 167.5v174h149v-168q62 -5 120.5 -23t97.5 -40.5t68.5 -44t43.5 -36.5l14 -14l-92 -147q-4 5 -12.5 14t-36.5 31t-59 39t-80 31t-99 14q-151 0 -248.5 -92.5t-97.5 -231.5q0 -142 97.5 -235.5t248.5 -93.5q50 0 98.5 13.5t81 32.5
t58 38.5t37.5 32.5l12 14l92 -148q-5 -6 -14.5 -15.5t-43 -35t-70 -46t-95.5 -39.5t-121 -23v-164h-149v170q-193 31 -312 167t-119 330z" />
    <glyph glyph-name="sterling.osf" horiz-adv-x="1196" 
d="M88 0v170h162v324h-127v139h127v180q0 170 131 282.5t328 112.5q60 0 118 -11.5t99 -28t73 -33t48 -27.5l16 -12l-96 -148q-5 3 -13.5 8.5t-36 20t-56 25t-70 19.5t-80.5 9q-116 0 -188 -64.5t-72 -158.5v-174h444v-139h-444v-324h665v-170h-1028z" />
    <glyph glyph-name="yen.osf" horiz-adv-x="1212" 
d="M166 580v131h192l-286 475h229l213 -377q19 -36 41 -82t35 -74l12 -28h4q45 102 88 184l213 377h230l-285 -475h197v-131h-275l-69 -117v-45h344v-131h-344v-287h-201v287h-338v131h338v45l-70 117h-268z" />
    <glyph glyph-name="florin.osf" horiz-adv-x="1173" 
d="M14 -76q78 -12 133 -12q27 0 52.5 4t58.5 18.5t57.5 37.5t43.5 66.5t24 100.5l43 484h-170v159h182l21 215q9 98 44 171t79.5 112.5t103.5 64t104 31t93 6.5q34 0 77 -4t69 -8l26 -4v-170q-103 14 -164 14q-28 0 -53.5 -4t-58 -18.5t-56.5 -37.5t-43.5 -66.5
t-24.5 -100.5l-20 -201h242v-159h-254l-43 -500q-9 -98 -44 -171t-79.5 -112.5t-103 -64t-103.5 -31t-92 -6.5q-32 0 -68 3.5t-56 6.5l-20 4v172z" />
    <glyph glyph-name="Euro.osf" horiz-adv-x="1167" 
d="M90 393v117h133q-6 48 -2 158h-131v118h154q28 89 79.5 163t127.5 133t183.5 92.5t235.5 33.5q48 0 97.5 -6t74.5 -12l25 -6l-45 -164q-74 20 -156 20q-154 0 -257.5 -70.5t-151.5 -183.5h516l-27 -118h-522q-11 -84 2 -158h494l-25 -117h-428q47 -111 150.5 -179.5
t254.5 -68.5q44 0 89 7.5t67 14.5l23 7l36 -166q-94 -33 -217 -33q-241 0 -400 116.5t-220 301.5h-160z" />
    <glyph glyph-name="zero.numerator" horiz-adv-x="817" 
d="M410 530q-324 0 -324 469q0 467 324 467q321 0 321 -467q0 -469 -321 -469zM410 672q165 0 165 327q0 324 -165 324q-168 0 -168 -324q0 -327 168 -327z" />
    <glyph glyph-name="one.numerator" horiz-adv-x="690" 
d="M78 551v127h211v506q0 16 1.5 32t3.5 24l1 7h-4q-10 -19 -33 -37l-98 -96l-94 100l239 232h137v-768h209v-127h-573z" />
    <glyph glyph-name="two.numerator" horiz-adv-x="763" 
d="M68 633q0 67 24 123.5t63 96t85.5 74t93 64t85.5 58.5t63 65.5t24 77.5q0 57 -41.5 95t-104.5 38q-45 0 -88.5 -24.5t-64.5 -48.5l-21 -25l-100 92q4 6 11.5 16t34.5 35t58 44.5t80.5 35.5t102.5 16q129 0 209 -73.5t80 -188.5q0 -61 -23.5 -112.5t-61 -87.5t-83 -67.5
t-91.5 -59t-84.5 -56t-64 -65t-27.5 -78.5h322v104h129v-231h-602q-8 51 -8 82z" />
    <glyph glyph-name="three.numerator" horiz-adv-x="768" 
d="M96 1214v232h574v-98l-230 -267q49 -7 91.5 -25t78 -48t56 -76.5t20.5 -104.5q0 -122 -90 -209.5t-229 -87.5q-57 0 -109.5 14t-85.5 34t-58.5 40t-36.5 34l-11 14l86 104q3 -4 8.5 -11t25 -24.5t41.5 -31t58 -24.5t75 -11q68 0 119 44.5t51 110.5q0 68 -53.5 107
t-126.5 39h-65l-33 78l194 235q10 11 21.5 21.5t18.5 14.5l6 5v6q-29 -6 -62 -6h-205v-109h-129z" />
    <glyph glyph-name="four.numerator" horiz-adv-x="802" 
d="M469 551v223h-426v98l412 574h166v-551h127v-121h-127v-223h-152zM201 895h268v299q0 18 2 41t4 37l2 14h-6q-18 -45 -43 -80l-227 -307v-4z" />
    <glyph glyph-name="five.numerator" horiz-adv-x="755" 
d="M350 530q-53 0 -102.5 13t-82.5 32t-58.5 37.5t-37.5 31.5l-12 13l86 103q3 -4 9 -10t26 -22t41.5 -28t54.5 -22t66 -10q77 0 131.5 48.5t54.5 121.5t-53 121.5t-135 48.5q-38 0 -75.5 -11t-56.5 -21l-18 -11l-86 30l50 451h483v-232h-127v109h-232l-14 -154
q-1 -18 -3.5 -35t-4.5 -24l-2 -8h4q47 20 113 20q138 0 225.5 -82t87.5 -204q0 -125 -93 -215.5t-239 -90.5z" />
    <glyph glyph-name="six.numerator" horiz-adv-x="784" 
d="M418 530q-148 0 -243 114t-95 302q0 73 15 145t47 140t78 120t114 83.5t149 31.5q48 0 96 -11t71 -23l24 -11l-51 -131q-68 33 -134 33q-94 0 -155.5 -72t-81.5 -184h4q27 27 73.5 45t88.5 18q135 0 217 -81.5t82 -210.5q0 -136 -84 -222t-215 -86zM418 672
q68 0 106.5 48t38.5 120q0 75 -45 123.5t-121 48.5q-63 0 -111 -34t-48 -75q0 -87 52 -159t128 -72z" />
    <glyph glyph-name="seven.numerator" horiz-adv-x="727" 
d="M123 551l369 727q6 11 14 22.5t13 17.5l5 5v4q-28 -4 -55 -4h-274v-109h-129v232h624v-105l-405 -790h-162z" />
    <glyph glyph-name="eight.numerator" horiz-adv-x="800" 
d="M403 530q-84 0 -156.5 30.5t-120.5 95.5t-48 153q0 130 145 233q-104 76 -104 185q0 113 85.5 176t203.5 63q74 0 138.5 -26t108 -83t43.5 -134q0 -108 -110 -230q131 -76 131 -202q0 -114 -92.5 -187.5t-223.5 -73.5zM477 1047q76 76 76 167q0 55 -44 87t-103 32
q-57 0 -97.5 -29t-40.5 -83q0 -17 5.5 -32.5t12 -27t22 -24t25.5 -20t33 -19l34 -17t39 -17.5t38 -17zM403 664q62 0 112 38t50 95q0 23 -10.5 43.5t-25 35t-42 30.5t-47.5 25.5t-57 26t-57 25.5q-97 -79 -97 -168q0 -69 52 -110t122 -41z" />
    <glyph glyph-name="nine.numerator" horiz-adv-x="784" 
d="M303 530q-49 0 -97 11t-72 23l-23 11l51 132q65 -33 137 -33q89 0 152 73t81 183h-4q-67 -64 -170 -64q-128 0 -209 83.5t-81 213.5q0 132 84.5 217.5t214.5 85.5q149 0 243.5 -113t94.5 -302q0 -73 -15 -145.5t-47.5 -140.5t-78.5 -120t-113.5 -83.5t-147.5 -31.5z
M391 985q66 0 111 35.5t45 93.5q0 69 -54 140t-131 71q-63 0 -102 -48.5t-39 -119.5q0 -76 45 -124t125 -48z" />
    <glyph glyph-name="zero.denominator" horiz-adv-x="817" 
d="M410 -20q-324 0 -324 469q0 466 324 466q321 0 321 -466q0 -469 -321 -469zM410 121q165 0 165 328q0 323 -165 323q-168 0 -168 -323q0 -328 168 -328z" />
    <glyph glyph-name="one.denominator" horiz-adv-x="688" 
d="M76 0v127h211v506q0 16 1.5 32t3.5 23l1 8h-4q-10 -19 -33 -37l-98 -96l-95 101l240 231h137v-768h209v-127h-573z" />
    <glyph glyph-name="two.denominator" horiz-adv-x="765" 
d="M70 82q0 67 24 123.5t63 96t85.5 74t93 64t85.5 58.5t63 65.5t24 77.5q0 57 -41.5 95t-104.5 38q-45 0 -88.5 -24.5t-64.5 -49.5l-21 -24l-100 92q4 6 11.5 16t34.5 35t58 44.5t80.5 35.5t102.5 16q129 0 209 -73.5t80 -188.5q0 -61 -23.5 -112.5t-61 -87.5t-83 -67.5
t-91.5 -59t-84.5 -56t-64 -65t-27.5 -78.5h322v104h129v-231h-602q-8 51 -8 82z" />
    <glyph glyph-name="three.denominator" horiz-adv-x="768" 
d="M96 664v231h574v-98l-230 -267q49 -7 91.5 -25t78 -48t56 -76.5t20.5 -104.5q0 -122 -90 -209t-229 -87q-57 0 -109.5 14t-85.5 33.5t-58.5 39.5t-36.5 34l-11 14l86 104q3 -4 8.5 -11t25 -24.5t41.5 -31t58 -24.5t75 -11q68 0 119 44.5t51 110.5q0 68 -53.5 107
t-126.5 39h-65l-33 78l194 235q10 11 21.5 21.5t18.5 15.5l6 4v6q-29 -6 -62 -6h-205v-108h-129z" />
    <glyph glyph-name="four.denominator" horiz-adv-x="802" 
d="M469 0v223h-426v99l412 573h166v-551h127v-121h-127v-223h-152zM201 344h268v299q0 18 2 41t4 37l2 14h-6q-18 -45 -43 -80l-227 -307v-4z" />
    <glyph glyph-name="five.denominator" horiz-adv-x="753" 
d="M350 -20q-53 0 -102.5 13t-82.5 31.5t-58.5 37t-37.5 31.5l-12 13l86 103q3 -4 9 -10t26 -22t41.5 -28t54.5 -22t66 -10q77 0 131.5 48.5t54.5 121.5t-53 121.5t-135 48.5q-38 0 -75.5 -10.5t-56.5 -21.5l-18 -11l-86 30l50 451h483v-231h-127v108h-232l-14 -154
q-1 -18 -3.5 -35t-4.5 -25l-2 -7h4q47 20 113 20q138 0 225.5 -82t87.5 -204q0 -124 -93 -214.5t-239 -90.5z" />
    <glyph glyph-name="six.denominator" horiz-adv-x="784" 
d="M418 -20q-148 0 -243 113.5t-95 301.5q0 73 15 145t47 140t78 120t114 83.5t149 31.5q48 0 96 -11.5t71 -22.5l24 -11l-51 -131q-68 33 -134 33q-94 0 -155.5 -72t-81.5 -184h4q28 28 74 46t88 18q135 0 217 -82t82 -211q0 -136 -84 -221.5t-215 -85.5zM418 121
q68 0 106.5 48t38.5 120q0 75 -45 123.5t-121 48.5q-63 0 -111 -34t-48 -75q0 -87 52 -159t128 -72z" />
    <glyph glyph-name="seven.denominator" horiz-adv-x="722" 
d="M121 0l368 727q6 11 14.5 22.5t13.5 16.5l5 6v4q-28 -4 -55 -4h-274v-108h-130v231h625v-104l-405 -791h-162z" />
    <glyph glyph-name="eight.denominator" horiz-adv-x="800" 
d="M403 -20q-131 0 -228 74t-97 204q0 131 145 234q-104 76 -104 184q0 113 85.5 176t203.5 63q74 0 138.5 -26t108 -83t43.5 -134q0 -108 -110 -230q131 -76 131 -202q0 -114 -92.5 -187t-223.5 -73zM477 496q76 76 76 168q0 55 -44 86.5t-103 31.5q-57 0 -97.5 -29
t-40.5 -83q0 -17 5.5 -32.5t12 -27t22 -24t25.5 -20t33 -19l34 -17t39 -17.5t38 -17zM403 113q62 0 112 38t50 95q0 23 -10.5 43.5t-25 35t-42 30.5t-47.5 25.5t-57 26t-57 25.5q-97 -79 -97 -168q0 -69 52 -110t122 -41z" />
    <glyph glyph-name="nine.denominator" horiz-adv-x="784" 
d="M303 -20q-49 0 -97 11t-72 23l-23 11l51 131q65 -33 137 -33q89 0 152 73t81 183h-4q-67 -64 -170 -64q-128 0 -209 83.5t-81 213.5q0 132 84.5 217.5t214.5 85.5q149 0 243.5 -113t94.5 -302q0 -73 -15 -145.5t-47.5 -140.5t-78.5 -119.5t-113.5 -83t-147.5 -31.5z
M391 434q66 0 111 35.5t45 93.5q0 69 -54 140t-131 71q-63 0 -102 -48.5t-39 -119.5q0 -76 45 -124t125 -48z" />
    </font>
</defs>
</svg>
