<?xml version="1.0" encoding="UTF-8"?>
<svg width="99px" height="64px" viewBox="0 0 99 64" version="1.1" xmlns="http://www.w3.org/2000/svg" xmlns:xlink="http://www.w3.org/1999/xlink">
    <!-- Generator: Sketch 51.3 (57544) - http://www.bohemiancoding.com/sketch -->
    <title>Group 14</title>
    <desc>Created with Sketch.</desc>
    <defs></defs>
    <g id="Product-Page" stroke="none" stroke-width="1" fill="none" fill-rule="evenodd">
        <g id="Desktop-HD-Copy" transform="translate(-619.000000, -836.000000)">
            <g id="Group-14" transform="translate(619.000000, 836.000000)">
                <g id="Group-3" transform="translate(0.000000, 0.577196)">
                    <polygon id="Clip-2" points="8.37383178e-05 0.0209345794 99.003215 0.0209345794 99.003215 63.4015103 8.37383178e-05 63.4015103"></polygon>
                    <path d="M96.8907963,54.536015 C96.8907963,54.869772 96.8907963,55.2017346 96.8878056,55.542071 C96.8866093,55.8112299 96.8830206,56.0797907 96.875843,56.3495477 C96.8626841,56.8256598 96.8375626,57.3807252 96.7442542,57.8975103 C96.6647028,58.3437159 96.5426841,58.7187439 96.3584598,59.0794168 C96.1754318,59.4388935 95.9379738,59.766071 95.6526654,60.0513794 C95.3655626,60.3378841 95.0395813,60.5753421 94.6789084,60.757772 C94.3200299,60.9413981 93.9438056,61.064015 93.4993944,61.1441645 C92.9724411,61.238071 92.3952449,61.2637907 91.9604037,61.2757533 C91.6870579,61.2817346 91.4149084,61.2853234 91.1355813,61.2865196 C90.8030206,61.2895103 90.4698617,61.2895103 90.1373009,61.2895103 L8.8662729,61.2895103 L8.85311402,61.2895103 C8.52414206,61.2895103 8.19517009,61.2895103 7.86021682,61.2865196 C7.58746916,61.2853234 7.31531963,61.2817346 7.05214206,61.2757533 C6.60773084,61.2637907 6.02993645,61.238071 5.50717009,61.1447626 C5.05857196,61.064015 4.68294579,60.9413981 4.31928224,60.7553794 C3.9616,60.5747439 3.63621682,60.337286 3.34911402,60.0501832 C3.06380561,59.7654729 2.82694579,59.4394916 2.64451589,59.0794168 C2.46088972,58.7193421 2.3382729,58.3431178 2.25752523,57.891529 C2.16421682,57.3759402 2.1384972,56.8226692 2.12593645,56.3501458 C2.11875888,56.0791925 2.11576822,55.8088374 2.11397383,55.5396785 L2.11277757,54.7453607 L2.11277757,54.536015 L2.11277757,8.88786542 L2.11277757,8.6779215 L2.11397383,7.88539813 C2.11576822,7.61504299 2.11875888,7.34408972 2.12593645,7.07373458 C2.1384972,6.60061308 2.16421682,6.04734206 2.2587215,5.52696822 C2.3382729,5.07956636 2.46088972,4.70394019 2.64511402,4.34207103 C2.82694579,3.98379065 3.06380561,3.65780935 3.35031028,3.37130467 C3.63561869,3.08599626 3.96219813,2.84853832 4.3222729,2.66551028 C4.68174953,2.48248224 5.05857196,2.35986542 5.50717009,2.27911776 C6.02335701,2.18640748 6.5778243,2.16068785 7.05274019,2.14752897 C7.32369346,2.1403514 7.59464673,2.13736075 7.86320748,2.13556636 L8.8662729,2.13377196 L90.1373009,2.13377196 L91.1367776,2.13556636 C91.4077308,2.13736075 91.6786841,2.1403514 91.9508336,2.14752897 C92.4245533,2.16068785 92.9790206,2.18640748 93.4952075,2.27851963 C93.9444037,2.35986542 94.320628,2.48248224 94.6824972,2.66670654 C95.0389832,2.84794019 95.3661607,3.08539813 95.6514692,3.37070654 C95.9379738,3.65721121 96.1760299,3.98438879 96.3590579,4.34565981 C96.5426841,4.70394019 96.6647028,5.07896822 96.7454505,5.53115514 C96.8375626,6.04195888 96.8626841,6.59762243 96.8764411,7.07433271 C96.8830206,7.34349159 96.8866093,7.61265047 96.8884037,7.88779065 C96.8907963,8.22094953 96.8907963,8.55410841 96.8907963,8.88786542 L96.8907963,54.536015 Z M99.0004037,7.87164112 C98.9992075,7.58633271 98.9956187,7.30162243 98.987843,7.01691215 C98.9710953,6.39605234 98.9352075,5.76921121 98.8239551,5.15552897 C98.7133009,4.53108037 98.5296748,3.95089346 98.2413757,3.38506168 C97.9572636,2.82820187 97.5876187,2.31919252 97.1467963,1.87777196 C96.7041794,1.4363514 96.1963664,1.06610841 95.6389084,0.783192523 C95.0730766,0.494893458 94.4928897,0.311865421 93.8702355,0.199416822 C93.2547589,0.0893607477 92.6285159,0.0528747664 92.0082542,0.035528972 C91.7217495,0.0283514019 91.4370393,0.0247626168 91.1517308,0.0229682243 C90.814385,0.0205757009 90.4746467,0.0205757009 90.1373009,0.0205757009 L8.8662729,0.0205757009 C8.52773084,0.0205757009 8.18859065,0.0205757009 7.85064673,0.0229682243 C7.56533832,0.0247626168 7.28002991,0.0283514019 6.99531963,0.035528972 C6.37386168,0.0528747664 5.74702056,0.0893607477 5.13333832,0.199416822 C4.51008598,0.311865421 3.92989907,0.494893458 3.36346916,0.783192523 C2.80720748,1.06610841 2.29819813,1.4363514 1.85617944,1.87777196 C1.41475888,2.31919252 1.04451589,2.82820187 0.7616,3.38506168 C0.473300935,3.95089346 0.290272897,4.53108037 0.179020561,5.15552897 C0.0677682243,5.76921121 0.031282243,6.39605234 0.0145345794,7.01691215 C0.00616074766,7.30162243 0.00317009346,7.58633271 0.00137570093,7.87164112 C-0.000418691589,8.21018318 0.000179439252,8.54872523 0.000179439252,8.88786542 L0.000179439252,54.536015 C0.000179439252,54.874557 -0.000418691589,55.2125009 0.00137570093,55.5516411 C0.00317009346,55.8369495 0.00616074766,56.1216598 0.0145345794,56.4069682 C0.031282243,57.0272299 0.0677682243,57.6534729 0.179020561,58.2671551 C0.290272897,58.8916037 0.473300935,59.4717907 0.7616,60.0376224 C1.04451589,60.5950804 1.41475888,61.1034916 1.85617944,61.5449121 C2.29819813,61.987529 2.80720748,62.3571738 3.36346916,62.6400897 C3.92989907,62.9283888 4.51008598,63.112015 5.13333832,63.2238654 C5.74702056,63.3333234 6.37386168,63.3710056 6.99531963,63.3877533 C7.28002991,63.3943327 7.56533832,63.3979215 7.85064673,63.3991178 C8.18859065,63.4015103 8.52773084,63.4015103 8.8662729,63.4015103 L90.1373009,63.4015103 C90.4746467,63.4015103 90.814385,63.4015103 91.1517308,63.3991178 C91.4370393,63.3979215 91.7217495,63.3943327 92.0082542,63.3877533 C92.6285159,63.3710056 93.2547589,63.3333234 93.8702355,63.2238654 C94.4928897,63.112015 95.0730766,62.9283888 95.6389084,62.6400897 C96.1963664,62.3571738 96.7041794,61.987529 97.1467963,61.5449121 C97.5876187,61.1034916 97.9572636,60.5950804 98.2413757,60.0376224 C98.5296748,59.4717907 98.7133009,58.8916037 98.8239551,58.2671551 C98.9352075,57.6534729 98.9710953,57.0272299 98.987843,56.4069682 C98.9956187,56.1216598 98.9992075,55.8369495 99.0004037,55.5516411 C99.0033944,55.2125009 99.0033944,54.874557 99.0033944,54.536015 L99.0033944,8.88786542 C99.0033944,8.54872523 99.0033944,8.21018318 99.0004037,7.87164112 Z" id="Fill-1" fill="#FFFFFF"></path>
                </g>
                <path d="M27.0271402,21.9158131 C27.8746916,20.8559252 28.4500935,19.4317757 28.2981682,17.9771215 C27.0576449,18.038729 25.5431776,18.7959626 24.6663178,19.8570467 C23.8791776,20.7656075 23.1829533,22.248972 23.3641869,23.6426168 C24.7572336,23.7634393 26.1490841,22.9463925 27.0271402,21.9158131" id="Fill-4" fill="#FFFFFF"></path>
                <path d="M28.2827364,23.9146467 C26.2598579,23.7944224 24.5396336,25.0630579 23.5736523,25.0630579 C22.6070729,25.0630579 21.1278953,23.9756561 19.5278953,24.0049645 C17.4452037,24.0354692 15.512643,25.2125907 14.4557458,27.0853383 C12.2821383,30.8320299 13.8821383,36.3892636 15.9959327,39.4409271 C17.0223252,40.9500112 18.2598579,42.6122168 19.8897645,42.5524037 C21.4299514,42.4925907 22.0334654,41.5553196 23.905615,41.5553196 C25.7765682,41.5553196 26.3202692,42.5524037 27.9507738,42.5224972 C29.6410916,42.4925907 30.6985869,41.0122168 31.7249794,39.5013383 C32.9026991,37.7805159 33.3841944,36.1183103 33.4146991,36.0273944 C33.3841944,35.9968897 30.1542879,34.7581607 30.1249794,31.042572 C30.0938766,27.9316935 32.6604561,26.4525159 32.7812785,26.3604037 C31.3320075,24.2173009 29.0674841,23.9756561 28.2827364,23.9146467" id="Fill-6" fill="#FFFFFF"></path>
                <path d="M40.9184897,31.6704897 L44.9540785,31.6704897 C48.0165084,31.6704897 49.7594617,30.0220411 49.7594617,27.1635738 C49.7594617,24.3057047 48.0165084,22.6728075 44.9696299,22.6728075 L40.9184897,22.6728075 L40.9184897,31.6704897 Z M45.8967327,19.7048822 C50.2935925,19.7048822 53.3548262,22.7356112 53.3548262,27.1480224 C53.3548262,31.5765832 50.2307888,34.6234617 45.7866766,34.6234617 L40.9184897,34.6234617 L40.9184897,42.364471 L37.4014804,42.364471 L37.4014804,19.7048822 L45.8967327,19.7048822 Z" id="Fill-8" fill="#FFFFFF"></path>
                <path d="M64.9369121,36.1774654 L64.9369121,34.8741383 L60.8696224,35.1253533 C58.8437533,35.2671103 57.6971364,36.161914 57.6971364,37.5752972 C57.6971364,39.0197832 58.8916037,39.9618393 60.7129121,39.9618393 C63.0833047,39.9618393 64.9369121,38.3289421 64.9369121,36.1774654 M54.2746318,37.6692037 C54.2746318,34.7796336 56.488314,33.0049794 60.4144449,32.7854654 L64.9369121,32.5186991 L64.9369121,31.2464748 C64.9369121,29.409615 63.6963888,28.3102505 61.6238654,28.3102505 C59.6608,28.3102505 58.435828,29.2523065 58.1373607,30.7284935 L54.933772,30.7284935 C55.1227813,27.7444187 57.6666318,25.5462879 61.7494729,25.5462879 C65.7533607,25.5462879 68.3133607,27.6666617 68.3133607,30.9797084 L68.3133607,42.3645308 L65.0625196,42.3645308 L65.0625196,39.6478206 L64.9841645,39.6478206 C64.026557,41.4852785 61.937286,42.6468486 59.7702579,42.6468486 C56.5355664,42.6468486 54.2746318,40.637129 54.2746318,37.6692037" id="Fill-10" fill="#FFFFFF"></path>
                <path d="M71.3820112,48.4420785 L71.3820112,45.6936673 C71.632628,45.756471 72.1978617,45.756471 72.4807776,45.756471 C74.050871,45.756471 74.8990206,45.0967327 75.4170019,43.4010318 C75.4170019,43.369929 75.7154692,42.396172 75.7154692,42.3800224 L69.749114,25.8446953 L73.4228336,25.8446953 L77.6001794,39.2864897 L77.6629832,39.2864897 L81.840329,25.8446953 L85.4207402,25.8446953 L79.2330766,43.228172 C77.8202916,47.2332561 76.1867963,48.5204336 72.7642916,48.5204336 C72.4807776,48.5204336 71.632628,48.4887327 71.3820112,48.4420785" id="Fill-12" fill="#FFFFFF"></path>
            </g>
        </g>
    </g>
</svg>