<?xml version="1.0" encoding="UTF-8"?>
<svg width="43px" height="43px" viewBox="0 0 43 43" version="1.1" xmlns="http://www.w3.org/2000/svg" xmlns:xlink="http://www.w3.org/1999/xlink">
    <!-- Generator: Sketch 51.3 (57544) - http://www.bohemiancoding.com/sketch -->
    <title>Group 9</title>
    <desc>Created with Sketch.</desc>
    <defs></defs>
    <g id="Product-Page" stroke="none" stroke-width="1" fill="none" fill-rule="evenodd">
        <g id="Desktop-HD-Copy" transform="translate(-665.000000, -627.000000)">
            <g id="Group-9" transform="translate(667.000000, 629.000000)">
                <path d="M39,19.5 C39,30.2694442 30.2694442,39 19.5,39 C8.73055579,39 0,30.2694442 0,19.5 C0,8.73055579 8.73055579,0 19.5,0 C30.2694442,0 39,8.73055579 39,19.5 Z" id="Stroke-1" stroke="#D49B28" stroke-width="2.503" stroke-linecap="round" stroke-linejoin="round"></path>
                <path d="M10.7155054,21.3256173 C10.7155054,20.5668724 10.084507,20.2073045 8.9066434,20.2073045 L6.25757198,20.2073045 L6.25757198,22.43107 L8.9066434,22.43107 C10.084507,22.43107 10.7155054,22.0972222 10.7155054,21.3256173 Z M6.25757198,16.5684156 L6.25757198,18.6898148 L8.51402219,18.6898148 C9.6217749,18.6898148 10.2247289,18.3297325 10.2247289,17.6229424 C10.2247289,16.9156379 9.6217749,16.5684156 8.51402219,16.5684156 L6.25757198,16.5684156 Z M13,21.5442387 C13,23.0997942 11.654431,24 9.07490963,24 L4,24 L4,15 L8.79446591,15 C11.2477876,15 12.5097844,15.9382716 12.5097844,17.3400206 C12.5097844,18.2397119 12.0049857,18.9341564 11.2057211,19.3199588 C12.2994516,19.6414609 13,20.4130658 13,21.5442387 Z" id="Fill-3" fill="#D49B28"></path>
                <path d="M20.7155054,21.3256173 C20.7155054,20.5668724 20.084507,20.2073045 18.9066434,20.2073045 L16.257572,20.2073045 L16.257572,22.43107 L18.9066434,22.43107 C20.084507,22.43107 20.7155054,22.0972222 20.7155054,21.3256173 Z M16.257572,16.5684156 L16.257572,18.6898148 L18.5140222,18.6898148 C19.6217749,18.6898148 20.2247289,18.3297325 20.2247289,17.6229424 C20.2247289,16.9156379 19.6217749,16.5684156 18.5140222,16.5684156 L16.257572,16.5684156 Z M23,21.5442387 C23,23.0997942 21.654431,24 19.0749096,24 L14,24 L14,15 L18.7944659,15 C21.2477876,15 22.5097844,15.9382716 22.5097844,17.3400206 C22.5097844,18.2397119 22.0049857,18.9341564 21.2057211,19.3199588 C22.2994516,19.6414609 23,20.4130658 23,21.5442387 Z" id="Fill-5" fill="#D49B28"></path>
                <path d="M29.2598901,23.0549979 C30.9763736,23.0549979 32.2675824,21.8043448 32.2675824,19.9756634 C32.2675824,18.147532 30.9763736,16.8968789 29.2598901,16.8968789 C27.5428571,16.8968789 26.2521978,18.147532 26.2521978,19.9756634 C26.2521978,21.8043448 27.5428571,23.0549979 29.2598901,23.0549979 Z M35,25.8180943 C34.3681319,26.5880654 33.4615385,27 32.4049451,27 C30.9763736,27 29.9736264,26.4780696 28.4906593,24.9111783 C25.8538462,24.5806407 24,22.5875155 24,19.9756634 C24,17.1168706 26.2247253,15 29.2598901,15 C32.2807692,15 34.5192308,17.1031211 34.5192308,19.9756634 C34.5192308,22.2300289 33.1324176,24.0174618 31.0862637,24.6774371 C31.5532967,25.1718686 31.9653846,25.3506119 32.4456044,25.3506119 C33.0362637,25.3506119 33.5576923,25.1174206 34.010989,24.6361886 L35,25.8180943 Z" id="Fill-7" fill="#D49B28"></path>
            </g>
        </g>
    </g>
</svg>