<?xml version="1.0" encoding="UTF-8"?>
<svg width="42px" height="43px" viewBox="0 0 42 43" version="1.1" xmlns="http://www.w3.org/2000/svg" xmlns:xlink="http://www.w3.org/1999/xlink">
    <!-- Generator: Sketch 51.3 (57544) - http://www.bohemiancoding.com/sketch -->
    <title>Group 89</title>
    <desc>Created with Sketch.</desc>
    <defs></defs>
    <g id="Product-Page" stroke="none" stroke-width="1" fill="none" fill-rule="evenodd">
        <g id="Desktop-HD-Copy" transform="translate(-618.000000, -627.000000)">
            <g id="Group-89" transform="translate(619.250000, 629.000000)">
                <path d="M39.3320979,19.7340377 C39.3320979,30.5575788 30.557687,39.3319897 19.7341459,39.3319897 C8.9100637,39.3319897 0.136193836,30.5575788 0.136193836,19.7340377 C0.136193836,8.91049658 8.9100637,0.136085616 19.7341459,0.136085616 C30.557687,0.136085616 39.3320979,8.91049658 39.3320979,19.7340377 Z" id="Stroke-1" stroke="#D49B28" stroke-width="2.503" stroke-linecap="round" stroke-linejoin="round"></path>
                <path d="M7.42383562,10.7552548 C7.23932192,11.0074055 7.06238356,11.264426 6.89410274,11.5273986 C6.87895205,11.5506658 6.86217808,11.5728507 6.84810959,11.5961178 C6.66630137,11.8823575 6.49693836,12.1761726 6.33515068,12.4743164 C6.28699315,12.561974 6.24316438,12.6517959 6.19717123,12.7405356 C6.12682877,12.877974 6.06027397,13.0181178 5.99317808,13.1577205 L7.93354795,14.5450904 L13.9564863,14.5450904 L7.87565068,10.1784466 C7.78853425,10.2861247 7.69979452,10.3927205 7.61592466,10.502563 C7.55153425,10.5864329 7.48606164,10.6697616 7.42383562,10.7552548" id="Fill-3" fill="#D49B28"></path>
                <path d="M6.89383219,11.5275068 C7.06265411,11.2645342 7.23959247,11.0075137 7.42356507,10.755363 C7.23959247,11.0075137 7.06265411,11.2645342 6.89383219,11.5275068" id="Fill-5" fill="#D49B28"></path>
                <path d="M6.33531301,12.4741541 C6.49710068,12.1765514 6.6659226,11.8827363 6.84773082,11.5959555 C6.6659226,11.8827363 6.49710068,12.1765514 6.33531301,12.4741541" id="Fill-7" fill="#D49B28"></path>
                <path d="M7.61619521,10.5026712 C7.69952397,10.3928288 7.7882637,10.2862329 7.87538014,10.1785548 L7.8672637,10.1726027 C7.78014726,10.2802808 7.70006507,10.3928288 7.61619521,10.5026712" id="Fill-9" fill="#D49B28"></path>
                <path d="M5.98549452,13.1518767 L5.99361096,13.1578288 C6.06070685,13.018226 6.12672055,12.8780822 6.19760411,12.7406438 C6.12672055,12.8780822 6.05204932,13.0128151 5.98549452,13.1518767" id="Fill-11" fill="#D49B28"></path>
                <path d="M14.7555767,12.3988877 L14.7555767,5.32676438 C12.7681315,6.01341507 10.9338164,7.11238082 9.3857411,8.54303836 L14.7555767,12.3988877 Z" id="Fill-13" fill="#D49B28"></path>
                <path d="M19.3548918,4.50121438 C19.0015562,4.50987192 18.6476795,4.53368014 18.295426,4.56614589 C18.227789,4.57263904 18.159611,4.57805 18.091974,4.58508425 C17.7435082,4.62187877 17.3977479,4.67111849 17.0552342,4.73172123 C17.0249329,4.73713219 16.9957137,4.74308425 16.9659534,4.74849521 L16.9659534,16.7537897 L4.79237808,16.7537897 C4.7772274,16.8306253 4.76045342,16.9069199 4.74638493,16.9842966 C4.72528219,17.0990089 4.70526164,17.2131801 4.68686438,17.3284336 C4.66143288,17.4875158 4.63924795,17.6476801 4.6192274,17.8073034 C4.6051589,17.9149815 4.59054932,18.0221185 4.57864521,18.1297966 C4.55970685,18.3078171 4.54617945,18.4863788 4.53319315,18.6649404 C4.5272411,18.7536801 4.51804247,18.842961 4.5131726,18.9317007 C4.49910411,19.1995432 4.49044658,19.4673856 4.49044658,19.7341459 C4.49044658,20.0009062 4.49910411,20.2687486 4.5131726,20.53605 C4.51804247,20.6253308 4.5272411,20.7146116 4.53319315,20.8038925 C4.54617945,20.981913 4.55970685,21.1604747 4.57864521,21.3384952 C4.59054932,21.4461733 4.6051589,21.5538514 4.6192274,21.6615295 C4.63924795,21.8211527 4.66143288,21.9802349 4.68686438,22.1393171 C4.70526164,22.2545705 4.72582329,22.369824 4.74638493,22.4845363 C4.76045342,22.5613719 4.7772274,22.6376664 4.79237808,22.7145021 L16.9659534,22.7145021 L16.9659534,34.7197966 C16.9951726,34.7252075 17.0238507,34.7311596 17.053611,34.7365705 C17.3977479,34.7971733 17.7451315,34.8469541 18.0968438,34.8837486 C18.1601521,34.8907829 18.2234603,34.8951116 18.2873096,34.9016048 C18.6547137,34.9356938 19.0248233,34.9605842 19.3965562,34.9692418 L20.0718438,34.9692418 C20.0864534,34.9687007 20.1005219,34.9676185 20.1151315,34.9670774 C20.4690082,34.9584199 20.8223438,34.9346116 21.1745973,34.9021459 C21.2422342,34.8956527 21.3098712,34.8907829 21.3775082,34.8832075 C21.725974,34.846413 22.0717342,34.7971733 22.4137068,34.7365705 C22.4434671,34.7317007 22.4732274,34.7252075 22.5024466,34.7197966 L22.5024466,22.7145021 L34.681974,22.7145021 C34.8783918,21.7275432 34.9779534,20.7270568 34.9779534,19.7341459 C34.9779534,18.7412349 34.8783918,17.7407486 34.681974,16.7537897 L22.5024466,16.7537897 L22.5024466,4.74849521 C22.4732274,4.74308425 22.4434671,4.73713219 22.4131658,4.73172123 C22.0695699,4.67111849 21.7211041,4.62133767 21.370474,4.58454315 C21.3066247,4.5775089 21.2427753,4.57263904 21.178926,4.56722808 C20.8109808,4.53259795 20.4419534,4.50716644 20.0702205,4.4995911 L19.3976384,4.4995911 C19.3835699,4.4995911 19.3689603,4.50121438 19.3548918,4.50121438" id="Fill-15" fill="#D49B28"></path>
                <path d="M21.1789801,4.56701164 C21.2428295,4.5729637 21.3066788,4.57783356 21.3705281,4.58432671 C21.3066788,4.57783356 21.2428295,4.5729637 21.1789801,4.56701164" id="Fill-17" fill="#D49B28"></path>
                <path d="M22.502663,4.74427466 C22.4729027,4.7388637 22.4431425,4.73669932 22.4133822,4.73182945 C22.4436836,4.73669932 22.4729027,4.74319247 22.502663,4.74860342 L22.502663,4.74427466 Z" id="Fill-19" fill="#D49B28"></path>
                <path d="M4.78653425,22.7142856 L4.7924863,22.7142856 C4.77679452,22.63745 4.76056164,22.5611555 4.74649315,22.484861 C4.76056164,22.5611555 4.77138356,22.6379911 4.78653425,22.7142856" id="Fill-21" fill="#D49B28"></path>
                <path d="M4.51333493,20.5362123 C4.49926644,20.2683699 4.4906089,20.0010685 4.4906089,19.7343082 C4.4906089,20.0010685 4.49926644,20.2683699 4.51333493,20.5362123" id="Fill-23" fill="#D49B28"></path>
                <path d="M4.57886164,21.3383329 C4.55992329,21.1603123 4.54585479,20.9822918 4.53340959,20.8037301 C4.54585479,20.9822918 4.55992329,21.1603123 4.57886164,21.3383329" id="Fill-25" fill="#D49B28"></path>
                <path d="M4.53340959,18.6648322 C4.54585479,18.4862705 4.55992329,18.3077089 4.57886164,18.1296884 C4.55992329,18.3077089 4.54585479,18.4862705 4.53340959,18.6648322" id="Fill-27" fill="#D49B28"></path>
                <path d="M4.68664795,22.1393712 C4.66121644,21.980289 4.63903151,21.8212068 4.61901096,21.6615836 C4.63903151,21.8212068 4.66121644,21.980289 4.68664795,22.1393712" id="Fill-29" fill="#D49B28"></path>
                <path d="M4.61901096,17.8074658 C4.63903151,17.6478425 4.66121644,17.4876781 4.68664795,17.3280548 C4.66121644,17.4876781 4.63903151,17.6478425 4.61901096,17.8074658" id="Fill-31" fill="#D49B28"></path>
                <path d="M4.78653425,16.7537897 C4.77138356,16.8306253 4.76056164,16.907461 4.74649315,16.9842966 C4.76056164,16.9069199 4.77679452,16.8306253 4.7924863,16.7537897 L4.78653425,16.7537897 Z" id="Fill-33" fill="#D49B28"></path>
                <path d="M4.4906089,19.7340377 C4.4906089,19.4672774 4.49926644,19.1994349 4.51333493,18.9321336 C4.49926644,19.1994349 4.4906089,19.4672774 4.4906089,19.7340377" id="Fill-35" fill="#D49B28"></path>
                <path d="M18.295426,4.5662 C18.227789,4.57269315 18.159611,4.57756301 18.091974,4.58513836 C18.159611,4.57756301 18.227789,4.57269315 18.295426,4.5662" id="Fill-37" fill="#D49B28"></path>
                <path d="M19.3548918,4.50121438 C19.3689603,4.50121438 19.3835699,4.4995911 19.3976384,4.4995911 L19.3862753,4.4995911 C19.3754534,4.4995911 19.3651726,4.50121438 19.3548918,4.50121438" id="Fill-39" fill="#D49B28"></path>
                <path d="M16.9659534,4.74427466 L16.9659534,4.74860342 C16.9957137,4.74319247 17.0249329,4.73669932 17.0552342,4.73182945 C17.025474,4.73669932 16.9957137,4.7388637 16.9659534,4.74427466" id="Fill-41" fill="#D49B28"></path>
                <path d="M18.0967356,34.8839651 C18.1600438,34.8904582 18.2233521,34.8953281 18.2877425,34.9012801 C18.2233521,34.8953281 18.1600438,34.8904582 18.0967356,34.8839651" id="Fill-43" fill="#D49B28"></path>
                <path d="M17.0536651,34.7365164 C17.0239048,34.7311055 16.9952267,34.7251534 16.9660075,34.7197425 L16.9660075,34.7240712 C16.9952267,34.7294822 17.0244459,34.7316466 17.0536651,34.7365164" id="Fill-45" fill="#D49B28"></path>
                <path d="M21.3776705,34.883424 C21.3100336,34.8904582 21.2423966,34.8953281 21.1747596,34.9018212 C21.2423966,34.8953281 21.3100336,34.8904582 21.3776705,34.883424" id="Fill-47" fill="#D49B28"></path>
                <path d="M22.502663,34.7241253 L22.502663,34.7197966 C22.4729027,34.7252075 22.4436836,34.7317007 22.4139233,34.7365705 C22.4431425,34.7317007 22.4729027,34.7295363 22.502663,34.7241253" id="Fill-49" fill="#D49B28"></path>
                <path d="M20.0835856,34.9690253 C20.0944075,34.9690253 20.1046884,34.9674021 20.1155103,34.9674021 C20.1003596,34.9674021 20.0862911,34.9690253 20.0722226,34.9690253 L20.0835856,34.9690253 Z" id="Fill-51" fill="#D49B28"></path>
                <path d="M24.7124986,5.32660205 L24.7124986,12.3987253 L30.0823342,8.54287603 C28.5348,7.11221849 26.6999438,6.01379384 24.7124986,5.32660205" id="Fill-53" fill="#D49B28"></path>
                <path d="M31.6008658,10.1721699 L25.5119137,14.5453068 L31.5348521,14.5453068 L33.4827973,13.1519849 C32.9730849,12.0903548 32.3421671,11.0909507 31.6008658,10.1721699" id="Fill-55" fill="#D49B28"></path>
                <path d="M7.93376438,24.9230932 L5.99339452,26.310463 C6.06049041,26.4500658 6.12650411,26.5902096 6.19738767,26.7276479 C6.24338082,26.8163877 6.28720959,26.9062096 6.33536712,26.9944082 C6.49715479,27.292011 6.66597671,27.585826 6.84778493,27.8720658 C6.86239452,27.8953329 6.87916849,27.9175178 6.89377808,27.9407849 C7.0626,28.2032164 7.23953836,28.4607781 7.42405205,28.7129288 C7.48627808,28.7984219 7.55175068,28.8817507 7.6161411,28.9656205 C7.69946986,29.075463 7.78820959,29.1820589 7.87586712,29.289737 L13.9567027,24.9230932 L7.93376438,24.9230932 Z" id="Fill-57" fill="#D49B28"></path>
                <path d="M6.84783904,27.872174 C6.66603082,27.5859342 6.4972089,27.2921192 6.33542123,26.9939753 C6.4972089,27.2921192 6.66603082,27.5859342 6.84783904,27.872174" id="Fill-59" fill="#D49B28"></path>
                <path d="M7.42383562,28.7131452 C7.23932192,28.4609945 7.06238356,28.2034329 6.89410274,27.9410014 C7.06238356,28.203974 7.23932192,28.4609945 7.42383562,28.7131452" id="Fill-61" fill="#D49B28"></path>
                <path d="M5.98549452,26.3165233 C6.05204932,26.4555849 6.12672055,26.5903178 6.19760411,26.7277562 C6.12672055,26.5903178 6.06070685,26.450174 5.99361096,26.3105712 L5.98549452,26.3165233 Z" id="Fill-63" fill="#D49B28"></path>
                <path d="M7.86715548,29.2959596 L7.87581301,29.2900075 C7.78815548,29.1823295 7.69941575,29.0757336 7.61608699,28.9658911 C7.69995685,29.0757336 7.78003904,29.1882815 7.86715548,29.2959596" id="Fill-65" fill="#D49B28"></path>
                <path d="M25.5114267,24.9230932 L31.6009199,29.2962301 C32.3422212,28.3774493 32.973139,27.3785863 33.4823103,26.3164151 L31.5343651,24.9230932 L25.5114267,24.9230932 Z" id="Fill-67" fill="#D49B28"></path>
                <path d="M9.39163904,30.9216281 C9.43655,30.9632925 9.47983767,31.0071212 9.52528973,31.0477034 C9.60591301,31.1202103 9.68761849,31.1910938 9.76878288,31.2619774 C9.91596096,31.3885938 10.0642212,31.5119637 10.215187,31.6326281 C10.2990568,31.6991829 10.3818445,31.7662788 10.4662555,31.8312103 C10.6339952,31.9589089 10.8038993,32.0822788 10.9765089,32.2029432 C11.0463103,32.2516418 11.1144884,32.3030459 11.1848308,32.3512034 C11.428324,32.5156966 11.6756048,32.6742377 11.9277555,32.8252034 C11.969961,32.8500938 12.0132486,32.8722788 12.054913,32.8966281 C12.2675637,33.0210801 12.4829199,33.1406623 12.7015226,33.2542925 C12.788639,33.2997445 12.8773788,33.3424911 12.9650363,33.3857788 C13.1435979,33.4745185 13.3232418,33.5600116 13.5045089,33.641176 C13.6019062,33.6850048 13.7003856,33.7282925 13.7994062,33.7699568 C13.9806733,33.8467925 14.1635637,33.9192993 14.3480774,33.9891007 C14.4427692,34.024813 14.5369199,34.0616075 14.6321527,34.0956966 C14.6727349,34.1103062 14.7149404,34.1216692 14.7555226,34.1357377 L14.7555226,27.0695664 L9.39163904,30.9216281 Z" id="Fill-69" fill="#D49B28"></path>
                <path d="M11.928026,32.824987 C11.6753342,32.6745623 11.4280534,32.5160212 11.1851014,32.350987 C11.4280534,32.5160212 11.6753342,32.6745623 11.928026,32.824987" id="Fill-71" fill="#D49B28"></path>
                <path d="M9.38584932,30.9255781 C9.43130137,30.9677836 9.4794589,31.0067425 9.52545205,31.0478658 C9.48,31.0067425 9.43671233,30.9634548 9.39180137,30.9217904 L9.38584932,30.9255781 Z" id="Fill-73" fill="#D49B28"></path>
                <path d="M10.9763466,32.2030514 C10.8042781,32.082387 10.6338329,31.9590171 10.4666342,31.8313185 C10.6338329,31.9590171 10.8042781,32.0818459 10.9763466,32.2030514" id="Fill-75" fill="#D49B28"></path>
                <path d="M10.2154575,31.6326281 C10.0644918,31.5119637 9.91569041,31.3885938 9.76905342,31.2619774 C9.91569041,31.3885938 10.0644918,31.5119637 10.2154575,31.6326281" id="Fill-77" fill="#D49B28"></path>
                <path d="M12.7016308,33.2543466 C12.4830281,33.1407164 12.2676719,33.0211342 12.0550212,32.8966822 C12.2676719,33.0211342 12.4830281,33.1407164 12.7016308,33.2543466" id="Fill-79" fill="#D49B28"></path>
                <path d="M14.3481856,33.9891007 C14.1636719,33.9192993 13.9807815,33.8467925 13.7989733,33.7699568 C13.9807815,33.8467925 14.1636719,33.9192993 14.3481856,33.9891007" id="Fill-81" fill="#D49B28"></path>
                <path d="M14.7555767,34.1417979 L14.7555767,34.1358459 C14.7149945,34.1217774 14.672789,34.1098733 14.6316658,34.0958048 C14.6738712,34.1098733 14.7139123,34.1277295 14.7555767,34.1417979" id="Fill-83" fill="#D49B28"></path>
                <path d="M13.5042925,33.6413925 C13.3230253,33.5602281 13.1433815,33.4741938 12.965361,33.3859952 C13.1433815,33.4741938 13.3224842,33.5602281 13.5042925,33.6413925" id="Fill-85" fill="#D49B28"></path>
                <path d="M24.7124986,27.0695123 L24.7124986,34.1416356 C26.6999438,33.4549849 28.5348,32.3560192 30.0823342,30.9253616 L24.7124986,27.0695123 Z" id="Fill-87" fill="#D49B28"></path>
            </g>
        </g>
    </g>
</svg>