<?xml version="1.0" encoding="UTF-8"?>
<svg width="42px" height="43px" viewBox="0 0 42 43" version="1.1" xmlns="http://www.w3.org/2000/svg" xmlns:xlink="http://www.w3.org/1999/xlink">
    <!-- Generator: Sketch 51.3 (57544) - http://www.bohemiancoding.com/sketch -->
    <title>FReezer</title>
    <desc>Created with Sketch.</desc>
    <defs></defs>
    <g id="Product-Page" stroke="none" stroke-width="1" fill="none" fill-rule="evenodd">
        <g id="Desktop-HD-Copy" transform="translate(-714.000000, -627.000000)">
            <g id="FReezer" transform="translate(715.500000, 629.000000)">
                <g id="Group-5">
                    <path d="M39,19.5 C39,30.2694442 30.2699826,39 19.5,39 C8.73055579,39 0,30.2694442 0,19.5 C0,8.73055579 8.73055579,0 19.5,0 C30.2699826,0 39,8.73055579 39,19.5 Z" id="Stroke-1" stroke="#D49B28" stroke-width="2.503" stroke-linecap="round" stroke-linejoin="round"></path>
                    <polygon id="Fill-3" fill="#D49B28" points="18.7563481 35 18.7563481 30.1199587 14.6226508 32.5488649 13.8691895 31.2091714 18.7563481 28.3194236 18.7563481 20.8418623 12.4640718 24.5904019 12.4640718 30.3796565 10.9195028 30.3796565 10.9195028 25.4697961 6.76141474 27.9209311 6 26.5812375 10.158088 24.1301025 6 21.6990276 6.76141474 20.3387317 11.6809175 23.2290217 18.0028868 19.5 11.6809175 15.7709783 6.76141474 18.640666 6 17.3009724 10.158088 14.871524 6 12.4209311 6.76141474 11.0806954 10.9195028 13.5101438 10.9195028 8.62088566 12.4640718 8.62088566 12.4640718 14.4112246 18.7563481 18.1603064 18.7563481 10.6605163 13.8898686 7.79082864 14.6433299 6.43053272 18.7563481 8.88004127 18.7563481 4 20.2436519 4 20.2436519 8.88004127 24.3572004 6.43053272 25.1106616 7.79082864 20.2436519 10.6605163 20.2436519 18.1603064 26.5359282 14.4112246 26.5359282 8.62088566 28.0804972 8.62088566 28.0804972 13.5101438 32.2216178 11.0806954 33 12.4209311 28.8594097 14.871524 33 17.3009724 32.2412364 18.640666 27.3084778 15.7709783 20.9971132 19.5 27.3084778 23.2290217 32.2216178 20.3387317 33 21.6990276 28.8594097 24.1301025 33 26.5812375 32.2412364 27.9209311 28.0804972 25.4697961 28.0804972 30.3796565 26.5359282 30.3796565 26.5359282 24.5904019 20.2436519 20.8418623 20.2436519 28.3194236 25.1308105 31.2091714 24.3778795 32.5488649 20.2436519 30.1199587 20.2436519 35"></polygon>
                </g>
            </g>
        </g>
    </g>
</svg>