<?xml version="1.0" encoding="UTF-8"?>
<svg width="44px" height="44px" viewBox="0 0 44 44" version="1.1" xmlns="http://www.w3.org/2000/svg" xmlns:xlink="http://www.w3.org/1999/xlink">
    <!-- Generator: Sketch 51.3 (57544) - http://www.bohemiancoding.com/sketch -->
    <title>Instagram Icon</title>
    <desc>Created with Sketch.</desc>
    <defs></defs>
    <g id="Symbols" stroke="none" stroke-width="1" fill="none" fill-rule="evenodd">
        <g id="Main-Footer" transform="translate(-172.000000, -306.000000)">
            <g id="Instagram-Icon" transform="translate(174.000000, 308.000000)">
                <g id="Group-9">
                    <path d="M39.8299178,19.9838904 C39.8299178,30.9444384 30.9444384,39.8299178 19.9838904,39.8299178 C9.02334247,39.8299178 0.137863014,30.9444384 0.137863014,19.9838904 C0.137863014,9.02334247 9.02334247,0.137863014 19.9838904,0.137863014 C30.9444384,0.137863014 39.8299178,9.02334247 39.8299178,19.9838904 Z" id="Stroke-1" stroke="#D49B28" stroke-width="2.503" stroke-linecap="round" stroke-linejoin="round"></path>
                    <path d="M19.984,8.08668493 C16.7527671,8.08668493 16.3478356,8.10038356 15.0787945,8.15846575 C13.8124932,8.216 12.9478356,8.41709589 12.1905753,8.71134247 C11.4086575,9.01545205 10.7450959,9.42257534 10.083726,10.0839452 C9.42235616,10.7453151 9.01523288,11.4083288 8.71112329,12.1907945 C8.41742466,12.9475068 8.21578082,13.8127123 8.15824658,15.0790137 C8.10016438,16.3475068 8.0870137,16.7529863 8.0870137,19.9836712 C8.0870137,23.2149041 8.10016438,23.6203836 8.15824658,24.8894247 C8.21578082,26.155726 8.41742466,27.0203836 8.71112329,27.7770959 C9.01523288,28.5595616 9.42235616,29.2231233 10.083726,29.8844932 C10.7450959,30.545863 11.4086575,30.9524384 12.1905753,31.2565479 C12.9478356,31.5507945 13.8124932,31.7518904 15.0787945,31.8094247 C16.3478356,31.8675068 16.7527671,31.8812055 19.984,31.8812055 C23.2146849,31.8812055 23.6201644,31.8675068 24.8892055,31.8094247 C26.1555068,31.7518904 27.0201644,31.5507945 27.7768767,31.2565479 C28.5593425,30.9524384 29.2229041,30.545863 29.884274,29.8844932 C30.5456438,29.2231233 30.9527671,28.5595616 31.2563288,27.7770959 C31.5505753,27.0203836 31.7516712,26.155726 31.8097534,24.8894247 C31.8672877,23.6203836 31.8809863,23.2149041 31.8809863,19.9836712 C31.8809863,16.7529863 31.8672877,16.3475068 31.8097534,15.0790137 C31.7516712,13.8127123 31.5505753,12.9475068 31.2563288,12.1907945 C30.9527671,11.4083288 30.5456438,10.7453151 29.884274,10.0839452 C29.2229041,9.42257534 28.5593425,9.01545205 27.7768767,8.71134247 C27.0201644,8.41709589 26.1555068,8.216 24.8892055,8.15846575 C23.6201644,8.10038356 23.2146849,8.08668493 19.984,8.08668493 M19.984,10.2302466 C23.1604384,10.2302466 23.5368767,10.2428493 24.7911233,10.2998356 C25.9516712,10.3524384 26.5812603,10.546411 27.0004384,10.7096986 C27.5560548,10.9250411 27.9522192,11.1831233 28.3686575,11.5995616 C28.7850959,12.0154521 29.0426301,12.4121644 29.2585205,12.9672329 C29.4212603,13.386411 29.6152329,14.0165479 29.6683836,15.1765479 C29.7253699,16.4313425 29.7374247,16.8072329 29.7374247,19.9836712 C29.7374247,23.1606575 29.7253699,23.5370959 29.6683836,24.7913425 C29.6152329,25.9513425 29.4212603,26.5814795 29.2585205,27.0006575 C29.0426301,27.555726 28.7850959,27.9524384 28.3686575,28.3688767 C27.9522192,28.7847671 27.5560548,29.0428493 27.0004384,29.2587397 C26.5812603,29.4214795 25.9516712,29.6154521 24.7911233,29.6680548 C23.5368767,29.725589 23.1609863,29.7376438 19.984,29.7376438 C16.8070137,29.7376438 16.4311233,29.725589 15.1763288,29.6680548 C14.0163288,29.6154521 13.3861918,29.4214795 12.9670137,29.2587397 C12.4119452,29.0428493 12.0157808,28.7847671 11.5993425,28.3688767 C11.1829041,27.9524384 10.9253699,27.555726 10.7094795,27.0006575 C10.5461918,26.5814795 10.3527671,25.9513425 10.2996164,24.7913425 C10.2426301,23.5370959 10.2305753,23.1606575 10.2305753,19.9836712 C10.2305753,16.8072329 10.2426301,16.4313425 10.2996164,15.1765479 C10.3527671,14.0165479 10.5461918,13.386411 10.7094795,12.9672329 C10.9253699,12.4121644 11.1829041,12.0154521 11.5993425,11.5995616 C12.0157808,11.1831233 12.4119452,10.9250411 12.9670137,10.7096986 C13.3861918,10.546411 14.0163288,10.3524384 15.1763288,10.2998356 C16.4311233,10.2428493 16.8075616,10.2302466 19.984,10.2302466" id="Fill-3" fill="#D49B28"></path>
                    <path d="M19.984,23.9498082 C17.793863,23.9498082 16.0179726,22.1739178 16.0179726,19.9837808 C16.0179726,17.7936438 17.793863,16.0183014 19.984,16.0183014 C22.174137,16.0183014 23.9494795,17.7936438 23.9494795,19.9837808 C23.9494795,22.1739178 22.174137,23.9498082 19.984,23.9498082 M19.984,13.8747397 C16.6097534,13.8747397 13.874411,16.6095342 13.874411,19.9837808 C13.874411,23.3580274 16.6097534,26.0933699 19.984,26.0933699 C23.3582466,26.0933699 26.0930411,23.3580274 26.0930411,19.9837808 C26.0930411,16.6095342 23.3582466,13.8747397 19.984,13.8747397" id="Fill-5" fill="#D49B28"></path>
                    <path d="M27.7622466,13.6333151 C27.7622466,14.4218082 27.1227945,15.0607123 26.3348493,15.0607123 C25.5463562,15.0607123 24.9069041,14.4218082 24.9069041,13.6333151 C24.9069041,12.8448219 25.5463562,12.2059178 26.3348493,12.2059178 C27.1227945,12.2059178 27.7622466,12.8448219 27.7622466,13.6333151" id="Fill-7" fill="#D49B28"></path>
                </g>
            </g>
        </g>
    </g>
</svg>