<?xml version="1.0" encoding="UTF-8"?>
<svg width="129px" height="125px" viewBox="0 0 129 125" version="1.1" xmlns="http://www.w3.org/2000/svg" xmlns:xlink="http://www.w3.org/1999/xlink">
    <!-- Generator: Sketch 51.3 (57544) - http://www.bohemiancoding.com/sketch -->
    <title>IMS of Smithfield Logo</title>
    <desc>Created with Sketch.</desc>
    <defs></defs>
    <g id="Symbols" stroke="none" stroke-width="1" fill="none" fill-rule="evenodd">
        <g id="Header-Bar" transform="translate(-656.000000, -23.000000)">
            <g id="Smithfield-Logo" transform="translate(656.000000, 23.000000)">
                <g transform="translate(-0.024829, 0.000000)">
                    <path d="M43.6982497,35.9806167 C43.6982497,35.9806167 42.7146536,35.3874847 43.6099543,34.2353674 C43.6099543,34.2353674 44.3453131,35.3635255 43.6982497,35.9806167 M96.6334171,30.1230613 C95.4494726,25.9398208 93.8580972,23.785567 88.9032645,24.6731897 C85.8286381,25.2238743 81.2026685,24.0704364 81.1673129,24.0615696 C81.1661905,24.0611923 81.1665646,24.0613809 81.1656293,24.0608149 C80.3094255,23.730291 78.8604078,23.484096 77.4944475,23.3759966 C78.9221397,22.7849398 80.2269292,21.9486313 81.3231394,20.8212278 C81.4045133,20.7378422 81.3366082,20.5967281 81.221001,20.6089907 C74.5717192,21.3158817 67.0927971,20.8042488 61.9948584,19.6066656 C61.9265791,19.5906299 61.9441634,19.4891334 62.0141263,19.4936611 C74.4256202,20.3180844 85.3437615,19.9398307 88.205132,11.8965161 C88.2367463,11.8076595 88.1448966,11.7231419 88.0614649,11.7661553 C83.5771047,14.0794454 73.5609984,16.3640599 63.8920878,16.8528656 C63.7766677,16.8587139 63.7581481,16.6881696 63.8715104,16.6657196 C81.38113,13.1910681 92.042616,10.1069328 91.584677,0.13952374 C91.5785038,0.00331468297 91.4075249,-0.050263395 91.3237191,0.0568927609 C87.3070253,5.19642648 75.7723125,10.4327403 67.4018311,12.8922382 C67.3458982,12.9086512 67.2955772,12.8558278 67.314658,12.8003631 C67.3771383,12.6192541 67.4953644,12.2668462 67.617893,11.8512388 C67.6313618,11.8052069 67.589833,11.7774746 67.5546645,11.8104893 C67.0849403,12.2530744 66.5091493,12.681133 65.1643276,13.3640649 C65.1329004,13.3799119 65.1020344,13.3435015 65.1246695,13.3161465 C65.6772642,12.6422701 65.690733,11.5858009 65.0075658,10.8243885 C64.9654758,10.7774134 64.8893397,10.810428 64.8865337,10.8736275 C64.8412636,11.8836875 63.8668338,13.0203351 61.8543714,13.8873944 C61.8186417,13.9026755 61.7836603,13.8624919 61.8047988,13.8296659 C62.1194448,13.3421809 62.2685369,12.5715244 61.7067759,12.0166894 C61.6783418,11.9885798 61.6302657,12.0055588 61.6231571,12.0449877 C61.3657535,13.4600904 59.2945523,14.3005493 57.8129849,14.8574595 C57.8098048,14.8580254 57.8071858,14.8555729 57.8040057,14.8567049 C56.8757813,15.1585532 45.7932084,18.9546732 39.7172857,29.9449708 C39.6826784,30.0076043 39.7047523,30.084387 39.768542,30.116081 C39.9782436,30.220596 40.4797691,30.4588675 41.2783564,30.76996 C41.2783564,30.76996 40.0768277,30.4064214 38.726394,30.9637089 C35.3464749,32.3590027 34.0704937,36.1704038 31.438841,35.6653739 C31.3707488,35.652168 31.3243562,35.7312145 31.3744901,35.7795103 C31.8183991,36.2060597 33.1944609,37.2010272 35.1564153,35.5618021 C36.7790308,34.2061259 38.0834461,33.7565605 39.1222269,33.5192323 C40.4017624,33.2268167 41.1408624,33.5543221 41.1408624,33.5543221 C40.5779791,33.5471532 40.2790467,33.7265643 40.1355666,33.858623 C40.0641072,33.9246523 40.063733,34.0269034 40.1368761,34.0906689 C40.4350602,34.3504471 41.2510447,35.1461947 41.8635007,36.5350743 C41.9300964,36.6859985 42.0462647,36.8103223 42.1974145,36.8742764 C43.0040456,37.215365 45.6671256,38.5295372 45.7754371,41.0431791 C45.7788043,41.1224143 45.8414716,41.1839159 45.9198525,41.1784449 C46.7450032,41.120905 50.8531725,40.6905825 49.2271898,37.8962216 C49.1594717,37.78001 48.2067415,36.4718749 48.1186332,36.3473624 L48.7471769,36.7122216 C48.8463222,36.7699501 48.9677284,36.6880737 48.9507054,36.574126 C48.9005715,36.2417155 48.8132114,35.7806422 48.826119,35.5546332 C49.06201,31.405728 47.8273705,30.2903984 47.8273705,30.2903984 C50.0577654,32.119222 49.5560528,35.2450501 49.5560528,35.2450501 L49.944216,35.2924025 C50.0532758,35.3056084 50.1617744,35.2646702 50.2351045,35.1822279 L53.3224515,31.7173864 C53.374456,31.6590919 53.3843705,31.5749517 53.3448995,31.5074132 C53.020339,30.9503143 51.6734595,28.3546074 52.94757,25.5566621 C52.94757,25.5566621 52.5360236,29.2348726 54.3741398,31.4625132 C54.4317563,31.5325043 54.4311951,31.6334348 54.3692761,31.6998415 L50.5635935,35.7881884 C50.4756722,35.882516 50.4348917,36.0104242 50.4521018,36.1387098 C50.5136467,36.5973306 50.6612422,37.7977436 50.7366301,39.2769891 C50.7416809,39.3730146 50.8198747,39.4441376 50.9145304,39.4320637 C51.6960946,39.3320764 54.9933302,39.041736 56.6455023,40.9794136 C56.7104144,41.055253 56.7925367,41.1120382 56.888876,41.1365634 C57.2762909,41.2348528 58.3332171,41.3657795 59.3390741,40.265731 C59.3510464,40.2527138 59.3652634,40.244413 59.3828477,40.2436583 C59.6149973,40.2349802 61.4342199,40.1670643 62.4088368,40.1306539 C62.6484691,40.1217871 62.7640762,39.8325787 62.5998318,39.6565633 L60.2566357,37.1463172 C60.1320494,37.0127493 59.9225348,37.0097308 59.793833,37.139337 L58.7920914,38.1503402 C58.7735718,38.1690171 58.7462601,38.1754313 58.7215673,38.1671305 L54.7185294,36.8116429 C54.7074925,36.8078698 54.6973909,36.8067378 54.6857928,36.8086244 C54.5844027,36.8256034 54.0383553,36.9421923 53.438994,37.5675843 C53.438994,37.5675843 54.7248897,34.6296568 62.479735,33.0426892 C62.6011412,33.0179754 62.6920556,32.9130831 62.6928039,32.788382 C62.6980417,32.0288561 62.6580095,29.4007005 61.9082466,27.6858247 C61.8513784,27.5558413 62.0167452,27.4471759 62.1100915,27.5535774 C62.8248729,28.3670586 63.9223925,30.1589058 63.5772547,33.2607746 C63.5635988,33.3828345 63.4751163,33.4862176 63.3570773,33.5167797 C62.3480402,33.7790105 57.7003708,35.0384726 55.8876956,36.4579144 C55.8433608,36.4924383 55.8598227,36.5629953 55.9135108,36.5792197 L58.5176647,37.3661005 C58.5417963,37.3734581 58.5679856,37.3668551 58.585757,37.3489329 L59.9186064,36.019291 C60.0433798,35.8947786 60.2452247,35.8981744 60.3658826,36.0264599 L64.0245309,39.9201147 C64.1779255,40.0834901 64.3737842,40.2015882 64.5917168,40.249318 C67.9332872,40.9818662 72.1718419,40.1123543 76.6099967,37.5609813 C76.7940702,37.4551458 76.8483195,37.2110259 76.7254168,37.0370858 C76.169829,36.2511483 74.8672844,33.9965299 75.0296582,30.3153009 C75.0333995,30.231538 75.1563023,30.2215393 75.1679004,30.3045476 C75.439147,32.2488281 76.6475971,37.0021846 81.9933989,37.5794696 C88.4986395,38.2818329 89.8249416,43.8645177 89.910244,44.2563545 C89.9136112,44.2718243 89.9111793,44.2854074 89.9040708,44.2995566 L88.4584202,47.2527651 C88.3834065,47.4063305 88.4700183,47.5895147 88.6359464,47.6251705 C89.4145175,47.792885 91.4649544,48.0864325 93.1782972,47.0314726 C93.526054,46.8173489 93.6699082,46.3796689 93.551308,45.9867001 L92.7684343,43.392125 C92.7218547,43.2374278 92.6561944,43.0898994 92.5733239,42.9512378 C92.0364428,42.0522958 89.9326919,38.3678597 89.9820775,35.9081731 C89.9856318,35.7295166 89.8958398,35.5648206 89.7377686,35.4840762 C89.238862,35.2288257 88.1566818,34.5189162 87.6276575,32.9745847 C87.3360207,32.1222405 87.1749563,29.863849 85.7405297,27.9972944 C84.5674352,26.5699292 82.4277676,25.9766085 82.4277676,25.9766085 C84.862065,26.3220362 86.0933373,27.4567973 86.2181107,27.4683052 C88.2161689,27.6511121 90.3848319,26.6768967 91.5264993,26.5540821 C94.110263,26.2763817 96.3700273,31.3163054 94.4986132,30.8386305 C92.9829997,30.45151 90.7069605,29.8334755 89.994798,30.3877445 C87.9250933,31.99886 89.7265446,34.626827 90.5861155,35.6715995 C90.7103277,35.822335 90.9523919,35.733667 90.9510824,35.5376543 C90.9480894,35.1041246 90.97802,34.439681 91.1198165,33.5796019 C91.3143658,32.3999409 90.7310921,31.800772 90.5470186,31.6443768 C90.5174621,31.6192857 90.5122242,31.5728765 90.5402842,31.5460875 C91.4505502,30.6756324 97.7945394,34.226312 96.6334171,30.1230613" id="Fill-1" fill="#D59B28"></path>
                    <path d="M95.8154081,48.2615006 C92.8593777,47.5688819 81.0612881,44.9772346 69.1749895,44.736817 C69.2403503,44.6959371 69.3055238,44.6572181 69.37051,44.6116558 C69.573709,44.4686659 69.6503066,44.2115002 69.5602248,43.9853096 C69.3727574,43.5152797 69.105134,42.6211425 69.2362301,41.5757313 C69.2362301,41.5757313 68.5459153,41.0459122 68.5122049,40.5252776 C68.5122049,40.5252776 66.2554787,40.922912 65.1986566,40.4411765 L66.2071604,42.6877751 L65.0228006,44.7559064 C53.7811203,45.1074383 44.1790781,47.7936318 41.5313109,48.5986255 C41.4593953,48.6205962 41.4861764,48.7232464 41.5607139,48.7124411 C44.445016,48.2926559 55.2626939,46.8505106 67.760275,46.8505106 C80.4382069,46.8505106 92.7456987,48.0376512 95.7998639,48.3540659 C95.8607299,48.360369 95.8747759,48.2755475 95.8154081,48.2615006" id="Fill-3" fill="#D59B28"></path>
                    <path d="M17.2953764,107.229562 C16.8346797,106.847185 16.299265,106.656182 15.7141028,106.644105 C15.0664174,106.644105 14.5188078,106.871153 14.0579175,107.313358 C13.6098029,107.76764 13.3730667,108.317238 13.3730667,108.951003 C13.3730667,109.619885 13.6221914,110.181931 14.0952765,110.623951 L13.9584225,110.74342 C13.4353963,110.277433 13.1862716,109.679713 13.1862716,108.951003 C13.1862716,108.257596 13.4353963,107.671953 13.933452,107.193889 C14.4191192,106.703747 15.0168635,106.452731 15.7141028,106.452731 C16.336624,106.452731 16.9093977,106.679779 17.432424,107.109907 L17.2953764,107.229562 Z M19.698742,112.58396 C18.702437,113.504229 17.4446189,113.970588 15.9256748,113.970588 C14.8548454,113.970588 13.8837045,113.707495 12.9872816,113.18168 L13.0741946,113.02635 C13.933452,113.528197 14.8922044,113.791291 15.9256748,113.791291 C17.395065,113.791291 18.6153305,113.3489 19.5864714,112.452599 C20.5578058,111.556297 21.0432795,110.444653 21.0432795,109.09407 C21.0432795,108.377066 20.8688728,107.683659 20.5328353,107.038374 C20.1966041,106.393089 19.7359074,105.843305 19.1383567,105.389023 L19.2628223,105.281816 C20.5701943,106.297401 21.2176861,107.564189 21.2176861,109.09407 C21.2176861,110.49259 20.7070483,111.651984 19.698742,112.58396 Z M17.9802272,106.739421 C17.3577059,106.11829 16.6105256,105.807446 15.7512682,105.807446 C14.8424569,105.807446 14.0830816,106.11829 13.4479783,106.727715 C12.8254571,107.337327 12.5140029,108.078113 12.5140029,108.962709 C12.5140029,109.823151 12.8254571,110.564123 13.4479783,111.185811 C14.0830816,111.795051 14.8298748,112.106081 15.7141028,112.106081 C16.5979435,112.106081 17.3577059,111.795051 17.9802272,111.185811 C18.6153305,110.576386 18.9263975,109.834856 18.9263975,108.962709 C18.9263975,108.102081 18.6153305,107.361295 17.9802272,106.739421 Z M19.0634451,111.986611 C18.2043813,112.763257 17.0838043,113.146006 15.7141028,113.146006 C14.3318191,113.146006 13.2238242,112.763257 12.3645668,111.986611 C11.505503,111.209408 11.0819718,110.2059 11.0819718,108.962709 C11.0819718,107.719518 11.505503,106.715452 12.3521784,105.950512 C13.1988537,105.174052 14.3070422,104.779412 15.6517732,104.779412 C17.0712223,104.779412 18.2043813,105.162161 19.0634451,105.938807 C19.9227025,106.703747 20.3584287,107.719518 20.3584287,108.9746 C20.3584287,110.2059 19.9227025,111.209408 19.0634451,111.986611 Z" id="Fill-5" fill="#FFFFFF"></path>
                    <path d="M27.9382764,110.324325 L24.1784387,110.324325 L24.1784387,113.970588 L22.4809503,113.970588 L22.4809503,113.783247 L24.0075209,113.783247 L24.0075209,110.13679 L27.7673586,110.13679 L27.7673586,108.888107 L27.9382764,108.888107 L27.9382764,110.324325 Z M29.5105432,106.690099 L24.1784387,106.690099 L24.1784387,108.438488 L27.1522316,108.438488 L27.1522316,109.450131 L23.3922167,109.450131 L23.3922167,113.109013 L22.1391146,113.109013 L22.1391146,104.779412 L28.7243212,104.779412 L28.7243212,105.828523 L23.3922167,105.828523 L23.3922167,108.438488 L24.0075209,108.438488 L24.0075209,106.502563 L29.3396254,106.502563 L29.3396254,105.241456 L29.5105432,105.241456 L29.5105432,106.690099 Z" id="Fill-7" fill="#FFFFFF"></path>
                    <path d="M43.2949061,105.759343 L41.8047517,107.87491 L41.5562961,107.743546 L40.9230915,107.373053 C40.3640181,107.038233 39.8549447,106.834964 39.4203888,106.739274 C39.0850606,106.667926 38.7126668,106.632065 38.3275316,106.632065 C37.3342884,106.632065 36.825022,106.847041 36.825022,107.277363 C36.825022,107.408727 36.8746359,107.516493 36.9864119,107.623888 L36.8375702,107.731655 C36.7008907,107.588214 36.6387285,107.432696 36.6387285,107.2651 C36.6387285,106.715492 37.209964,106.452579 38.3649834,106.452579 C38.7499254,106.452579 39.109964,106.488439 39.4576474,106.560159 C39.6810065,106.607911 39.9543656,106.7036 40.2647903,106.834964 C40.4757942,106.931024 40.736798,107.049939 41.0225123,107.21772 L41.6431687,107.576322 L41.7425895,107.636151 L43.0339023,105.807281 L42.4130529,105.424524 L42.5248289,105.281641 L43.2949061,105.759343 Z M40.7242498,110.791293 L40.6497324,110.755618 C40.3393077,110.611991 40.0661417,110.504225 39.8302343,110.468551 C39.6439409,110.444582 39.1968366,110.408536 38.4889216,110.361156 L37.64452,110.313218 C36.6387285,110.253389 35.8935548,110.062197 35.3844814,109.715672 L35.5086127,109.5962 C36.0178791,109.906865 36.7379563,110.086166 37.6694235,110.133731 L38.4889216,110.181855 C39.2589988,110.217529 39.7557169,110.277358 39.9792691,110.324924 C40.1900799,110.384753 40.4510837,110.468551 40.7615085,110.611991 L40.7242498,110.791293 Z M41.9535934,113.026331 C41.0348675,113.659738 39.8549447,113.970588 38.402049,113.970588 C37.2348675,113.970588 36.1045586,113.707489 34.9995393,113.181664 L35.0864119,113.0503 L35.1609293,113.08616 C36.1296552,113.552157 37.2223193,113.791473 38.4145973,113.791473 C39.8176861,113.791473 40.9478019,113.492328 41.8296552,112.906859 C42.7113154,112.309127 43.1458714,111.544171 43.1458714,110.599914 C43.1458714,110.038228 42.909964,109.536371 42.4505046,109.093971 L42.3759872,109.022437 L42.5248289,108.914484 L42.5993463,108.998468 C43.0839023,109.548262 43.3319718,110.086166 43.3319718,110.599914 C43.3319718,111.592109 42.8725123,112.40463 41.9535934,113.026331 Z M41.3576474,112.440862 C40.6124737,112.906859 39.6439409,113.145989 38.4518559,113.145989 C38.0173,113.145989 37.5452922,113.097866 37.0485741,113.014254 C36.0798482,112.84703 35.1485741,112.476537 34.2543656,111.938633 L34.1176861,111.854836 L34.8628598,110.791293 L35.0120876,110.886982 C35.2354467,111.042314 35.5458714,111.245584 35.9431687,111.484342 C36.7257942,111.902773 37.5823579,112.106043 38.5263733,112.106043 C39.2715471,112.106043 39.8798482,111.962602 40.3393077,111.699503 C40.8113154,111.412808 41.0470297,111.05402 41.0470297,110.611991 C41.0470297,110.205823 40.8732845,109.942725 40.5132459,109.799098 C40.2026281,109.679626 39.5321648,109.583937 38.5138251,109.536371 C37.6819718,109.488433 37.1107362,109.452573 36.7875702,109.39293 C36.4647903,109.344993 36.1296552,109.237598 35.7819718,109.082265 C34.9499254,108.723478 34.5400799,108.113854 34.5400799,107.2651 C34.5400799,106.476547 34.8877633,105.879001 35.5833231,105.436973 C36.2784969,104.994387 37.2348675,104.779412 38.4767594,104.779412 C38.9362189,104.779412 39.3456783,104.815086 39.7310065,104.874729 C40.6124737,105.018542 41.44452,105.317315 42.2393077,105.783312 L41.5439409,106.775135 C40.9478019,106.416904 40.4140181,106.165883 39.9543656,106.022442 C39.4949061,105.879001 38.9858328,105.807281 38.4271455,105.807281 C37.6568752,105.807281 37.0485741,105.938644 36.6140181,106.18948 C36.1792691,106.440873 35.9680722,106.799289 35.9680722,107.253395 C35.9680722,107.731655 36.1916243,108.042319 36.663632,108.185946 C36.9242498,108.257481 37.209964,108.305047 37.532744,108.329015 C37.5576474,108.329015 37.8806204,108.352984 38.5012768,108.376953 C39.7680722,108.448673 40.6497324,108.568145 41.1588057,108.747446 C41.5562961,108.890887 41.8792691,109.129831 42.1151764,109.464279 C42.3508907,109.787392 42.475215,110.157886 42.475215,110.576317 C42.475215,111.341273 42.1028212,111.962602 41.3576474,112.440862 Z" id="Fill-9" fill="#FFFFFF"></path>
                    <path d="M53.4676861,113.970588 L51.5537951,113.970588 L51.5537951,113.783251 L53.2789981,113.783251 L53.2789981,105.24164 L53.4676861,105.24164 L53.4676861,113.970588 Z M52.5864898,113.109031 L51.2014732,113.109031 L51.2014732,108.114016 L48.7211269,113.50836 L48.5195205,113.50836 L51.2014732,107.689255 L51.2014732,106.053306 L47.9528694,113.121261 L45.4977729,107.851744 L45.4977729,113.970588 L43.7099349,113.970588 L43.7099349,113.783251 L45.3088892,113.783251 L45.3088892,107.452026 L44.6291036,105.978565 L44.6291036,113.109031 L43.3319718,113.109031 L43.3319718,104.779412 L45.4725231,104.779412 L47.9906462,110.199381 L48.3558865,109.38791 L46.4294686,105.24164 L46.643602,105.24164 L48.4692168,109.162911 L50.4837152,104.779412 L52.5864898,104.779412 L52.5864898,113.109031 Z" id="Fill-11" fill="#FFFFFF"></path>
                    <path d="M57.1534003,113.970588 L55.6194466,113.970588 L55.6194466,113.783247 L56.9989486,113.783247 L56.9989486,105.241456 L57.1534003,105.241456 L57.1534003,113.970588 Z M55.3105432,113.109013 L56.4430825,113.109013 L56.4430825,104.779412 L55.3105432,104.779412 L55.3105432,113.109013 Z" id="Fill-13" fill="#FFFFFF"></path>
                    <path d="M66.3676861,106.690252 L63.2476118,106.690252 L63.2476118,113.970588 L61.5386855,113.970588 L61.5386855,113.783251 L63.0758989,113.783251 L63.0758989,106.502721 L66.1956166,106.502721 L66.1956166,105.24164 L66.3676861,105.24164 L66.3676861,106.690252 Z M65.5647546,105.828695 L62.4562705,105.828695 L62.4562705,113.108837 L61.1945466,113.108837 L61.1945466,106.690252 L58.4187896,106.690252 L58.4187896,106.502721 L61.1945466,106.502721 L61.1945466,105.828695 L58.0748289,105.828695 L58.0748289,104.779412 L65.5647546,104.779412 L65.5647546,105.828695 Z" id="Fill-15" fill="#FFFFFF"></path>
                    <path d="M76.5034003,113.970588 L74.7073673,113.970588 L74.7073673,113.783251 L76.3225791,113.783251 L76.3225791,105.24164 L76.5034003,105.24164 L76.5034003,113.970588 Z M75.6716225,113.109031 L74.3457247,113.109031 L74.3457247,109.986807 L70.3680314,109.986807 L70.3680314,113.970588 L68.5721857,113.970588 L68.5721857,113.783251 L70.1872102,113.783251 L70.1872102,109.799664 L74.3457247,109.799664 L74.3457247,109.125249 L69.536441,109.125249 L69.536441,113.109031 L68.2105432,113.109031 L68.2105432,104.779412 L69.536441,104.779412 L69.536441,108.076743 L70.1872102,108.076743 L70.1872102,105.24164 L70.3680314,105.24164 L70.3680314,108.076743 L74.3457247,108.076743 L74.3457247,104.779412 L75.6716225,104.779412 L75.6716225,113.109031 Z" id="Fill-17" fill="#FFFFFF"></path>
                    <path d="M84.1454193,110.324325 L80.3855816,110.324325 L80.3855816,113.970588 L78.6880931,113.970588 L78.6880931,113.783247 L80.2146637,113.783247 L80.2146637,110.13679 L83.9745015,110.13679 L83.9745015,108.888107 L84.1454193,108.888107 L84.1454193,110.324325 Z M85.7176861,106.690099 L80.3855816,106.690099 L80.3855816,108.438488 L83.3593744,108.438488 L83.3593744,109.450131 L79.5995367,109.450131 L79.5995367,113.109013 L78.3462575,113.109013 L78.3462575,104.779412 L84.9316412,104.779412 L84.9316412,105.828523 L79.5995367,105.828523 L79.5995367,108.438488 L80.2146637,108.438488 L80.2146637,106.502563 L85.5467682,106.502563 L85.5467682,105.241456 L85.7176861,105.241456 L85.7176861,106.690099 Z" id="Fill-19" fill="#FFFFFF"></path>
                    <path d="M88.4819718,113.970588 L86.9481513,113.970588 L86.9481513,113.783247 L88.3275335,113.783247 L88.3275335,105.241456 L88.4819718,105.241456 L88.4819718,113.970588 Z M86.6391146,113.109013 L87.7715555,113.109013 L87.7715555,104.779412 L86.6391146,104.779412 L86.6391146,113.109013 Z" id="Fill-21" fill="#FFFFFF"></path>
                    <path d="M98.6176861,113.970588 L90.6984159,113.970588 L90.6984159,113.783251 L98.4308926,113.783251 L98.4308926,112.52217 L98.6176861,112.52217 L98.6176861,113.970588 Z M98.6176861,106.690252 L92.5535754,106.690252 L92.5535754,108.438605 L95.8659178,108.438605 L95.8659178,109.450226 L91.6945189,109.450226 L91.6945189,112.072754 L92.3669755,112.072754 L92.3669755,110.136871 L96.5505692,110.136871 L96.5505692,108.88802 L96.7375562,108.88802 L96.7375562,110.324402 L92.5535754,110.324402 L92.5535754,112.072754 L97.7586295,112.072754 L97.7586295,113.109031 L90.3248289,113.109031 L90.3248289,104.779412 L97.7586295,104.779412 L97.7586295,105.828695 L91.6945189,105.828695 L91.6945189,108.438605 L92.3669755,108.438605 L92.3669755,106.502721 L98.4308926,106.502721 L98.4308926,105.24164 L98.6176861,105.24164 L98.6176861,106.690252 Z" id="Fill-23" fill="#FFFFFF"></path>
                    <path d="M106.910543,113.970588 L99.8804254,113.970588 L99.8804254,113.783251 L106.739888,113.783251 L106.739888,112.52217 L106.910543,112.52217 L106.910543,113.970588 Z M106.114387,113.109031 L99.5391146,113.109031 L99.5391146,104.779412 L100.79047,104.779412 L100.79047,112.072754 L101.404652,112.072754 L101.404652,105.24164 L101.575484,105.24164 L101.575484,112.072754 L106.114387,112.072754 L106.114387,113.109031 Z" id="Fill-25" fill="#FFFFFF"></path>
                    <path d="M113.942976,106.702871 C113.365517,106.115816 112.655849,105.828501 111.801628,105.828501 L109.155191,105.828501 L109.155191,112.07256 L109.804832,112.07256 L109.804832,106.502721 L111.453059,106.502721 C111.897747,106.502721 112.258846,106.540577 112.511484,106.602505 C112.82415,106.677828 113.136628,106.840122 113.449855,107.064733 L113.341394,107.201984 C113.028542,106.989992 112.739999,106.852547 112.451083,106.777612 C112.210412,106.715101 111.873811,106.690252 111.453059,106.690252 L109.985288,106.690252 L109.985288,112.07256 L111.801628,112.07256 C112.631539,112.07256 113.341394,111.760396 113.930821,111.123449 C114.532403,110.498927 114.820946,109.737347 114.820946,108.850553 C114.820946,108.001225 114.532403,107.289538 113.942976,106.702871 M115.62692,112.509357 C114.676394,113.483705 113.545973,113.970588 112.198631,113.970588 L108.193071,113.970588 L108.193071,113.783251 L112.198631,113.783251 C113.497727,113.783251 114.592618,113.321411 115.506492,112.372106 C116.408958,111.435808 116.866176,110.286741 116.866176,108.950531 C116.866176,108.313584 116.745747,107.714104 116.517045,107.164711 C116.264406,106.565231 115.819531,105.978565 115.181858,105.416359 L115.097707,105.341424 L115.181858,105.191554 L115.289944,105.279107 C115.458432,105.416359 115.639075,105.578653 115.807376,105.753566 C116.637286,106.602505 117.046257,107.664406 117.046257,108.950531 C117.046257,110.336633 116.565291,111.522779 115.62692,112.509357 M115.037493,111.897647 C114.255829,112.709507 113.305303,113.108837 112.198631,113.108837 L107.831972,113.108837 L107.831972,104.779412 L112.198631,104.779412 C113.293335,104.779412 114.2433,105.191554 115.025525,106.003414 C115.807376,106.827892 116.204379,107.801658 116.204379,108.950531 C116.204379,110.099403 115.807376,111.085982 115.037493,111.897647" id="Fill-27" fill="#FFFFFF"></path>
                    <path d="M58.0748289,125 L57.1197145,125 L57.1197145,124.906264 L57.9738692,124.906264 L57.9738692,120.635397 L58.0748289,120.635397 L58.0748289,125 Z M57.6106484,124.569033 L56.9179903,124.569033 L56.9179903,121.778175 L56.4877885,122.077875 L56.4877885,121.9593 L56.9179903,121.659419 L56.9179903,121.234798 L56.2319718,121.721788 L56.2319718,121.034997 L57.0123106,120.404412 L57.6106484,120.404412 L57.6106484,124.569033 Z" id="Fill-29" fill="#FFFFFF"></path>
                    <path d="M60.6557765,121.486064 C60.4685937,121.384545 60.268013,121.336822 60.0406364,121.336822 C59.8266578,121.336822 59.6528729,121.384545 59.4988937,121.474263 C59.3520989,121.563808 59.2785074,121.677474 59.2785074,121.808841 C59.2785074,121.898559 59.3119051,121.988278 59.3719046,122.083723 L59.2785074,122.113397 C59.2115177,122.023852 59.1781199,121.922507 59.1781199,121.808841 C59.1781199,121.647452 59.2651094,121.516085 59.4322924,121.408493 C59.5992812,121.301074 59.8066579,121.247104 60.0474325,121.247104 C60.3016049,121.247104 60.5221855,121.301074 60.7093682,121.408493 L60.6557765,121.486064 Z M60.9567446,121.17526 C60.6959703,121.002071 60.3951963,120.918426 60.0674323,120.918426 C59.7264645,120.918426 59.4254963,121.002071 59.1847218,121.181334 C58.9373454,121.354523 58.8169581,121.563808 58.8169581,121.808841 C58.8169581,122.012052 58.9373454,122.185241 59.164722,122.335003 C59.3987005,122.478171 59.6796688,122.549841 60.0072386,122.549841 C60.4619918,122.549841 60.8297555,122.418474 61.1239276,122.167367 C61.2777126,122.029926 61.3581002,121.892486 61.3581002,121.749318 C61.3581002,121.533786 61.224315,121.348449 60.9567446,121.17526 Z M61.8596491,124.2472 C61.3045085,124.749067 60.6291748,125 59.8266578,125 C59.3585066,125 58.9373454,124.898655 58.5495819,124.700997 L58.6031737,124.629674 C58.9909371,124.814663 59.3987005,124.910282 59.8334538,124.910282 C60.6089808,124.910282 61.257907,124.671496 61.7860575,124.187156 C62.3144023,123.709584 62.5815843,123.111578 62.5815843,122.406326 C62.5815843,121.928581 62.4747892,121.527712 62.2674124,121.205282 C62.167025,121.043893 62.0066381,120.87643 61.7860575,120.709142 L61.8462512,120.643718 C62.0602298,120.79886 62.2274128,120.972049 62.3542077,121.16936 C62.5749824,121.516085 62.6819718,121.928581 62.6819718,122.406326 C62.6819718,123.135526 62.4077995,123.751233 61.8596491,124.2472 Z M61.525089,123.966244 C61.0639281,124.37874 60.4953896,124.587504 59.7998619,124.587504 C59.2919053,124.587504 58.7969583,124.474359 58.2954094,124.235052 L58.5763778,123.727285 C59.0645287,123.954444 59.4790881,124.067937 59.8200559,124.067937 C60.2146154,124.067937 60.5555832,123.978218 60.8499495,123.793055 C61.1441216,123.613792 61.3379062,123.368759 61.4382937,123.057782 C60.9969384,123.344811 60.4551958,123.482252 59.8132598,123.482252 C59.2985072,123.482252 58.8571519,123.368759 58.5027862,123.135526 L58.5027862,123.022033 C58.8571519,123.267067 59.2919053,123.392533 59.8132598,123.392533 C60.4819916,123.392533 61.0369381,123.237392 61.4718856,122.920688 C61.4916913,122.800948 61.5052834,122.693356 61.5052834,122.591663 L61.5052834,122.490145 C61.3179064,122.669408 61.0703358,122.807022 60.76296,122.914441 C60.4551958,123.015786 60.1276259,123.069756 59.79326,123.069756 C59.2785074,123.069756 58.863948,122.956263 58.5495819,122.735178 C58.23541,122.501945 58.0748289,122.209189 58.0748289,121.838863 C58.0748289,121.420293 58.2620117,121.079641 58.6297754,120.81066 C59.0043351,120.535952 59.4790881,120.404412 60.0474325,120.404412 C60.6959703,120.404412 61.2177132,120.589575 61.6188746,120.954348 C62.020036,121.318948 62.2206167,121.802767 62.2206167,122.394526 C62.2206167,123.022033 61.9866382,123.548022 61.525089,123.966244 Z" id="Fill-31" fill="#FFFFFF"></path>
                    <path d="M67.2891146,120.922608 L64.7235825,125 L63.7304152,125 L63.7304152,124.906442 L64.6683064,124.906442 L67.1855721,120.897405 L67.1855721,120.635225 L67.2891146,120.635225 L67.2891146,120.922608 Z M66.8132595,120.810193 L64.4476026,124.569016 L63.5233301,124.569016 L65.6891118,121.359756 L62.8888566,121.359756 L62.8888566,121.266198 L65.7511973,121.266198 L65.9787105,120.928772 L62.6819718,120.928772 L62.6819718,120.404412 L66.8132595,120.404412 L66.8132595,120.810193 Z" id="Fill-33" fill="#FFFFFF"></path>
                    <path d="M70.0786178,121.653526 C69.882889,121.444241 69.6620525,121.336822 69.4095109,121.336822 C69.1320451,121.336822 68.89838,121.450315 68.7154798,121.6714 C68.5261652,121.892486 68.4314163,122.167367 68.4314163,122.495871 C68.4314163,122.812749 68.5388106,123.117825 68.759647,123.410581 L68.7911689,123.45223 L68.7090654,123.487978 L68.6775435,123.446156 C68.5450417,123.272967 68.4565238,123.123899 68.4123565,122.998085 C68.3617749,122.860645 68.3368506,122.699082 68.3368506,122.502119 C68.3368506,122.149493 68.4376474,121.856737 68.6460217,121.611877 C68.8542127,121.372571 69.1067543,121.247104 69.4032799,121.247104 C69.7062198,121.247104 69.9525303,121.366844 70.1544903,121.605804 L70.0786178,121.653526 Z M70.3498526,121.384545 C70.0786178,121.073915 69.7628492,120.9186 69.3908177,120.9186 C69.0057743,120.9186 68.6711292,121.073915 68.3997111,121.378471 C68.1284763,121.689275 67.9957912,122.059948 67.9957912,122.502119 C67.9957912,122.932315 68.1284763,123.297088 68.3997111,123.607718 C68.6775435,123.912795 68.9993599,124.067937 69.3781723,124.067937 C69.7568014,124.067937 70.0786178,123.912795 70.3498526,123.607718 C70.6150396,123.297088 70.7539558,122.926241 70.7539558,122.495871 C70.7539558,122.066022 70.6150396,121.701249 70.3498526,121.384545 Z M71.1578757,124.259174 C70.6656213,124.749067 70.0659724,125 69.371758,125 C68.8542127,125 68.3936633,124.850759 67.9897434,124.551929 L68.0463728,124.480085 C68.4376474,124.767114 68.8795035,124.910455 69.371758,124.910455 C70.047096,124.910455 70.6150396,124.671669 71.0884176,124.199477 C71.5617957,123.727285 71.8015086,123.153574 71.8015086,122.478171 C71.8015086,121.844589 71.548967,121.282853 71.0442504,120.786886 L71.1199395,120.739337 C71.6374848,121.247104 71.8962575,121.820641 71.8962575,122.46637 C71.8962575,123.165548 71.6501302,123.763033 71.1578757,124.259174 Z M70.8485215,123.972318 C70.4383705,124.38464 69.946116,124.587504 69.3781723,124.587504 C68.8036311,124.587504 68.3115598,124.38464 67.9012256,123.972318 C67.4910746,123.559822 67.2891146,123.069756 67.2891146,122.490145 C67.2891146,121.922507 67.4910746,121.432614 67.9012256,121.020119 C68.3051455,120.613697 68.7911689,120.404412 69.3528815,120.404412 C69.9398849,120.404412 70.4383705,120.607623 70.8485215,121.013871 C71.2524414,121.420293 71.4608157,121.916434 71.4608157,122.495871 C71.4608157,123.069756 71.2524414,123.559822 70.8485215,123.972318 Z" id="Fill-35" fill="#FFFFFF"></path>
                    <polygon id="Clip-38" points="0.0248289136 125 128.1034 125 128.1034 0 0.0248289136 0"></polygon>
                    <polygon id="Fill-37" fill="#FFFFFF" points="41.4891146 122.427717 51.6248289 122.427717 51.6248289 122.085274 41.4891146 122.085274"></polygon>
                    <polygon id="Fill-39" fill="#FFFFFF" points="76.5034003 122.427717 86.6391146 122.427717 86.6391146 122.085274 76.5034003 122.085274"></polygon>
                    <path d="M14.6729793,91.6809984 L11.1576666,94.3169942 L11.1576666,61.6296677 L14.6729793,59.099059 L14.6729793,91.6809984 Z M22.2931659,60.7775374 C22.4726389,60.0663624 22.8916626,59.5923085 23.5502372,59.4144677 C24.2685093,59.2368151 24.7474207,59.1182545 25.1067469,59.0591624 C25.2263322,59.0591624 25.5854682,58.999694 25.8248289,58.999694 L25.8248289,56.9852941 L0.0248289136,56.9852941 L0.0248289136,58.999694 C1.82069934,59.2960953 2.83821982,59.5332164 3.13765831,59.8885216 C3.43690667,60.2442032 3.61656976,61.2514031 3.61656976,62.9104978 L3.61656976,91.3522282 C3.61656976,92.5965491 3.43690667,93.3668162 3.07777061,93.722686 C2.65874685,94.0188991 1.70111406,94.3149241 0.0248289136,94.5522333 L0.0248289136,96.5073529 L25.8248289,96.5073529 L25.8248289,94.5522333 C24.1487339,94.3149241 23.1911011,94.0188991 22.7720773,93.722686 C22.4127512,93.3668162 22.2332782,92.5965491 22.2332782,91.3522282 L22.2332782,62.9104978 C22.2332782,61.7254571 22.2332782,61.0142821 22.2931659,60.7775374 Z" id="Fill-40" fill="#FFFFFF"></path>
                    <path d="M75.400253,91.6809984 L71.9217267,94.3169942 L71.9217267,61.6296677 L75.400253,59.099059 L75.400253,91.6809984 Z M53.2642965,88.2013409 L43.2505054,62.6841036 L45.5695857,59.2044461 L54.9508832,83.2455107 L53.2642965,88.2013409 Z M82.2227925,60.7775374 C82.4003873,60.0663624 82.8152143,59.5923085 83.5259699,59.4144677 C84.1776527,59.2368151 84.7108136,59.1182545 85.0067423,59.0591624 C85.1254524,59.0591624 85.4808302,58.999694 85.7176861,58.999694 L85.7176861,56.9852941 L61.609185,56.9852941 L57.2259409,71.6207448 L51.0063585,56.9852941 L27.6676861,56.9852941 L27.6676861,58.999694 C29.5632853,59.3553756 30.8664628,59.8885216 31.5774066,60.6587887 C32.1103793,61.2514031 32.4066843,62.3773518 32.4066843,64.0955385 L32.4066843,85.84161 C32.4066843,90.3452164 30.9257238,93.3668162 28.0823249,94.9077267 L28.0823249,96.5073529 L39.9294441,96.5073529 L39.9294441,94.9077267 C37.9745838,93.9001504 36.7899284,92.7745781 36.1976947,91.6488177 C35.427678,90.1673756 35.0721121,87.9154783 35.0128511,85.0713429 L34.7759952,65.2805793 L47.037377,96.5073529 L52.5463919,96.5073529 L62.8531015,62.5550044 L62.8531015,91.3522282 C62.8531015,92.5965491 62.6755067,93.3668162 62.3201288,93.722686 C61.90549,94.0188991 60.9575022,94.3149241 59.2991351,94.5522333 L59.2991351,96.5073529 L85.7176861,96.5073529 L85.7176861,94.5522333 C84.0591308,94.3149241 83.1113311,94.0188991 82.6966923,93.722686 C82.3415026,93.3668162 82.1637196,92.5965491 82.1637196,91.3522282 L82.1637196,62.9104978 C82.1637196,61.7254571 82.2227925,61.0142821 82.2227925,60.7775374 Z" id="Fill-41" fill="#FFFFFF"></path>
                    <path d="M116.600333,93.1183865 C116.600333,93.1183865 118.992374,91.4250344 118.992374,87.1917486 C118.992374,82.9584629 115.248592,80.84182 106.617162,76.8202741 C97.9857322,72.7985393 94.8659449,70.5761209 94.8659449,66.4487995 C94.8659449,62.3212892 100.897645,60.0988709 100.897645,60.0988709 C100.897645,60.0988709 97.5697976,62.3212892 97.5697976,65.7079934 C97.5697976,69.0945087 100.897645,71.1053761 108.592898,74.7036312 C116.288336,78.3018863 121.384044,80.2069782 121.384044,85.7101364 C121.384044,91.2132945 116.600333,93.1183865 116.600333,93.1183865 M126.058064,77.5032814 C124.596818,75.3025848 122.435109,73.4590694 119.629547,72.0913546 C118.051742,71.3182492 116.181986,70.4854562 113.96107,69.5340436 L109.169378,67.512032 C105.896469,66.1439395 104.2602,64.6572273 104.2602,63.0515178 C104.2602,60.9105088 106.130513,59.5426052 108.993984,59.5426052 C111.331272,59.5426052 114.311858,61.1485036 117.818255,64.4194214 C120.506146,66.9170449 122.259344,68.6419407 123.077479,69.7123508 L123.486731,70.1286529 L124.596818,69.7718495 L124.246216,58.3531977 L123.778869,58.5911925 C122.376459,59.3046104 121.207722,59.6616026 120.272658,59.6616026 C119.162571,59.6616026 117.701325,59.3046104 115.889477,58.6505024 C112.909448,57.5205936 109.695003,56.9852941 106.305536,56.9852941 C102.857975,56.9852941 99.93604,57.4015962 97.5983804,58.1748905 C96.0205761,58.7100011 94.7349097,59.3046104 93.7413812,59.9589073 C90.2349845,62.3379111 88.4819718,65.3115242 88.4819718,68.9392454 C88.4819718,72.031667 89.5922441,74.4699807 91.7545097,76.3733727 C93.1569199,77.5627802 95.9621114,79.2277995 100.111063,81.3093098 C105.721446,84.1048046 109.285936,86.0673175 110.805647,87.1970374 C112.324987,88.3273239 113.084656,89.5762301 113.084656,91.0032547 C113.084656,92.3116595 112.55866,93.3824474 111.565317,94.2150515 C110.571788,95.0476556 109.344586,95.4639577 107.766782,95.4639577 C105.838375,95.4639577 103.55918,94.5718549 100.871104,92.846959 C98.2413064,91.0629422 95.786903,88.743626 93.5078936,85.9483201 L90.7611667,82.558216 L90.527308,82.2611002 L89.2416416,82.4987173 L90.0013113,95.9988794 C90.1767054,95.8802598 90.4103786,95.7610735 90.6440517,95.7017636 C91.2286987,95.3449603 91.5793012,95.1662753 91.696045,95.1662753 C92.1051122,94.9881569 92.5726441,94.8094719 93.0403617,94.6904745 C93.6831021,94.5718549 94.0921693,94.5718549 94.4427719,94.5718549 C95.3778357,94.5718549 97.3060569,94.9881569 100.169713,95.8802598 C103.617645,96.8911711 107.065577,97.4264706 110.513138,97.4264706 C115.889477,97.4264706 120.214193,96.2370631 123.369802,93.7989383 C126.525596,91.4195567 128.1034,88.2083265 128.1034,84.1048046 C128.1034,81.7852995 127.402195,79.5847918 126.058064,77.5032814" id="Fill-42" fill="#FFFFFF"></path>
                </g>
            </g>
        </g>
    </g>
</svg>