<?xml version="1.0" encoding="UTF-8"?>
<svg width="89px" height="67px" viewBox="0 0 89 67" version="1.1" xmlns="http://www.w3.org/2000/svg" xmlns:xlink="http://www.w3.org/1999/xlink">
    <!-- Generator: Sketch 51.3 (57544) - http://www.bohemiancoding.com/sketch -->
    <title>IMS Icon</title>
    <desc>Created with Sketch.</desc>
    <defs></defs>
    <g id="Home-Page" stroke="none" stroke-width="1" fill="none" fill-rule="evenodd">
        <g id="Desktop-HD" transform="translate(-673.000000, -1458.000000)">
            <g id="IMS-Icon" transform="translate(673.000000, 1458.000000)">
                <g id="Group-6">
                    <g id="Group-3">
                        <polygon id="Clip-2" points="0 0.188635083 88.9293086 0.188635083 88.9293086 64.7657792 0 64.7657792"></polygon>
                        <path d="M16.7806957,48.8039373 C16.7806957,48.8039373 15.4436614,48.0025255 16.6606729,46.4458392 C16.6606729,46.4458392 17.66027,47.9701529 16.7806957,48.8039373 M88.7371957,40.8894863 C87.1278214,35.2372902 84.9646129,32.3265647 78.2293471,33.5258784 C74.0499071,34.2699373 67.7616757,32.7114667 67.7136157,32.6994863 C67.71209,32.6989765 67.7125986,32.6992314 67.7113271,32.6984667 C66.5474614,32.2518784 64.5777643,31.9192314 62.72097,31.7731725 C64.6616786,30.9745647 66.4353214,29.8445843 67.9254357,28.3215451 C68.03605,28.2086235 67.9437443,28.0179569 67.7865957,28.0347804 C58.74801,28.9896431 48.5816671,28.298349 41.6518729,26.6802314 C41.5590586,26.6585647 41.5829614,26.5214275 41.6780643,26.5275451 C58.5494129,27.6417216 73.3907986,27.1303882 77.2803529,16.2626431 C77.3233271,16.1425843 77.1984729,16.0283882 77.0850614,16.0865059 C70.9893243,19.2121137 57.3741043,22.2989765 44.2308386,22.9594275 C44.0739443,22.9673294 44.04877,22.736898 44.2028671,22.7065647 C68.0042643,18.0117804 82.49677,13.8446431 81.8742786,0.377152941 C81.8658871,0.193113725 81.63347,0.120721569 81.51955,0.265505882 C76.0595271,7.2098 60.3800157,14.2848588 49.0017471,17.6080157 C48.9257157,17.6301922 48.8573129,17.5588196 48.88325,17.4838784 C48.9681814,17.2391725 49.12889,16.7630157 49.2954471,16.2014667 C49.3137557,16.1392706 49.2573043,16.1018 49.2094986,16.1464078 C48.5709871,16.7444078 47.7882957,17.3227804 45.9602357,18.2455255 C45.9175157,18.2669373 45.8755586,18.2177412 45.9063271,18.1807804 C46.6574871,17.2702706 46.6757957,15.8428196 45.7471443,14.8140353 C45.68993,14.7505647 45.5864357,14.7951725 45.5826214,14.8805647 C45.5210843,16.2453098 44.19651,17.7810941 41.4609043,18.9526235 C41.4123357,18.9732706 41.3647843,18.9189765 41.3935186,18.8746235 C41.8212271,18.2159569 42.0238929,17.1746824 41.2602729,16.4250157 C41.2216214,16.3870353 41.15627,16.4102314 41.1466071,16.463251 C40.79671,18.3752706 37.9812586,19.5108588 35.9673157,20.2633294 C35.9629929,20.2640941 35.9594329,20.2607804 35.95511,20.2623098 C34.6933443,20.6701529 19.6284414,25.7992902 11.3692414,40.6488588 C11.3221986,40.7334863 11.3522043,40.8372314 11.4389157,40.8800549 C11.72397,41.0212706 12.40571,41.3432118 13.4912557,41.7635451 C13.4912557,41.7635451 11.8579786,41.272349 10.02229,42.0253294 C5.42785571,43.9105843 3.69337286,49.0603686 0.116081429,48.3779961 C0.0235214286,48.3601529 -0.0395414286,48.4669569 0.0286071429,48.5322118 C0.632027143,49.1085451 2.50255286,50.452898 5.16950143,48.2380549 C7.37517571,46.4063294 9.14831,45.798898 10.5603586,45.4782314 C12.2996729,45.0831333 13.3043557,45.5256431 13.3043557,45.5256431 C12.53921,45.5159569 12.1328614,45.7583686 11.9378243,45.9368 C11.8406871,46.0260157 11.8401786,46.1641725 11.9396043,46.2503294 C12.3449357,46.6013294 13.45413,47.6765059 14.2866614,49.5530941 C14.3771871,49.7570157 14.5350986,49.9249961 14.7405614,50.0114078 C15.8370414,50.4722706 19.4570529,52.2479176 19.6042843,55.6442314 C19.6088614,55.7512902 19.6940471,55.8343882 19.8005929,55.8269961 C20.9222471,55.749251 26.5066157,55.1678196 24.2963643,51.3922118 C24.2043129,51.2351922 22.9092357,49.467702 22.7894671,49.2994667 L23.6438671,49.7924471 C23.7786386,49.8704471 23.94367,49.7598196 23.92053,49.6058588 C23.8523814,49.1567216 23.73363,48.5337412 23.7511757,48.2283686 C24.07183,42.6225647 22.3935443,41.1155843 22.3935443,41.1155843 C25.4253929,43.5866039 24.7433986,47.8100745 24.7433986,47.8100745 L25.2710414,47.8740549 C25.41929,47.891898 25.5667757,47.8365843 25.6664557,47.7251922 L29.8631871,43.0436627 C29.9338786,42.964898 29.9473557,42.8512118 29.8937014,42.7599569 C29.4525157,42.0072314 27.6216586,38.5000353 29.3535986,34.7195843 C29.3535986,34.7195843 28.79417,39.6894078 31.2927814,42.6992902 C31.3711014,42.7938588 31.3703386,42.9302314 31.28617,43.0199569 L26.1129814,48.5439373 C25.9934671,48.6713882 25.9380329,48.8442118 25.9614271,49.0175451 C26.0450871,49.6372118 26.2457186,51.2591529 26.3481957,53.2578392 C26.3550614,53.3875843 26.4613529,53.4836824 26.5900214,53.4673686 C27.6524271,53.3322706 32.1344671,52.9399765 34.3803186,55.5580745 C34.4685557,55.6605451 34.5801871,55.7372706 34.7111443,55.7704078 C35.23777,55.9032118 36.6744843,56.0801137 38.0417786,54.5937804 C38.0580529,54.5761922 38.0773786,54.5649765 38.1012814,54.5639569 C38.41685,54.5522314 40.8897786,54.4604667 42.2146071,54.4112706 C42.5403471,54.3992902 42.6974957,54.0085255 42.4742329,53.770702 L39.28905,50.3789765 C39.1196957,50.1985059 38.8348957,50.1944275 38.6599471,50.3695451 L37.2982471,51.7355647 C37.2730729,51.7608 37.2359471,51.7694667 37.2023814,51.758251 L31.7609214,49.9267804 C31.7459186,49.9216824 31.7321871,49.9201529 31.7164214,49.922702 C31.5785986,49.9456431 30.8363386,50.1031725 30.0216071,50.9481725 C30.0216071,50.9481725 31.7695671,46.9785843 42.3109814,44.834349 C42.4760129,44.8009569 42.5995957,44.6592314 42.6006129,44.4907412 C42.6077329,43.4645059 42.5533157,39.9134667 41.5341386,37.5964078 C41.4568357,37.4207804 41.6816243,37.2739569 41.8085129,37.4177216 C42.7801386,38.5168588 44.2720329,40.9379176 43.8028757,45.1290157 C43.7843129,45.2939373 43.6640357,45.4336235 43.5035814,45.4749176 C42.1319643,45.8292314 35.8142357,47.5309569 33.3502071,49.4488392 C33.2899414,49.4954863 33.3123186,49.5908196 33.3852986,49.6127412 L36.92521,50.6759373 C36.9580129,50.6858784 36.9936129,50.6769569 37.01777,50.6527412 L38.8295557,48.8561922 C38.9991643,48.6879569 39.2735386,48.6925451 39.4375529,48.8658784 L44.4108729,54.1268 C44.6193871,54.3475451 44.8856243,54.5071137 45.1818671,54.5716039 C49.7241729,55.5613882 55.4857786,54.3865451 61.5187071,50.939251 C61.7689243,50.796251 61.8426671,50.4664078 61.6756014,50.2313882 C60.9203729,49.1694667 59.1497814,46.1231333 59.3705014,41.1492314 C59.3755871,41.0360549 59.5426529,41.0225451 59.5584186,41.134702 C59.9271329,43.7617216 61.5698186,50.1842314 68.8365414,50.9642314 C77.6793271,51.9132314 79.4822129,59.4562902 79.5981671,59.9857216 C79.6027443,60.0066235 79.5994386,60.0249765 79.5897757,60.0440941 L77.6246557,64.0343294 C77.5226871,64.2418196 77.6404214,64.4893294 77.8659729,64.5375059 C78.92431,64.7641137 81.7115357,65.1607412 84.0405386,63.7353294 C84.5132557,63.4460157 84.7088014,62.8546431 84.5475843,62.3236824 L83.4833986,58.8180157 C83.4200814,58.6089961 83.3308271,58.4096627 83.2181786,58.2223098 C82.4883786,57.007702 79.6286814,52.0294667 79.6958129,48.7060549 C79.7006443,48.4646627 79.5785871,48.2421333 79.3637157,48.1330353 C78.6855357,47.7881529 77.2144929,46.8289569 76.4953729,44.7423294 C76.0989414,43.5906824 75.8800014,40.539251 73.9301386,38.017251 C72.3355129,36.0886627 69.4269929,35.2869961 69.4269929,35.2869961 C72.7360129,35.7537216 74.4097214,37.2869569 74.57933,37.3025059 C77.2953557,37.5495059 80.24329,36.2331922 81.7951957,36.067251 C85.30739,35.6920353 88.3791614,42.5017412 85.8352871,41.8563294 C83.7750643,41.3332706 80.68117,40.4982118 79.7131043,41.2471137 C76.8996871,43.4239765 79.3484586,46.9747608 80.5169014,48.3864078 C80.6857471,48.5900745 81.0147929,48.4702706 81.0130129,48.2054275 C81.0089443,47.6196627 81.04963,46.721898 81.2423786,45.5598 C81.5068357,43.965898 80.7139729,43.1563294 80.4637557,42.9450157 C80.4235786,42.9111137 80.4164586,42.8484078 80.4546014,42.8122118 C81.6919557,41.6360941 90.3155471,46.4336039 88.7371957,40.8894863" id="Fill-1" fill="#D59B28"></path>
                    </g>
                    <path d="M87.9482854,66.3446836 C83.9245731,65.3399247 67.8651579,61.5803083 51.6856738,61.2315426 C51.7746421,61.1722394 51.8633555,61.1160711 51.9518139,61.0499754 C52.2284059,60.8425447 52.3326696,60.4694829 52.2100514,60.1413557 C51.954873,59.4594991 51.5905874,58.162404 51.7690338,56.6458608 C51.7690338,56.6458608 50.8293858,55.8772699 50.7834996,55.1220027 C50.7834996,55.1220027 47.7116715,55.6988377 46.2731383,55 L47.6459013,58.2590657 L46.0337651,61.2592349 C30.7317277,61.7691905 17.6615454,65.6659619 14.0574371,66.8337394 C13.9595464,66.8656116 13.9960005,67.0145228 14.09746,66.9988479 C18.0235367,66.3898794 32.7484274,64.2978074 49.7599818,64.2978074 C67.0170275,64.2978074 83.7698345,66.0199526 87.9271268,66.4789649 C88.0099769,66.4881086 88.0290962,66.3650609 87.9482854,66.3446836" id="Fill-4" fill="#D59B28"></path>
                </g>
            </g>
        </g>
    </g>
</svg>