<svg xmlns="http://www.w3.org/2000/svg" viewBox="0 0 128.08 68.01"><title>logo-small-svg</title><path d="M19.19,52.23a2.5,2.5,0,0,0-1.58-.59,2.31,2.31,0,0,0-1.66.67A2.27,2.27,0,0,0,15.27,54,2.21,2.21,0,0,0,16,55.62l-.14.12A2.28,2.28,0,0,1,15.08,54a2.34,2.34,0,0,1,.75-1.76,2.42,2.42,0,0,1,1.78-.74,2.66,2.66,0,0,1,1.72.66Zm2.4,5.35A5.35,5.35,0,0,1,17.82,59a5.68,5.68,0,0,1-2.94-.79L15,58a5.58,5.58,0,0,0,2.85.76,5.19,5.19,0,0,0,3.66-1.34,4.37,4.37,0,0,0,1.46-3.36A4.42,4.42,0,0,0,22.43,52,4.88,4.88,0,0,0,21,50.39l.12-.11a4.64,4.64,0,0,1,2,3.81A4.56,4.56,0,0,1,21.6,57.58Zm-1.72-5.84a3.05,3.05,0,0,0-2.23-.93,3.2,3.2,0,0,0-2.3.92A3,3,0,0,0,14.41,54a3,3,0,0,0,.93,2.22,3.25,3.25,0,0,0,4.53,0A3,3,0,0,0,20.82,54,3,3,0,0,0,19.88,51.74ZM21,57a4.81,4.81,0,0,1-3.35,1.16A4.79,4.79,0,0,1,14.26,57a4.21,4.21,0,0,1,0-6,4.71,4.71,0,0,1,3.3-1.17A4.88,4.88,0,0,1,21,50.94a4.18,4.18,0,0,1,0,6Z" transform="translate(-1.92 -1.99)" fill="#fff"/><path d="M29.83,55.32H26.08V59h-1.7v-.19H25.9V55.14h3.76V53.89h.17Zm1.57-3.63H26.08v1.75h3v1H25.29v3.66H24V49.78h6.59v1H25.29v2.61h.62V51.5h5.33V50.24h.17Z" transform="translate(-1.92 -1.99)" fill="#fff"/><path d="M45.19,50.76,43.7,52.87l-.25-.13-.63-.37a5.14,5.14,0,0,0-1.5-.63,5.31,5.31,0,0,0-1.09-.11c-1,0-1.5.21-1.5.65a.46.46,0,0,0,.16.35l-.15.11a.66.66,0,0,1-.2-.47c0-.55.57-.81,1.73-.81a5.37,5.37,0,0,1,1.09.11,4.71,4.71,0,0,1,.81.27,7.87,7.87,0,0,1,.76.38l.62.36.1.06,1.29-1.83-.62-.38.11-.14Zm-2.57,5-.07,0a3.24,3.24,0,0,0-.82-.29l-1.34-.11-.84,0a4.51,4.51,0,0,1-2.26-.6l.12-.12a4.63,4.63,0,0,0,2.16.54l.82,0a10.82,10.82,0,0,1,1.49.14,5.18,5.18,0,0,1,.78.29ZM43.85,58A6.12,6.12,0,0,1,40.3,59a7.82,7.82,0,0,1-3.4-.79l.09-.13.07,0a7.44,7.44,0,0,0,3.25.71,6,6,0,0,0,3.42-.88A2.68,2.68,0,0,0,45,55.6a2,2,0,0,0-.7-1.51L44.27,54l.15-.11.07.08a2.49,2.49,0,0,1,.73,1.6A2.82,2.82,0,0,1,43.85,58Zm-.6-.59a5.41,5.41,0,0,1-2.91.71,8.55,8.55,0,0,1-1.4-.13,8.09,8.09,0,0,1-2.79-1.08L36,56.85l.75-1.06.15.1c.22.16.53.36.93.6a5.37,5.37,0,0,0,2.58.62,3.64,3.64,0,0,0,1.81-.41,1.25,1.25,0,0,0,.71-1.09.79.79,0,0,0-.53-.81,7.78,7.78,0,0,0-2-.26c-.83,0-1.4-.08-1.73-.14a3.89,3.89,0,0,1-1-.31,1.86,1.86,0,0,1-1.24-1.82,2,2,0,0,1,1-1.83,5.35,5.35,0,0,1,2.89-.66,8.1,8.1,0,0,1,1.25.1,7.2,7.2,0,0,1,2.51.91l-.7,1A7.56,7.56,0,0,0,41.85,51a5.11,5.11,0,0,0-1.53-.22,3.65,3.65,0,0,0-1.81.38,1.17,1.17,0,0,0-.65,1.06.89.89,0,0,0,.7.93,4.54,4.54,0,0,0,.87.14l1,0a10.93,10.93,0,0,1,2.66.37,2,2,0,0,1,1,.72,1.84,1.84,0,0,1,.36,1.11A2.15,2.15,0,0,1,43.25,57.44Z" transform="translate(-1.92 -1.99)" fill="#fff"/><path d="M55.36,59H53.45v-.19h1.73V50.24h.19Zm-.88-.86H53.1v-5l-2.48,5.39h-.2l2.68-5.82V51.05l-3.25,7.07-2.46-5.27V59H45.61v-.19h1.6V52.45L46.53,51v7.13h-1.3V49.78h2.14l2.52,5.42.37-.81-1.93-4.15h.21l1.83,3.92,2-4.38h2.1Z" transform="translate(-1.92 -1.99)" fill="#fff"/><path d="M59.05,59H57.52v-.19H58.9V50.24h.15Zm-1.84-.86h1.13V49.78H57.21Z" transform="translate(-1.92 -1.99)" fill="#fff"/><path d="M68.26,51.69H65.14V59H63.44v-.19H65V51.5h3.12V50.24h.17Zm-.8-.86H64.35v7.28H63.09V51.69H60.32V51.5h2.78v-.67H60v-1h7.49Z" transform="translate(-1.92 -1.99)" fill="#fff"/><path d="M78.4,59H76.6v-.19h1.62V50.24h.18Zm-.83-.86H76.24V55h-4v4h-1.8v-.19h1.62v-4h4.16v-.67H71.43v4H70.11V49.78h1.33v3.3h.65V50.24h.18v2.84h4v-3.3h1.33Z" transform="translate(-1.92 -1.99)" fill="#fff"/><path d="M86,55.32H82.28V59h-1.7v-.19h1.53V55.14h3.76V53.89H86Zm1.57-3.63H82.28v1.75h3v1H81.5v3.66H80.24V49.78h6.59v1H81.5v2.61h.62V51.5h5.33V50.24h.17Z" transform="translate(-1.92 -1.99)" fill="#fff"/><path d="M90.38,59H88.84v-.19h1.38V50.24h.15Zm-1.84-.86h1.13V49.78H88.54Z" transform="translate(-1.92 -1.99)" fill="#fff"/><path d="M100.51,59H92.6v-.19h7.73V57.52h.19Zm0-7.28H94.45v1.75h3.31v1H93.59v2.62h.67V55.14h4.18V53.89h.19v1.44H94.45v1.75h5.21v1H92.22V49.78h7.43v1H93.59v2.61h.67V51.5h6.06V50.24h.19Z" transform="translate(-1.92 -1.99)" fill="#fff"/><path d="M108.81,59h-7v-.19h6.86V57.52h.17Zm-.8-.86h-6.58V49.78h1.25v7.29h.61V50.24h.17v6.83H108Z" transform="translate(-1.92 -1.99)" fill="#fff"/><path d="M115.84,51.7a2.87,2.87,0,0,0-2.14-.87h-2.65v6.24h.65V51.5h1.65a4.66,4.66,0,0,1,1.06.1,2.75,2.75,0,0,1,.94.46l-.11.14a2.87,2.87,0,0,0-.89-.42,4.23,4.23,0,0,0-1-.09h-1.47v5.38h1.82a2.79,2.79,0,0,0,2.13-.95,3.15,3.15,0,0,0,.89-2.27,2.9,2.9,0,0,0-.88-2.15m1.68,5.81A4.6,4.6,0,0,1,114.1,59h-4v-.19h4a4.4,4.4,0,0,0,3.31-1.41A4.77,4.77,0,0,0,118.76,54a4.62,4.62,0,0,0-.35-1.79,5,5,0,0,0-1.34-1.75l-.08-.07.08-.15.11.09a5.89,5.89,0,0,1,.52.47,4.38,4.38,0,0,1,1.24,3.2,5,5,0,0,1-1.42,3.56m-.59-.61a3.8,3.8,0,0,1-2.84,1.21h-4.37V49.78h4.37A3.8,3.8,0,0,1,116.92,51a4.29,4.29,0,0,1,0,5.89" transform="translate(-1.92 -1.99)" fill="#fff"/><path d="M60,70H59v-.09h.85V65.64H60Zm-.46-.43h-.69V66.78l-.43.3V67l.43-.3v-.42l-.69.49V66l.78-.63h.6Z" transform="translate(-1.92 -1.99)" fill="#fff"/><path d="M62.55,66.49a1.26,1.26,0,0,0-.62-.15,1,1,0,0,0-.54.14.39.39,0,0,0-.22.33.52.52,0,0,0,.09.27l-.09,0a.49.49,0,0,1-.1-.3.47.47,0,0,1,.25-.4,1.12,1.12,0,0,1,.62-.16,1.31,1.31,0,0,1,.66.16Zm.3-.31a1.58,1.58,0,0,0-.89-.26,1.45,1.45,0,0,0-.88.26.75.75,0,0,0-.37.63.64.64,0,0,0,.35.53,1.58,1.58,0,0,0,.84.21A1.66,1.66,0,0,0,63,67.17a.58.58,0,0,0,.23-.42A.71.71,0,0,0,62.85,66.18Zm.9,3.07a2.92,2.92,0,0,1-2,.75,2.76,2.76,0,0,1-1.28-.3l.05-.07a2.82,2.82,0,0,0,1.23.28,2.78,2.78,0,0,0,2-.72,2.31,2.31,0,0,0,.8-1.78,2.18,2.18,0,0,0-.31-1.2,1.94,1.94,0,0,0-.48-.5l.06-.07a2,2,0,0,1,.51.53,2.25,2.25,0,0,1,.33,1.24A2.39,2.39,0,0,1,63.76,69.25ZM63.42,69a2.48,2.48,0,0,1-1.73.62,3.44,3.44,0,0,1-1.5-.35l.28-.51a3.07,3.07,0,0,0,1.24.34,1.89,1.89,0,0,0,1-.27,1.31,1.31,0,0,0,.59-.74,2.92,2.92,0,0,1-1.63.42,2.34,2.34,0,0,1-1.31-.35V68a2.25,2.25,0,0,0,1.31.37,2.75,2.75,0,0,0,1.66-.47,2,2,0,0,0,0-.33v-.1a2,2,0,0,1-.74.42,3.1,3.1,0,0,1-1,.16,2.12,2.12,0,0,1-1.24-.33,1.07,1.07,0,0,1-.47-.9,1.23,1.23,0,0,1,.55-1,2.34,2.34,0,0,1,1.42-.41,2.24,2.24,0,0,1,1.57.55,1.86,1.86,0,0,1,.6,1.44A2,2,0,0,1,63.42,69Z" transform="translate(-1.92 -1.99)" fill="#fff"/><path d="M69.19,65.92,66.62,70h-1v-.09h.94l2.52-4v-.26h.1Zm-.48-.11-2.37,3.76h-.92l2.17-3.21h-2.8v-.09h2.86l.23-.34h-3.3V65.4h4.13Z" transform="translate(-1.92 -1.99)" fill="#fff"/><path d="M72,66.65a.89.89,0,0,0-.67-.32.87.87,0,0,0-.69.33,1.22,1.22,0,0,0-.28.82,1.5,1.5,0,0,0,.33.91l0,0-.08,0,0,0a1.73,1.73,0,0,1-.27-.45,1.43,1.43,0,0,1-.08-.5,1.32,1.32,0,0,1,.31-.89,1,1,0,0,1,.76-.36.94.94,0,0,1,.75.36Zm.27-.27a1.23,1.23,0,0,0-1-.47,1.29,1.29,0,0,0-1,.46,1.64,1.64,0,0,0-.4,1.12,1.62,1.62,0,0,0,.4,1.11,1.28,1.28,0,0,0,1,.46,1.26,1.26,0,0,0,1-.46,1.73,1.73,0,0,0,0-2.22Zm.81,2.87a2.45,2.45,0,0,1-1.79.74,2.26,2.26,0,0,1-1.38-.45l.06-.07a2.18,2.18,0,0,0,1.33.43,2.43,2.43,0,0,0,2.43-2.43,2.31,2.31,0,0,0-.76-1.69l.08,0a2.36,2.36,0,0,1,.78,1.73A2.45,2.45,0,0,1,73.05,69.26ZM72.75,69a2.09,2.09,0,1,1-1.5-3.57A2.09,2.09,0,0,1,72.75,69Z" transform="translate(-1.92 -1.99)" fill="#fff"/><polygon points="41.46 65.44 51.6 65.44 51.6 65.1 41.46 65.1 41.46 65.44" fill="#fff"/><polygon points="76.48 65.44 86.61 65.44 86.61 65.1 76.48 65.1 76.48 65.44" fill="#fff"/><path d="M16.57,36.68l-3.52,2.64V6.63L16.57,4.1Zm7.62-30.9a1.74,1.74,0,0,1,1.26-1.36c.72-.18,1.2-.3,1.56-.36.12,0,.48-.06.72-.06V2H1.92V4c1.8.3,2.81.53,3.11.89a5.78,5.78,0,0,1,.48,3V36.35A3.5,3.5,0,0,1,5,38.72a8,8,0,0,1-3.05.83v2h25.8v-2a8,8,0,0,1-3.05-.83,3.5,3.5,0,0,1-.54-2.37V7.91A15.63,15.63,0,0,1,24.19,5.78Z" transform="translate(-1.92 -1.99)" fill="#fff"/><path d="M77.3,36.68l-3.48,2.64V6.63L77.3,4.1ZM55.16,33.2l-10-25.52L47.47,4.2l9.38,24Zm29-27.42a1.71,1.71,0,0,1,1.3-1.36c.65-.18,1.18-.3,1.48-.36.12,0,.47-.06.71-.06V2H63.51L59.12,16.62,52.9,2H29.56V4a7.1,7.1,0,0,1,3.91,1.66A5.26,5.26,0,0,1,34.3,9.1V30.84c0,4.5-1.48,7.53-4.32,9.07v1.6H41.83v-1.6a8.33,8.33,0,0,1-3.73-3.26,15.71,15.71,0,0,1-1.18-6.58l-.24-19.79L48.93,41.51h5.51l10.31-34v28.8a3.53,3.53,0,0,1-.53,2.37,7.88,7.88,0,0,1-3,.83v2H87.61v-2a7.88,7.88,0,0,1-3-.83,3.53,3.53,0,0,1-.53-2.37V7.91C84.06,6.73,84.12,6,84.12,5.78Z" transform="translate(-1.92 -1.99)" fill="#fff"/><path d="M118.5,38.12s2.39-1.69,2.39-5.93-3.74-6.35-12.38-10.37S96.76,15.58,96.76,11.45s6-6.35,6-6.35-3.33,2.22-3.33,5.61,3.33,5.4,11,9,12.79,5.5,12.79,11a8.09,8.09,0,0,1-4.78,7.41M128,22.5a15.91,15.91,0,0,0-6.43-5.41c-1.58-.77-3.45-1.61-5.67-2.56l-4.79-2q-4.91-2.05-4.91-4.46c0-2.14,1.87-3.51,4.73-3.51,2.34,0,5.32,1.61,8.82,4.88A54.82,54.82,0,0,1,125,14.71l.41.42,1.11-.36-.35-11.42-.47.24a8.17,8.17,0,0,1-3.51,1.07,13.89,13.89,0,0,1-4.38-1A26.87,26.87,0,0,0,108.2,2a28.06,28.06,0,0,0-8.71,1.19A17,17,0,0,0,95.64,5c-3.51,2.38-5.26,5.35-5.26,9a9.4,9.4,0,0,0,3.27,7.43A47.7,47.7,0,0,0,102,26.31,89.82,89.82,0,0,1,112.7,32.2,4.75,4.75,0,0,1,115,36a4,4,0,0,1-1.52,3.21,5.64,5.64,0,0,1-3.8,1.25c-1.93,0-4.21-.89-6.9-2.62a34.85,34.85,0,0,1-7.36-6.9l-2.75-3.39-.23-.3-1.29.24L91.9,41a2.15,2.15,0,0,1,.64-.3,3.83,3.83,0,0,1,1.05-.54,9,9,0,0,1,1.34-.48,6.89,6.89,0,0,1,1.4-.12,24.39,24.39,0,0,1,5.73,1.31,36.65,36.65,0,0,0,10.34,1.55c5.38,0,9.7-1.19,12.86-3.63A11.47,11.47,0,0,0,130,29.1a12,12,0,0,0-2-6.6" transform="translate(-1.92 -1.99)" fill="#fff"/></svg>