<?xml version="1.0" encoding="UTF-8"?>
<svg width="54px" height="41px" viewBox="0 0 54 41" version="1.1" xmlns="http://www.w3.org/2000/svg" xmlns:xlink="http://www.w3.org/1999/xlink">
    <!-- Generator: Sketch 51.3 (57544) - http://www.bohemiancoding.com/sketch -->
    <title>IMS Icon</title>
    <desc>Created with Sketch.</desc>
    <defs></defs>
    <g id="Home-Page" stroke="none" stroke-width="1" fill="none" fill-rule="evenodd">
        <g id="Desktop-HD" transform="translate(-693.000000, -2812.000000)">
            <g id="IMS-Icon" transform="translate(693.000000, 2812.000000)">
                <g id="Group-6">
                    <g id="Group-3">
                        <polygon id="Clip-2" points="0 0.115433409 53.9571086 0.115433409 53.9571086 39.6327903 0 39.6327903"></polygon>
                        <path d="M10.1815457,29.8650959 C10.1815457,29.8650959 9.37031143,29.3746798 10.1087229,28.4220807 C10.1087229,28.4220807 10.71522,29.3548697 10.1815457,29.8650959 M53.8405457,25.0219244 C52.8640714,21.5631179 51.5515629,19.7819277 47.4649971,20.5158361 C44.9291571,20.9711556 41.1138257,20.0174647 41.0846657,20.0101334 C41.08374,20.0098214 41.0840486,20.0099774 41.0832771,20.0095095 C40.3771114,19.7362241 39.1820143,19.532664 38.05542,19.4432847 C39.2329286,18.9545844 40.3090714,18.2631038 41.2131857,17.3310948 C41.2803,17.2619935 41.2242943,17.1453169 41.1289457,17.1556119 C35.64486,17.7399309 29.4765171,17.3169001 25.2719229,16.3267088 C25.2156086,16.31345 25.2301114,16.2295302 25.2878143,16.2332739 C35.5243629,16.9150833 44.5292486,16.6021779 46.8892029,9.9517667 C46.9152771,9.87829786 46.8395229,9.80841668 46.7707114,9.84398121 C43.0721743,11.7566666 34.8112543,13.6456423 26.8366886,14.0497989 C26.7414943,14.0546344 26.72622,13.9136242 26.8197171,13.895062 C41.2610143,11.0221343 50.05422,8.47209505 49.6765286,0.230795083 C49.6714371,0.118174071 49.53042,0.0738743927 49.4613,0.162473749 C46.1484771,4.41196716 36.6350657,8.74148077 29.7313971,10.7750544 C29.6852657,10.7886251 29.6437629,10.7449493 29.6595,10.6990898 C29.7110314,10.5493444 29.80854,10.2579648 29.9095971,9.91433035 C29.9207057,9.87627006 29.8864543,9.8533403 29.8574486,9.88063764 C29.4700371,10.2465779 28.9951457,10.6005074 27.8859857,11.1651723 C27.8600657,11.178275 27.8346086,11.14817 27.8532771,11.1255522 C28.3090371,10.5683745 28.3201457,9.69485976 27.7566943,9.06530518 C27.72198,9.02646497 27.6591857,9.05376231 27.6568714,9.10601721 C27.6195343,9.94115973 26.81586,10.880968 25.1560543,11.5978741 C25.1265857,11.6105089 25.0977343,11.5772841 25.1151686,11.5501428 C25.3746771,11.1470781 25.4976429,10.5098802 25.0343229,10.051129 C25.0108714,10.0278873 24.97122,10.0420819 24.9653571,10.0745267 C24.75306,11.2445686 23.0448086,11.9394808 21.8228657,12.3999478 C21.8202429,12.4004158 21.8180829,12.398388 21.81546,12.3993239 C21.0498943,12.6488996 11.9093914,15.7876253 6.89819143,24.8746748 C6.86964857,24.9264618 6.88785429,24.9899476 6.94046571,25.016153 C7.11342,25.1025686 7.52706,25.2995773 8.18570571,25.5567963 C8.18570571,25.5567963 7.19472857,25.2562136 6.08094,25.7169926 C3.29330571,26.8706561 2.24092286,30.0220166 0.0704314286,29.6044454 C0.0142714286,29.5935264 -0.0239914286,29.6588841 0.0173571429,29.6988162 C0.383477143,30.0514977 1.51840286,30.8741615 3.13655143,29.5188097 C4.47482571,28.3979031 5.55066,28.0261913 6.40740857,27.8299625 C7.46272286,27.5881861 8.07230571,27.8589757 8.07230571,27.8589757 C7.60806,27.8530482 7.36151143,28.0013898 7.24317429,28.1105791 C7.18423714,28.1651738 7.18392857,28.2497175 7.24425429,28.3024404 C7.49018571,28.5172314 8.16318,29.1751752 8.66831143,30.3235352 C8.72323714,30.448323 8.81904857,30.551117 8.94371143,30.6039958 C9.60899143,30.8860163 11.8054029,31.9726063 11.8947343,34.0509476 C11.8975114,34.1164612 11.9491971,34.1673122 12.0138429,34.1627886 C12.6943971,34.1152133 16.0826657,33.759412 14.7416143,31.4489654 C14.6857629,31.3528788 13.8999857,30.2712803 13.8273171,30.1683303 L14.3457171,30.4700049 C14.4274886,30.5177363 14.52762,30.4500389 14.51358,30.3558241 C14.4722314,30.0809789 14.40018,29.6997521 14.4108257,29.5128823 C14.60538,26.082465 13.5870943,25.1602829 13.5870943,25.1602829 C15.4266429,26.6723994 15.0128486,29.2569113 15.0128486,29.2569113 L15.3329914,29.2960634 C15.42294,29.3069824 15.5124257,29.2731337 15.5729057,29.2049683 L18.1192371,26.3401518 C18.1621286,26.2919525 18.1703057,26.2223833 18.1377514,26.1665408 C17.8700657,25.7059177 16.7592086,23.5597231 17.8100486,21.2463128 C17.8100486,21.2463128 17.47062,24.2875481 18.9866314,26.1294164 C19.0341514,26.1872867 19.0336886,26.2707386 18.98262,26.3256452 L15.8438314,29.7059915 C15.7713171,29.7839838 15.7376829,29.8897415 15.7518771,29.9958112 C15.8026371,30.3750102 15.9243686,31.3675414 15.9865457,32.590618 C15.9907114,32.6700143 16.0552029,32.7288205 16.1332714,32.7188375 C16.7778771,32.6361656 19.4973171,32.396105 20.8599686,33.9982247 C20.9135057,34.0609306 20.9812371,34.107882 21.0606943,34.12816 C21.38022,34.2094281 22.2519343,34.3176815 23.0815286,33.4081343 C23.0914029,33.3973713 23.1031286,33.390508 23.1176314,33.3898841 C23.3091,33.3827088 24.8095286,33.3265542 25.6133571,33.2964492 C25.8109971,33.2891179 25.9063457,33.0499932 25.7708829,32.9044594 L23.8383,30.8289259 C23.7355457,30.7184887 23.5627457,30.7159929 23.4565971,30.8231545 L22.6303971,31.6590769 C22.6151229,31.6745194 22.5925971,31.6798229 22.5722314,31.6729596 L19.2706714,30.5522089 C19.2615686,30.5490892 19.2532371,30.5481533 19.2436714,30.5497131 C19.1600486,30.5637518 18.7096886,30.6601504 18.2153571,31.1772399 C18.2153571,31.1772399 19.2759171,28.7480889 25.6718314,27.4359449 C25.7719629,27.4155109 25.8469457,27.3287834 25.8475629,27.2256774 C25.8518829,26.5976827 25.8188657,24.4246587 25.2004886,23.006757 C25.1535857,22.8992835 25.2899743,22.8094363 25.3669629,22.8974117 C25.9564886,23.5700181 26.8616829,25.0515615 26.5770257,27.6162633 C26.5657629,27.7171855 26.4927857,27.8026651 26.3954314,27.8279347 C25.5632143,28.0447535 21.7299857,29.0861079 20.2349571,30.2597374 C20.1983914,30.2882826 20.2119686,30.346621 20.2562486,30.3600356 L22.40406,31.0106482 C22.4239629,31.0167316 22.4455629,31.0112721 22.46022,30.9964536 L23.5595057,29.8970728 C23.6624143,29.7941229 23.8288886,29.7969306 23.9284029,29.9030002 L26.9459229,33.1223701 C27.0724371,33.257453 27.2339743,33.3550994 27.4137171,33.3945636 C30.1697229,34.0002525 33.6655286,33.2813186 37.3259571,31.1717805 C37.4777743,31.084273 37.5225171,30.8824287 37.4211514,30.7386107 C36.9629229,30.0887781 35.8886314,28.224604 36.0225514,25.1808729 C36.0256371,25.1116157 36.1270029,25.1033485 36.1365686,25.1719818 C36.3602829,26.779561 37.3569686,30.7097535 41.7659914,31.187067 C47.1312771,31.7677983 48.2251629,36.3837 48.2955171,36.7076804 C48.2982943,36.7204711 48.2962886,36.731702 48.2904257,36.7434009 L47.0981057,39.1851867 C47.0362371,39.3121583 47.1076714,39.4636195 47.2445229,39.4931006 C47.88666,39.6317711 49.5777857,39.8744834 50.9908886,39.0022165 C51.2777057,38.8251738 51.3963514,38.4632891 51.2985343,38.1383728 L50.6528486,35.9931141 C50.6144314,35.8652066 50.5602771,35.7432265 50.4919286,35.6285776 C50.0491286,34.8853102 48.3140314,31.8389274 48.3547629,29.8051978 C48.3576943,29.6574802 48.2836371,29.5213055 48.1532657,29.454544 C47.7417857,29.2434966 46.8492429,28.6565258 46.4129229,27.3796344 C46.1723914,26.6748952 46.0395514,24.8076013 44.8564886,23.2642879 C43.8889629,22.0841071 42.1242429,21.5935349 42.1242429,21.5935349 C44.1319629,21.879143 45.1474714,22.8173915 45.25038,22.8269066 C46.8983057,22.9780558 48.68694,22.1725504 49.6285457,22.0710043 C51.75954,21.8413947 53.6233114,26.0085282 52.0798371,25.6135747 C50.8298143,25.2934939 48.95262,24.7824878 48.3652543,25.2407711 C46.6582371,26.5728811 48.1440086,28.7457491 48.8529514,29.6095929 C48.9553971,29.7342247 49.1550429,29.6609119 49.1539629,29.4988437 C49.1514943,29.1403906 49.17618,28.5910122 49.2931286,27.8798776 C49.4535857,26.9045048 48.9725229,26.4090971 48.8207057,26.2797857 C48.7963286,26.2590397 48.7920086,26.2206675 48.8151514,26.1985176 C49.5659057,25.4788039 54.7981971,28.4145934 53.8405457,25.0219244" id="Fill-1" fill="#D59B28"></path>
                    </g>
                    <path d="M53.3618811,40.5989855 C50.9205275,39.984133 41.1766127,37.6834723 31.359847,37.4700485 C31.4138278,37.4337584 31.4676539,37.3993868 31.5213253,37.3589402 C31.6891452,37.232005 31.7524063,37.0037134 31.6780087,36.8029192 C31.5231814,36.3856636 31.3021541,35.5919189 31.410425,34.663885 C31.410425,34.663885 30.8403015,34.1935533 30.8124604,33.7313748 C30.8124604,33.7313748 28.9486546,34.0843634 28.0758367,33.6567164 L28.9087491,35.65107 L27.9305991,37.4869945 C18.6462168,37.7990569 10.7159938,40.1836483 8.52923147,40.8982584 C8.46983716,40.9177623 8.49195535,41.0088871 8.55351508,40.999295 C10.935629,40.6266426 19.8698323,39.3464195 30.1914496,39.3464195 C40.6620167,39.3464195 50.8266412,40.4002695 53.3490432,40.6811576 C53.3993118,40.686753 53.4109123,40.6114552 53.3618811,40.5989855" id="Fill-4" fill="#D59B28"></path>
                </g>
            </g>
        </g>
    </g>
</svg>