<?xml version="1.0" encoding="UTF-8"?>
<svg width="103px" height="91px" viewBox="0 0 103 91" version="1.1" xmlns="http://www.w3.org/2000/svg" xmlns:xlink="http://www.w3.org/1999/xlink">
    <!-- Generator: Sketch 51.3 (57544) - http://www.bohemiancoding.com/sketch -->
    <title>IMS Logo (no Dates)</title>
    <desc>Created with Sketch.</desc>
    <defs></defs>
    <g id="Home-Page" stroke="none" stroke-width="1" fill="none" fill-rule="evenodd">
        <g id="Desktop-HD-Copy" transform="translate(-28.000000, -23.000000)">
            <g id="IMS-Logo-(no-Dates)" transform="translate(23.000000, 64.000000)">
                <rect id="Mask" fill-opacity="0" fill="#FFFFFF" x="0" y="0" width="112" height="54"></rect>
                <g transform="translate(5.000000, -41.000000)" id="Group-37">
                    <g>
                        <g id="Group-3" transform="translate(25.944305, 0.000000)">
                            <polygon id="Clip-2" points="0.0584290074 0.064036169 51.7950874 0.064036169 51.7950874 38.2357605 0.0584290074 38.2357605"></polygon>
                            <path d="M9.82099871,28.8006663 C9.82099871,28.8006663 9.04314996,28.3269493 9.7511728,27.4067872 C9.7511728,27.4067872 10.3327102,28.3078138 9.82099871,28.8006663 M51.6832559,24.1224098 C50.7469674,20.7813792 49.4884739,19.0608403 45.5700867,19.7697584 C43.1386067,20.2095738 39.4802914,19.2883571 39.4523315,19.2812754 C39.4514439,19.2809741 39.4517397,19.2811247 39.451,19.2806727 C38.7738959,19.016693 37.6279818,18.8200643 36.5477514,18.7337285 C37.6768007,18.2616689 38.708656,17.593734 39.5755624,16.6934608 C39.6399146,16.6267125 39.5862138,16.5140089 39.4947892,16.5239533 C34.2363956,17.0883756 28.3219047,16.6797495 24.2903464,15.7232752 C24.2363496,15.710468 24.2502556,15.6294057 24.3055838,15.6330219 C34.1208574,16.291615 42.7551559,15.9893643 45.0179887,9.56540651 C45.0429899,9.49443936 44.9703532,9.42693771 44.9043736,9.46129123 C41.3580461,11.3088477 33.4370961,13.1335018 25.7907157,13.5238965 C25.699439,13.5285673 25.6847933,13.3923586 25.7744427,13.3744285 C39.6214226,10.599327 48.0527527,8.13611921 47.6906047,0.175444036 C47.6857228,0.0666578851 47.5505091,0.0238666569 47.4842337,0.109449113 C44.3077468,4.21424288 35.1858503,8.39633207 28.5662954,10.3606604 C28.5220625,10.373769 28.4822676,10.3315804 28.4973571,10.2872825 C28.5467678,10.1426361 28.6402635,9.86117827 28.7371618,9.5292449 C28.7478132,9.49248061 28.7149713,9.47033163 28.6871593,9.49669946 C28.3156914,9.85017912 27.8603437,10.1920569 26.7968301,10.7374944 C26.7719768,10.750151 26.7475673,10.721071 26.7654676,10.6992234 C27.2024712,10.1610182 27.2131226,9.31724752 26.6728595,8.70912992 C26.6395738,8.67161226 26.5793638,8.69798009 26.5771447,8.74845566 C26.5413442,9.55516072 25.7707443,10.4629676 24.1792462,11.1554622 C24.1509904,11.1676668 24.1233263,11.1355734 24.1400431,11.1093562 C24.3888719,10.7200163 24.5067771,10.1045157 24.0625245,9.66138542 C24.0400382,9.63893509 24.0020186,9.65264637 23.996397,9.68398642 C23.7928368,10.8141871 22.1548867,11.4854369 20.9832317,11.9302246 C20.9807168,11.9306766 20.9786457,11.9287178 20.9761308,11.9296219 C20.2420712,12.1706992 11.4777366,15.2025481 6.67276761,23.9801741 C6.6453994,24.0301977 6.66285588,24.0915217 6.71330214,24.1168349 C6.87913866,24.2003079 7.27575572,24.3906083 7.90729552,24.6390687 C7.90729552,24.6390687 6.95710106,24.3487211 5.88914935,24.7938102 C3.21623739,25.9081902 2.2071643,28.9522437 0.125997295,28.5488911 C0.0721485037,28.538344 0.0354603165,28.6014761 0.0751072285,28.6400485 C0.426159923,28.9807209 1.5143789,29.7753721 3.06593417,28.4661715 C4.3491331,27.3834329 5.3806925,27.0243783 6.20218243,26.8348312 C7.21406631,26.6012875 7.79856239,26.8628565 7.79856239,26.8628565 C7.35342224,26.8571309 7.11702013,27.0004212 7.00355304,27.1058926 C6.9470414,27.1586282 6.94674552,27.2402932 7.00458859,27.2912208 C7.24039896,27.498698 7.88569683,28.1342381 8.37004008,29.2434952 C8.42270538,29.3640339 8.51457378,29.4633276 8.63410626,29.5144059 C9.27200732,29.7868233 11.3780276,30.8364138 11.4636827,32.8439853 C11.4663456,32.9072681 11.5159042,32.9563876 11.5778895,32.9520181 C12.2304362,32.9060627 15.479264,32.5623768 14.1934022,30.3306034 C14.1398493,30.2377886 13.38641,29.1930196 13.316732,29.0935752 L13.8137978,29.3849775 C13.892204,29.4310835 13.9882146,29.3656913 13.9747524,29.2746846 C13.9351055,29.0091982 13.8660193,28.6409525 13.8762269,28.4604459 C14.0627745,25.1468378 13.0863953,24.256057 13.0863953,24.256057 C14.8502391,25.7166844 14.4534741,28.2131909 14.4534741,28.2131909 L14.7604418,28.2510099 C14.8466886,28.2615571 14.9324916,28.228861 14.9904826,28.1630167 L17.4320223,25.3957502 C17.4731486,25.3491921 17.4809892,25.2819918 17.4497747,25.2280507 C17.1931053,24.7831124 16.1279644,22.7099979 17.1355581,20.4753616 C17.1355581,20.4753616 16.8100984,23.4130397 18.2637199,25.1921905 C18.3092842,25.2480903 18.3088404,25.3287005 18.2598735,25.3817375 L15.2502587,28.6469795 C15.1807286,28.7223161 15.1484785,28.8244727 15.1620887,28.9269305 C15.2107597,29.2932174 15.3274814,30.2519519 15.3870997,31.4333815 C15.391094,31.5100743 15.4529313,31.5668781 15.5277871,31.557235 C16.1458647,31.4773781 18.7533888,31.2454919 20.0599617,32.7930577 C20.1112955,32.8536284 20.1762396,32.8989811 20.2524267,32.9185686 C20.5588027,32.9970694 21.3946424,33.1016367 22.1900956,32.2230605 C22.1995635,32.212664 22.2108066,32.2060344 22.2247127,32.2054317 C22.4083015,32.1985007 23.8469814,32.1442583 24.6177293,32.1151784 C24.8072356,32.1080967 24.8986602,31.8771145 24.7687722,31.7365363 L22.9157228,29.7316768 C22.8171973,29.6250001 22.6515087,29.6225893 22.5497286,29.7261019 L21.75753,30.5335603 C21.7428843,30.548477 21.7212856,30.5535999 21.701758,30.5469703 L18.5360705,29.4643823 C18.5273422,29.4613689 18.5193537,29.4604648 18.5101816,29.4619716 C18.4300002,29.4755322 17.9981743,29.5686483 17.5241866,30.0681304 C17.5241866,30.0681304 18.5411003,27.7216945 24.6737971,26.4542304 C24.7698077,26.4344922 24.8417047,26.3507178 24.8422965,26.2511227 C24.8464387,25.6445118 24.8147803,23.5454816 24.2218519,22.1758609 C24.1768793,22.072047 24.3076549,21.9852591 24.3814751,22.0702389 C24.9467394,22.7199423 25.8146814,24.1510377 25.541739,26.6284087 C25.5309397,26.7258944 25.4609658,26.8084634 25.367618,26.8328725 C24.56965,27.0423084 20.8941741,28.0482036 19.460672,29.1818698 C19.4256111,29.209443 19.4386295,29.2657949 19.4810872,29.2787528 L21.5405075,29.9072113 C21.5595913,29.9130875 21.5803024,29.907814 21.5943563,29.8935 L22.648402,28.8315543 C22.7470755,28.7321099 22.9066987,28.734822 23.0021176,28.8372799 L25.8954545,31.9470269 C26.0167623,32.07751 26.1716515,32.1718316 26.3439972,32.2099519 C28.9865823,32.7950165 32.3385216,32.1005631 35.8483088,30.0628568 C35.9938781,29.9783291 36.0367796,29.7833578 35.9395855,29.644437 C35.5002149,29.0167318 34.4701348,27.2160348 34.5985435,24.2759459 C34.6015022,24.2090469 34.6986963,24.2010613 34.7078684,24.2673575 C34.9223759,25.820197 35.878044,29.6165624 40.1056179,30.0776228 C45.2501006,30.6385797 46.2989685,35.0973051 46.3664275,35.4102536 C46.3690903,35.4226088 46.3671672,35.4334573 46.3615456,35.4447578 L45.2182943,37.8033983 C45.1589719,37.9260464 45.2274664,38.0723502 45.3586858,38.1008274 C45.9743964,38.234776 47.5959256,38.4692237 48.9508736,37.6266584 C49.225887,37.4556442 49.33965,37.1060821 49.2458584,36.7922295 L48.6267453,34.7200191 C48.5899091,34.5964669 48.5379835,34.4786404 48.4724478,34.3678955 C48.0478708,33.649937 46.3841798,30.7072867 46.423235,28.7428077 C46.4260458,28.6001201 46.3550364,28.4685822 46.2300303,28.404094 C45.8354843,28.200233 44.9796732,27.6332492 44.5613095,26.3998373 C44.3306769,25.7190952 44.2033038,23.9153846 43.0689287,22.4246226 C42.1412206,21.2846281 40.4491259,20.8107605 40.4491259,20.8107605 C42.3742201,21.0866434 43.3479365,21.9929435 43.4466099,22.0021346 C45.0267169,22.148137 46.7417417,21.3700599 47.6445966,21.2719716 C49.6878919,21.0501804 51.4749617,25.0754186 49.9950075,24.6939138 C48.7964281,24.3847321 46.9964879,23.8911262 46.4332947,24.3338045 C44.7965281,25.6205548 46.2211541,27.7194344 46.9009211,28.5538633 C46.9991508,28.6742513 47.1905803,28.6034349 47.1895447,28.4468853 C47.1871777,28.1006379 47.2108475,27.5699664 47.3229832,26.8830467 C47.4768369,25.9408863 47.0155717,25.4623478 46.8700024,25.3374396 C46.8466285,25.3174 46.8424863,25.2803344 46.8646767,25.2589388 C47.5845345,24.563732 52.6014961,27.3995549 51.6832559,24.1224098" id="Fill-1" fill="#D59B28"></path>
                        </g>
                        <path d="M76.9883457,38.7499452 C74.6277738,38.1802688 65.2062742,36.0486483 55.7143343,35.8509058 C55.7665289,35.8172821 55.8185739,35.7854359 55.8704694,35.7479611 C56.0327363,35.6303524 56.0939042,35.4188345 56.0219683,35.2327936 C55.8722641,34.8461958 55.6585503,34.1107711 55.7632387,33.2509242 C55.7632387,33.2509242 55.2119799,32.8151499 55.18506,32.3869299 C55.18506,32.3869299 53.3829255,32.7139828 52.5389881,32.317757 L53.3443404,34.1655762 L52.3985562,35.8666067 C43.4213837,36.1557404 35.7535629,38.3651248 33.6391581,39.0272292 C33.581729,39.0453 33.6031154,39.1297294 33.6626381,39.1208421 C35.9659306,38.7755703 44.6045112,37.5894111 54.5845978,37.5894111 C64.7087056,37.5894111 74.5369941,38.5658298 76.9759327,38.8260798 C77.024538,38.8312641 77.0357546,38.7614987 76.9883457,38.7499452" id="Fill-4" fill="#D59B28"></path>
                        <path d="M14.4672003,86.0099776 C14.1189792,85.726924 13.7142819,85.5855348 13.2719826,85.5765948 C12.7824246,85.5765948 12.3685097,85.7446664 12.0201423,86.0720073 C11.6814314,86.4082881 11.5024926,86.815126 11.5024926,87.2842687 C11.5024926,87.7794062 11.6907954,88.1954591 12.0483804,88.5226624 L11.9449382,88.6110995 C11.5496049,88.2661537 11.3613021,87.8236934 11.3613021,87.2842687 C11.3613021,86.7709763 11.5496049,86.337456 11.9260641,85.9835702 C12.2931594,85.6207445 12.7449689,85.4349305 13.2719826,85.4349305 C13.74252,85.4349305 14.1754554,85.6030021 14.5707888,85.921403 L14.4672003,86.0099776 Z M16.2838025,89.9735526 C15.5307378,90.6547792 14.5800064,91 13.4319009,91 C12.6225063,91 11.8884621,90.8052459 11.210894,90.4160129 L11.2765878,90.301031 C11.9260641,90.6725216 12.6507444,90.8672757 13.4319009,90.8672757 C14.5425507,90.8672757 15.4648977,90.5397973 16.1989419,89.8763131 C16.9331325,89.212829 17.3000815,88.3899381 17.3000815,87.3901731 C17.3000815,86.8594133 17.1682549,86.3461209 16.9142583,85.8684508 C16.6601154,85.3907807 16.3118943,84.9838053 15.8602311,84.6475244 L15.9543093,84.5681649 C16.9424964,85.3199486 17.431908,86.2576838 17.431908,87.3901731 C17.431908,88.4254229 17.0459386,89.2836611 16.2838025,89.9735526 Z M14.98485,85.6471519 C14.5143126,85.1873618 13.9495506,84.9572604 13.3000743,84.9572604 C12.6131424,84.9572604 12.0391628,85.1873618 11.5591151,85.638487 C11.0885777,86.0897497 10.8531627,86.6381144 10.8531627,87.2929336 C10.8531627,87.9298729 11.0885777,88.4783751 11.5591151,88.9385779 C12.0391628,89.3895655 12.6036321,89.6198044 13.2719826,89.6198044 C13.9400404,89.6198044 14.5143126,89.3895655 14.98485,88.9385779 C15.4648977,88.4874527 15.7000201,87.9385378 15.7000201,87.2929336 C15.7000201,86.6558568 15.4648977,86.1074921 14.98485,85.6471519 Z M15.8036085,89.5313674 C15.1542786,90.106277 14.307282,90.3896056 13.2719826,90.3896056 C12.2271729,90.3896056 11.3896865,90.106277 10.7402103,89.5313674 C10.0908803,88.9560452 9.77075099,88.2132015 9.77075099,87.2929336 C9.77075099,86.3726657 10.0908803,85.6294094 10.7308463,85.0631648 C11.3708124,84.4883928 12.2084451,84.1962617 13.2248703,84.1962617 C14.2977717,84.1962617 15.1542786,84.4795903 15.8036085,85.0544999 C16.4530848,85.6207445 16.7824318,86.3726657 16.7824318,87.3017361 C16.7824318,88.2132015 16.4530848,88.9560452 15.8036085,89.5313674 Z" id="Fill-6" fill="#FFFFFF"></path>
                        <path d="M22.9708871,88.3008657 L19.9316307,88.3008657 L19.9316307,91 L18.5594697,91 L18.5594697,90.8613212 L19.7934697,90.8613212 L19.7934697,88.1620433 L22.832726,88.1620433 L22.832726,87.2377098 L22.9708871,87.2377098 L22.9708871,88.3008657 Z M24.2418254,85.6106414 L19.9316307,85.6106414 L19.9316307,86.9048807 L22.3354895,86.9048807 L22.3354895,87.6537461 L19.29609,87.6537461 L19.29609,90.3622214 L18.2831477,90.3622214 L18.2831477,84.1962617 L23.6062846,84.1962617 L23.6062846,84.9728628 L19.29609,84.9728628 L19.29609,86.9048807 L19.7934697,86.9048807 L19.7934697,85.4718189 L24.1036643,85.4718189 L24.1036643,84.5382881 L24.2418254,84.5382881 L24.2418254,85.6106414 Z" id="Fill-8" fill="#FFFFFF"></path>
                        <path d="M34.4293076,84.9216527 L33.3279929,86.487694 L33.1443691,86.3904525 L32.6763924,86.1161958 C32.2632032,85.868347 31.886967,85.7178772 31.5658037,85.6470437 C31.3179758,85.5942279 31.0427541,85.5676825 30.7581159,85.5676825 C30.0240487,85.5676825 29.6476699,85.7268174 29.6476699,86.0453623 C29.6476699,86.1426037 29.6843376,86.2223775 29.7669469,86.3018761 L29.6569438,86.3816499 C29.5559293,86.2754683 29.5099877,86.1603465 29.5099877,86.0362846 C29.5099877,85.6294384 29.9321655,85.434818 30.785795,85.434818 C31.0702906,85.434818 31.336381,85.4613634 31.5933402,85.5144542 C31.7584161,85.5498022 31.9604451,85.6206358 32.1898678,85.7178772 C32.3458125,85.7889859 32.5387102,85.8770121 32.7498704,86.0012116 L33.2085732,86.2666656 L33.2820513,86.3109538 L34.2364099,84.9571382 L33.7775645,84.6738039 L33.8601738,84.5680349 L34.4293076,84.9216527 Z M32.5294363,88.6465368 L32.4743634,88.6201289 C32.2449407,88.5138097 32.0430544,88.434036 31.8687045,88.4076281 C31.7310223,88.3898853 31.4005851,88.3632024 30.8773929,88.3281294 L30.2533288,88.2926439 C29.5099877,88.2483557 28.959259,88.1068261 28.5830228,87.8503122 L28.6747634,87.7618733 C29.0511422,87.9918418 29.5833231,88.1245688 30.271734,88.1597793 L30.8773929,88.1954024 C31.4465267,88.2218103 31.8136317,88.2660985 31.9788503,88.301309 C32.1346523,88.3455971 32.32755,88.4076281 32.5569727,88.5138097 L32.5294363,88.6465368 Z M33.437996,90.3010169 C32.7590017,90.769894 31.886967,91 30.8131887,91 C29.9505707,91 29.1152037,90.805242 28.2985272,90.4160011 L28.3627314,90.3187597 L28.4178042,90.3453051 C29.1337515,90.6902578 29.9412967,90.8674105 30.8224627,90.8674105 C31.8594306,90.8674105 32.6946549,90.6459696 33.3463981,90.212578 C33.9979986,89.7701088 34.3191619,89.2038527 34.3191619,88.5048696 C34.3191619,88.0890833 34.144812,87.7175852 33.8052436,87.3901001 L33.7501707,87.3371469 L33.8601738,87.2572356 L33.9152466,87.3194041 C34.273363,87.7263878 34.4567014,88.1245688 34.4567014,88.5048696 C34.4567014,89.2393383 34.1171329,89.8408048 33.437996,90.3010169 Z M32.9975557,89.8676253 C32.446827,90.212578 31.7310223,90.3895933 30.8499991,90.3895933 C30.5288358,90.3895933 30.1799934,90.3539701 29.8128885,90.2920767 C29.0969412,90.1682899 28.408673,89.8940332 27.7477985,89.4958521 L27.646784,89.4338212 L28.1975127,88.6465368 L28.3078012,88.7173703 C28.4728771,88.8323546 28.7022998,88.9828244 28.9959267,89.1595645 C29.5743345,89.4693067 30.2073872,89.6197765 30.905072,89.6197765 C31.4558007,89.6197765 31.9053722,89.5135949 32.2449407,89.3188369 C32.5937831,89.1066112 32.7679903,88.8410197 32.7679903,88.5138097 C32.7679903,88.2131452 32.639582,88.0183872 32.3734916,87.9120681 C32.1439262,87.8236292 31.648413,87.7527956 30.895798,87.7175852 C30.2810079,87.6820996 29.8588301,87.6555542 29.6199908,87.6114035 C29.3814368,87.575918 29.1337515,87.4964193 28.8767924,87.3814351 C28.2618595,87.1158435 27.9589588,86.6645716 27.9589588,86.0362846 C27.9589588,85.4525607 28.2159179,85.010229 28.7299789,84.6830191 C29.2437546,84.3553966 29.9505707,84.1962617 30.8684043,84.1962617 C31.2079728,84.1962617 31.5105882,84.2226695 31.7953691,84.2668202 C32.446827,84.3732769 33.0617598,84.5944427 33.6491562,84.9393955 L33.1352379,85.6735891 C32.6946549,85.4084101 32.3001562,85.2225923 31.9604451,85.1164107 C31.6208766,85.010229 31.2446404,84.9571382 30.8317366,84.9571382 C30.26246,84.9571382 29.8128885,85.0543797 29.4917252,85.24006 C29.1704192,85.4261529 29.0143319,85.6914694 29.0143319,86.0276195 C29.0143319,86.3816499 29.1795505,86.6116184 29.5283929,86.7179375 C29.7210053,86.7708908 29.9321655,86.8061013 30.1707195,86.823844 C30.1891247,86.823844 30.4278213,86.8415868 30.8865241,86.8593296 C31.8227629,86.9124204 32.4743634,87.0008593 32.8505996,87.1335863 C33.1443691,87.2397679 33.3830658,87.4166456 33.5574156,87.6642193 C33.7316228,87.903403 33.8235061,88.1776596 33.8235061,88.4874019 C33.8235061,89.053658 33.5482844,89.5135949 32.9975557,89.8676253 Z" id="Fill-10" fill="#FFFFFF"></path>
                        <path d="M42.9690981,91 L41.522469,91 L41.522469,90.8613242 L42.8264769,90.8613242 L42.8264769,84.5384245 L42.9690981,84.5384245 L42.9690981,91 Z M42.3030392,90.3622349 L41.2561638,90.3622349 L41.2561638,86.6646916 L39.3813751,90.6578371 L39.2289894,90.6578371 L41.2561638,86.3502639 L41.2561638,85.1392574 L38.8006818,90.3712883 L36.9449784,86.4705454 L36.9449784,91 L35.5936274,91 L35.5936274,90.8613242 L36.8022092,90.8613242 L36.8022092,86.1746557 L36.2883881,85.0839307 L36.2883881,90.3622349 L35.3079411,90.3622349 L35.3079411,84.1962617 L36.9258932,84.1962617 L38.8292357,88.2083764 L39.1053054,87.6076873 L37.6492077,84.5384245 L37.8110621,84.5384245 L39.1909669,87.4411325 L40.7136409,84.1962617 L42.3030392,84.1962617 L42.3030392,90.3622349 Z" id="Fill-12" fill="#FFFFFF"></path>
                        <path d="M46.3740568,91 L44.9569505,91 L44.9569505,90.8613212 L46.2313703,90.8613212 L46.2313703,84.5382881 L46.3740568,84.5382881 L46.3740568,91 Z M44.6715774,90.3622214 L45.7178467,90.3622214 L45.7178467,84.1962617 L44.6715774,84.1962617 L44.6715774,90.3622214 Z" id="Fill-14" fill="#FFFFFF"></path>
                        <path d="M54.0352138,85.6107552 L51.4730754,85.6107552 L51.4730754,91 L50.0697416,91 L50.0697416,90.8613242 L51.3320684,90.8613242 L51.3320684,85.4719357 L53.893914,85.4719357 L53.893914,84.5384245 L54.0352138,84.5384245 L54.0352138,85.6107552 Z M53.3758636,84.9729901 L50.8232428,84.9729901 L50.8232428,90.3620912 L49.787142,90.3620912 L49.787142,85.6107552 L47.5077496,85.6107552 L47.5077496,85.4719357 L49.787142,85.4719357 L49.787142,84.9729901 L47.2252964,84.9729901 L47.2252964,84.1962617 L53.3758636,84.1962617 L53.3758636,84.9729901 Z" id="Fill-16" fill="#FFFFFF"></path>
                        <path d="M60.8451312,91 L59.5546251,91 L59.5546251,90.8613242 L60.7152054,90.8613242 L60.7152054,84.5384245 L60.8451312,84.5384245 L60.8451312,91 Z M60.2474727,90.3622349 L59.2947736,90.3622349 L59.2947736,88.0510188 L56.4366764,88.0510188 L56.4366764,91 L55.146305,91 L55.146305,90.8613242 L56.3067506,90.8613242 L56.3067506,87.9124867 L59.2947736,87.9124867 L59.2947736,87.4132537 L55.8391526,87.4132537 L55.8391526,90.3622349 L54.8864535,90.3622349 L54.8864535,84.1962617 L55.8391526,84.1962617 L55.8391526,86.6371001 L56.3067506,86.6371001 L56.3067506,84.5384245 L56.4366764,84.5384245 L56.4366764,86.6371001 L59.2947736,86.6371001 L59.2947736,84.1962617 L60.2474727,84.1962617 L60.2474727,90.3622349 Z" id="Fill-18" fill="#FFFFFF"></path>
                        <path d="M67.2353499,88.3008657 L64.1960935,88.3008657 L64.1960935,91 L62.8239326,91 L62.8239326,90.8613212 L64.0579325,90.8613212 L64.0579325,88.1620433 L67.0971888,88.1620433 L67.0971888,87.2377098 L67.2353499,87.2377098 L67.2353499,88.3008657 Z M68.5062882,85.6106414 L64.1960935,85.6106414 L64.1960935,86.9048807 L66.5999523,86.9048807 L66.5999523,87.6537461 L63.5606959,87.6537461 L63.5606959,90.3622214 L62.5476105,90.3622214 L62.5476105,84.1962617 L67.8708906,84.1962617 L67.8708906,84.9728628 L63.5606959,84.9728628 L63.5606959,86.9048807 L64.0579325,86.9048807 L64.0579325,85.4718189 L68.3681271,85.4718189 L68.3681271,84.5382881 L68.5062882,84.5382881 L68.5062882,85.6106414 Z" id="Fill-20" fill="#FFFFFF"></path>
                        <path d="M71.0600072,91 L69.6430239,91 L69.6430239,90.8613212 L70.9173331,90.8613212 L70.9173331,84.5382881 L71.0600072,84.5382881 L71.0600072,91 Z M69.3575278,90.3622214 L70.4037062,90.3622214 L70.4037062,84.1962617 L69.3575278,84.1962617 L69.3575278,90.3622214 Z" id="Fill-22" fill="#FFFFFF"></path>
                        <path d="M78.7211642,91 L73.0309205,91 L73.0309205,90.8613242 L78.5869472,90.8613242 L78.5869472,89.927813 L78.7211642,89.927813 L78.7211642,91 Z M78.7211642,85.6107552 L74.3639107,85.6107552 L74.3639107,86.9049672 L76.7439325,86.9049672 L76.7439325,87.6538167 L73.7466517,87.6538167 L73.7466517,89.5951347 L74.2298328,89.5951347 L74.2298328,88.1621032 L77.235876,88.1621032 L77.235876,87.2376455 L77.370232,87.2376455 L77.370232,88.3009227 L74.3639107,88.3009227 L74.3639107,89.5951347 L78.1039052,89.5951347 L78.1039052,90.3622349 L72.7624865,90.3622349 L72.7624865,84.1962617 L78.1039052,84.1962617 L78.1039052,84.9729901 L73.7466517,84.9729901 L73.7466517,86.9049672 L74.2298328,86.9049672 L74.2298328,85.4719357 L78.5869472,85.4719357 L78.5869472,84.5384245 L78.7211642,84.5384245 L78.7211642,85.6107552 Z" id="Fill-24" fill="#FFFFFF"></path>
                        <path d="M86.3823212,91 L80.6995413,91 L80.6995413,90.8613242 L86.2443723,90.8613242 L86.2443723,89.927813 L86.3823212,89.927813 L86.3823212,91 Z M85.7387503,90.3622349 L80.4236436,90.3622349 L80.4236436,84.1962617 L81.4351735,84.1962617 L81.4351735,89.5951347 L81.9316466,89.5951347 L81.9316466,84.5384245 L82.0697384,84.5384245 L82.0697384,89.5951347 L85.7387503,89.5951347 L85.7387503,90.3622349 Z" id="Fill-26" fill="#FFFFFF"></path>
                        <path d="M91.7499649,85.6200961 C91.3231876,85.1855306 90.7986993,84.9728464 90.1673784,84.9728464 L88.2115001,84.9728464 L88.2115001,89.594991 L88.6916246,89.594991 L88.6916246,85.4719357 L89.9097642,85.4719357 C90.2384159,85.4719357 90.5052899,85.4999583 90.692005,85.5458003 C90.9230839,85.6015581 91.1540246,85.7216959 91.3855181,85.8879632 L91.3053591,85.989563 C91.074142,85.8326366 90.8608916,85.730893 90.6473647,85.6754227 C90.4694948,85.6291495 90.2207256,85.6107552 89.9097642,85.6107552 L88.8249925,85.6107552 L88.8249925,89.594991 L90.1673784,89.594991 C90.7807326,89.594991 91.3053591,89.3639125 91.7409815,88.8924147 C92.1855873,88.430114 92.3988378,87.8663572 92.3988378,87.2099104 C92.3988378,86.5811987 92.1855873,86.0543742 91.7499649,85.6200961 M92.9945017,89.9183285 C92.2920052,90.6395865 91.4565555,91 90.4607878,91 L87.5004349,91 L87.5004349,90.8613242 L90.4607878,90.8613242 C91.4208986,90.8613242 92.2300893,90.5194487 92.9054976,89.8167287 C93.5724753,89.1236369 93.9103868,88.2730439 93.9103868,87.2839187 C93.9103868,86.8124209 93.8213827,86.3686582 93.6523579,85.9619715 C93.4656428,85.5182089 93.1368529,85.0839307 92.6655736,84.6677595 L92.6033813,84.6122892 L92.6655736,84.5013485 L92.7454561,84.5661597 C92.8699789,84.6677595 93.003485,84.7878973 93.1278696,84.917376 C93.7412237,85.5458003 94.0434783,86.3318696 94.0434783,87.2839187 C94.0434783,88.3099762 93.6880148,89.188017 92.9945017,89.9183285 M92.5588792,89.4655124 C91.981182,90.0664889 91.2786855,90.3620912 90.4607878,90.3620912 L87.2335609,90.3620912 L87.2335609,84.1962617 L90.4607878,84.1962617 C91.2698404,84.1962617 91.9719222,84.5013485 92.5500341,85.102325 C93.1278696,85.7126424 93.421279,86.4334694 93.421279,87.2839187 C93.421279,88.134368 93.1278696,88.8646795 92.5588792,89.4655124" id="Fill-28" fill="#FFFFFF"></path>
                        <path d="M12.006265,73.5498011 L9.22266164,75.6485693 L9.22266164,49.6230635 L12.006265,47.608204 L12.006265,73.5498011 Z M18.0403163,48.9446011 C18.1824321,48.3783667 18.5142364,48.000927 19.0357293,47.859331 C19.6044937,47.7178847 19.9837201,47.6234874 20.2682528,47.5764385 C20.3629465,47.5764385 20.6473287,47.52909 20.8368667,47.52909 L20.8368667,45.9252336 L0.407114625,45.9252336 L0.407114625,47.52909 C1.82917616,47.7650834 2.63490062,47.9538782 2.87201124,48.2367706 C3.10897132,48.5199627 3.25123769,49.3218909 3.25123769,50.6428548 L3.25123769,73.2880356 C3.25123769,74.2787586 3.10897132,74.8920418 2.82458912,75.1753838 C2.4927848,75.4112274 1.73448245,75.6469211 0.407114625,75.8358657 L0.407114625,77.3925234 L20.8368667,77.3925234 L20.8368667,75.8358657 C19.5096494,75.6469211 18.7513471,75.4112274 18.4195427,75.1753838 C18.13501,74.8920418 17.9928942,74.2787586 17.9928942,73.2880356 L17.9928942,50.6428548 C17.9928942,49.6993306 17.9928942,49.1330962 18.0403163,48.9446011 Z" id="Fill-30" fill="#FFFFFF"></path>
                        <path d="M60.33642,73.5498011 L57.581946,75.6485693 L57.581946,49.6230635 L60.33642,47.608204 L60.33642,73.5498011 Z M42.8080439,70.779313 L34.8786149,50.4626008 L36.7149805,47.6921127 L44.143569,66.8335028 L42.8080439,70.779313 Z M65.7388537,48.9446011 C65.8794823,48.3783667 66.2079634,48.000927 66.7707759,47.859331 C67.2868115,47.7178847 67.7089953,47.6234874 67.9433267,47.5764385 C68.0373274,47.5764385 68.3187337,47.52909 68.5062882,47.52909 L68.5062882,45.9252336 L49.415951,45.9252336 L45.9450754,57.5779152 L41.0200938,45.9252336 L22.539346,45.9252336 L22.539346,47.52909 C24.0403779,47.8121323 25.0723001,48.2367706 25.6352616,48.8500539 C26.0572965,49.3218909 26.2919258,50.2183663 26.2919258,51.586379 L26.2919258,68.9005056 C26.2919258,72.4862573 25.119226,74.8920418 22.8676781,76.118908 L22.8676781,77.3925234 L32.2488296,77.3925234 L32.2488296,76.118908 C30.7008719,75.3166802 29.7628014,74.4205045 29.2938407,73.5241789 C28.6841023,72.3446612 28.4025471,70.5517105 28.3556212,68.2872224 L28.1680667,52.5299032 L37.8772524,77.3925234 L42.2395705,77.3925234 L50.4009474,50.3598125 L50.4009474,73.2880356 C50.4009474,74.2787586 50.2603187,74.8920418 49.9789125,75.1753838 C49.6505804,75.4112274 48.8999154,75.6469211 47.586736,75.8358657 L47.586736,77.3925234 L68.5062882,77.3925234 L68.5062882,75.8358657 C67.1929597,75.6469211 66.4424438,75.4112274 66.1141117,75.1753838 C65.8328544,74.8920418 65.6920768,74.2787586 65.6920768,73.2880356 L65.6920768,50.6428548 C65.6920768,49.6993306 65.7388537,49.1330962 65.7388537,48.9446011 Z" id="Fill-32" fill="#FFFFFF"></path>
                        <g id="Group-36" transform="translate(71.060007, 45.074766)">
                            <polygon id="Clip-35" points="0.0055338534 0.136886648 31.4240454 0.136886648 31.4240454 32.1711152 0.0055338534 32.1711152"></polygon>
                            <path d="M22.3025478,28.7585994 C22.3025478,28.7585994 24.1993643,27.4172629 24.1993643,24.0639964 C24.1993643,20.7107298 21.230658,19.0340966 14.3861939,15.8485532 C7.54172969,12.6628603 5.0678323,10.9024402 5.0678323,7.63311008 C5.0678323,4.36363033 9.85078889,2.60321029 9.85078889,2.60321029 C9.85078889,2.60321029 7.21190614,4.36363033 7.21190614,7.0463034 C7.21190614,9.72882685 9.85078889,11.3216733 15.9528925,14.17192 C22.0551433,17.0221666 26.0958865,18.5312263 26.0958865,22.890383 C26.0958865,27.2495397 22.3025478,28.7585994 22.3025478,28.7585994 M29.8022437,16.3895764 C28.6435196,14.6463626 26.9293496,13.1860788 24.7046228,12.1026858 C23.4534715,11.4902942 21.9708109,10.830623 20.2096915,10.0769908 L16.4100241,8.47531681 C13.8147057,7.39162462 12.5171937,6.21397154 12.5171937,4.94205833 C12.5171937,3.24612419 14.0002959,2.16258161 16.2709419,2.16258161 C18.1243413,2.16258161 20.4878559,3.43464444 23.2683229,6.02560091 C25.3997395,8.00401619 26.789973,9.37033914 27.438729,10.2182314 L27.7632542,10.5479922 L28.6435196,10.2653615 L28.3655023,1.22042922 L27.9949107,1.40894947 C26.8828417,1.97406136 25.9560684,2.25684174 25.2145909,2.25684174 C24.3343256,2.25684174 23.1756014,1.97406136 21.73886,1.45592992 C19.3757869,0.560907589 16.8268293,0.136886648 14.1390837,0.136886648 C11.4052719,0.136886648 9.0882651,0.466647465 7.23457139,1.07918866 C5.98342012,1.50305998 4.96392537,1.97406136 4.17608715,2.49234243 C1.39562017,4.37679682 0.0055338534,6.7322526 0.0055338534,9.60583983 C0.0055338534,12.0554061 0.885946381,13.986841 2.60055787,15.4945541 C3.71262693,16.4367065 5.93705938,17.7556001 9.22705297,19.4044042 C13.6759179,21.618769 16.5024512,23.173313 17.7075361,24.0681857 C18.9123267,24.9635073 19.5147219,25.9527897 19.5147219,27.0831631 C19.5147219,28.1195756 19.0976224,28.9677671 18.3099314,29.6272888 C17.5220932,30.2868104 16.5489592,30.6165712 15.2978079,30.6165712 C13.7686394,30.6165712 11.9613064,29.9099195 9.82974259,28.5435966 C7.74439235,27.1304428 5.79812434,25.2932681 3.99093854,23.0790529 L1.81286683,20.3936867 L1.62742387,20.1583356 L0.607929119,20.3465566 L1.21032438,31.0402929 C1.3494066,30.946332 1.53470239,30.8519223 1.71999817,30.8049419 C2.18360557,30.5223111 2.46162283,30.3807713 2.55419713,30.3807713 C2.87857514,30.2396803 3.24931388,30.0981405 3.6201998,30.0038804 C4.12987358,29.9099195 4.45425159,29.9099195 4.73226885,29.9099195 C5.47374634,29.9099195 7.00276769,30.2396803 9.27356089,30.946332 C12.0076671,31.7470942 14.7417734,32.1711152 17.4755853,32.1711152 C21.73886,32.1711152 25.1682302,31.2289628 27.6705327,29.2976776 C30.1729825,27.4129239 31.4241337,24.8692472 31.4241337,21.618769 C31.4241337,19.7814447 30.8680992,18.0383805 29.8022437,16.3895764" id="Fill-34" fill="#FFFFFF"></path>
                        </g>
                    </g>
                </g>
            </g>
        </g>
    </g>
</svg>