<svg xmlns="http://www.w3.org/2000/svg" viewBox="0 0 497.64 33.58"><title>payment-methods-borderless</title><path d="M27,21.94A5.52,5.52,0,0,0,28.3,18a5.48,5.48,0,0,0-3.63,1.88,5.17,5.17,0,0,0-1.3,3.79A4.57,4.57,0,0,0,27,21.94" transform="translate(-13.42 -15.52)" fill="#fff"/><path d="M28.28,23.94c-2-.12-3.74,1.15-4.71,1.15S21.13,24,19.53,24a6,6,0,0,0-5.07,3.08c-2.17,3.75-.57,9.3,1.54,12.36,1,1.51,2.26,3.17,3.89,3.11s2.14-1,4-1,2.41,1,4,1,2.75-1.51,3.77-3A13.41,13.41,0,0,0,33.41,36a5.49,5.49,0,0,1-3.29-5,5.59,5.59,0,0,1,2.66-4.68,5.79,5.79,0,0,0-4.5-2.45" transform="translate(-13.42 -15.52)" fill="#fff"/><path d="M40.92,31.69h4c3.06,0,4.81-1.65,4.81-4.51S48,22.69,45,22.69H40.92Zm5-12a7.11,7.11,0,0,1,7.46,7.44,7.19,7.19,0,0,1-7.57,7.48H40.92v7.74H37.4V19.73Z" transform="translate(-13.42 -15.52)" fill="#fff"/><path d="M64.94,36.2V34.9l-4.07.25c-2,.14-3.17,1-3.17,2.45s1.19,2.39,3,2.39a4,4,0,0,0,4.22-3.78M54.27,37.69c0-2.89,2.21-4.66,6.14-4.88l4.52-.27V31.27c0-1.84-1.24-2.94-3.31-2.94s-3.19.94-3.49,2.42h-3.2c.19-3,2.73-5.18,6.82-5.18s6.56,2.12,6.56,5.43V42.39H65.06V39.67H65a5.9,5.9,0,0,1-5.21,3c-3.23,0-5.5-2-5.5-5" transform="translate(-13.42 -15.52)" fill="#fff"/><path d="M71.38,48.46V45.71a6.27,6.27,0,0,0,1.1.06c1.57,0,2.42-.66,2.94-2.36,0,0,.3-1,.3-1l-6-16.54h3.67L77.6,39.31h.06l4.18-13.44h3.58L79.23,43.25c-1.41,4-3,5.29-6.47,5.29a13.2,13.2,0,0,1-1.38-.08" transform="translate(-13.42 -15.52)" fill="#fff"/><path d="M133.39,21" transform="translate(-13.42 -15.52)" fill="#fff"/><polyline points="136.71 28.14 140.37 5.5 146.22 5.5 142.56 28.14 136.71 28.14" fill="#fff"/><path d="M177.18,21.57a14.48,14.48,0,0,0-5.24-1c-5.78,0-9.85,3.07-9.88,7.47,0,3.25,2.91,5.07,5.12,6.15s3,1.82,3,2.81c0,1.52-1.82,2.21-3.5,2.21a11.73,11.73,0,0,1-5.51-1.19l-.75-.36-.82,5.07A17.68,17.68,0,0,0,166.15,44c6.14,0,10.14-3,10.18-7.73,0-2.58-1.54-4.54-4.91-6.15-2-1.05-3.3-1.75-3.28-2.81s1.06-1.95,3.35-1.95a10.27,10.27,0,0,1,4.38.87l.53.26.79-4.91" transform="translate(-13.42 -15.52)" fill="#fff"/><path d="M192,21h-4.52a2.89,2.89,0,0,0-3.06,1.88l-8.68,20.75h6.14s1-2.79,1.23-3.4h7.49c.17.79.71,3.39.71,3.39h5.43L192,21m-7.21,14.59c.48-1.3,2.33-6.33,2.33-6.33s.48-1.31.78-2.16l.39,2s1.12,5.4,1.35,6.54Z" transform="translate(-13.42 -15.52)" fill="#fff"/><polyline points="126.09 20.95 123.05 5.52 111.27 5.52 117.93 10.45 122.61 28.12 128.79 28.12 138 5.52 131.81 5.52 126.08 20.95" fill="#fff"/><path d="M280.1,16a16.16,16.16,0,0,0-8.23,2.24,16.26,16.26,0,1,0-8.23,30.29,1.91,1.91,0,0,0,0-3.83,12.44,12.44,0,1,1,4.9-23.87,16.26,16.26,0,0,0,18.28,26.24,1.91,1.91,0,0,0-1.58-3.48A12.43,12.43,0,0,1,271.87,23a12.44,12.44,0,0,1,3,14.57,1.91,1.91,0,1,0,3.47,1.62,16.26,16.26,0,0,0-3.19-18.3,12.44,12.44,0,0,1,16.23,16.57A1.91,1.91,0,0,0,294.91,39,16.27,16.27,0,0,0,280.1,16Z" transform="translate(-13.42 -15.52)" fill="#fff"/><path d="M385.35,23.38a1.79,1.79,0,0,0-2,.77l-7.47,12-7.47-12a1.8,1.8,0,0,0-3.33,1v12.6h-.39l-3.26-13a1.8,1.8,0,0,0-1.75-1.36h-3.6a1.81,1.81,0,0,0-1.61,1l-7.2,14.4a1.8,1.8,0,0,0,3.23,1.61l1.36-2.72a1.78,1.78,0,0,0,.63.12h8.49l.56,2.24a1.8,1.8,0,0,0,1.75,1.36h3.6a1.8,1.8,0,0,0,1.8-1.8V31.38l5.67,9.08a1.87,1.87,0,0,0,3.05,0l5.67-9.08v8.13a1.8,1.8,0,1,0,3.6,0V25.11A1.79,1.79,0,0,0,385.35,23.38ZM353.57,34.11l3.6-7.2h1.08l1.8,7.2Z" transform="translate(-13.42 -15.52)" fill="#fff"/><path d="M412.6,32.31l5.93-5.93A1.8,1.8,0,1,0,416,23.84l-5.93,5.93-5.93-5.93a1.81,1.81,0,0,0-1.27-.53h-10.8a1.8,1.8,0,0,0-1.8,1.8v14.4a1.8,1.8,0,0,0,1.8,1.8h10.8a1.8,1.8,0,0,0,1.27-.53l5.93-5.93L416,40.78a1.81,1.81,0,0,0,1.27.53,1.78,1.78,0,0,0,1.27-.53,1.8,1.8,0,0,0,0-2.55Zm-10.49,5.4h-8.25v-3.6h3.6a1.8,1.8,0,0,0,0-3.6h-3.6v-3.6h8.25l5.4,5.4Z" transform="translate(-13.42 -15.52)" fill="#fff"/><path d="M509.35,23a8.36,8.36,0,0,0-2.79-2.1,7,7,0,0,0-1.08-1.76c-1.92-2.28-5.52-3.53-10.13-3.53-1.33,0-6.61-.06-9.58-.12h-.06a3,3,0,0,0-3,2.38l-5.26,23.64a3,3,0,0,0,3,3.7h.94l0,.16a3,3,0,0,0,3,3.7h6.36a3,3,0,0,0,3-2.44l1-5.25,5.55-.06h.1a11.79,11.79,0,0,0,4.94-1.95,12.21,12.21,0,0,0,3.35-3.4,15.13,15.13,0,0,0,2.21-5.83C511.37,27.22,510.86,24.83,509.35,23Zm-23.76-4.51a.14.14,0,0,1,.12-.1c3,.07,8.29.12,9.64.12,3.68,0,6.56.91,7.9,2.5.93,1.1,1.22,2.7.87,4.75a10.53,10.53,0,0,1-4.33,7.32,9.3,9.3,0,0,1-3.54,1.45l-5.91.07a2.18,2.18,0,0,0-2.24,1.72l-1.17,5.86a.13.13,0,0,1-.12.1h-6.36a.12.12,0,0,1-.12-.15ZM484.21,46l.18-.8h2.44a3,3,0,0,0,3-2.44l1-5.25,5.55-.06h.1a11.78,11.78,0,0,0,4.94-1.95,12.2,12.2,0,0,0,3.35-3.4A15.16,15.16,0,0,0,507,26.29a13.26,13.26,0,0,0,.16-1.34,5.69,5.69,0,0,1,.84,4.71A10.53,10.53,0,0,1,503.67,37a9.3,9.3,0,0,1-3.54,1.45l-5.91.07A2.18,2.18,0,0,0,492,40.22l-1.17,5.86a.13.13,0,0,1-.12.1h-6.36a.11.11,0,0,1-.1,0A.11.11,0,0,1,484.21,46Z" transform="translate(-13.42 -15.52)" fill="#fff"/></svg>