<?xml version="1.0" encoding="UTF-8"?>
<svg width="44px" height="44px" viewBox="0 0 44 44" version="1.1" xmlns="http://www.w3.org/2000/svg" xmlns:xlink="http://www.w3.org/1999/xlink">
    <!-- Generator: Sketch 51.3 (57544) - http://www.bohemiancoding.com/sketch -->
    <title>Twitter Icons</title>
    <desc>Created with Sketch.</desc>
    <defs></defs>
    <g id="Symbols" stroke="none" stroke-width="1" fill="none" fill-rule="evenodd">
        <g id="Main-Footer" transform="translate(-109.000000, -306.000000)">
            <g id="Twitter-Icons" transform="translate(111.000000, 308.000000)">
                <g id="Group-5">
                    <path d="M32.9235616,12.193589 C31.9712329,12.6160548 30.9482192,12.9015342 29.8742466,13.0292055 C30.970137,12.3722192 31.8123288,11.3322192 32.2084932,10.0922192 C31.1827397,10.7004384 30.0463014,11.1426301 28.8369863,11.3804384 C27.8682192,10.3486575 26.4884932,9.70427397 24.9613699,9.70427397 C22.0293151,9.70427397 19.6517808,12.0807123 19.6517808,15.0133151 C19.6517808,15.4292055 19.6989041,15.8346849 19.789863,16.2231781 C15.3772603,16.0018082 11.4643836,13.8878356 8.84630137,10.6757808 C8.38931507,11.4598904 8.12739726,12.3716712 8.12739726,13.3448219 C8.12739726,15.1870137 9.06438356,16.8122192 10.4890411,17.7645479 C9.61890411,17.7366027 8.80027397,17.4976986 8.08410959,17.1004384 C8.08356164,17.1223562 8.08356164,17.144274 8.08356164,17.1667397 C8.08356164,19.7393425 9.91369863,21.8850959 12.3427397,22.3733151 C11.8972603,22.494411 11.4282192,22.5590685 10.9443836,22.5590685 C10.6019178,22.5590685 10.2693151,22.5256438 9.94493151,22.464274 C10.6205479,24.5733151 12.5816438,26.1086575 14.9049315,26.1513973 C13.0879452,27.5749589 10.7986301,28.424274 8.3109589,28.424274 C7.88246575,28.424274 7.46,28.3990685 7.04465753,28.3497534 C9.39424658,29.8560548 12.1849315,30.7349589 15.1832877,30.7349589 C24.9493151,30.7349589 30.289589,22.6450959 30.289589,15.6286575 C30.289589,15.3985205 30.2841096,15.1700274 30.2742466,14.9420822 C31.3115068,14.1930411 32.2117808,13.2582466 32.9235616,12.193589" id="Fill-1" fill="#D49B28"></path>
                    <path d="M39.830137,19.9838904 C39.830137,30.9444384 30.9446575,39.8299178 19.9841096,39.8299178 C9.0230137,39.8299178 0.138082192,30.9444384 0.138082192,19.9838904 C0.138082192,9.02334247 9.0230137,0.137863014 19.9841096,0.137863014 C30.9446575,0.137863014 39.830137,9.02334247 39.830137,19.9838904 Z" id="Stroke-3" stroke="#D49B28" stroke-width="2.503" stroke-linecap="round" stroke-linejoin="round"></path>
                </g>
            </g>
        </g>
    </g>
</svg>